<svg xmlns="http://www.w3.org/2000/svg" xmlns:xlink="http://www.w3.org/1999/xlink" width="488" zoomAndPan="magnify" viewBox="0 0 366 92.999996" height="124" preserveAspectRatio="xMidYMid meet" version="1.0"><defs><g/><clipPath id="b940cff815"><path d="M 3 0 L 237 0 L 237 93 L 3 93 Z M 3 0 " clip-rule="nonzero"/></clipPath><clipPath id="f887e3e6b0"><path d="M 2.917969 17.417969 L 231.070312 0.886719 L 236.492188 75.6875 L 8.339844 92.222656 Z M 2.917969 17.417969 " clip-rule="nonzero"/></clipPath><clipPath id="0a109c7243"><path d="M 3 14 L 230 14 L 230 79 L 3 79 Z M 3 14 " clip-rule="nonzero"/></clipPath><clipPath id="3a8dbafcfb"><path d="M -0.0820312 17.417969 L 228.070312 0.886719 L 233.492188 75.6875 L 5.339844 92.222656 Z M -0.0820312 17.417969 " clip-rule="nonzero"/></clipPath><clipPath id="594c7a6710"><path d="M 5.351562 92.382812 L 233.503906 75.851562 L 228.082031 1.046875 L -0.0703125 17.582031 Z M 5.351562 92.382812 " clip-rule="nonzero"/></clipPath><clipPath id="03c7b1a7c9"><rect x="0" width="234" y="0" height="93"/></clipPath><clipPath id="5bbbc3fdb5"><path d="M 132 0 L 366 0 L 366 92 L 132 92 Z M 132 0 " clip-rule="nonzero"/></clipPath><clipPath id="b97ffc3788"><path d="M 132.230469 16.527344 L 360.382812 -0.00390625 L 365.804688 74.800781 L 137.652344 91.332031 Z M 132.230469 16.527344 " clip-rule="nonzero"/></clipPath><clipPath id="a489e9a6ff"><path d="M 3 13 L 231 13 L 231 78 L 3 78 Z M 3 13 " clip-rule="nonzero"/></clipPath><clipPath id="30d8e56299"><path d="M 0.230469 16.527344 L 228.382812 -0.00390625 L 233.804688 74.800781 L 5.652344 91.332031 Z M 0.230469 16.527344 " clip-rule="nonzero"/></clipPath><clipPath id="a2c1e69d1d"><path d="M 5.671875 91.589844 L 233.820312 75.054688 L 228.402344 0.253906 L 0.25 16.785156 Z M 5.671875 91.589844 " clip-rule="nonzero"/></clipPath><clipPath id="d81dec2333"><rect x="0" width="234" y="0" height="92"/></clipPath><clipPath id="736bb6d587"><rect x="0" width="326" y="0" height="73"/></clipPath></defs><g clip-path="url(#b940cff815)"><g clip-path="url(#f887e3e6b0)"><g transform="matrix(1, 0, 0, 1, 3, 0.00000000000000111)"><g clip-path="url(#03c7b1a7c9)"><g clip-path="url(#0a109c7243)"><g clip-path="url(#3a8dbafcfb)"><g clip-path="url(#594c7a6710)"><path fill="#ff5757" d="M 7.078125 36.199219 C 6.582031 36.894531 5.871094 37.09375 5.308594 37.492188 C 2.953125 39.160156 2.640625 41.71875 4.554688 43.875 C 5.210938 44.613281 5.902344 45.320312 6.574219 46.046875 C 7.429688 46.96875 7.40625 47.1875 6.445312 48.09375 C 5.882812 48.628906 5.320312 49.171875 4.804688 49.75 C 2.523438 52.316406 3.394531 53.964844 4.921875 55.71875 C 5.570312 56.464844 6.230469 57.210938 6.972656 57.859375 C 7.691406 58.492188 7.578125 58.988281 7.015625 59.636719 C 6.132812 60.644531 5.152344 61.570312 4.640625 62.875 C 3.792969 65.058594 4.113281 66.179688 6.097656 67.550781 C 7.710938 68.664062 7.84375 69.085938 7.121094 70.90625 C 6.753906 71.824219 6.292969 72.71875 5.992188 73.65625 C 5.269531 75.925781 6.039062 77.125 8.332031 77.6875 C 10.28125 78.167969 12.289062 78.164062 14.222656 78.132812 C 17.117188 78.085938 20.015625 78.160156 22.90625 78.117188 C 44.519531 77.804688 66.140625 77.480469 87.761719 77.363281 C 110.136719 77.242188 132.511719 77.410156 154.886719 77.355469 C 176.625 77.308594 199.109375 78.335938 220.75 76.101562 C 222.589844 75.914062 224.382812 75.574219 226.171875 75.183594 C 228.644531 74.644531 229.28125 73.375 228.410156 70.945312 C 228.050781 69.949219 227.550781 69.007812 227.074219 68.0625 C 226.726562 67.371094 226.722656 66.808594 227.167969 66.105469 C 227.628906 65.382812 228.175781 64.738281 228.636719 64.03125 C 229.992188 61.933594 229.90625 60.828125 228.394531 58.835938 C 227.921875 58.210938 227.394531 57.652344 226.804688 57.136719 C 226.144531 56.5625 226.117188 55.949219 226.695312 55.296875 C 227.261719 54.65625 227.847656 54.042969 228.375 53.375 C 229.519531 51.910156 229.585938 50.878906 228.632812 49.285156 C 228.234375 48.625 227.714844 48.03125 227.300781 47.375 C 226.554688 46.171875 226.621094 45.796875 227.636719 44.832031 C 227.945312 44.539062 228.273438 44.265625 228.542969 43.941406 C 230.46875 41.621094 230.320312 39.90625 228.035156 37.921875 C 227.875 37.78125 227.707031 37.648438 227.542969 37.511719 C 225.804688 36.019531 225.726562 35.972656 226.90625 34.070312 C 228.769531 31.0625 229.386719 28.742188 224.4375 26.085938 C 224.195312 25.957031 223.96875 25.800781 223.664062 25.617188 C 224.050781 24.5625 224.566406 23.652344 225.308594 22.902344 C 226.414062 21.78125 227.152344 20.398438 228.101562 19.167969 C 228.914062 18.113281 228.707031 16.785156 227.675781 15.96875 C 226.769531 15.246094 225.6875 14.851562 224.535156 14.832031 C 155.449219 13.964844 85.441406 14.109375 16.183594 16.449219 C 14.054688 16.519531 11.933594 16.523438 9.8125 16.699219 C 9.246094 16.746094 8.679688 16.769531 8.117188 16.835938 C 5.199219 17.183594 4.183594 19.550781 5.96875 21.898438 C 6.394531 22.457031 7 22.867188 7.488281 23.378906 C 8.351562 24.273438 8.335938 24.710938 7.335938 25.410156 C 6.636719 25.898438 6.007812 26.460938 5.335938 26.972656 C 2.523438 29.101562 3.101562 32.257812 5.074219 34.351562 C 5.691406 35.015625 6.40625 35.585938 7.078125 36.199219 Z M 7.078125 36.199219 " fill-opacity="1" fill-rule="nonzero"/></g></g></g></g></g></g></g><g clip-path="url(#5bbbc3fdb5)"><g clip-path="url(#b97ffc3788)"><g transform="matrix(1, 0, 0, 1, 132, 0.000000000000001118)"><g clip-path="url(#d81dec2333)"><g clip-path="url(#a489e9a6ff)"><g clip-path="url(#30d8e56299)"><g clip-path="url(#a2c1e69d1d)"><path fill="#ff5757" d="M 7.398438 35.332031 C 6.902344 36.03125 6.191406 36.226562 5.625 36.628906 C 3.265625 38.296875 2.953125 40.859375 4.871094 43.019531 C 5.527344 43.757812 6.222656 44.464844 6.894531 45.191406 C 7.75 46.113281 7.726562 46.335938 6.765625 47.246094 C 6.203125 47.777344 5.640625 48.320312 5.121094 48.902344 C 2.835938 51.46875 3.710938 53.121094 5.238281 54.878906 C 5.890625 55.625 6.550781 56.371094 7.289062 57.019531 C 8.011719 57.65625 7.898438 58.152344 7.332031 58.800781 C 6.453125 59.808594 5.472656 60.738281 4.957031 62.042969 C 4.109375 64.230469 4.425781 65.351562 6.414062 66.722656 C 8.027344 67.835938 8.164062 68.261719 7.4375 70.082031 C 7.074219 71.003906 6.613281 71.898438 6.3125 72.839844 C 5.585938 75.109375 6.359375 76.3125 8.652344 76.875 C 10.601562 77.355469 12.613281 77.347656 14.550781 77.320312 C 17.449219 77.273438 20.351562 77.34375 23.246094 77.304688 C 44.886719 76.992188 66.53125 76.667969 88.179688 76.550781 C 110.585938 76.425781 132.988281 76.597656 155.390625 76.542969 C 177.15625 76.492188 199.667969 77.523438 221.335938 75.285156 C 223.179688 75.097656 224.972656 74.757812 226.765625 74.367188 C 229.242188 73.828125 229.878906 72.554688 229.003906 70.121094 C 228.644531 69.125 228.148438 68.183594 227.667969 67.234375 C 227.320312 66.542969 227.316406 65.980469 227.761719 65.277344 C 228.222656 64.554688 228.773438 63.90625 229.230469 63.199219 C 230.589844 61.097656 230.503906 59.992188 228.992188 57.996094 C 228.515625 57.371094 227.988281 56.8125 227.398438 56.296875 C 226.738281 55.71875 226.710938 55.105469 227.289062 54.453125 C 227.855469 53.816406 228.441406 53.199219 228.96875 52.53125 C 230.117188 51.0625 230.183594 50.03125 229.230469 48.4375 C 228.832031 47.773438 228.308594 47.179688 227.894531 46.523438 C 227.148438 45.316406 227.214844 44.941406 228.230469 43.976562 C 228.539062 43.683594 228.871094 43.410156 229.136719 43.082031 C 231.070312 40.761719 230.917969 39.042969 228.628906 37.058594 C 228.46875 36.917969 228.304688 36.785156 228.136719 36.644531 C 226.398438 35.152344 226.320312 35.109375 227.5 33.203125 C 229.367188 30.1875 229.984375 27.867188 225.027344 25.207031 C 224.785156 25.078125 224.558594 24.921875 224.253906 24.738281 C 224.640625 23.683594 225.15625 22.769531 225.902344 22.019531 C 227.007812 20.898438 227.746094 19.511719 228.695312 18.28125 C 229.507812 17.226562 229.304688 15.894531 228.273438 15.074219 C 227.363281 14.351562 226.28125 13.957031 225.125 13.941406 C 155.953125 13.070312 85.859375 13.214844 16.511719 15.558594 C 14.382812 15.628906 12.257812 15.632812 10.136719 15.808594 C 9.566406 15.855469 9 15.878906 8.4375 15.945312 C 5.515625 16.296875 4.496094 18.664062 6.289062 21.015625 C 6.710938 21.574219 7.320312 21.984375 7.808594 22.496094 C 8.671875 23.394531 8.660156 23.832031 7.65625 24.53125 C 6.957031 25.019531 6.328125 25.582031 5.652344 26.09375 C 2.835938 28.226562 3.417969 31.386719 5.390625 33.484375 C 6.007812 34.148438 6.722656 34.71875 7.398438 35.332031 Z M 7.398438 35.332031 " fill-opacity="1" fill-rule="nonzero"/></g></g></g></g></g></g></g><g transform="matrix(1, 0, 0, 1, 17, 6)"><g clip-path="url(#736bb6d587)"><g fill="#000000" fill-opacity="0.4"><g transform="translate(4.175456, 56.898759)"><g><path d="M 13.96875 0.046875 C 13.144531 0.179688 12.765625 -0.144531 12.828125 -0.9375 C 12.828125 -1.5 12.832031 -2.21875 12.84375 -3.09375 C 12.863281 -3.976562 12.859375 -4.941406 12.828125 -5.984375 L 8.828125 -5.984375 C 8.804688 -4.941406 8.800781 -3.988281 8.8125 -3.125 C 8.820312 -2.257812 8.828125 -1.546875 8.828125 -0.984375 C 8.828125 -0.160156 8.445312 0.164062 7.6875 0 C 5.507812 -0.425781 3.34375 -0.441406 1.1875 -0.046875 C 0.28125 0.128906 -0.0390625 -0.222656 0.21875 -1.109375 C 0.46875 -1.953125 0.789062 -3.101562 1.1875 -4.5625 C 1.582031 -6.019531 1.992188 -7.671875 2.421875 -9.515625 C 2.847656 -11.359375 3.203125 -13.269531 3.484375 -15.25 C 3.816406 -17.507812 4.101562 -19.769531 4.34375 -22.03125 C 4.59375 -24.300781 4.726562 -26.570312 4.75 -28.84375 C 4.75 -29.632812 5.148438 -29.957031 5.953125 -29.8125 C 7.554688 -29.5625 9.164062 -29.441406 10.78125 -29.453125 C 12.394531 -29.460938 14.023438 -29.582031 15.671875 -29.8125 C 16.492188 -29.957031 16.90625 -29.632812 16.90625 -28.84375 C 16.957031 -26.570312 17.097656 -24.300781 17.328125 -22.03125 C 17.554688 -19.769531 17.835938 -17.507812 18.171875 -15.25 C 18.484375 -13.289062 18.84375 -11.390625 19.25 -9.546875 C 19.664062 -7.710938 20.070312 -6.066406 20.46875 -4.609375 C 20.863281 -3.148438 21.191406 -1.992188 21.453125 -1.140625 C 21.734375 -0.234375 21.378906 0.128906 20.390625 -0.046875 C 19.304688 -0.242188 18.234375 -0.332031 17.171875 -0.3125 C 16.117188 -0.300781 15.050781 -0.179688 13.96875 0.046875 Z M 9.046875 -10.703125 L 12.609375 -10.703125 C 12.585938 -11.265625 12.546875 -11.828125 12.484375 -12.390625 C 12.429688 -12.960938 12.375 -13.53125 12.3125 -14.09375 C 12.082031 -16.050781 11.832031 -17.863281 11.5625 -19.53125 C 11.300781 -21.207031 11.054688 -22.804688 10.828125 -24.328125 C 10.578125 -22.710938 10.316406 -21 10.046875 -19.1875 C 9.773438 -17.382812 9.539062 -15.6875 9.34375 -14.09375 C 9.289062 -13.582031 9.238281 -13.007812 9.1875 -12.375 C 9.144531 -11.738281 9.097656 -11.179688 9.046875 -10.703125 Z M 9.046875 -10.703125 "/></g></g></g><g fill="#000000" fill-opacity="0.4"><g transform="translate(27.112721, 56.898759)"><g><path d="M 10.875 0.640625 C 7.644531 0.640625 5.125 -0.625 3.3125 -3.15625 C 1.5 -5.695312 0.59375 -9.613281 0.59375 -14.90625 C 0.59375 -19.75 1.5 -23.535156 3.3125 -26.265625 C 5.125 -28.992188 7.644531 -30.359375 10.875 -30.359375 C 11.75 -30.359375 12.484375 -30.316406 13.078125 -30.234375 C 13.671875 -30.148438 14.226562 -30.066406 14.75 -29.984375 C 15.28125 -29.898438 15.859375 -29.867188 16.484375 -29.890625 C 17.273438 -29.953125 17.628906 -29.601562 17.546875 -28.84375 C 17.429688 -27.789062 17.34375 -26.660156 17.28125 -25.453125 C 17.226562 -24.253906 17.21875 -23.101562 17.25 -22 C 17.269531 -21.519531 17.164062 -21.25 16.9375 -21.1875 C 16.71875 -21.132812 16.453125 -21.304688 16.140625 -21.703125 C 14.691406 -23.515625 13.273438 -24.421875 11.890625 -24.421875 C 10.585938 -24.421875 9.519531 -23.539062 8.6875 -21.78125 C 7.851562 -20.03125 7.4375 -17.679688 7.4375 -14.734375 C 7.4375 -12.984375 7.625 -11.390625 8 -9.953125 C 8.382812 -8.523438 8.914062 -7.394531 9.59375 -6.5625 C 10.28125 -5.726562 11.046875 -5.3125 11.890625 -5.3125 C 12.628906 -5.3125 13.34375 -5.519531 14.03125 -5.9375 C 14.726562 -6.363281 15.488281 -7.128906 16.3125 -8.234375 C 16.625 -8.628906 16.863281 -8.804688 17.03125 -8.765625 C 17.195312 -8.722656 17.269531 -8.460938 17.25 -7.984375 C 17.21875 -6.847656 17.234375 -5.65625 17.296875 -4.40625 C 17.367188 -3.164062 17.453125 -1.992188 17.546875 -0.890625 C 17.628906 -0.128906 17.257812 0.222656 16.4375 0.171875 C 15.84375 0.140625 15.28125 0.164062 14.75 0.25 C 14.226562 0.332031 13.671875 0.414062 13.078125 0.5 C 12.484375 0.59375 11.75 0.640625 10.875 0.640625 Z M 10.875 0.640625 "/></g></g></g><g fill="#000000" fill-opacity="0.4"><g transform="translate(46.609399, 56.898759)"><g><path d="M 10.875 0.640625 C 7.644531 0.640625 5.125 -0.625 3.3125 -3.15625 C 1.5 -5.695312 0.59375 -9.613281 0.59375 -14.90625 C 0.59375 -19.75 1.5 -23.535156 3.3125 -26.265625 C 5.125 -28.992188 7.644531 -30.359375 10.875 -30.359375 C 11.75 -30.359375 12.484375 -30.316406 13.078125 -30.234375 C 13.671875 -30.148438 14.226562 -30.066406 14.75 -29.984375 C 15.28125 -29.898438 15.859375 -29.867188 16.484375 -29.890625 C 17.273438 -29.953125 17.628906 -29.601562 17.546875 -28.84375 C 17.429688 -27.789062 17.34375 -26.660156 17.28125 -25.453125 C 17.226562 -24.253906 17.21875 -23.101562 17.25 -22 C 17.269531 -21.519531 17.164062 -21.25 16.9375 -21.1875 C 16.71875 -21.132812 16.453125 -21.304688 16.140625 -21.703125 C 14.691406 -23.515625 13.273438 -24.421875 11.890625 -24.421875 C 10.585938 -24.421875 9.519531 -23.539062 8.6875 -21.78125 C 7.851562 -20.03125 7.4375 -17.679688 7.4375 -14.734375 C 7.4375 -12.984375 7.625 -11.390625 8 -9.953125 C 8.382812 -8.523438 8.914062 -7.394531 9.59375 -6.5625 C 10.28125 -5.726562 11.046875 -5.3125 11.890625 -5.3125 C 12.628906 -5.3125 13.34375 -5.519531 14.03125 -5.9375 C 14.726562 -6.363281 15.488281 -7.128906 16.3125 -8.234375 C 16.625 -8.628906 16.863281 -8.804688 17.03125 -8.765625 C 17.195312 -8.722656 17.269531 -8.460938 17.25 -7.984375 C 17.21875 -6.847656 17.234375 -5.65625 17.296875 -4.40625 C 17.367188 -3.164062 17.453125 -1.992188 17.546875 -0.890625 C 17.628906 -0.128906 17.257812 0.222656 16.4375 0.171875 C 15.84375 0.140625 15.28125 0.164062 14.75 0.25 C 14.226562 0.332031 13.671875 0.414062 13.078125 0.5 C 12.484375 0.59375 11.75 0.640625 10.875 0.640625 Z M 10.875 0.640625 "/></g></g></g><g fill="#000000" fill-opacity="0.4"><g transform="translate(66.106077, 56.898759)"><g><path d="M 10.875 0.640625 C 7.613281 0.640625 5.078125 -0.625 3.265625 -3.15625 C 1.453125 -5.695312 0.546875 -9.613281 0.546875 -14.90625 C 0.546875 -19.75 1.453125 -23.535156 3.265625 -26.265625 C 5.078125 -28.992188 7.613281 -30.359375 10.875 -30.359375 C 14.125 -30.359375 16.648438 -28.992188 18.453125 -26.265625 C 20.253906 -23.535156 21.15625 -19.75 21.15625 -14.90625 C 21.15625 -9.613281 20.253906 -5.695312 18.453125 -3.15625 C 16.648438 -0.625 14.125 0.640625 10.875 0.640625 Z M 10.828125 -5.3125 C 11.535156 -5.3125 12.144531 -5.726562 12.65625 -6.5625 C 13.164062 -7.394531 13.5625 -8.523438 13.84375 -9.953125 C 14.125 -11.390625 14.265625 -12.984375 14.265625 -14.734375 C 14.265625 -17.679688 13.953125 -20.03125 13.328125 -21.78125 C 12.710938 -23.539062 11.878906 -24.421875 10.828125 -24.421875 C 9.785156 -24.421875 8.953125 -23.539062 8.328125 -21.78125 C 7.703125 -20.03125 7.390625 -17.679688 7.390625 -14.734375 C 7.390625 -12.984375 7.53125 -11.390625 7.8125 -9.953125 C 8.09375 -8.523438 8.492188 -7.394531 9.015625 -6.5625 C 9.546875 -5.726562 10.148438 -5.3125 10.828125 -5.3125 Z M 10.828125 -5.3125 "/></g></g></g><g fill="#000000" fill-opacity="0.4"><g transform="translate(89.085818, 56.898759)"><g><path d="M 15.28125 0.296875 L 13.328125 0.296875 C 12.679688 0.296875 12.285156 -0.0390625 12.140625 -0.71875 C 11.941406 -2 11.703125 -3.351562 11.421875 -4.78125 C 11.140625 -6.207031 10.863281 -7.570312 10.59375 -8.875 C 10.320312 -10.175781 10.085938 -11.265625 9.890625 -12.140625 C 9.609375 -13.554688 9.316406 -14.796875 9.015625 -15.859375 C 8.722656 -16.921875 8.421875 -17.890625 8.109375 -18.765625 L 8.109375 -18.640625 C 8.054688 -18.015625 8.007812 -17.390625 7.96875 -16.765625 C 7.925781 -16.148438 7.90625 -15.515625 7.90625 -14.859375 C 7.90625 -12.878906 7.976562 -10.984375 8.125 -9.171875 C 8.28125 -7.359375 8.460938 -5.742188 8.671875 -4.328125 C 8.890625 -2.910156 9.070312 -1.804688 9.21875 -1.015625 C 9.269531 -0.648438 9.210938 -0.351562 9.046875 -0.125 C 8.878906 0.101562 8.582031 0.1875 8.15625 0.125 C 7.613281 0.0390625 7.144531 -0.0195312 6.75 -0.0625 C 6.351562 -0.101562 5.71875 -0.125 4.84375 -0.125 C 4.132812 -0.125 3.53125 -0.101562 3.03125 -0.0625 C 2.539062 -0.0195312 2.082031 0.0234375 1.65625 0.078125 C 0.800781 0.222656 0.460938 -0.15625 0.640625 -1.0625 C 0.773438 -1.851562 0.941406 -2.945312 1.140625 -4.34375 C 1.335938 -5.75 1.515625 -7.359375 1.671875 -9.171875 C 1.828125 -10.984375 1.90625 -12.878906 1.90625 -14.859375 C 1.90625 -16.847656 1.828125 -18.742188 1.671875 -20.546875 C 1.515625 -22.359375 1.335938 -23.972656 1.140625 -25.390625 C 0.941406 -26.804688 0.773438 -27.910156 0.640625 -28.703125 C 0.492188 -29.585938 0.832031 -29.957031 1.65625 -29.8125 C 2.082031 -29.757812 2.539062 -29.707031 3.03125 -29.65625 C 3.53125 -29.613281 4.132812 -29.59375 4.84375 -29.59375 C 5.664062 -29.59375 6.476562 -29.617188 7.28125 -29.671875 C 8.09375 -29.734375 8.851562 -29.804688 9.5625 -29.890625 C 10.238281 -29.984375 10.617188 -29.675781 10.703125 -28.96875 C 10.929688 -27.238281 11.390625 -24.878906 12.078125 -21.890625 C 12.773438 -18.898438 13.519531 -15.46875 14.3125 -11.59375 C 15.101562 -15.25 15.859375 -18.597656 16.578125 -21.640625 C 17.304688 -24.679688 17.769531 -27.125 17.96875 -28.96875 C 18.050781 -29.644531 18.429688 -29.941406 19.109375 -29.859375 C 19.734375 -29.796875 20.410156 -29.734375 21.140625 -29.671875 C 21.878906 -29.617188 22.703125 -29.59375 23.609375 -29.59375 C 24.234375 -29.59375 24.707031 -29.597656 25.03125 -29.609375 C 25.363281 -29.628906 25.660156 -29.660156 25.921875 -29.703125 C 26.191406 -29.742188 26.523438 -29.796875 26.921875 -29.859375 C 27.316406 -29.910156 27.613281 -29.835938 27.8125 -29.640625 C 28.007812 -29.441406 28.066406 -29.117188 27.984375 -28.671875 C 27.847656 -27.898438 27.679688 -26.804688 27.484375 -25.390625 C 27.285156 -23.972656 27.109375 -22.363281 26.953125 -20.5625 C 26.796875 -18.769531 26.71875 -16.867188 26.71875 -14.859375 C 26.71875 -12.878906 26.796875 -10.984375 26.953125 -9.171875 C 27.109375 -7.359375 27.285156 -5.75 27.484375 -4.34375 C 27.679688 -2.945312 27.847656 -1.851562 27.984375 -1.0625 C 28.066406 -0.601562 28.007812 -0.273438 27.8125 -0.078125 C 27.613281 0.117188 27.316406 0.1875 26.921875 0.125 C 26.523438 0.0703125 26.191406 0.0234375 25.921875 -0.015625 C 25.660156 -0.0546875 25.363281 -0.0820312 25.03125 -0.09375 C 24.707031 -0.113281 24.234375 -0.125 23.609375 -0.125 C 22.898438 -0.125 22.296875 -0.101562 21.796875 -0.0625 C 21.304688 -0.0195312 20.863281 0.0234375 20.46875 0.078125 C 19.59375 0.222656 19.238281 -0.140625 19.40625 -1.015625 C 19.570312 -1.835938 19.753906 -2.945312 19.953125 -4.34375 C 20.148438 -5.75 20.328125 -7.359375 20.484375 -9.171875 C 20.640625 -10.984375 20.71875 -12.878906 20.71875 -14.859375 C 20.71875 -15.515625 20.703125 -16.140625 20.671875 -16.734375 C 20.648438 -17.328125 20.613281 -17.921875 20.5625 -18.515625 L 20.515625 -18.9375 C 20.398438 -18.40625 20.175781 -17.550781 19.84375 -16.375 C 19.519531 -15.195312 19.191406 -13.785156 18.859375 -12.140625 C 18.515625 -10.554688 18.132812 -8.835938 17.71875 -6.984375 C 17.3125 -5.128906 16.898438 -3.023438 16.484375 -0.671875 C 16.335938 -0.0234375 15.9375 0.296875 15.28125 0.296875 Z M 15.28125 0.296875 "/></g></g></g><g fill="#000000" fill-opacity="0.4"><g transform="translate(118.989223, 56.898759)"><g><path d="M 8.234375 0.125 C 7.785156 0.0390625 7.304688 -0.0195312 6.796875 -0.0625 C 6.285156 -0.101562 5.660156 -0.125 4.921875 -0.125 C 4.210938 -0.125 3.609375 -0.101562 3.109375 -0.0625 C 2.617188 -0.0195312 2.160156 0.0234375 1.734375 0.078125 C 1.367188 0.140625 1.085938 0.0703125 0.890625 -0.125 C 0.691406 -0.320312 0.632812 -0.617188 0.71875 -1.015625 C 0.863281 -1.835938 1.035156 -2.945312 1.234375 -4.34375 C 1.429688 -5.75 1.609375 -7.359375 1.765625 -9.171875 C 1.921875 -10.984375 2 -12.878906 2 -14.859375 C 2 -16.847656 1.921875 -18.742188 1.765625 -20.546875 C 1.609375 -22.359375 1.429688 -23.976562 1.234375 -25.40625 C 1.035156 -26.84375 0.863281 -27.957031 0.71875 -28.75 C 0.550781 -29.570312 0.890625 -29.941406 1.734375 -29.859375 C 2.703125 -29.742188 3.546875 -29.695312 4.265625 -29.71875 C 4.984375 -29.75 5.734375 -29.804688 6.515625 -29.890625 C 7.296875 -29.984375 8.222656 -30.03125 9.296875 -30.03125 C 11.734375 -30.03125 13.671875 -29.578125 15.109375 -28.671875 C 16.554688 -27.765625 17.59375 -26.445312 18.21875 -24.71875 C 18.84375 -22.988281 19.15625 -20.894531 19.15625 -18.4375 C 19.15625 -16.28125 18.765625 -14.320312 17.984375 -12.5625 C 17.203125 -10.8125 16.066406 -9.410156 14.578125 -8.359375 C 13.097656 -7.316406 11.28125 -6.78125 9.125 -6.75 L 8.453125 -6.75 C 8.585938 -5.507812 8.734375 -4.390625 8.890625 -3.390625 C 9.046875 -2.398438 9.179688 -1.609375 9.296875 -1.015625 C 9.441406 -0.171875 9.085938 0.207031 8.234375 0.125 Z M 8.0625 -11.96875 L 9.125 -11.96875 C 10.375 -12 11.363281 -12.546875 12.09375 -13.609375 C 12.832031 -14.671875 13.203125 -16.148438 13.203125 -18.046875 C 13.203125 -20.253906 12.96875 -21.945312 12.5 -23.125 C 12.039062 -24.300781 11.359375 -24.890625 10.453125 -24.890625 C 9.765625 -24.890625 9.257812 -24.515625 8.9375 -23.765625 C 8.613281 -23.015625 8.394531 -22.171875 8.28125 -21.234375 C 8.195312 -20.242188 8.125 -19.207031 8.0625 -18.125 C 8.007812 -17.050781 7.984375 -15.960938 7.984375 -14.859375 C 7.984375 -14.378906 7.988281 -13.898438 8 -13.421875 C 8.019531 -12.941406 8.039062 -12.457031 8.0625 -11.96875 Z M 8.0625 -11.96875 "/></g></g></g><g fill="#000000" fill-opacity="0.4"><g transform="translate(139.675236, 56.898759)"><g><path d="M 1.78125 0.125 C 0.9375 0.207031 0.582031 -0.160156 0.71875 -0.984375 C 1.03125 -2.617188 1.328125 -4.582031 1.609375 -6.875 C 1.890625 -9.164062 2.03125 -11.828125 2.03125 -14.859375 C 2.03125 -16.847656 1.953125 -18.742188 1.796875 -20.546875 C 1.648438 -22.359375 1.46875 -23.972656 1.25 -25.390625 C 1.039062 -26.804688 0.863281 -27.910156 0.71875 -28.703125 C 0.582031 -29.585938 0.9375 -29.957031 1.78125 -29.8125 C 2.175781 -29.757812 2.617188 -29.707031 3.109375 -29.65625 C 3.609375 -29.613281 4.210938 -29.59375 4.921875 -29.59375 C 5.691406 -29.59375 6.332031 -29.613281 6.84375 -29.65625 C 7.351562 -29.707031 7.832031 -29.773438 8.28125 -29.859375 C 9.101562 -29.941406 9.441406 -29.570312 9.296875 -28.75 C 8.929688 -26.820312 8.628906 -24.757812 8.390625 -22.5625 C 8.148438 -20.375 8.03125 -17.804688 8.03125 -14.859375 C 8.03125 -12.828125 8.109375 -11.125 8.265625 -9.75 C 8.421875 -8.375 8.550781 -7.316406 8.65625 -6.578125 C 9.082031 -6.554688 9.675781 -6.535156 10.4375 -6.515625 C 11.207031 -6.503906 12.082031 -6.628906 13.0625 -6.890625 C 14.039062 -7.160156 15.035156 -7.679688 16.046875 -8.453125 C 16.421875 -8.703125 16.75 -8.765625 17.03125 -8.640625 C 17.3125 -8.515625 17.4375 -8.253906 17.40625 -7.859375 C 17.351562 -6.691406 17.316406 -5.503906 17.296875 -4.296875 C 17.285156 -3.097656 17.320312 -1.976562 17.40625 -0.9375 C 17.4375 -0.144531 17.070312 0.207031 16.3125 0.125 C 15.226562 -0.0078125 14.082031 -0.0976562 12.875 -0.140625 C 11.675781 -0.191406 10.367188 -0.21875 8.953125 -0.21875 C 7.710938 -0.21875 6.453125 -0.1875 5.171875 -0.125 C 3.898438 -0.0703125 2.769531 0.0078125 1.78125 0.125 Z M 1.78125 0.125 "/></g></g></g><g fill="#000000" fill-opacity="0.4"><g transform="translate(159.044484, 56.898759)"><g><path d="M 7.984375 0.125 C 7.523438 0.0390625 7.0625 -0.0195312 6.59375 -0.0625 C 6.132812 -0.101562 5.550781 -0.125 4.84375 -0.125 C 4.1875 -0.125 3.625 -0.101562 3.15625 -0.0625 C 2.695312 -0.0195312 2.269531 0.0234375 1.875 0.078125 C 1.019531 0.222656 0.664062 -0.140625 0.8125 -1.015625 C 0.945312 -1.804688 1.097656 -2.910156 1.265625 -4.328125 C 1.441406 -5.742188 1.597656 -7.359375 1.734375 -9.171875 C 1.878906 -10.984375 1.953125 -12.878906 1.953125 -14.859375 C 1.953125 -16.847656 1.878906 -18.742188 1.734375 -20.546875 C 1.597656 -22.359375 1.441406 -23.972656 1.265625 -25.390625 C 1.097656 -26.804688 0.945312 -27.910156 0.8125 -28.703125 C 0.664062 -29.585938 1.019531 -29.957031 1.875 -29.8125 C 2.269531 -29.757812 2.695312 -29.707031 3.15625 -29.65625 C 3.625 -29.613281 4.1875 -29.59375 4.84375 -29.59375 C 5.550781 -29.59375 6.132812 -29.613281 6.59375 -29.65625 C 7.0625 -29.707031 7.523438 -29.773438 7.984375 -29.859375 C 8.835938 -29.941406 9.191406 -29.570312 9.046875 -28.75 C 8.929688 -27.957031 8.78125 -26.851562 8.59375 -25.4375 C 8.414062 -24.019531 8.253906 -22.40625 8.109375 -20.59375 C 7.972656 -18.78125 7.90625 -16.867188 7.90625 -14.859375 C 7.90625 -12.878906 7.972656 -10.984375 8.109375 -9.171875 C 8.253906 -7.359375 8.414062 -5.742188 8.59375 -4.328125 C 8.78125 -2.910156 8.929688 -1.796875 9.046875 -0.984375 C 9.191406 -0.160156 8.835938 0.207031 7.984375 0.125 Z M 7.984375 0.125 "/></g></g></g><g fill="#000000" fill-opacity="0.4"><g transform="translate(170.173307, 56.898759)"><g><path d="M 7.609375 0.640625 C 6.296875 0.640625 5.265625 0.582031 4.515625 0.46875 C 3.765625 0.351562 2.925781 0.296875 2 0.296875 C 1.207031 0.296875 0.851562 -0.0820312 0.9375 -0.84375 C 1.019531 -1.925781 1.101562 -3.085938 1.1875 -4.328125 C 1.269531 -5.578125 1.300781 -6.769531 1.28125 -7.90625 C 1.25 -8.382812 1.332031 -8.65625 1.53125 -8.71875 C 1.726562 -8.789062 1.984375 -8.644531 2.296875 -8.28125 C 3.117188 -7.320312 4.003906 -6.578125 4.953125 -6.046875 C 5.898438 -5.523438 6.8125 -5.265625 7.6875 -5.265625 C 8.425781 -5.265625 9.082031 -5.429688 9.65625 -5.765625 C 10.238281 -6.109375 10.53125 -6.664062 10.53125 -7.4375 C 10.53125 -8.03125 10.191406 -8.65625 9.515625 -9.3125 C 8.835938 -9.976562 8.03125 -10.664062 7.09375 -11.375 C 6.15625 -12.082031 5.304688 -12.78125 4.546875 -13.46875 C 3.015625 -14.882812 1.953125 -16.234375 1.359375 -17.515625 C 0.765625 -18.804688 0.46875 -20.34375 0.46875 -22.125 C 0.46875 -23.851562 0.832031 -25.332031 1.5625 -26.5625 C 2.300781 -27.789062 3.320312 -28.726562 4.625 -29.375 C 5.925781 -30.03125 7.414062 -30.359375 9.09375 -30.359375 C 9.96875 -30.359375 10.703125 -30.316406 11.296875 -30.234375 C 11.890625 -30.148438 12.453125 -30.066406 12.984375 -29.984375 C 13.523438 -29.898438 14.109375 -29.867188 14.734375 -29.890625 C 15.441406 -29.921875 15.78125 -29.570312 15.75 -28.84375 C 15.664062 -27.957031 15.609375 -26.910156 15.578125 -25.703125 C 15.554688 -24.503906 15.546875 -23.269531 15.546875 -22 C 15.546875 -21.519531 15.429688 -21.25 15.203125 -21.1875 C 14.972656 -21.132812 14.703125 -21.289062 14.390625 -21.65625 C 13.398438 -22.875 12.46875 -23.664062 11.59375 -24.03125 C 10.71875 -24.40625 9.984375 -24.59375 9.390625 -24.59375 C 8.734375 -24.59375 8.078125 -24.425781 7.421875 -24.09375 C 6.773438 -23.769531 6.453125 -23.113281 6.453125 -22.125 C 6.453125 -21.476562 6.726562 -20.863281 7.28125 -20.28125 C 7.832031 -19.695312 8.5 -19.117188 9.28125 -18.546875 C 10.0625 -17.984375 10.789062 -17.421875 11.46875 -16.859375 C 12.40625 -16.117188 13.289062 -15.320312 14.125 -14.46875 C 14.957031 -13.625 15.640625 -12.675781 16.171875 -11.625 C 16.710938 -10.582031 16.984375 -9.382812 16.984375 -8.03125 C 16.984375 -5.394531 16.21875 -3.289062 14.6875 -1.71875 C 13.164062 -0.144531 10.804688 0.640625 7.609375 0.640625 Z M 7.609375 0.640625 "/></g></g></g><g fill="#000000" fill-opacity="0.4"><g transform="translate(188.905401, 56.898759)"><g><path d="M 8.234375 0.125 C 7.785156 0.0390625 7.304688 -0.0195312 6.796875 -0.0625 C 6.285156 -0.101562 5.648438 -0.125 4.890625 -0.125 C 4.179688 -0.125 3.578125 -0.101562 3.078125 -0.0625 C 2.578125 -0.0195312 2.128906 0.0234375 1.734375 0.078125 C 1.367188 0.140625 1.078125 0.0703125 0.859375 -0.125 C 0.648438 -0.320312 0.585938 -0.617188 0.671875 -1.015625 C 0.847656 -1.835938 1.035156 -2.945312 1.234375 -4.34375 C 1.429688 -5.75 1.609375 -7.359375 1.765625 -9.171875 C 1.921875 -10.984375 2 -12.878906 2 -14.859375 C 2 -16.847656 1.921875 -18.742188 1.765625 -20.546875 C 1.609375 -22.359375 1.429688 -23.972656 1.234375 -25.390625 C 1.035156 -26.804688 0.847656 -27.910156 0.671875 -28.703125 C 0.617188 -29.097656 0.691406 -29.394531 0.890625 -29.59375 C 1.085938 -29.789062 1.367188 -29.863281 1.734375 -29.8125 C 2.128906 -29.757812 2.578125 -29.707031 3.078125 -29.65625 C 3.578125 -29.613281 4.179688 -29.59375 4.890625 -29.59375 C 5.648438 -29.59375 6.285156 -29.613281 6.796875 -29.65625 C 7.304688 -29.707031 7.785156 -29.773438 8.234375 -29.859375 C 8.628906 -29.910156 8.925781 -29.828125 9.125 -29.609375 C 9.320312 -29.398438 9.367188 -29.097656 9.265625 -28.703125 C 9.054688 -27.660156 8.816406 -26.097656 8.546875 -24.015625 C 8.285156 -21.929688 8.113281 -19.628906 8.03125 -17.109375 L 12.953125 -17.109375 C 12.867188 -19.628906 12.691406 -21.929688 12.421875 -24.015625 C 12.148438 -26.097656 11.914062 -27.660156 11.71875 -28.703125 C 11.632812 -29.097656 11.691406 -29.394531 11.890625 -29.59375 C 12.085938 -29.789062 12.367188 -29.863281 12.734375 -29.8125 C 13.128906 -29.757812 13.578125 -29.707031 14.078125 -29.65625 C 14.578125 -29.613281 15.179688 -29.59375 15.890625 -29.59375 C 16.648438 -29.59375 17.285156 -29.613281 17.796875 -29.65625 C 18.304688 -29.707031 18.785156 -29.773438 19.234375 -29.859375 C 19.628906 -29.910156 19.925781 -29.828125 20.125 -29.609375 C 20.320312 -29.398438 20.378906 -29.097656 20.296875 -28.703125 C 20.160156 -27.910156 19.984375 -26.804688 19.765625 -25.390625 C 19.554688 -23.972656 19.375 -22.359375 19.21875 -20.546875 C 19.0625 -18.742188 18.984375 -16.847656 18.984375 -14.859375 C 18.984375 -12.878906 19.0625 -10.984375 19.21875 -9.171875 C 19.375 -7.359375 19.554688 -5.742188 19.765625 -4.328125 C 19.984375 -2.910156 20.160156 -1.804688 20.296875 -1.015625 C 20.378906 -0.617188 20.320312 -0.320312 20.125 -0.125 C 19.925781 0.0703125 19.628906 0.15625 19.234375 0.125 C 18.785156 0.0390625 18.304688 -0.0195312 17.796875 -0.0625 C 17.285156 -0.101562 16.648438 -0.125 15.890625 -0.125 C 15.179688 -0.125 14.578125 -0.101562 14.078125 -0.0625 C 13.578125 -0.0195312 13.128906 0.0234375 12.734375 0.078125 C 12.367188 0.140625 12.078125 0.0703125 11.859375 -0.125 C 11.648438 -0.320312 11.601562 -0.617188 11.71875 -1.015625 C 11.914062 -2.066406 12.148438 -3.601562 12.421875 -5.625 C 12.691406 -7.644531 12.867188 -9.90625 12.953125 -12.40625 L 8.03125 -12.40625 C 8.113281 -9.90625 8.285156 -7.632812 8.546875 -5.59375 C 8.816406 -3.5625 9.054688 -2.035156 9.265625 -1.015625 C 9.367188 -0.617188 9.320312 -0.320312 9.125 -0.125 C 8.925781 0.0703125 8.628906 0.15625 8.234375 0.125 Z M 8.234375 0.125 "/></g></g></g><g fill="#000000" fill-opacity="0.4"><g transform="translate(211.163058, 56.898759)"><g><path d="M 15.28125 0.296875 L 13.328125 0.296875 C 12.679688 0.296875 12.285156 -0.0390625 12.140625 -0.71875 C 11.941406 -2 11.703125 -3.351562 11.421875 -4.78125 C 11.140625 -6.207031 10.863281 -7.570312 10.59375 -8.875 C 10.320312 -10.175781 10.085938 -11.265625 9.890625 -12.140625 C 9.609375 -13.554688 9.316406 -14.796875 9.015625 -15.859375 C 8.722656 -16.921875 8.421875 -17.890625 8.109375 -18.765625 L 8.109375 -18.640625 C 8.054688 -18.015625 8.007812 -17.390625 7.96875 -16.765625 C 7.925781 -16.148438 7.90625 -15.515625 7.90625 -14.859375 C 7.90625 -12.878906 7.976562 -10.984375 8.125 -9.171875 C 8.28125 -7.359375 8.460938 -5.742188 8.671875 -4.328125 C 8.890625 -2.910156 9.070312 -1.804688 9.21875 -1.015625 C 9.269531 -0.648438 9.210938 -0.351562 9.046875 -0.125 C 8.878906 0.101562 8.582031 0.1875 8.15625 0.125 C 7.613281 0.0390625 7.144531 -0.0195312 6.75 -0.0625 C 6.351562 -0.101562 5.71875 -0.125 4.84375 -0.125 C 4.132812 -0.125 3.53125 -0.101562 3.03125 -0.0625 C 2.539062 -0.0195312 2.082031 0.0234375 1.65625 0.078125 C 0.800781 0.222656 0.460938 -0.15625 0.640625 -1.0625 C 0.773438 -1.851562 0.941406 -2.945312 1.140625 -4.34375 C 1.335938 -5.75 1.515625 -7.359375 1.671875 -9.171875 C 1.828125 -10.984375 1.90625 -12.878906 1.90625 -14.859375 C 1.90625 -16.847656 1.828125 -18.742188 1.671875 -20.546875 C 1.515625 -22.359375 1.335938 -23.972656 1.140625 -25.390625 C 0.941406 -26.804688 0.773438 -27.910156 0.640625 -28.703125 C 0.492188 -29.585938 0.832031 -29.957031 1.65625 -29.8125 C 2.082031 -29.757812 2.539062 -29.707031 3.03125 -29.65625 C 3.53125 -29.613281 4.132812 -29.59375 4.84375 -29.59375 C 5.664062 -29.59375 6.476562 -29.617188 7.28125 -29.671875 C 8.09375 -29.734375 8.851562 -29.804688 9.5625 -29.890625 C 10.238281 -29.984375 10.617188 -29.675781 10.703125 -28.96875 C 10.929688 -27.238281 11.390625 -24.878906 12.078125 -21.890625 C 12.773438 -18.898438 13.519531 -15.46875 14.3125 -11.59375 C 15.101562 -15.25 15.859375 -18.597656 16.578125 -21.640625 C 17.304688 -24.679688 17.769531 -27.125 17.96875 -28.96875 C 18.050781 -29.644531 18.429688 -29.941406 19.109375 -29.859375 C 19.734375 -29.796875 20.410156 -29.734375 21.140625 -29.671875 C 21.878906 -29.617188 22.703125 -29.59375 23.609375 -29.59375 C 24.234375 -29.59375 24.707031 -29.597656 25.03125 -29.609375 C 25.363281 -29.628906 25.660156 -29.660156 25.921875 -29.703125 C 26.191406 -29.742188 26.523438 -29.796875 26.921875 -29.859375 C 27.316406 -29.910156 27.613281 -29.835938 27.8125 -29.640625 C 28.007812 -29.441406 28.066406 -29.117188 27.984375 -28.671875 C 27.847656 -27.898438 27.679688 -26.804688 27.484375 -25.390625 C 27.285156 -23.972656 27.109375 -22.363281 26.953125 -20.5625 C 26.796875 -18.769531 26.71875 -16.867188 26.71875 -14.859375 C 26.71875 -12.878906 26.796875 -10.984375 26.953125 -9.171875 C 27.109375 -7.359375 27.285156 -5.75 27.484375 -4.34375 C 27.679688 -2.945312 27.847656 -1.851562 27.984375 -1.0625 C 28.066406 -0.601562 28.007812 -0.273438 27.8125 -0.078125 C 27.613281 0.117188 27.316406 0.1875 26.921875 0.125 C 26.523438 0.0703125 26.191406 0.0234375 25.921875 -0.015625 C 25.660156 -0.0546875 25.363281 -0.0820312 25.03125 -0.09375 C 24.707031 -0.113281 24.234375 -0.125 23.609375 -0.125 C 22.898438 -0.125 22.296875 -0.101562 21.796875 -0.0625 C 21.304688 -0.0195312 20.863281 0.0234375 20.46875 0.078125 C 19.59375 0.222656 19.238281 -0.140625 19.40625 -1.015625 C 19.570312 -1.835938 19.753906 -2.945312 19.953125 -4.34375 C 20.148438 -5.75 20.328125 -7.359375 20.484375 -9.171875 C 20.640625 -10.984375 20.71875 -12.878906 20.71875 -14.859375 C 20.71875 -15.515625 20.703125 -16.140625 20.671875 -16.734375 C 20.648438 -17.328125 20.613281 -17.921875 20.5625 -18.515625 L 20.515625 -18.9375 C 20.398438 -18.40625 20.175781 -17.550781 19.84375 -16.375 C 19.519531 -15.195312 19.191406 -13.785156 18.859375 -12.140625 C 18.515625 -10.554688 18.132812 -8.835938 17.71875 -6.984375 C 17.3125 -5.128906 16.898438 -3.023438 16.484375 -0.671875 C 16.335938 -0.0234375 15.9375 0.296875 15.28125 0.296875 Z M 15.28125 0.296875 "/></g></g></g><g fill="#000000" fill-opacity="0.4"><g transform="translate(241.066451, 56.898759)"><g><path d="M 1.734375 0.125 C 0.890625 0.207031 0.550781 -0.160156 0.71875 -0.984375 C 0.863281 -1.796875 1.039062 -2.910156 1.25 -4.328125 C 1.46875 -5.742188 1.648438 -7.359375 1.796875 -9.171875 C 1.953125 -10.984375 2.03125 -12.878906 2.03125 -14.859375 C 2.03125 -16.847656 1.953125 -18.742188 1.796875 -20.546875 C 1.648438 -22.359375 1.46875 -23.976562 1.25 -25.40625 C 1.039062 -26.84375 0.863281 -27.957031 0.71875 -28.75 C 0.550781 -29.570312 0.890625 -29.941406 1.734375 -29.859375 C 2.835938 -29.742188 4.054688 -29.648438 5.390625 -29.578125 C 6.722656 -29.503906 8.0625 -29.46875 9.40625 -29.46875 C 10.75 -29.46875 12.03125 -29.503906 13.25 -29.578125 C 14.46875 -29.648438 15.515625 -29.753906 16.390625 -29.890625 C 17.160156 -30.035156 17.5 -29.65625 17.40625 -28.75 C 17.351562 -27.789062 17.328125 -26.890625 17.328125 -26.046875 C 17.328125 -25.210938 17.351562 -24.1875 17.40625 -22.96875 C 17.40625 -22.007812 16.984375 -21.800781 16.140625 -22.34375 C 15.171875 -23.050781 14.207031 -23.523438 13.25 -23.765625 C 12.289062 -24.003906 11.410156 -24.125 10.609375 -24.125 C 9.816406 -24.125 9.164062 -24.109375 8.65625 -24.078125 C 8.65625 -24.078125 8.617188 -23.722656 8.546875 -23.015625 C 8.484375 -22.304688 8.410156 -21.4375 8.328125 -20.40625 C 8.242188 -19.375 8.15625 -18.347656 8.0625 -17.328125 C 8.882812 -17.328125 9.726562 -17.4375 10.59375 -17.65625 C 11.457031 -17.882812 12.203125 -18.144531 12.828125 -18.4375 C 13.191406 -18.570312 13.457031 -18.597656 13.625 -18.515625 C 13.800781 -18.429688 13.859375 -18.175781 13.796875 -17.75 C 13.773438 -17.351562 13.753906 -16.945312 13.734375 -16.53125 C 13.722656 -16.125 13.71875 -15.695312 13.71875 -15.25 C 13.71875 -14.851562 13.71875 -14.445312 13.71875 -14.03125 C 13.71875 -13.625 13.734375 -13.222656 13.765625 -12.828125 C 13.847656 -12.035156 13.503906 -11.804688 12.734375 -12.140625 C 12.117188 -12.398438 11.367188 -12.628906 10.484375 -12.828125 C 9.609375 -13.023438 8.789062 -13.125 8.03125 -13.125 C 8.082031 -12.351562 8.144531 -11.535156 8.21875 -10.671875 C 8.289062 -9.816406 8.359375 -9.003906 8.421875 -8.234375 C 8.492188 -7.472656 8.550781 -6.847656 8.59375 -6.359375 C 8.632812 -5.878906 8.65625 -5.640625 8.65625 -5.640625 C 9.164062 -5.617188 9.859375 -5.628906 10.734375 -5.671875 C 11.617188 -5.710938 12.59375 -5.878906 13.65625 -6.171875 C 14.71875 -6.472656 15.742188 -7.003906 16.734375 -7.765625 C 17.410156 -8.222656 17.734375 -8.054688 17.703125 -7.265625 C 17.648438 -6.242188 17.628906 -5.160156 17.640625 -4.015625 C 17.660156 -2.867188 17.726562 -1.84375 17.84375 -0.9375 C 17.925781 -0.144531 17.570312 0.207031 16.78125 0.125 C 15.582031 -0.0078125 14.316406 -0.0976562 12.984375 -0.140625 C 11.660156 -0.191406 10.363281 -0.21875 9.09375 -0.21875 C 6.289062 -0.21875 3.835938 -0.101562 1.734375 0.125 Z M 1.734375 0.125 "/></g></g></g><g fill="#000000" fill-opacity="0.4"><g transform="translate(260.945403, 56.898759)"><g><path d="M 8.203125 0.125 C 7.742188 0.0390625 7.265625 -0.0195312 6.765625 -0.0625 C 6.273438 -0.101562 5.648438 -0.125 4.890625 -0.125 C 4.179688 -0.125 3.578125 -0.101562 3.078125 -0.0625 C 2.578125 -0.0195312 2.117188 0.0234375 1.703125 0.078125 C 1.328125 0.140625 1.039062 0.0703125 0.84375 -0.125 C 0.644531 -0.320312 0.585938 -0.617188 0.671875 -1.015625 C 0.816406 -1.835938 0.992188 -2.945312 1.203125 -4.34375 C 1.421875 -5.75 1.609375 -7.359375 1.765625 -9.171875 C 1.921875 -10.984375 2 -12.878906 2 -14.859375 C 2 -16.847656 1.921875 -18.742188 1.765625 -20.546875 C 1.609375 -22.359375 1.421875 -23.972656 1.203125 -25.390625 C 0.992188 -26.804688 0.816406 -27.910156 0.671875 -28.703125 C 0.585938 -29.097656 0.644531 -29.394531 0.84375 -29.59375 C 1.039062 -29.789062 1.328125 -29.863281 1.703125 -29.8125 C 2.179688 -29.757812 2.6875 -29.707031 3.21875 -29.65625 C 3.757812 -29.613281 4.398438 -29.59375 5.140625 -29.59375 C 5.960938 -29.59375 6.675781 -29.617188 7.28125 -29.671875 C 7.894531 -29.734375 8.484375 -29.796875 9.046875 -29.859375 C 9.785156 -29.972656 10.15625 -29.617188 10.15625 -28.796875 C 10.125 -27.742188 10.207031 -26.585938 10.40625 -25.328125 C 10.601562 -24.066406 10.882812 -22.820312 11.25 -21.59375 C 11.625 -20.363281 12.035156 -19.253906 12.484375 -18.265625 C 13.390625 -16.390625 14.296875 -14.660156 15.203125 -13.078125 L 15.25 -14.859375 C 15.25 -16.847656 15.171875 -18.742188 15.015625 -20.546875 C 14.859375 -22.359375 14.671875 -23.972656 14.453125 -25.390625 C 14.242188 -26.804688 14.070312 -27.910156 13.9375 -28.703125 C 13.789062 -29.585938 14.140625 -29.957031 14.984375 -29.8125 C 15.390625 -29.757812 15.835938 -29.707031 16.328125 -29.65625 C 16.828125 -29.613281 17.429688 -29.59375 18.140625 -29.59375 C 18.898438 -29.59375 19.535156 -29.613281 20.046875 -29.65625 C 20.554688 -29.707031 21.050781 -29.773438 21.53125 -29.859375 C 22.351562 -29.941406 22.691406 -29.570312 22.546875 -28.75 C 22.347656 -27.59375 22.148438 -26.40625 21.953125 -25.1875 C 21.753906 -23.96875 21.582031 -22.539062 21.4375 -20.90625 C 21.300781 -19.28125 21.21875 -17.265625 21.1875 -14.859375 C 21.1875 -12.878906 21.265625 -10.984375 21.421875 -9.171875 C 21.578125 -7.359375 21.757812 -5.742188 21.96875 -4.328125 C 22.1875 -2.910156 22.367188 -1.804688 22.515625 -1.015625 C 22.597656 -0.617188 22.546875 -0.320312 22.359375 -0.125 C 22.171875 0.0703125 21.878906 0.15625 21.484375 0.125 C 21.035156 0.0390625 20.554688 -0.0195312 20.046875 -0.0625 C 19.535156 -0.101562 18.898438 -0.125 18.140625 -0.125 C 17.335938 -0.125 16.679688 -0.09375 16.171875 -0.03125 C 15.671875 0.0195312 15.175781 0.0703125 14.6875 0.125 C 14.039062 0.269531 13.644531 -0.0390625 13.5 -0.8125 C 13.363281 -1.601562 13.140625 -2.691406 12.828125 -4.078125 C 12.515625 -5.460938 12.109375 -6.96875 11.609375 -8.59375 C 11.117188 -10.226562 10.519531 -11.765625 9.8125 -13.203125 C 9.445312 -13.972656 9.113281 -14.65625 8.8125 -15.25 C 8.507812 -15.84375 8.234375 -16.378906 7.984375 -16.859375 C 7.953125 -16.546875 7.9375 -16.21875 7.9375 -15.875 C 7.9375 -15.539062 7.9375 -15.203125 7.9375 -14.859375 C 7.9375 -12.878906 8.015625 -10.984375 8.171875 -9.171875 C 8.328125 -7.359375 8.507812 -5.742188 8.71875 -4.328125 C 8.9375 -2.910156 9.117188 -1.804688 9.265625 -1.015625 C 9.347656 -0.617188 9.289062 -0.320312 9.09375 -0.125 C 8.894531 0.0703125 8.597656 0.15625 8.203125 0.125 Z M 8.203125 0.125 "/></g></g></g><g fill="#000000" fill-opacity="0.4"><g transform="translate(285.454313, 56.898759)"><g><path d="M 7.640625 0.078125 C 6.765625 0.222656 6.398438 -0.128906 6.546875 -0.984375 C 6.628906 -1.796875 6.738281 -2.910156 6.875 -4.328125 C 7.019531 -5.742188 7.160156 -7.359375 7.296875 -9.171875 C 7.441406 -10.984375 7.546875 -12.878906 7.609375 -14.859375 C 7.660156 -16.703125 7.632812 -18.4375 7.53125 -20.0625 C 7.4375 -21.695312 7.316406 -23.148438 7.171875 -24.421875 C 6.460938 -24.472656 5.65625 -24.414062 4.75 -24.25 C 3.84375 -24.082031 2.835938 -23.769531 1.734375 -23.3125 C 1.367188 -23.175781 1.066406 -23.179688 0.828125 -23.328125 C 0.585938 -23.484375 0.484375 -23.773438 0.515625 -24.203125 C 0.566406 -25.222656 0.597656 -26.046875 0.609375 -26.671875 C 0.628906 -27.296875 0.609375 -27.988281 0.546875 -28.75 C 0.523438 -29.144531 0.613281 -29.441406 0.8125 -29.640625 C 1.007812 -29.835938 1.289062 -29.910156 1.65625 -29.859375 C 2.507812 -29.742188 3.265625 -29.675781 3.921875 -29.65625 C 4.585938 -29.644531 5.40625 -29.640625 6.375 -29.640625 L 14.734375 -29.640625 C 15.722656 -29.640625 16.539062 -29.644531 17.1875 -29.65625 C 17.84375 -29.675781 18.597656 -29.742188 19.453125 -29.859375 C 19.816406 -29.910156 20.101562 -29.84375 20.3125 -29.65625 C 20.53125 -29.476562 20.613281 -29.191406 20.5625 -28.796875 C 20.53125 -28.054688 20.503906 -27.316406 20.484375 -26.578125 C 20.472656 -25.847656 20.5 -25.046875 20.5625 -24.171875 C 20.582031 -23.765625 20.476562 -23.484375 20.25 -23.328125 C 20.03125 -23.179688 19.722656 -23.175781 19.328125 -23.3125 C 17.171875 -24.164062 15.398438 -24.535156 14.015625 -24.421875 C 13.867188 -23.148438 13.738281 -21.695312 13.625 -20.0625 C 13.519531 -18.4375 13.46875 -16.703125 13.46875 -14.859375 C 13.46875 -12.878906 13.53125 -10.984375 13.65625 -9.171875 C 13.78125 -7.359375 13.925781 -5.742188 14.09375 -4.328125 C 14.269531 -2.910156 14.414062 -1.796875 14.53125 -0.984375 C 14.664062 -0.128906 14.3125 0.222656 13.46875 0.078125 C 13.039062 0.0234375 12.597656 -0.0195312 12.140625 -0.0625 C 11.691406 -0.101562 11.128906 -0.125 10.453125 -0.125 C 9.796875 -0.125 9.253906 -0.101562 8.828125 -0.0625 C 8.410156 -0.0195312 8.015625 0.0234375 7.640625 0.078125 Z M 7.640625 0.078125 "/></g></g></g><g fill="#000000" fill-opacity="0.4"><g transform="translate(307.839386, 56.898759)"><g><path d="M 7.609375 0.640625 C 6.296875 0.640625 5.265625 0.582031 4.515625 0.46875 C 3.765625 0.351562 2.925781 0.296875 2 0.296875 C 1.207031 0.296875 0.851562 -0.0820312 0.9375 -0.84375 C 1.019531 -1.925781 1.101562 -3.085938 1.1875 -4.328125 C 1.269531 -5.578125 1.300781 -6.769531 1.28125 -7.90625 C 1.25 -8.382812 1.332031 -8.65625 1.53125 -8.71875 C 1.726562 -8.789062 1.984375 -8.644531 2.296875 -8.28125 C 3.117188 -7.320312 4.003906 -6.578125 4.953125 -6.046875 C 5.898438 -5.523438 6.8125 -5.265625 7.6875 -5.265625 C 8.425781 -5.265625 9.082031 -5.429688 9.65625 -5.765625 C 10.238281 -6.109375 10.53125 -6.664062 10.53125 -7.4375 C 10.53125 -8.03125 10.191406 -8.65625 9.515625 -9.3125 C 8.835938 -9.976562 8.03125 -10.664062 7.09375 -11.375 C 6.15625 -12.082031 5.304688 -12.78125 4.546875 -13.46875 C 3.015625 -14.882812 1.953125 -16.234375 1.359375 -17.515625 C 0.765625 -18.804688 0.46875 -20.34375 0.46875 -22.125 C 0.46875 -23.851562 0.832031 -25.332031 1.5625 -26.5625 C 2.300781 -27.789062 3.320312 -28.726562 4.625 -29.375 C 5.925781 -30.03125 7.414062 -30.359375 9.09375 -30.359375 C 9.96875 -30.359375 10.703125 -30.316406 11.296875 -30.234375 C 11.890625 -30.148438 12.453125 -30.066406 12.984375 -29.984375 C 13.523438 -29.898438 14.109375 -29.867188 14.734375 -29.890625 C 15.441406 -29.921875 15.78125 -29.570312 15.75 -28.84375 C 15.664062 -27.957031 15.609375 -26.910156 15.578125 -25.703125 C 15.554688 -24.503906 15.546875 -23.269531 15.546875 -22 C 15.546875 -21.519531 15.429688 -21.25 15.203125 -21.1875 C 14.972656 -21.132812 14.703125 -21.289062 14.390625 -21.65625 C 13.398438 -22.875 12.46875 -23.664062 11.59375 -24.03125 C 10.71875 -24.40625 9.984375 -24.59375 9.390625 -24.59375 C 8.734375 -24.59375 8.078125 -24.425781 7.421875 -24.09375 C 6.773438 -23.769531 6.453125 -23.113281 6.453125 -22.125 C 6.453125 -21.476562 6.726562 -20.863281 7.28125 -20.28125 C 7.832031 -19.695312 8.5 -19.117188 9.28125 -18.546875 C 10.0625 -17.984375 10.789062 -17.421875 11.46875 -16.859375 C 12.40625 -16.117188 13.289062 -15.320312 14.125 -14.46875 C 14.957031 -13.625 15.640625 -12.675781 16.171875 -11.625 C 16.710938 -10.582031 16.984375 -9.382812 16.984375 -8.03125 C 16.984375 -5.394531 16.21875 -3.289062 14.6875 -1.71875 C 13.164062 -0.144531 10.804688 0.640625 7.609375 0.640625 Z M 7.609375 0.640625 "/></g></g></g><g fill="#fff6ea" fill-opacity="1"><g transform="translate(2.298246, 55.021547)"><g><path d="M 13.96875 0.046875 C 13.144531 0.179688 12.765625 -0.144531 12.828125 -0.9375 C 12.828125 -1.5 12.832031 -2.21875 12.84375 -3.09375 C 12.863281 -3.976562 12.859375 -4.941406 12.828125 -5.984375 L 8.828125 -5.984375 C 8.804688 -4.941406 8.800781 -3.988281 8.8125 -3.125 C 8.820312 -2.257812 8.828125 -1.546875 8.828125 -0.984375 C 8.828125 -0.160156 8.445312 0.164062 7.6875 0 C 5.507812 -0.425781 3.34375 -0.441406 1.1875 -0.046875 C 0.28125 0.128906 -0.0390625 -0.222656 0.21875 -1.109375 C 0.46875 -1.953125 0.789062 -3.101562 1.1875 -4.5625 C 1.582031 -6.019531 1.992188 -7.671875 2.421875 -9.515625 C 2.847656 -11.359375 3.203125 -13.269531 3.484375 -15.25 C 3.816406 -17.507812 4.101562 -19.769531 4.34375 -22.03125 C 4.59375 -24.300781 4.726562 -26.570312 4.75 -28.84375 C 4.75 -29.632812 5.148438 -29.957031 5.953125 -29.8125 C 7.554688 -29.5625 9.164062 -29.441406 10.78125 -29.453125 C 12.394531 -29.460938 14.023438 -29.582031 15.671875 -29.8125 C 16.492188 -29.957031 16.90625 -29.632812 16.90625 -28.84375 C 16.957031 -26.570312 17.097656 -24.300781 17.328125 -22.03125 C 17.554688 -19.769531 17.835938 -17.507812 18.171875 -15.25 C 18.484375 -13.289062 18.84375 -11.390625 19.25 -9.546875 C 19.664062 -7.710938 20.070312 -6.066406 20.46875 -4.609375 C 20.863281 -3.148438 21.191406 -1.992188 21.453125 -1.140625 C 21.734375 -0.234375 21.378906 0.128906 20.390625 -0.046875 C 19.304688 -0.242188 18.234375 -0.332031 17.171875 -0.3125 C 16.117188 -0.300781 15.050781 -0.179688 13.96875 0.046875 Z M 9.046875 -10.703125 L 12.609375 -10.703125 C 12.585938 -11.265625 12.546875 -11.828125 12.484375 -12.390625 C 12.429688 -12.960938 12.375 -13.53125 12.3125 -14.09375 C 12.082031 -16.050781 11.832031 -17.863281 11.5625 -19.53125 C 11.300781 -21.207031 11.054688 -22.804688 10.828125 -24.328125 C 10.578125 -22.710938 10.316406 -21 10.046875 -19.1875 C 9.773438 -17.382812 9.539062 -15.6875 9.34375 -14.09375 C 9.289062 -13.582031 9.238281 -13.007812 9.1875 -12.375 C 9.144531 -11.738281 9.097656 -11.179688 9.046875 -10.703125 Z M 9.046875 -10.703125 "/></g></g></g><g fill="#fff6ea" fill-opacity="1"><g transform="translate(25.235511, 55.021547)"><g><path d="M 10.875 0.640625 C 7.644531 0.640625 5.125 -0.625 3.3125 -3.15625 C 1.5 -5.695312 0.59375 -9.613281 0.59375 -14.90625 C 0.59375 -19.75 1.5 -23.535156 3.3125 -26.265625 C 5.125 -28.992188 7.644531 -30.359375 10.875 -30.359375 C 11.75 -30.359375 12.484375 -30.316406 13.078125 -30.234375 C 13.671875 -30.148438 14.226562 -30.066406 14.75 -29.984375 C 15.28125 -29.898438 15.859375 -29.867188 16.484375 -29.890625 C 17.273438 -29.953125 17.628906 -29.601562 17.546875 -28.84375 C 17.429688 -27.789062 17.34375 -26.660156 17.28125 -25.453125 C 17.226562 -24.253906 17.21875 -23.101562 17.25 -22 C 17.269531 -21.519531 17.164062 -21.25 16.9375 -21.1875 C 16.71875 -21.132812 16.453125 -21.304688 16.140625 -21.703125 C 14.691406 -23.515625 13.273438 -24.421875 11.890625 -24.421875 C 10.585938 -24.421875 9.519531 -23.539062 8.6875 -21.78125 C 7.851562 -20.03125 7.4375 -17.679688 7.4375 -14.734375 C 7.4375 -12.984375 7.625 -11.390625 8 -9.953125 C 8.382812 -8.523438 8.914062 -7.394531 9.59375 -6.5625 C 10.28125 -5.726562 11.046875 -5.3125 11.890625 -5.3125 C 12.628906 -5.3125 13.34375 -5.519531 14.03125 -5.9375 C 14.726562 -6.363281 15.488281 -7.128906 16.3125 -8.234375 C 16.625 -8.628906 16.863281 -8.804688 17.03125 -8.765625 C 17.195312 -8.722656 17.269531 -8.460938 17.25 -7.984375 C 17.21875 -6.847656 17.234375 -5.65625 17.296875 -4.40625 C 17.367188 -3.164062 17.453125 -1.992188 17.546875 -0.890625 C 17.628906 -0.128906 17.257812 0.222656 16.4375 0.171875 C 15.84375 0.140625 15.28125 0.164062 14.75 0.25 C 14.226562 0.332031 13.671875 0.414062 13.078125 0.5 C 12.484375 0.59375 11.75 0.640625 10.875 0.640625 Z M 10.875 0.640625 "/></g></g></g><g fill="#fff6ea" fill-opacity="1"><g transform="translate(44.732189, 55.021547)"><g><path d="M 10.875 0.640625 C 7.644531 0.640625 5.125 -0.625 3.3125 -3.15625 C 1.5 -5.695312 0.59375 -9.613281 0.59375 -14.90625 C 0.59375 -19.75 1.5 -23.535156 3.3125 -26.265625 C 5.125 -28.992188 7.644531 -30.359375 10.875 -30.359375 C 11.75 -30.359375 12.484375 -30.316406 13.078125 -30.234375 C 13.671875 -30.148438 14.226562 -30.066406 14.75 -29.984375 C 15.28125 -29.898438 15.859375 -29.867188 16.484375 -29.890625 C 17.273438 -29.953125 17.628906 -29.601562 17.546875 -28.84375 C 17.429688 -27.789062 17.34375 -26.660156 17.28125 -25.453125 C 17.226562 -24.253906 17.21875 -23.101562 17.25 -22 C 17.269531 -21.519531 17.164062 -21.25 16.9375 -21.1875 C 16.71875 -21.132812 16.453125 -21.304688 16.140625 -21.703125 C 14.691406 -23.515625 13.273438 -24.421875 11.890625 -24.421875 C 10.585938 -24.421875 9.519531 -23.539062 8.6875 -21.78125 C 7.851562 -20.03125 7.4375 -17.679688 7.4375 -14.734375 C 7.4375 -12.984375 7.625 -11.390625 8 -9.953125 C 8.382812 -8.523438 8.914062 -7.394531 9.59375 -6.5625 C 10.28125 -5.726562 11.046875 -5.3125 11.890625 -5.3125 C 12.628906 -5.3125 13.34375 -5.519531 14.03125 -5.9375 C 14.726562 -6.363281 15.488281 -7.128906 16.3125 -8.234375 C 16.625 -8.628906 16.863281 -8.804688 17.03125 -8.765625 C 17.195312 -8.722656 17.269531 -8.460938 17.25 -7.984375 C 17.21875 -6.847656 17.234375 -5.65625 17.296875 -4.40625 C 17.367188 -3.164062 17.453125 -1.992188 17.546875 -0.890625 C 17.628906 -0.128906 17.257812 0.222656 16.4375 0.171875 C 15.84375 0.140625 15.28125 0.164062 14.75 0.25 C 14.226562 0.332031 13.671875 0.414062 13.078125 0.5 C 12.484375 0.59375 11.75 0.640625 10.875 0.640625 Z M 10.875 0.640625 "/></g></g></g><g fill="#fff6ea" fill-opacity="1"><g transform="translate(64.228867, 55.021547)"><g><path d="M 10.875 0.640625 C 7.613281 0.640625 5.078125 -0.625 3.265625 -3.15625 C 1.453125 -5.695312 0.546875 -9.613281 0.546875 -14.90625 C 0.546875 -19.75 1.453125 -23.535156 3.265625 -26.265625 C 5.078125 -28.992188 7.613281 -30.359375 10.875 -30.359375 C 14.125 -30.359375 16.648438 -28.992188 18.453125 -26.265625 C 20.253906 -23.535156 21.15625 -19.75 21.15625 -14.90625 C 21.15625 -9.613281 20.253906 -5.695312 18.453125 -3.15625 C 16.648438 -0.625 14.125 0.640625 10.875 0.640625 Z M 10.828125 -5.3125 C 11.535156 -5.3125 12.144531 -5.726562 12.65625 -6.5625 C 13.164062 -7.394531 13.5625 -8.523438 13.84375 -9.953125 C 14.125 -11.390625 14.265625 -12.984375 14.265625 -14.734375 C 14.265625 -17.679688 13.953125 -20.03125 13.328125 -21.78125 C 12.710938 -23.539062 11.878906 -24.421875 10.828125 -24.421875 C 9.785156 -24.421875 8.953125 -23.539062 8.328125 -21.78125 C 7.703125 -20.03125 7.390625 -17.679688 7.390625 -14.734375 C 7.390625 -12.984375 7.53125 -11.390625 7.8125 -9.953125 C 8.09375 -8.523438 8.492188 -7.394531 9.015625 -6.5625 C 9.546875 -5.726562 10.148438 -5.3125 10.828125 -5.3125 Z M 10.828125 -5.3125 "/></g></g></g><g fill="#fff6ea" fill-opacity="1"><g transform="translate(87.208609, 55.021547)"><g><path d="M 15.28125 0.296875 L 13.328125 0.296875 C 12.679688 0.296875 12.285156 -0.0390625 12.140625 -0.71875 C 11.941406 -2 11.703125 -3.351562 11.421875 -4.78125 C 11.140625 -6.207031 10.863281 -7.570312 10.59375 -8.875 C 10.320312 -10.175781 10.085938 -11.265625 9.890625 -12.140625 C 9.609375 -13.554688 9.316406 -14.796875 9.015625 -15.859375 C 8.722656 -16.921875 8.421875 -17.890625 8.109375 -18.765625 L 8.109375 -18.640625 C 8.054688 -18.015625 8.007812 -17.390625 7.96875 -16.765625 C 7.925781 -16.148438 7.90625 -15.515625 7.90625 -14.859375 C 7.90625 -12.878906 7.976562 -10.984375 8.125 -9.171875 C 8.28125 -7.359375 8.460938 -5.742188 8.671875 -4.328125 C 8.890625 -2.910156 9.070312 -1.804688 9.21875 -1.015625 C 9.269531 -0.648438 9.210938 -0.351562 9.046875 -0.125 C 8.878906 0.101562 8.582031 0.1875 8.15625 0.125 C 7.613281 0.0390625 7.144531 -0.0195312 6.75 -0.0625 C 6.351562 -0.101562 5.71875 -0.125 4.84375 -0.125 C 4.132812 -0.125 3.53125 -0.101562 3.03125 -0.0625 C 2.539062 -0.0195312 2.082031 0.0234375 1.65625 0.078125 C 0.800781 0.222656 0.460938 -0.15625 0.640625 -1.0625 C 0.773438 -1.851562 0.941406 -2.945312 1.140625 -4.34375 C 1.335938 -5.75 1.515625 -7.359375 1.671875 -9.171875 C 1.828125 -10.984375 1.90625 -12.878906 1.90625 -14.859375 C 1.90625 -16.847656 1.828125 -18.742188 1.671875 -20.546875 C 1.515625 -22.359375 1.335938 -23.972656 1.140625 -25.390625 C 0.941406 -26.804688 0.773438 -27.910156 0.640625 -28.703125 C 0.492188 -29.585938 0.832031 -29.957031 1.65625 -29.8125 C 2.082031 -29.757812 2.539062 -29.707031 3.03125 -29.65625 C 3.53125 -29.613281 4.132812 -29.59375 4.84375 -29.59375 C 5.664062 -29.59375 6.476562 -29.617188 7.28125 -29.671875 C 8.09375 -29.734375 8.851562 -29.804688 9.5625 -29.890625 C 10.238281 -29.984375 10.617188 -29.675781 10.703125 -28.96875 C 10.929688 -27.238281 11.390625 -24.878906 12.078125 -21.890625 C 12.773438 -18.898438 13.519531 -15.46875 14.3125 -11.59375 C 15.101562 -15.25 15.859375 -18.597656 16.578125 -21.640625 C 17.304688 -24.679688 17.769531 -27.125 17.96875 -28.96875 C 18.050781 -29.644531 18.429688 -29.941406 19.109375 -29.859375 C 19.734375 -29.796875 20.410156 -29.734375 21.140625 -29.671875 C 21.878906 -29.617188 22.703125 -29.59375 23.609375 -29.59375 C 24.234375 -29.59375 24.707031 -29.597656 25.03125 -29.609375 C 25.363281 -29.628906 25.660156 -29.660156 25.921875 -29.703125 C 26.191406 -29.742188 26.523438 -29.796875 26.921875 -29.859375 C 27.316406 -29.910156 27.613281 -29.835938 27.8125 -29.640625 C 28.007812 -29.441406 28.066406 -29.117188 27.984375 -28.671875 C 27.847656 -27.898438 27.679688 -26.804688 27.484375 -25.390625 C 27.285156 -23.972656 27.109375 -22.363281 26.953125 -20.5625 C 26.796875 -18.769531 26.71875 -16.867188 26.71875 -14.859375 C 26.71875 -12.878906 26.796875 -10.984375 26.953125 -9.171875 C 27.109375 -7.359375 27.285156 -5.75 27.484375 -4.34375 C 27.679688 -2.945312 27.847656 -1.851562 27.984375 -1.0625 C 28.066406 -0.601562 28.007812 -0.273438 27.8125 -0.078125 C 27.613281 0.117188 27.316406 0.1875 26.921875 0.125 C 26.523438 0.0703125 26.191406 0.0234375 25.921875 -0.015625 C 25.660156 -0.0546875 25.363281 -0.0820312 25.03125 -0.09375 C 24.707031 -0.113281 24.234375 -0.125 23.609375 -0.125 C 22.898438 -0.125 22.296875 -0.101562 21.796875 -0.0625 C 21.304688 -0.0195312 20.863281 0.0234375 20.46875 0.078125 C 19.59375 0.222656 19.238281 -0.140625 19.40625 -1.015625 C 19.570312 -1.835938 19.753906 -2.945312 19.953125 -4.34375 C 20.148438 -5.75 20.328125 -7.359375 20.484375 -9.171875 C 20.640625 -10.984375 20.71875 -12.878906 20.71875 -14.859375 C 20.71875 -15.515625 20.703125 -16.140625 20.671875 -16.734375 C 20.648438 -17.328125 20.613281 -17.921875 20.5625 -18.515625 L 20.515625 -18.9375 C 20.398438 -18.40625 20.175781 -17.550781 19.84375 -16.375 C 19.519531 -15.195312 19.191406 -13.785156 18.859375 -12.140625 C 18.515625 -10.554688 18.132812 -8.835938 17.71875 -6.984375 C 17.3125 -5.128906 16.898438 -3.023438 16.484375 -0.671875 C 16.335938 -0.0234375 15.9375 0.296875 15.28125 0.296875 Z M 15.28125 0.296875 "/></g></g></g><g fill="#fff6ea" fill-opacity="1"><g transform="translate(117.112013, 55.021547)"><g><path d="M 8.234375 0.125 C 7.785156 0.0390625 7.304688 -0.0195312 6.796875 -0.0625 C 6.285156 -0.101562 5.660156 -0.125 4.921875 -0.125 C 4.210938 -0.125 3.609375 -0.101562 3.109375 -0.0625 C 2.617188 -0.0195312 2.160156 0.0234375 1.734375 0.078125 C 1.367188 0.140625 1.085938 0.0703125 0.890625 -0.125 C 0.691406 -0.320312 0.632812 -0.617188 0.71875 -1.015625 C 0.863281 -1.835938 1.035156 -2.945312 1.234375 -4.34375 C 1.429688 -5.75 1.609375 -7.359375 1.765625 -9.171875 C 1.921875 -10.984375 2 -12.878906 2 -14.859375 C 2 -16.847656 1.921875 -18.742188 1.765625 -20.546875 C 1.609375 -22.359375 1.429688 -23.976562 1.234375 -25.40625 C 1.035156 -26.84375 0.863281 -27.957031 0.71875 -28.75 C 0.550781 -29.570312 0.890625 -29.941406 1.734375 -29.859375 C 2.703125 -29.742188 3.546875 -29.695312 4.265625 -29.71875 C 4.984375 -29.75 5.734375 -29.804688 6.515625 -29.890625 C 7.296875 -29.984375 8.222656 -30.03125 9.296875 -30.03125 C 11.734375 -30.03125 13.671875 -29.578125 15.109375 -28.671875 C 16.554688 -27.765625 17.59375 -26.445312 18.21875 -24.71875 C 18.84375 -22.988281 19.15625 -20.894531 19.15625 -18.4375 C 19.15625 -16.28125 18.765625 -14.320312 17.984375 -12.5625 C 17.203125 -10.8125 16.066406 -9.410156 14.578125 -8.359375 C 13.097656 -7.316406 11.28125 -6.78125 9.125 -6.75 L 8.453125 -6.75 C 8.585938 -5.507812 8.734375 -4.390625 8.890625 -3.390625 C 9.046875 -2.398438 9.179688 -1.609375 9.296875 -1.015625 C 9.441406 -0.171875 9.085938 0.207031 8.234375 0.125 Z M 8.0625 -11.96875 L 9.125 -11.96875 C 10.375 -12 11.363281 -12.546875 12.09375 -13.609375 C 12.832031 -14.671875 13.203125 -16.148438 13.203125 -18.046875 C 13.203125 -20.253906 12.96875 -21.945312 12.5 -23.125 C 12.039062 -24.300781 11.359375 -24.890625 10.453125 -24.890625 C 9.765625 -24.890625 9.257812 -24.515625 8.9375 -23.765625 C 8.613281 -23.015625 8.394531 -22.171875 8.28125 -21.234375 C 8.195312 -20.242188 8.125 -19.207031 8.0625 -18.125 C 8.007812 -17.050781 7.984375 -15.960938 7.984375 -14.859375 C 7.984375 -14.378906 7.988281 -13.898438 8 -13.421875 C 8.019531 -12.941406 8.039062 -12.457031 8.0625 -11.96875 Z M 8.0625 -11.96875 "/></g></g></g><g fill="#fff6ea" fill-opacity="1"><g transform="translate(137.798026, 55.021547)"><g><path d="M 1.78125 0.125 C 0.9375 0.207031 0.582031 -0.160156 0.71875 -0.984375 C 1.03125 -2.617188 1.328125 -4.582031 1.609375 -6.875 C 1.890625 -9.164062 2.03125 -11.828125 2.03125 -14.859375 C 2.03125 -16.847656 1.953125 -18.742188 1.796875 -20.546875 C 1.648438 -22.359375 1.46875 -23.972656 1.25 -25.390625 C 1.039062 -26.804688 0.863281 -27.910156 0.71875 -28.703125 C 0.582031 -29.585938 0.9375 -29.957031 1.78125 -29.8125 C 2.175781 -29.757812 2.617188 -29.707031 3.109375 -29.65625 C 3.609375 -29.613281 4.210938 -29.59375 4.921875 -29.59375 C 5.691406 -29.59375 6.332031 -29.613281 6.84375 -29.65625 C 7.351562 -29.707031 7.832031 -29.773438 8.28125 -29.859375 C 9.101562 -29.941406 9.441406 -29.570312 9.296875 -28.75 C 8.929688 -26.820312 8.628906 -24.757812 8.390625 -22.5625 C 8.148438 -20.375 8.03125 -17.804688 8.03125 -14.859375 C 8.03125 -12.828125 8.109375 -11.125 8.265625 -9.75 C 8.421875 -8.375 8.550781 -7.316406 8.65625 -6.578125 C 9.082031 -6.554688 9.675781 -6.535156 10.4375 -6.515625 C 11.207031 -6.503906 12.082031 -6.628906 13.0625 -6.890625 C 14.039062 -7.160156 15.035156 -7.679688 16.046875 -8.453125 C 16.421875 -8.703125 16.75 -8.765625 17.03125 -8.640625 C 17.3125 -8.515625 17.4375 -8.253906 17.40625 -7.859375 C 17.351562 -6.691406 17.316406 -5.503906 17.296875 -4.296875 C 17.285156 -3.097656 17.320312 -1.976562 17.40625 -0.9375 C 17.4375 -0.144531 17.070312 0.207031 16.3125 0.125 C 15.226562 -0.0078125 14.082031 -0.0976562 12.875 -0.140625 C 11.675781 -0.191406 10.367188 -0.21875 8.953125 -0.21875 C 7.710938 -0.21875 6.453125 -0.1875 5.171875 -0.125 C 3.898438 -0.0703125 2.769531 0.0078125 1.78125 0.125 Z M 1.78125 0.125 "/></g></g></g><g fill="#fff6ea" fill-opacity="1"><g transform="translate(157.167274, 55.021547)"><g><path d="M 7.984375 0.125 C 7.523438 0.0390625 7.0625 -0.0195312 6.59375 -0.0625 C 6.132812 -0.101562 5.550781 -0.125 4.84375 -0.125 C 4.1875 -0.125 3.625 -0.101562 3.15625 -0.0625 C 2.695312 -0.0195312 2.269531 0.0234375 1.875 0.078125 C 1.019531 0.222656 0.664062 -0.140625 0.8125 -1.015625 C 0.945312 -1.804688 1.097656 -2.910156 1.265625 -4.328125 C 1.441406 -5.742188 1.597656 -7.359375 1.734375 -9.171875 C 1.878906 -10.984375 1.953125 -12.878906 1.953125 -14.859375 C 1.953125 -16.847656 1.878906 -18.742188 1.734375 -20.546875 C 1.597656 -22.359375 1.441406 -23.972656 1.265625 -25.390625 C 1.097656 -26.804688 0.945312 -27.910156 0.8125 -28.703125 C 0.664062 -29.585938 1.019531 -29.957031 1.875 -29.8125 C 2.269531 -29.757812 2.695312 -29.707031 3.15625 -29.65625 C 3.625 -29.613281 4.1875 -29.59375 4.84375 -29.59375 C 5.550781 -29.59375 6.132812 -29.613281 6.59375 -29.65625 C 7.0625 -29.707031 7.523438 -29.773438 7.984375 -29.859375 C 8.835938 -29.941406 9.191406 -29.570312 9.046875 -28.75 C 8.929688 -27.957031 8.78125 -26.851562 8.59375 -25.4375 C 8.414062 -24.019531 8.253906 -22.40625 8.109375 -20.59375 C 7.972656 -18.78125 7.90625 -16.867188 7.90625 -14.859375 C 7.90625 -12.878906 7.972656 -10.984375 8.109375 -9.171875 C 8.253906 -7.359375 8.414062 -5.742188 8.59375 -4.328125 C 8.78125 -2.910156 8.929688 -1.796875 9.046875 -0.984375 C 9.191406 -0.160156 8.835938 0.207031 7.984375 0.125 Z M 7.984375 0.125 "/></g></g></g><g fill="#fff6ea" fill-opacity="1"><g transform="translate(168.296097, 55.021547)"><g><path d="M 7.609375 0.640625 C 6.296875 0.640625 5.265625 0.582031 4.515625 0.46875 C 3.765625 0.351562 2.925781 0.296875 2 0.296875 C 1.207031 0.296875 0.851562 -0.0820312 0.9375 -0.84375 C 1.019531 -1.925781 1.101562 -3.085938 1.1875 -4.328125 C 1.269531 -5.578125 1.300781 -6.769531 1.28125 -7.90625 C 1.25 -8.382812 1.332031 -8.65625 1.53125 -8.71875 C 1.726562 -8.789062 1.984375 -8.644531 2.296875 -8.28125 C 3.117188 -7.320312 4.003906 -6.578125 4.953125 -6.046875 C 5.898438 -5.523438 6.8125 -5.265625 7.6875 -5.265625 C 8.425781 -5.265625 9.082031 -5.429688 9.65625 -5.765625 C 10.238281 -6.109375 10.53125 -6.664062 10.53125 -7.4375 C 10.53125 -8.03125 10.191406 -8.65625 9.515625 -9.3125 C 8.835938 -9.976562 8.03125 -10.664062 7.09375 -11.375 C 6.15625 -12.082031 5.304688 -12.78125 4.546875 -13.46875 C 3.015625 -14.882812 1.953125 -16.234375 1.359375 -17.515625 C 0.765625 -18.804688 0.46875 -20.34375 0.46875 -22.125 C 0.46875 -23.851562 0.832031 -25.332031 1.5625 -26.5625 C 2.300781 -27.789062 3.320312 -28.726562 4.625 -29.375 C 5.925781 -30.03125 7.414062 -30.359375 9.09375 -30.359375 C 9.96875 -30.359375 10.703125 -30.316406 11.296875 -30.234375 C 11.890625 -30.148438 12.453125 -30.066406 12.984375 -29.984375 C 13.523438 -29.898438 14.109375 -29.867188 14.734375 -29.890625 C 15.441406 -29.921875 15.78125 -29.570312 15.75 -28.84375 C 15.664062 -27.957031 15.609375 -26.910156 15.578125 -25.703125 C 15.554688 -24.503906 15.546875 -23.269531 15.546875 -22 C 15.546875 -21.519531 15.429688 -21.25 15.203125 -21.1875 C 14.972656 -21.132812 14.703125 -21.289062 14.390625 -21.65625 C 13.398438 -22.875 12.46875 -23.664062 11.59375 -24.03125 C 10.71875 -24.40625 9.984375 -24.59375 9.390625 -24.59375 C 8.734375 -24.59375 8.078125 -24.425781 7.421875 -24.09375 C 6.773438 -23.769531 6.453125 -23.113281 6.453125 -22.125 C 6.453125 -21.476562 6.726562 -20.863281 7.28125 -20.28125 C 7.832031 -19.695312 8.5 -19.117188 9.28125 -18.546875 C 10.0625 -17.984375 10.789062 -17.421875 11.46875 -16.859375 C 12.40625 -16.117188 13.289062 -15.320312 14.125 -14.46875 C 14.957031 -13.625 15.640625 -12.675781 16.171875 -11.625 C 16.710938 -10.582031 16.984375 -9.382812 16.984375 -8.03125 C 16.984375 -5.394531 16.21875 -3.289062 14.6875 -1.71875 C 13.164062 -0.144531 10.804688 0.640625 7.609375 0.640625 Z M 7.609375 0.640625 "/></g></g></g><g fill="#fff6ea" fill-opacity="1"><g transform="translate(187.028191, 55.021547)"><g><path d="M 8.234375 0.125 C 7.785156 0.0390625 7.304688 -0.0195312 6.796875 -0.0625 C 6.285156 -0.101562 5.648438 -0.125 4.890625 -0.125 C 4.179688 -0.125 3.578125 -0.101562 3.078125 -0.0625 C 2.578125 -0.0195312 2.128906 0.0234375 1.734375 0.078125 C 1.367188 0.140625 1.078125 0.0703125 0.859375 -0.125 C 0.648438 -0.320312 0.585938 -0.617188 0.671875 -1.015625 C 0.847656 -1.835938 1.035156 -2.945312 1.234375 -4.34375 C 1.429688 -5.75 1.609375 -7.359375 1.765625 -9.171875 C 1.921875 -10.984375 2 -12.878906 2 -14.859375 C 2 -16.847656 1.921875 -18.742188 1.765625 -20.546875 C 1.609375 -22.359375 1.429688 -23.972656 1.234375 -25.390625 C 1.035156 -26.804688 0.847656 -27.910156 0.671875 -28.703125 C 0.617188 -29.097656 0.691406 -29.394531 0.890625 -29.59375 C 1.085938 -29.789062 1.367188 -29.863281 1.734375 -29.8125 C 2.128906 -29.757812 2.578125 -29.707031 3.078125 -29.65625 C 3.578125 -29.613281 4.179688 -29.59375 4.890625 -29.59375 C 5.648438 -29.59375 6.285156 -29.613281 6.796875 -29.65625 C 7.304688 -29.707031 7.785156 -29.773438 8.234375 -29.859375 C 8.628906 -29.910156 8.925781 -29.828125 9.125 -29.609375 C 9.320312 -29.398438 9.367188 -29.097656 9.265625 -28.703125 C 9.054688 -27.660156 8.816406 -26.097656 8.546875 -24.015625 C 8.285156 -21.929688 8.113281 -19.628906 8.03125 -17.109375 L 12.953125 -17.109375 C 12.867188 -19.628906 12.691406 -21.929688 12.421875 -24.015625 C 12.148438 -26.097656 11.914062 -27.660156 11.71875 -28.703125 C 11.632812 -29.097656 11.691406 -29.394531 11.890625 -29.59375 C 12.085938 -29.789062 12.367188 -29.863281 12.734375 -29.8125 C 13.128906 -29.757812 13.578125 -29.707031 14.078125 -29.65625 C 14.578125 -29.613281 15.179688 -29.59375 15.890625 -29.59375 C 16.648438 -29.59375 17.285156 -29.613281 17.796875 -29.65625 C 18.304688 -29.707031 18.785156 -29.773438 19.234375 -29.859375 C 19.628906 -29.910156 19.925781 -29.828125 20.125 -29.609375 C 20.320312 -29.398438 20.378906 -29.097656 20.296875 -28.703125 C 20.160156 -27.910156 19.984375 -26.804688 19.765625 -25.390625 C 19.554688 -23.972656 19.375 -22.359375 19.21875 -20.546875 C 19.0625 -18.742188 18.984375 -16.847656 18.984375 -14.859375 C 18.984375 -12.878906 19.0625 -10.984375 19.21875 -9.171875 C 19.375 -7.359375 19.554688 -5.742188 19.765625 -4.328125 C 19.984375 -2.910156 20.160156 -1.804688 20.296875 -1.015625 C 20.378906 -0.617188 20.320312 -0.320312 20.125 -0.125 C 19.925781 0.0703125 19.628906 0.15625 19.234375 0.125 C 18.785156 0.0390625 18.304688 -0.0195312 17.796875 -0.0625 C 17.285156 -0.101562 16.648438 -0.125 15.890625 -0.125 C 15.179688 -0.125 14.578125 -0.101562 14.078125 -0.0625 C 13.578125 -0.0195312 13.128906 0.0234375 12.734375 0.078125 C 12.367188 0.140625 12.078125 0.0703125 11.859375 -0.125 C 11.648438 -0.320312 11.601562 -0.617188 11.71875 -1.015625 C 11.914062 -2.066406 12.148438 -3.601562 12.421875 -5.625 C 12.691406 -7.644531 12.867188 -9.90625 12.953125 -12.40625 L 8.03125 -12.40625 C 8.113281 -9.90625 8.285156 -7.632812 8.546875 -5.59375 C 8.816406 -3.5625 9.054688 -2.035156 9.265625 -1.015625 C 9.367188 -0.617188 9.320312 -0.320312 9.125 -0.125 C 8.925781 0.0703125 8.628906 0.15625 8.234375 0.125 Z M 8.234375 0.125 "/></g></g></g><g fill="#fff6ea" fill-opacity="1"><g transform="translate(209.285848, 55.021547)"><g><path d="M 15.28125 0.296875 L 13.328125 0.296875 C 12.679688 0.296875 12.285156 -0.0390625 12.140625 -0.71875 C 11.941406 -2 11.703125 -3.351562 11.421875 -4.78125 C 11.140625 -6.207031 10.863281 -7.570312 10.59375 -8.875 C 10.320312 -10.175781 10.085938 -11.265625 9.890625 -12.140625 C 9.609375 -13.554688 9.316406 -14.796875 9.015625 -15.859375 C 8.722656 -16.921875 8.421875 -17.890625 8.109375 -18.765625 L 8.109375 -18.640625 C 8.054688 -18.015625 8.007812 -17.390625 7.96875 -16.765625 C 7.925781 -16.148438 7.90625 -15.515625 7.90625 -14.859375 C 7.90625 -12.878906 7.976562 -10.984375 8.125 -9.171875 C 8.28125 -7.359375 8.460938 -5.742188 8.671875 -4.328125 C 8.890625 -2.910156 9.070312 -1.804688 9.21875 -1.015625 C 9.269531 -0.648438 9.210938 -0.351562 9.046875 -0.125 C 8.878906 0.101562 8.582031 0.1875 8.15625 0.125 C 7.613281 0.0390625 7.144531 -0.0195312 6.75 -0.0625 C 6.351562 -0.101562 5.71875 -0.125 4.84375 -0.125 C 4.132812 -0.125 3.53125 -0.101562 3.03125 -0.0625 C 2.539062 -0.0195312 2.082031 0.0234375 1.65625 0.078125 C 0.800781 0.222656 0.460938 -0.15625 0.640625 -1.0625 C 0.773438 -1.851562 0.941406 -2.945312 1.140625 -4.34375 C 1.335938 -5.75 1.515625 -7.359375 1.671875 -9.171875 C 1.828125 -10.984375 1.90625 -12.878906 1.90625 -14.859375 C 1.90625 -16.847656 1.828125 -18.742188 1.671875 -20.546875 C 1.515625 -22.359375 1.335938 -23.972656 1.140625 -25.390625 C 0.941406 -26.804688 0.773438 -27.910156 0.640625 -28.703125 C 0.492188 -29.585938 0.832031 -29.957031 1.65625 -29.8125 C 2.082031 -29.757812 2.539062 -29.707031 3.03125 -29.65625 C 3.53125 -29.613281 4.132812 -29.59375 4.84375 -29.59375 C 5.664062 -29.59375 6.476562 -29.617188 7.28125 -29.671875 C 8.09375 -29.734375 8.851562 -29.804688 9.5625 -29.890625 C 10.238281 -29.984375 10.617188 -29.675781 10.703125 -28.96875 C 10.929688 -27.238281 11.390625 -24.878906 12.078125 -21.890625 C 12.773438 -18.898438 13.519531 -15.46875 14.3125 -11.59375 C 15.101562 -15.25 15.859375 -18.597656 16.578125 -21.640625 C 17.304688 -24.679688 17.769531 -27.125 17.96875 -28.96875 C 18.050781 -29.644531 18.429688 -29.941406 19.109375 -29.859375 C 19.734375 -29.796875 20.410156 -29.734375 21.140625 -29.671875 C 21.878906 -29.617188 22.703125 -29.59375 23.609375 -29.59375 C 24.234375 -29.59375 24.707031 -29.597656 25.03125 -29.609375 C 25.363281 -29.628906 25.660156 -29.660156 25.921875 -29.703125 C 26.191406 -29.742188 26.523438 -29.796875 26.921875 -29.859375 C 27.316406 -29.910156 27.613281 -29.835938 27.8125 -29.640625 C 28.007812 -29.441406 28.066406 -29.117188 27.984375 -28.671875 C 27.847656 -27.898438 27.679688 -26.804688 27.484375 -25.390625 C 27.285156 -23.972656 27.109375 -22.363281 26.953125 -20.5625 C 26.796875 -18.769531 26.71875 -16.867188 26.71875 -14.859375 C 26.71875 -12.878906 26.796875 -10.984375 26.953125 -9.171875 C 27.109375 -7.359375 27.285156 -5.75 27.484375 -4.34375 C 27.679688 -2.945312 27.847656 -1.851562 27.984375 -1.0625 C 28.066406 -0.601562 28.007812 -0.273438 27.8125 -0.078125 C 27.613281 0.117188 27.316406 0.1875 26.921875 0.125 C 26.523438 0.0703125 26.191406 0.0234375 25.921875 -0.015625 C 25.660156 -0.0546875 25.363281 -0.0820312 25.03125 -0.09375 C 24.707031 -0.113281 24.234375 -0.125 23.609375 -0.125 C 22.898438 -0.125 22.296875 -0.101562 21.796875 -0.0625 C 21.304688 -0.0195312 20.863281 0.0234375 20.46875 0.078125 C 19.59375 0.222656 19.238281 -0.140625 19.40625 -1.015625 C 19.570312 -1.835938 19.753906 -2.945312 19.953125 -4.34375 C 20.148438 -5.75 20.328125 -7.359375 20.484375 -9.171875 C 20.640625 -10.984375 20.71875 -12.878906 20.71875 -14.859375 C 20.71875 -15.515625 20.703125 -16.140625 20.671875 -16.734375 C 20.648438 -17.328125 20.613281 -17.921875 20.5625 -18.515625 L 20.515625 -18.9375 C 20.398438 -18.40625 20.175781 -17.550781 19.84375 -16.375 C 19.519531 -15.195312 19.191406 -13.785156 18.859375 -12.140625 C 18.515625 -10.554688 18.132812 -8.835938 17.71875 -6.984375 C 17.3125 -5.128906 16.898438 -3.023438 16.484375 -0.671875 C 16.335938 -0.0234375 15.9375 0.296875 15.28125 0.296875 Z M 15.28125 0.296875 "/></g></g></g><g fill="#fff6ea" fill-opacity="1"><g transform="translate(239.189241, 55.021547)"><g><path d="M 1.734375 0.125 C 0.890625 0.207031 0.550781 -0.160156 0.71875 -0.984375 C 0.863281 -1.796875 1.039062 -2.910156 1.25 -4.328125 C 1.46875 -5.742188 1.648438 -7.359375 1.796875 -9.171875 C 1.953125 -10.984375 2.03125 -12.878906 2.03125 -14.859375 C 2.03125 -16.847656 1.953125 -18.742188 1.796875 -20.546875 C 1.648438 -22.359375 1.46875 -23.976562 1.25 -25.40625 C 1.039062 -26.84375 0.863281 -27.957031 0.71875 -28.75 C 0.550781 -29.570312 0.890625 -29.941406 1.734375 -29.859375 C 2.835938 -29.742188 4.054688 -29.648438 5.390625 -29.578125 C 6.722656 -29.503906 8.0625 -29.46875 9.40625 -29.46875 C 10.75 -29.46875 12.03125 -29.503906 13.25 -29.578125 C 14.46875 -29.648438 15.515625 -29.753906 16.390625 -29.890625 C 17.160156 -30.035156 17.5 -29.65625 17.40625 -28.75 C 17.351562 -27.789062 17.328125 -26.890625 17.328125 -26.046875 C 17.328125 -25.210938 17.351562 -24.1875 17.40625 -22.96875 C 17.40625 -22.007812 16.984375 -21.800781 16.140625 -22.34375 C 15.171875 -23.050781 14.207031 -23.523438 13.25 -23.765625 C 12.289062 -24.003906 11.410156 -24.125 10.609375 -24.125 C 9.816406 -24.125 9.164062 -24.109375 8.65625 -24.078125 C 8.65625 -24.078125 8.617188 -23.722656 8.546875 -23.015625 C 8.484375 -22.304688 8.410156 -21.4375 8.328125 -20.40625 C 8.242188 -19.375 8.15625 -18.347656 8.0625 -17.328125 C 8.882812 -17.328125 9.726562 -17.4375 10.59375 -17.65625 C 11.457031 -17.882812 12.203125 -18.144531 12.828125 -18.4375 C 13.191406 -18.570312 13.457031 -18.597656 13.625 -18.515625 C 13.800781 -18.429688 13.859375 -18.175781 13.796875 -17.75 C 13.773438 -17.351562 13.753906 -16.945312 13.734375 -16.53125 C 13.722656 -16.125 13.71875 -15.695312 13.71875 -15.25 C 13.71875 -14.851562 13.71875 -14.445312 13.71875 -14.03125 C 13.71875 -13.625 13.734375 -13.222656 13.765625 -12.828125 C 13.847656 -12.035156 13.503906 -11.804688 12.734375 -12.140625 C 12.117188 -12.398438 11.367188 -12.628906 10.484375 -12.828125 C 9.609375 -13.023438 8.789062 -13.125 8.03125 -13.125 C 8.082031 -12.351562 8.144531 -11.535156 8.21875 -10.671875 C 8.289062 -9.816406 8.359375 -9.003906 8.421875 -8.234375 C 8.492188 -7.472656 8.550781 -6.847656 8.59375 -6.359375 C 8.632812 -5.878906 8.65625 -5.640625 8.65625 -5.640625 C 9.164062 -5.617188 9.859375 -5.628906 10.734375 -5.671875 C 11.617188 -5.710938 12.59375 -5.878906 13.65625 -6.171875 C 14.71875 -6.472656 15.742188 -7.003906 16.734375 -7.765625 C 17.410156 -8.222656 17.734375 -8.054688 17.703125 -7.265625 C 17.648438 -6.242188 17.628906 -5.160156 17.640625 -4.015625 C 17.660156 -2.867188 17.726562 -1.84375 17.84375 -0.9375 C 17.925781 -0.144531 17.570312 0.207031 16.78125 0.125 C 15.582031 -0.0078125 14.316406 -0.0976562 12.984375 -0.140625 C 11.660156 -0.191406 10.363281 -0.21875 9.09375 -0.21875 C 6.289062 -0.21875 3.835938 -0.101562 1.734375 0.125 Z M 1.734375 0.125 "/></g></g></g><g fill="#fff6ea" fill-opacity="1"><g transform="translate(259.068193, 55.021547)"><g><path d="M 8.203125 0.125 C 7.742188 0.0390625 7.265625 -0.0195312 6.765625 -0.0625 C 6.273438 -0.101562 5.648438 -0.125 4.890625 -0.125 C 4.179688 -0.125 3.578125 -0.101562 3.078125 -0.0625 C 2.578125 -0.0195312 2.117188 0.0234375 1.703125 0.078125 C 1.328125 0.140625 1.039062 0.0703125 0.84375 -0.125 C 0.644531 -0.320312 0.585938 -0.617188 0.671875 -1.015625 C 0.816406 -1.835938 0.992188 -2.945312 1.203125 -4.34375 C 1.421875 -5.75 1.609375 -7.359375 1.765625 -9.171875 C 1.921875 -10.984375 2 -12.878906 2 -14.859375 C 2 -16.847656 1.921875 -18.742188 1.765625 -20.546875 C 1.609375 -22.359375 1.421875 -23.972656 1.203125 -25.390625 C 0.992188 -26.804688 0.816406 -27.910156 0.671875 -28.703125 C 0.585938 -29.097656 0.644531 -29.394531 0.84375 -29.59375 C 1.039062 -29.789062 1.328125 -29.863281 1.703125 -29.8125 C 2.179688 -29.757812 2.6875 -29.707031 3.21875 -29.65625 C 3.757812 -29.613281 4.398438 -29.59375 5.140625 -29.59375 C 5.960938 -29.59375 6.675781 -29.617188 7.28125 -29.671875 C 7.894531 -29.734375 8.484375 -29.796875 9.046875 -29.859375 C 9.785156 -29.972656 10.15625 -29.617188 10.15625 -28.796875 C 10.125 -27.742188 10.207031 -26.585938 10.40625 -25.328125 C 10.601562 -24.066406 10.882812 -22.820312 11.25 -21.59375 C 11.625 -20.363281 12.035156 -19.253906 12.484375 -18.265625 C 13.390625 -16.390625 14.296875 -14.660156 15.203125 -13.078125 L 15.25 -14.859375 C 15.25 -16.847656 15.171875 -18.742188 15.015625 -20.546875 C 14.859375 -22.359375 14.671875 -23.972656 14.453125 -25.390625 C 14.242188 -26.804688 14.070312 -27.910156 13.9375 -28.703125 C 13.789062 -29.585938 14.140625 -29.957031 14.984375 -29.8125 C 15.390625 -29.757812 15.835938 -29.707031 16.328125 -29.65625 C 16.828125 -29.613281 17.429688 -29.59375 18.140625 -29.59375 C 18.898438 -29.59375 19.535156 -29.613281 20.046875 -29.65625 C 20.554688 -29.707031 21.050781 -29.773438 21.53125 -29.859375 C 22.351562 -29.941406 22.691406 -29.570312 22.546875 -28.75 C 22.347656 -27.59375 22.148438 -26.40625 21.953125 -25.1875 C 21.753906 -23.96875 21.582031 -22.539062 21.4375 -20.90625 C 21.300781 -19.28125 21.21875 -17.265625 21.1875 -14.859375 C 21.1875 -12.878906 21.265625 -10.984375 21.421875 -9.171875 C 21.578125 -7.359375 21.757812 -5.742188 21.96875 -4.328125 C 22.1875 -2.910156 22.367188 -1.804688 22.515625 -1.015625 C 22.597656 -0.617188 22.546875 -0.320312 22.359375 -0.125 C 22.171875 0.0703125 21.878906 0.15625 21.484375 0.125 C 21.035156 0.0390625 20.554688 -0.0195312 20.046875 -0.0625 C 19.535156 -0.101562 18.898438 -0.125 18.140625 -0.125 C 17.335938 -0.125 16.679688 -0.09375 16.171875 -0.03125 C 15.671875 0.0195312 15.175781 0.0703125 14.6875 0.125 C 14.039062 0.269531 13.644531 -0.0390625 13.5 -0.8125 C 13.363281 -1.601562 13.140625 -2.691406 12.828125 -4.078125 C 12.515625 -5.460938 12.109375 -6.96875 11.609375 -8.59375 C 11.117188 -10.226562 10.519531 -11.765625 9.8125 -13.203125 C 9.445312 -13.972656 9.113281 -14.65625 8.8125 -15.25 C 8.507812 -15.84375 8.234375 -16.378906 7.984375 -16.859375 C 7.953125 -16.546875 7.9375 -16.21875 7.9375 -15.875 C 7.9375 -15.539062 7.9375 -15.203125 7.9375 -14.859375 C 7.9375 -12.878906 8.015625 -10.984375 8.171875 -9.171875 C 8.328125 -7.359375 8.507812 -5.742188 8.71875 -4.328125 C 8.9375 -2.910156 9.117188 -1.804688 9.265625 -1.015625 C 9.347656 -0.617188 9.289062 -0.320312 9.09375 -0.125 C 8.894531 0.0703125 8.597656 0.15625 8.203125 0.125 Z M 8.203125 0.125 "/></g></g></g><g fill="#fff6ea" fill-opacity="1"><g transform="translate(283.577103, 55.021547)"><g><path d="M 7.640625 0.078125 C 6.765625 0.222656 6.398438 -0.128906 6.546875 -0.984375 C 6.628906 -1.796875 6.738281 -2.910156 6.875 -4.328125 C 7.019531 -5.742188 7.160156 -7.359375 7.296875 -9.171875 C 7.441406 -10.984375 7.546875 -12.878906 7.609375 -14.859375 C 7.660156 -16.703125 7.632812 -18.4375 7.53125 -20.0625 C 7.4375 -21.695312 7.316406 -23.148438 7.171875 -24.421875 C 6.460938 -24.472656 5.65625 -24.414062 4.75 -24.25 C 3.84375 -24.082031 2.835938 -23.769531 1.734375 -23.3125 C 1.367188 -23.175781 1.066406 -23.179688 0.828125 -23.328125 C 0.585938 -23.484375 0.484375 -23.773438 0.515625 -24.203125 C 0.566406 -25.222656 0.597656 -26.046875 0.609375 -26.671875 C 0.628906 -27.296875 0.609375 -27.988281 0.546875 -28.75 C 0.523438 -29.144531 0.613281 -29.441406 0.8125 -29.640625 C 1.007812 -29.835938 1.289062 -29.910156 1.65625 -29.859375 C 2.507812 -29.742188 3.265625 -29.675781 3.921875 -29.65625 C 4.585938 -29.644531 5.40625 -29.640625 6.375 -29.640625 L 14.734375 -29.640625 C 15.722656 -29.640625 16.539062 -29.644531 17.1875 -29.65625 C 17.84375 -29.675781 18.597656 -29.742188 19.453125 -29.859375 C 19.816406 -29.910156 20.101562 -29.84375 20.3125 -29.65625 C 20.53125 -29.476562 20.613281 -29.191406 20.5625 -28.796875 C 20.53125 -28.054688 20.503906 -27.316406 20.484375 -26.578125 C 20.472656 -25.847656 20.5 -25.046875 20.5625 -24.171875 C 20.582031 -23.765625 20.476562 -23.484375 20.25 -23.328125 C 20.03125 -23.179688 19.722656 -23.175781 19.328125 -23.3125 C 17.171875 -24.164062 15.398438 -24.535156 14.015625 -24.421875 C 13.867188 -23.148438 13.738281 -21.695312 13.625 -20.0625 C 13.519531 -18.4375 13.46875 -16.703125 13.46875 -14.859375 C 13.46875 -12.878906 13.53125 -10.984375 13.65625 -9.171875 C 13.78125 -7.359375 13.925781 -5.742188 14.09375 -4.328125 C 14.269531 -2.910156 14.414062 -1.796875 14.53125 -0.984375 C 14.664062 -0.128906 14.3125 0.222656 13.46875 0.078125 C 13.039062 0.0234375 12.597656 -0.0195312 12.140625 -0.0625 C 11.691406 -0.101562 11.128906 -0.125 10.453125 -0.125 C 9.796875 -0.125 9.253906 -0.101562 8.828125 -0.0625 C 8.410156 -0.0195312 8.015625 0.0234375 7.640625 0.078125 Z M 7.640625 0.078125 "/></g></g></g><g fill="#fff6ea" fill-opacity="1"><g transform="translate(305.962177, 55.021547)"><g><path d="M 7.609375 0.640625 C 6.296875 0.640625 5.265625 0.582031 4.515625 0.46875 C 3.765625 0.351562 2.925781 0.296875 2 0.296875 C 1.207031 0.296875 0.851562 -0.0820312 0.9375 -0.84375 C 1.019531 -1.925781 1.101562 -3.085938 1.1875 -4.328125 C 1.269531 -5.578125 1.300781 -6.769531 1.28125 -7.90625 C 1.25 -8.382812 1.332031 -8.65625 1.53125 -8.71875 C 1.726562 -8.789062 1.984375 -8.644531 2.296875 -8.28125 C 3.117188 -7.320312 4.003906 -6.578125 4.953125 -6.046875 C 5.898438 -5.523438 6.8125 -5.265625 7.6875 -5.265625 C 8.425781 -5.265625 9.082031 -5.429688 9.65625 -5.765625 C 10.238281 -6.109375 10.53125 -6.664062 10.53125 -7.4375 C 10.53125 -8.03125 10.191406 -8.65625 9.515625 -9.3125 C 8.835938 -9.976562 8.03125 -10.664062 7.09375 -11.375 C 6.15625 -12.082031 5.304688 -12.78125 4.546875 -13.46875 C 3.015625 -14.882812 1.953125 -16.234375 1.359375 -17.515625 C 0.765625 -18.804688 0.46875 -20.34375 0.46875 -22.125 C 0.46875 -23.851562 0.832031 -25.332031 1.5625 -26.5625 C 2.300781 -27.789062 3.320312 -28.726562 4.625 -29.375 C 5.925781 -30.03125 7.414062 -30.359375 9.09375 -30.359375 C 9.96875 -30.359375 10.703125 -30.316406 11.296875 -30.234375 C 11.890625 -30.148438 12.453125 -30.066406 12.984375 -29.984375 C 13.523438 -29.898438 14.109375 -29.867188 14.734375 -29.890625 C 15.441406 -29.921875 15.78125 -29.570312 15.75 -28.84375 C 15.664062 -27.957031 15.609375 -26.910156 15.578125 -25.703125 C 15.554688 -24.503906 15.546875 -23.269531 15.546875 -22 C 15.546875 -21.519531 15.429688 -21.25 15.203125 -21.1875 C 14.972656 -21.132812 14.703125 -21.289062 14.390625 -21.65625 C 13.398438 -22.875 12.46875 -23.664062 11.59375 -24.03125 C 10.71875 -24.40625 9.984375 -24.59375 9.390625 -24.59375 C 8.734375 -24.59375 8.078125 -24.425781 7.421875 -24.09375 C 6.773438 -23.769531 6.453125 -23.113281 6.453125 -22.125 C 6.453125 -21.476562 6.726562 -20.863281 7.28125 -20.28125 C 7.832031 -19.695312 8.5 -19.117188 9.28125 -18.546875 C 10.0625 -17.984375 10.789062 -17.421875 11.46875 -16.859375 C 12.40625 -16.117188 13.289062 -15.320312 14.125 -14.46875 C 14.957031 -13.625 15.640625 -12.675781 16.171875 -11.625 C 16.710938 -10.582031 16.984375 -9.382812 16.984375 -8.03125 C 16.984375 -5.394531 16.21875 -3.289062 14.6875 -1.71875 C 13.164062 -0.144531 10.804688 0.640625 7.609375 0.640625 Z M 7.609375 0.640625 "/></g></g></g></g></g></svg>