<svg xmlns="http://www.w3.org/2000/svg" xmlns:xlink="http://www.w3.org/1999/xlink" width="260" zoomAndPan="magnify" viewBox="0 0 194.87999 215.249992" height="287" preserveAspectRatio="xMidYMid meet" version="1.0"><defs><g/><clipPath id="fccdd5865b"><path d="M 0.277344 48 L 159.851562 48 L 159.851562 211.035156 L 0.277344 211.035156 Z M 0.277344 48 " clip-rule="nonzero"/></clipPath><clipPath id="2a33a20c31"><path d="M 144 52.210938 L 193.832031 52.210938 L 193.832031 82.589844 L 144 82.589844 Z M 144 52.210938 " clip-rule="nonzero"/></clipPath><clipPath id="6d29aaa0a4"><path d="M 136 25.695312 L 168 25.695312 L 168 72 L 136 72 Z M 136 25.695312 " clip-rule="nonzero"/></clipPath><clipPath id="bbc5bc2a70"><path d="M 0.117188 1 L 0.835938 1 L 0.835938 2.621094 L 0.117188 2.621094 Z M 0.117188 1 " clip-rule="nonzero"/></clipPath><clipPath id="b779dfc1b7"><rect x="0" width="1" y="0" height="3"/></clipPath></defs><g clip-path="url(#fccdd5865b)"><path fill="#a0183f" d="M 130.308594 84.625 C 161.90625 120.875 170.398438 159.128906 143.410156 187.710938 C 107.351562 225.898438 52.953125 213.078125 23.511719 178.875 C -7.859375 142.425781 -12.359375 85.203125 40.84375 51.378906 C 53.339844 43.433594 98.710938 48.378906 130.308594 84.625 " fill-opacity="1" fill-rule="nonzero"/></g><path fill="#f0313d" d="M 138.113281 78.375 C 169.242188 114.089844 171.117188 163.472656 142.300781 188.683594 C 113.484375 213.890625 64.890625 205.375 33.761719 169.667969 C 2.632812 133.953125 0.757812 84.570312 29.574219 59.359375 C 58.390625 34.152344 106.984375 42.664062 138.113281 78.375 " fill-opacity="1" fill-rule="nonzero"/><path fill="#ffffff" d="M 127.679688 87.503906 C 152.582031 116.074219 154.082031 155.582031 131.027344 175.75 C 107.976562 195.917969 69.097656 189.105469 44.195312 160.535156 C 19.296875 131.96875 17.792969 92.460938 40.847656 72.292969 C 63.898438 52.125 102.773438 58.9375 127.679688 87.503906 " fill-opacity="1" fill-rule="nonzero"/><path fill="#f0313d" d="M 117.242188 96.636719 C 135.921875 118.0625 137.042969 147.691406 119.757812 162.816406 C 102.464844 177.945312 73.308594 172.835938 54.632812 151.40625 C 35.957031 129.980469 34.828125 100.351562 52.121094 85.226562 C 69.410156 70.101562 98.566406 75.210938 117.242188 96.636719 " fill-opacity="1" fill-rule="nonzero"/><path fill="#ffffff" d="M 106.683594 105.875 C 119.132812 120.160156 119.882812 139.914062 108.355469 149.996094 C 96.828125 160.078125 77.390625 156.675781 64.941406 142.390625 C 52.488281 128.105469 51.738281 108.351562 63.265625 98.269531 C 74.789062 88.183594 94.230469 91.589844 106.683594 105.875 " fill-opacity="1" fill-rule="nonzero"/><path fill="#f0313d" d="M 96.371094 114.890625 C 102.597656 122.035156 102.976562 131.910156 97.210938 136.953125 C 91.449219 141.996094 81.730469 140.292969 75.5 133.152344 C 69.277344 126.007812 68.902344 116.132812 74.664062 111.089844 C 80.429688 106.046875 90.148438 107.75 96.371094 114.890625 " fill-opacity="1" fill-rule="nonzero"/><g clip-path="url(#2a33a20c31)"><path fill="#999999" d="M 193.832031 57.644531 L 183.5 66.703125 L 167.414062 62.605469 L 179.0625 68.171875 L 171.058594 75.191406 L 158.023438 72.007812 L 166.210938 76.207031 L 159.355469 82.210938 L 144.050781 78.078125 L 174.351562 52.683594 L 193.832031 57.644531 " fill-opacity="1" fill-rule="nonzero"/></g><g clip-path="url(#6d29aaa0a4)"><path fill="#999999" d="M 165.46875 25.816406 L 167.746094 45.445312 L 138.492188 71.375 L 136.585938 56.789062 L 143.4375 50.785156 L 146.503906 59.46875 L 145.085938 46.101562 L 153.09375 39.085938 L 157.054688 51.394531 L 155.136719 34.875 L 165.46875 25.816406 " fill-opacity="1" fill-rule="nonzero"/></g><path fill="#d9d9d9" d="M 146.535156 184.574219 L 146.535156 184.570312 L 146.535156 184.574219 M 148.519531 182.320312 L 148.523438 182.316406 L 148.519531 182.320312 M 149.398438 181.242188 C 149.398438 181.238281 149.398438 181.238281 149.398438 181.238281 L 149.398438 181.242188 " fill-opacity="1" fill-rule="nonzero"/><path fill="#cc2a34" d="M 144.878906 186.285156 L 132.769531 174.148438 C 134.988281 171.988281 136.957031 169.640625 138.667969 167.128906 L 150.84375 179.335938 L 150.144531 180.277344 L 149.398438 181.238281 C 149.398438 181.238281 149.398438 181.238281 149.398438 181.242188 L 148.523438 182.316406 L 148.519531 182.320312 L 146.535156 184.570312 L 146.535156 184.574219 L 144.878906 186.285156 " fill-opacity="1" fill-rule="nonzero"/><path fill="#d9d9d9" d="M 132.769531 174.148438 L 120.65625 162.003906 C 122.925781 159.871094 124.855469 157.472656 126.441406 154.875 L 138.667969 167.128906 C 136.957031 169.640625 134.988281 171.988281 132.769531 174.148438 " fill-opacity="1" fill-rule="nonzero"/><path fill="#cc2a34" d="M 120.65625 162.003906 L 108.527344 149.84375 C 110.886719 147.742188 112.71875 145.226562 114.03125 142.4375 L 126.441406 154.875 C 124.855469 157.472656 122.925781 159.871094 120.65625 162.003906 " fill-opacity="1" fill-rule="nonzero"/><path fill="#d9d9d9" d="M 108.527344 149.84375 L 96.347656 137.636719 C 96.644531 137.425781 96.933594 137.195312 97.210938 136.953125 C 99.402344 135.035156 100.707031 132.414062 101.140625 129.511719 L 114.03125 142.4375 C 112.71875 145.226562 110.886719 147.742188 108.527344 149.84375 " fill-opacity="1" fill-rule="nonzero"/><path fill="#cc2a34" d="M 96.347656 137.636719 L 84.882812 126.148438 C 85.296875 126.488281 85.746094 126.792969 86.226562 127.039062 C 87.140625 127.507812 88.164062 127.796875 89.257812 127.847656 L 94.710938 123.066406 L 101.140625 129.511719 C 100.707031 132.414062 99.402344 135.035156 97.210938 136.953125 C 96.933594 137.195312 96.644531 137.425781 96.347656 137.636719 " fill-opacity="1" fill-rule="nonzero"/><path fill="#cccccc" d="M 183.878906 44.902344 L 89.257812 127.847656 C 85.082031 127.660156 81.902344 124.019531 82.269531 119.84375 L 176.890625 36.902344 L 183.878906 44.902344 " fill-opacity="1" fill-rule="nonzero"/><path fill="#d9d9d9" d="M 183.878906 44.902344 L 180.386719 40.902344 L 183.878906 44.902344 " fill-opacity="1" fill-rule="nonzero"/><path fill="#ae242c" d="M 89.257812 127.847656 C 88.164062 127.796875 87.140625 127.507812 86.226562 127.039062 C 87.140625 127.507812 88.164062 127.796875 89.257812 127.847656 L 94.710938 123.066406 L 89.257812 127.847656 " fill-opacity="1" fill-rule="nonzero"/><path fill="#aeaeae" d="M 89.257812 127.847656 C 88.164062 127.796875 87.140625 127.507812 86.226562 127.039062 C 85.398438 126.613281 84.664062 126.03125 84.058594 125.339844 L 180.386719 40.902344 L 183.878906 44.902344 L 174.859375 52.8125 L 145.566406 78.488281 L 94.710938 123.066406 L 89.257812 127.847656 " fill-opacity="1" fill-rule="nonzero"/><path fill="#999999" d="M 182.714844 38.859375 C 184.644531 41.070312 185.167969 43.773438 183.878906 44.902344 C 182.59375 46.03125 179.988281 45.152344 178.054688 42.945312 C 176.125 40.734375 175.605469 38.03125 176.890625 36.902344 C 178.179688 35.777344 180.785156 36.652344 182.714844 38.859375 " fill-opacity="1" fill-rule="nonzero"/><path fill="#808080" d="M 183.558594 55.027344 L 174.867188 52.816406 L 145.609375 78.5 L 154.183594 80.816406 L 161.933594 74.011719 L 158.023438 72.007812 L 162.871094 73.191406 L 172.28125 64.929688 L 167.414062 62.605469 L 173.238281 64.085938 L 183.558594 55.027344 " fill-opacity="1" fill-rule="nonzero"/><g fill="#000000" fill-opacity="1"><g transform="translate(96.21305, 0.1386)"><g><path d="M 0.046875 0 L 0.046875 -0.0625 L 0.234375 -0.0625 L 0.234375 -0.578125 L 0.21875 -0.59375 C 0.1875 -0.570312 0.160156 -0.554688 0.140625 -0.546875 C 0.117188 -0.535156 0.09375 -0.53125 0.0625 -0.53125 L 0.0625 -0.609375 C 0.09375 -0.609375 0.125 -0.613281 0.15625 -0.625 C 0.1875 -0.644531 0.21875 -0.664062 0.25 -0.6875 L 0.3125 -0.6875 L 0.3125 -0.0625 L 0.484375 -0.0625 L 0.484375 0 Z M 0.046875 0 "/></g></g></g><g transform="matrix(1, 0, 0, 1, 92, 72)"><g clip-path="url(#b779dfc1b7)"><g clip-path="url(#bbc5bc2a70)"><g fill="#000000" fill-opacity="1"><g transform="translate(0.186375, 2.175294)"><g><path d="M 0.046875 0 L 0.046875 -0.0625 L 0.25 -0.0625 L 0.25 -0.609375 L 0.234375 -0.625 C 0.203125 -0.601562 0.171875 -0.585938 0.140625 -0.578125 C 0.117188 -0.566406 0.09375 -0.5625 0.0625 -0.5625 L 0.0625 -0.640625 C 0.09375 -0.640625 0.125 -0.644531 0.15625 -0.65625 C 0.195312 -0.675781 0.234375 -0.695312 0.265625 -0.71875 L 0.328125 -0.71875 L 0.328125 -0.0625 L 0.5 -0.0625 L 0.5 0 Z M 0.046875 0 "/></g></g></g></g></g></g></svg>