<svg xmlns="http://www.w3.org/2000/svg" xmlns:xlink="http://www.w3.org/1999/xlink" width="171" zoomAndPan="magnify" viewBox="0 0 128.25 167.999997" height="224" preserveAspectRatio="xMidYMid meet" version="1.0"><defs><g/><clipPath id="d49babbe1b"><path d="M 1.773438 0.546875 L 127.503906 0.546875 L 127.503906 166.382812 L 1.773438 166.382812 Z M 1.773438 0.546875 " clip-rule="nonzero"/></clipPath><clipPath id="d354934a9b"><path d="M 7 11 L 118 11 L 118 166.765625 L 7 166.765625 Z M 7 11 " clip-rule="nonzero"/></clipPath><clipPath id="a3e79dad10"><path d="M 14.582031 87.230469 L 107.320312 87.230469 L 107.320312 166.703125 L 14.582031 166.703125 Z M 14.582031 87.230469 " clip-rule="nonzero"/></clipPath><clipPath id="6af4f1c37e"><path d="M 0.28125 1 L 1.234375 1 L 1.234375 2 L 0.28125 2 Z M 0.28125 1 " clip-rule="nonzero"/></clipPath><clipPath id="ef0ba7e4b5"><rect x="0" width="2" y="0" height="3"/></clipPath></defs><g clip-path="url(#d49babbe1b)"><path fill="#f01e01" d="M 29.648438 55.082031 C 27.777344 57.539062 16.542969 72.765625 21.859375 88.285156 C 25.300781 98.332031 35.273438 107.316406 39.625 105.492188 C 42.683594 104.210938 42.75 97.664062 42.789062 93.859375 C 42.878906 84.449219 39.6875 77.546875 38.652344 74.953125 C 31.914062 58.113281 41.9375 37.71875 44.003906 33.511719 C 56.199219 8.691406 84.285156 1.65625 89.023438 0.546875 C 87.132812 2.476562 81.832031 8.382812 80.503906 17.757812 C 79.3125 26.179688 81.988281 32.695312 83.179688 35.207031 C 84.160156 32.867188 86.03125 29.238281 89.507812 25.753906 C 93.980469 21.277344 98.824219 19.324219 101.433594 18.484375 C 97.679688 24.171875 92.253906 34.410156 92.671875 47.324219 C 93.011719 57.824219 97.183594 69.144531 99.726562 68.894531 C 100.929688 68.777344 102.285156 66.03125 103.136719 55.082031 C 106.0625 58.691406 110.074219 64.515625 112.867188 72.53125 C 116.019531 81.566406 116.261719 89.472656 116.03125 94.34375 C 119.113281 89.902344 122.195312 85.457031 125.277344 81.015625 C 124.253906 83.210938 122.804688 86.824219 122.113281 91.4375 C 120.140625 104.617188 126.910156 111.320312 127.46875 121.972656 C 128.1875 135.699219 118.230469 146.613281 115.058594 150.089844 C 99.304688 167.359375 75.269531 166.46875 64.929688 166.085938 C 53.710938 165.671875 31.410156 164.816406 15.777344 147.664062 C -2.425781 127.695312 -1.601562 95.824219 10.910156 74.714844 C 16.691406 64.960938 24.226562 58.75 29.648438 55.082031 " fill-opacity="1" fill-rule="nonzero"/></g><g clip-path="url(#d354934a9b)"><path fill="#f35b00" d="M 17.238281 71.320312 C 16.238281 73.609375 9.90625 88.730469 17.722656 101.859375 C 20.855469 107.117188 28.320312 115.523438 36.460938 114.460938 C 38.085938 114.25 41.707031 113.402344 45.707031 108.644531 C 61.683594 89.640625 43.167969 56.449219 59.089844 28.90625 C 61.808594 24.203125 66.71875 17.605469 76.125 11.453125 C 72.546875 19.25 68.164062 32.261719 70.285156 47.808594 C 70.972656 52.839844 74.421875 78.136719 89.023438 81.257812 C 96.449219 82.84375 103.554688 78.003906 107.027344 75.199219 C 108.296875 82.226562 108.679688 91.5 104.351562 100.402344 C 100.847656 107.617188 95.65625 111.695312 97.050781 113.734375 C 98.5 115.847656 105.875 114.066406 110.921875 110.582031 C 114.367188 108.203125 116.386719 105.261719 117.492188 103.3125 C 117.882812 126.53125 113.203125 144.507812 107.273438 152.511719 C 102.039062 159.574219 95.835938 162.449219 95.835938 162.449219 C 94.253906 163.183594 92.039062 164.011719 86.832031 164.875 C 77.238281 166.464844 69.578125 166.171875 67.609375 166.085938 C 54.105469 165.5 47.355469 165.207031 41.082031 162.933594 C 23.476562 156.554688 15.292969 138.457031 13.101562 133.609375 C -0.0078125 104.621094 14.957031 75.582031 17.238281 71.320312 " fill-opacity="1" fill-rule="nonzero"/></g><g clip-path="url(#a3e79dad10)"><path fill="#fdb800" d="M 15.289062 113.492188 C 17.703125 128.140625 25.484375 138.054688 33.054688 138.214844 C 40.496094 138.367188 46.457031 129.066406 47.898438 126.824219 C 53.519531 118.054688 51.246094 111.976562 56.902344 98.464844 C 58.957031 93.550781 61.183594 89.753906 62.742188 87.316406 C 61.417969 91.359375 59.777344 97.90625 60.066406 105.976562 C 60.140625 108.082031 60.816406 127.003906 67.851562 128.761719 C 72.90625 130.023438 80.609375 122.261719 86.101562 110.097656 C 88.25 115.925781 90.414062 124.785156 87.316406 133.851562 C 84.617188 141.765625 79.089844 146.386719 80.261719 147.664062 C 81.664062 149.195312 90.582031 143.699219 96.808594 138.699219 C 101.359375 135.042969 104.664062 131.496094 106.785156 129.003906 C 107.246094 131.804688 108.46875 141.421875 102.648438 150.816406 C 97.097656 159.78125 88.5625 162.9375 84.640625 164.386719 C 76.921875 167.25 70.625 166.859375 62.011719 166.328125 C 51 165.648438 43.554688 165.1875 35.488281 160.269531 C 24.839844 153.773438 20.351562 143.925781 18.695312 140.152344 C 13.59375 128.519531 14.589844 118 15.289062 113.492188 " fill-opacity="1" fill-rule="nonzero"/></g><path fill="#f35b00" d="M 86.101562 68.652344 C 85.074219 66.542969 82.628906 60.832031 83.667969 53.382812 C 84.683594 46.109375 88.4375 41.34375 89.996094 39.570312 C 88.285156 43.625 88.011719 46.882812 88.046875 49.023438 C 88.132812 54.257812 90.132812 56.640625 89.507812 61.140625 C 89.03125 64.558594 87.328125 67.128906 86.101562 68.652344 " fill-opacity="1" fill-rule="nonzero"/><g transform="matrix(1, 0, 0, 1, 109, 53)"><g clip-path="url(#ef0ba7e4b5)"><g clip-path="url(#6af4f1c37e)"><g fill="#000000" fill-opacity="1"><g transform="translate(0.404815, 1.960347)"><g><path d="M 0.34375 0.015625 C 0.289062 0.015625 0.242188 0.00390625 0.203125 -0.015625 C 0.160156 -0.046875 0.128906 -0.0859375 0.109375 -0.140625 C 0.0859375 -0.203125 0.078125 -0.273438 0.078125 -0.359375 C 0.078125 -0.441406 0.0859375 -0.507812 0.109375 -0.5625 C 0.128906 -0.625 0.160156 -0.664062 0.203125 -0.6875 C 0.242188 -0.707031 0.289062 -0.71875 0.34375 -0.71875 C 0.40625 -0.71875 0.457031 -0.707031 0.5 -0.6875 C 0.539062 -0.664062 0.570312 -0.625 0.59375 -0.5625 C 0.613281 -0.507812 0.625 -0.441406 0.625 -0.359375 C 0.625 -0.273438 0.613281 -0.203125 0.59375 -0.140625 C 0.570312 -0.0859375 0.539062 -0.046875 0.5 -0.015625 C 0.457031 0.00390625 0.40625 0.015625 0.34375 0.015625 Z M 0.34375 -0.0625 C 0.40625 -0.0625 0.453125 -0.0820312 0.484375 -0.125 C 0.523438 -0.175781 0.546875 -0.253906 0.546875 -0.359375 C 0.546875 -0.460938 0.523438 -0.535156 0.484375 -0.578125 C 0.453125 -0.617188 0.40625 -0.640625 0.34375 -0.640625 C 0.3125 -0.640625 0.28125 -0.628906 0.25 -0.609375 C 0.21875 -0.597656 0.191406 -0.570312 0.171875 -0.53125 C 0.160156 -0.488281 0.15625 -0.429688 0.15625 -0.359375 C 0.15625 -0.285156 0.160156 -0.226562 0.171875 -0.1875 C 0.191406 -0.144531 0.21875 -0.113281 0.25 -0.09375 C 0.28125 -0.0703125 0.3125 -0.0625 0.34375 -0.0625 Z M 0.34375 -0.0625 "/></g></g></g></g></g></g></svg>