<svg xmlns="http://www.w3.org/2000/svg" xmlns:xlink="http://www.w3.org/1999/xlink" width="308" zoomAndPan="magnify" viewBox="0 0 230.87999 91.5" height="122" preserveAspectRatio="xMidYMid meet" version="1.0"><defs><g/><clipPath id="80986d69d2"><path d="M 0.566406 0 L 230 0 L 230 91 L 0.566406 91 Z M 0.566406 0 " clip-rule="nonzero"/></clipPath><clipPath id="cfd7acfeed"><path d="M 0.566406 16.714844 L 224.539062 0.957031 L 229.71875 74.621094 L 5.75 90.378906 Z M 0.566406 16.714844 " clip-rule="nonzero"/></clipPath><clipPath id="6376da1a15"><path d="M 3 14 L 227 14 L 227 78 L 3 78 Z M 3 14 " clip-rule="nonzero"/></clipPath><clipPath id="7076263b54"><path d="M 0.566406 16.714844 L 224.539062 0.957031 L 229.71875 74.621094 L 5.75 90.378906 Z M 0.566406 16.714844 " clip-rule="nonzero"/></clipPath><clipPath id="cc0493af93"><path d="M 224.628906 0.949219 L 0.660156 16.710938 L 5.84375 90.375 L 229.8125 74.613281 Z M 224.628906 0.949219 " clip-rule="nonzero"/></clipPath><clipPath id="3fede66ba2"><rect x="0" width="230" y="0" height="91"/></clipPath></defs><g clip-path="url(#80986d69d2)"><g clip-path="url(#cfd7acfeed)"><g transform="matrix(1, 0, 0, 1, 0.000000000000000111, 0.000000000000004552)"><g clip-path="url(#3fede66ba2)"><g clip-path="url(#6376da1a15)"><g clip-path="url(#7076263b54)"><g clip-path="url(#cc0493af93)"><path fill="#ff5757" d="M 222.8125 56.199219 C 223.300781 55.515625 224 55.324219 224.554688 54.929688 C 226.875 53.296875 227.1875 50.78125 225.308594 48.65625 C 224.667969 47.929688 223.984375 47.234375 223.324219 46.519531 C 222.488281 45.609375 222.511719 45.394531 223.457031 44.503906 C 224.011719 43.980469 224.566406 43.449219 225.078125 42.878906 C 227.324219 40.359375 226.46875 38.734375 224.972656 37.007812 C 224.335938 36.273438 223.6875 35.539062 222.960938 34.902344 C 222.253906 34.273438 222.367188 33.785156 222.921875 33.152344 C 223.789062 32.164062 224.757812 31.253906 225.261719 29.972656 C 226.101562 27.824219 225.789062 26.722656 223.839844 25.371094 C 222.257812 24.273438 222.125 23.859375 222.84375 22.070312 C 223.203125 21.164062 223.65625 20.285156 223.957031 19.367188 C 224.671875 17.136719 223.917969 15.953125 221.664062 15.394531 C 219.75 14.921875 217.773438 14.921875 215.871094 14.949219 C 213.027344 14.988281 210.175781 14.910156 207.332031 14.945312 C 186.074219 15.207031 164.816406 15.480469 143.554688 15.550781 C 121.546875 15.625 99.546875 15.414062 77.539062 15.421875 C 56.164062 15.425781 34.054688 14.367188 12.769531 16.519531 C 10.960938 16.703125 9.195312 17.03125 7.433594 17.410156 C 5.003906 17.9375 4.375 19.183594 5.226562 21.574219 C 5.578125 22.554688 6.066406 23.484375 6.535156 24.414062 C 6.871094 25.09375 6.875 25.648438 6.4375 26.335938 C 5.984375 27.046875 5.441406 27.679688 4.988281 28.375 C 3.652344 30.4375 3.730469 31.523438 5.214844 33.484375 C 5.679688 34.101562 6.195312 34.652344 6.773438 35.15625 C 7.421875 35.726562 7.449219 36.328125 6.878906 36.96875 C 6.324219 37.59375 5.742188 38.199219 5.226562 38.855469 C 4.09375 40.292969 4.027344 41.304688 4.960938 42.875 C 5.351562 43.527344 5.863281 44.109375 6.265625 44.757812 C 7 45.941406 6.933594 46.3125 5.933594 47.257812 C 5.628906 47.542969 5.304688 47.8125 5.039062 48.132812 C 3.140625 50.40625 3.285156 52.09375 5.527344 54.050781 C 5.683594 54.1875 5.847656 54.320312 6.007812 54.457031 C 7.714844 55.929688 7.792969 55.972656 6.628906 57.839844 C 4.789062 60.796875 4.179688 63.074219 9.039062 65.699219 C 9.277344 65.828125 9.5 65.980469 9.796875 66.160156 C 9.417969 67.195312 8.910156 68.09375 8.175781 68.828125 C 7.089844 69.925781 6.359375 71.285156 5.421875 72.496094 C 4.621094 73.527344 4.820312 74.835938 5.832031 75.640625 C 6.726562 76.355469 7.789062 76.746094 8.921875 76.765625 C 76.859375 77.757812 145.703125 77.761719 213.820312 75.605469 C 215.910156 75.539062 218 75.539062 220.082031 75.371094 C 220.640625 75.324219 221.199219 75.304688 221.75 75.238281 C 224.621094 74.902344 225.625 72.578125 223.871094 70.265625 C 223.457031 69.714844 222.859375 69.308594 222.382812 68.804688 C 221.535156 67.925781 221.550781 67.492188 222.535156 66.808594 C 223.222656 66.332031 223.84375 65.777344 224.507812 65.277344 C 227.277344 63.1875 226.714844 60.082031 224.78125 58.019531 C 224.175781 57.367188 223.472656 56.804688 222.8125 56.199219 Z M 222.8125 56.199219 " fill-opacity="1" fill-rule="nonzero"/></g></g></g></g></g></g></g><g fill="#000000" fill-opacity="0.4"><g transform="translate(43.599402, 60.973965)"><g><path d="M 10.6875 0.625 C 7.488281 0.625 5 -0.617188 3.21875 -3.109375 C 1.4375 -5.597656 0.546875 -9.445312 0.546875 -14.65625 C 0.546875 -19.414062 1.4375 -23.140625 3.21875 -25.828125 C 5 -28.515625 7.488281 -29.859375 10.6875 -29.859375 C 13.894531 -29.859375 16.378906 -28.515625 18.140625 -25.828125 C 19.910156 -23.140625 20.796875 -19.414062 20.796875 -14.65625 C 20.796875 -9.445312 19.910156 -5.597656 18.140625 -3.109375 C 16.378906 -0.617188 13.894531 0.625 10.6875 0.625 Z M 10.65625 -5.21875 C 11.34375 -5.21875 11.9375 -5.628906 12.4375 -6.453125 C 12.945312 -7.273438 13.335938 -8.390625 13.609375 -9.796875 C 13.890625 -11.203125 14.03125 -12.769531 14.03125 -14.5 C 14.03125 -17.394531 13.722656 -19.703125 13.109375 -21.421875 C 12.503906 -23.148438 11.6875 -24.015625 10.65625 -24.015625 C 9.625 -24.015625 8.800781 -23.148438 8.1875 -21.421875 C 7.570312 -19.703125 7.265625 -17.394531 7.265625 -14.5 C 7.265625 -12.769531 7.40625 -11.203125 7.6875 -9.796875 C 7.96875 -8.390625 8.363281 -7.273438 8.875 -6.453125 C 9.382812 -5.628906 9.976562 -5.21875 10.65625 -5.21875 Z M 10.65625 -5.21875 "/></g></g></g><g fill="#000000" fill-opacity="0.4"><g transform="translate(66.197904, 60.973965)"><g><path d="M 6.015625 0.171875 C 5.265625 0.253906 4.890625 -0.078125 4.890625 -0.828125 C 4.859375 -3.054688 4.722656 -5.289062 4.484375 -7.53125 C 4.253906 -9.78125 3.972656 -12.015625 3.640625 -14.234375 C 3.359375 -16.191406 3.007812 -18.070312 2.59375 -19.875 C 2.175781 -21.6875 1.769531 -23.316406 1.375 -24.765625 C 0.988281 -26.210938 0.671875 -27.351562 0.421875 -28.1875 C 0.304688 -28.582031 0.332031 -28.882812 0.5 -29.09375 C 0.664062 -29.300781 0.957031 -29.375 1.375 -29.3125 C 1.769531 -29.257812 2.195312 -29.210938 2.65625 -29.171875 C 3.113281 -29.128906 3.691406 -29.109375 4.390625 -29.109375 C 5.171875 -29.109375 5.8125 -29.132812 6.3125 -29.1875 C 6.8125 -29.25 7.3125 -29.304688 7.8125 -29.359375 C 8.59375 -29.492188 8.953125 -29.144531 8.890625 -28.3125 C 8.890625 -27.5625 8.890625 -26.503906 8.890625 -25.140625 C 8.890625 -23.773438 8.925781 -22.242188 9 -20.546875 C 9.070312 -18.847656 9.203125 -17.125 9.390625 -15.375 C 9.554688 -14.144531 9.71875 -13.050781 9.875 -12.09375 C 10.03125 -11.132812 10.191406 -10.191406 10.359375 -9.265625 C 10.523438 -8.347656 10.691406 -7.363281 10.859375 -6.3125 C 11.023438 -7.363281 11.191406 -8.347656 11.359375 -9.265625 C 11.523438 -10.191406 11.691406 -11.132812 11.859375 -12.09375 C 12.023438 -13.050781 12.179688 -14.144531 12.328125 -15.375 C 12.515625 -17.125 12.644531 -18.847656 12.71875 -20.546875 C 12.789062 -22.242188 12.832031 -23.773438 12.84375 -25.140625 C 12.851562 -26.503906 12.847656 -27.578125 12.828125 -28.359375 C 12.765625 -29.160156 13.125 -29.492188 13.90625 -29.359375 C 14.40625 -29.304688 14.90625 -29.25 15.40625 -29.1875 C 15.90625 -29.132812 16.546875 -29.109375 17.328125 -29.109375 C 18.023438 -29.109375 18.601562 -29.128906 19.0625 -29.171875 C 19.519531 -29.210938 19.945312 -29.257812 20.34375 -29.3125 C 20.757812 -29.375 21.054688 -29.300781 21.234375 -29.09375 C 21.421875 -28.882812 21.457031 -28.582031 21.34375 -28.1875 C 21.09375 -27.351562 20.765625 -26.210938 20.359375 -24.765625 C 19.953125 -23.316406 19.546875 -21.6875 19.140625 -19.875 C 18.742188 -18.070312 18.390625 -16.191406 18.078125 -14.234375 C 17.742188 -12.015625 17.46875 -9.789062 17.25 -7.5625 C 17.03125 -5.332031 16.890625 -3.085938 16.828125 -0.828125 C 16.828125 -0.078125 16.453125 0.253906 15.703125 0.171875 C 14.003906 -0.0234375 12.367188 -0.113281 10.796875 -0.09375 C 9.222656 -0.0820312 7.628906 0.00390625 6.015625 0.171875 Z M 6.015625 0.171875 "/></g></g></g><g fill="#000000" fill-opacity="0.4"><g transform="translate(89.172351, 60.973965)"><g><path d="M 1.71875 0.125 C 0.875 0.207031 0.535156 -0.148438 0.703125 -0.953125 C 0.847656 -1.765625 1.023438 -2.863281 1.234375 -4.25 C 1.441406 -5.644531 1.617188 -7.234375 1.765625 -9.015625 C 1.921875 -10.796875 2 -12.664062 2 -14.625 C 2 -16.570312 1.921875 -18.4375 1.765625 -20.21875 C 1.617188 -22 1.441406 -23.59375 1.234375 -25 C 1.023438 -26.40625 0.847656 -27.5 0.703125 -28.28125 C 0.535156 -29.082031 0.875 -29.441406 1.71875 -29.359375 C 2.800781 -29.242188 3.992188 -29.148438 5.296875 -29.078125 C 6.609375 -29.015625 7.925781 -28.984375 9.25 -28.984375 C 10.570312 -28.984375 11.832031 -29.015625 13.03125 -29.078125 C 14.226562 -29.148438 15.257812 -29.257812 16.125 -29.40625 C 16.875 -29.539062 17.207031 -29.164062 17.125 -28.28125 C 17.070312 -27.332031 17.046875 -26.445312 17.046875 -25.625 C 17.046875 -24.800781 17.070312 -23.789062 17.125 -22.59375 C 17.125 -21.644531 16.707031 -21.4375 15.875 -21.96875 C 14.925781 -22.664062 13.976562 -23.128906 13.03125 -23.359375 C 12.082031 -23.597656 11.21875 -23.71875 10.4375 -23.71875 C 9.65625 -23.71875 9.015625 -23.707031 8.515625 -23.6875 C 8.515625 -23.6875 8.476562 -23.335938 8.40625 -22.640625 C 8.34375 -21.941406 8.269531 -21.082031 8.1875 -20.0625 C 8.101562 -19.050781 8.019531 -18.046875 7.9375 -17.046875 C 8.738281 -17.046875 9.5625 -17.15625 10.40625 -17.375 C 11.257812 -17.59375 11.992188 -17.84375 12.609375 -18.125 C 12.972656 -18.257812 13.238281 -18.285156 13.40625 -18.203125 C 13.570312 -18.117188 13.628906 -17.867188 13.578125 -17.453125 C 13.546875 -17.066406 13.519531 -16.671875 13.5 -16.265625 C 13.488281 -15.859375 13.484375 -15.4375 13.484375 -15 C 13.484375 -14.601562 13.484375 -14.203125 13.484375 -13.796875 C 13.484375 -13.398438 13.5 -13.003906 13.53125 -12.609375 C 13.613281 -11.828125 13.28125 -11.601562 12.53125 -11.9375 C 11.914062 -12.195312 11.175781 -12.421875 10.3125 -12.609375 C 9.445312 -12.804688 8.640625 -12.90625 7.890625 -12.90625 C 7.953125 -12.15625 8.015625 -11.351562 8.078125 -10.5 C 8.148438 -9.65625 8.21875 -8.851562 8.28125 -8.09375 C 8.351562 -7.34375 8.410156 -6.734375 8.453125 -6.265625 C 8.492188 -5.796875 8.515625 -5.5625 8.515625 -5.5625 C 9.015625 -5.53125 9.695312 -5.535156 10.5625 -5.578125 C 11.425781 -5.617188 12.378906 -5.785156 13.421875 -6.078125 C 14.472656 -6.367188 15.484375 -6.890625 16.453125 -7.640625 C 17.117188 -8.085938 17.441406 -7.921875 17.421875 -7.140625 C 17.359375 -6.140625 17.332031 -5.070312 17.34375 -3.9375 C 17.363281 -2.8125 17.429688 -1.804688 17.546875 -0.921875 C 17.628906 -0.140625 17.28125 0.207031 16.5 0.125 C 15.332031 -0.0078125 14.09375 -0.0976562 12.78125 -0.140625 C 11.46875 -0.179688 10.1875 -0.203125 8.9375 -0.203125 C 6.175781 -0.203125 3.769531 -0.09375 1.71875 0.125 Z M 1.71875 0.125 "/></g></g></g><g fill="#000000" fill-opacity="0.4"><g transform="translate(108.721519, 60.973965)"><g><path d="M 8.109375 0.125 C 7.628906 0.0390625 7.144531 -0.0195312 6.65625 -0.0625 C 6.175781 -0.101562 5.554688 -0.125 4.796875 -0.125 C 4.109375 -0.125 3.519531 -0.101562 3.03125 -0.0625 C 2.539062 -0.0195312 2.101562 0.0234375 1.71875 0.078125 C 1.320312 0.140625 1.023438 0.0703125 0.828125 -0.125 C 0.640625 -0.320312 0.585938 -0.613281 0.671875 -1 C 0.835938 -1.8125 1.015625 -2.90625 1.203125 -4.28125 C 1.398438 -5.65625 1.578125 -7.234375 1.734375 -9.015625 C 1.890625 -10.796875 1.96875 -12.664062 1.96875 -14.625 C 1.96875 -16.570312 1.890625 -18.4375 1.734375 -20.21875 C 1.578125 -22 1.398438 -23.59375 1.203125 -25 C 1.015625 -26.40625 0.835938 -27.5 0.671875 -28.28125 C 0.503906 -29.082031 0.851562 -29.441406 1.71875 -29.359375 C 2.65625 -29.242188 3.476562 -29.203125 4.1875 -29.234375 C 4.90625 -29.265625 5.628906 -29.320312 6.359375 -29.40625 C 7.097656 -29.488281 7.957031 -29.53125 8.9375 -29.53125 C 12.164062 -29.5 14.625 -28.664062 16.3125 -27.03125 C 18 -25.40625 18.84375 -23.050781 18.84375 -19.96875 C 18.84375 -18.101562 18.523438 -16.539062 17.890625 -15.28125 C 17.265625 -14.03125 16.367188 -13.054688 15.203125 -12.359375 C 16.347656 -11.640625 17.253906 -10.722656 17.921875 -9.609375 C 18.585938 -8.492188 18.988281 -7.546875 19.125 -6.765625 C 19.320312 -5.679688 19.566406 -4.625 19.859375 -3.59375 C 20.148438 -2.5625 20.421875 -1.710938 20.671875 -1.046875 C 20.921875 -0.179688 20.601562 0.207031 19.71875 0.125 C 19.21875 0.0703125 18.671875 0.0234375 18.078125 -0.015625 C 17.492188 -0.0546875 16.84375 -0.078125 16.125 -0.078125 C 15.457031 -0.078125 14.925781 -0.0625 14.53125 -0.03125 C 14.144531 -0.0078125 13.785156 0.0234375 13.453125 0.078125 C 12.703125 0.191406 12.410156 -0.148438 12.578125 -0.953125 C 12.710938 -1.429688 12.820312 -2.046875 12.90625 -2.796875 C 12.988281 -3.546875 13.03125 -4.46875 13.03125 -5.5625 C 13.03125 -7.03125 12.519531 -8.160156 11.5 -8.953125 C 10.488281 -9.753906 9.300781 -10.25 7.9375 -10.4375 C 8.050781 -8.269531 8.222656 -6.367188 8.453125 -4.734375 C 8.691406 -3.109375 8.894531 -1.863281 9.0625 -1 C 9.226562 -0.164062 8.910156 0.207031 8.109375 0.125 Z M 7.859375 -13.40625 L 8.9375 -13.40625 C 10.164062 -13.40625 11.140625 -13.945312 11.859375 -15.03125 C 12.585938 -16.125 12.953125 -17.769531 12.953125 -19.96875 C 12.953125 -21.582031 12.726562 -22.734375 12.28125 -23.421875 C 11.832031 -24.117188 11.164062 -24.46875 10.28125 -24.46875 C 9.75 -24.46875 9.285156 -24.242188 8.890625 -23.796875 C 8.503906 -23.359375 8.242188 -22.816406 8.109375 -22.171875 C 7.859375 -20.835938 7.753906 -19.414062 7.796875 -17.90625 C 7.835938 -16.40625 7.859375 -14.90625 7.859375 -13.40625 Z M 7.859375 -13.40625 "/></g></g></g><g fill="#000000" fill-opacity="0.4"><g transform="translate(131.069392, 60.973965)"><g><path d="M 13.734375 0.046875 C 12.929688 0.179688 12.554688 -0.140625 12.609375 -0.921875 C 12.609375 -1.472656 12.613281 -2.179688 12.625 -3.046875 C 12.644531 -3.910156 12.640625 -4.859375 12.609375 -5.890625 L 8.6875 -5.890625 C 8.65625 -4.859375 8.644531 -3.914062 8.65625 -3.0625 C 8.675781 -2.21875 8.6875 -1.515625 8.6875 -0.953125 C 8.6875 -0.148438 8.3125 0.164062 7.5625 0 C 5.414062 -0.414062 3.285156 -0.429688 1.171875 -0.046875 C 0.273438 0.117188 -0.046875 -0.222656 0.203125 -1.078125 C 0.453125 -1.921875 0.769531 -3.054688 1.15625 -4.484375 C 1.550781 -5.921875 1.957031 -7.539062 2.375 -9.34375 C 2.789062 -11.15625 3.140625 -13.039062 3.421875 -15 C 3.753906 -17.21875 4.039062 -19.441406 4.28125 -21.671875 C 4.519531 -23.898438 4.648438 -26.128906 4.671875 -28.359375 C 4.671875 -29.140625 5.0625 -29.457031 5.84375 -29.3125 C 7.4375 -29.0625 9.023438 -28.941406 10.609375 -28.953125 C 12.191406 -28.972656 13.789062 -29.09375 15.40625 -29.3125 C 16.21875 -29.457031 16.625 -29.140625 16.625 -28.359375 C 16.675781 -26.128906 16.8125 -23.898438 17.03125 -21.671875 C 17.257812 -19.441406 17.539062 -17.21875 17.875 -15 C 18.175781 -13.070312 18.53125 -11.203125 18.9375 -9.390625 C 19.34375 -7.585938 19.738281 -5.96875 20.125 -4.53125 C 20.519531 -3.09375 20.84375 -1.957031 21.09375 -1.125 C 21.375 -0.238281 21.023438 0.117188 20.046875 -0.046875 C 18.984375 -0.234375 17.929688 -0.320312 16.890625 -0.3125 C 15.847656 -0.300781 14.796875 -0.179688 13.734375 0.046875 Z M 8.890625 -10.53125 L 12.40625 -10.53125 C 12.375 -11.082031 12.332031 -11.632812 12.28125 -12.1875 C 12.226562 -12.75 12.171875 -13.304688 12.109375 -13.859375 C 11.890625 -15.785156 11.644531 -17.566406 11.375 -19.203125 C 11.113281 -20.847656 10.875 -22.425781 10.65625 -23.9375 C 10.40625 -22.34375 10.144531 -20.65625 9.875 -18.875 C 9.613281 -17.09375 9.382812 -15.421875 9.1875 -13.859375 C 9.132812 -13.359375 9.085938 -12.796875 9.046875 -12.171875 C 9.003906 -11.546875 8.953125 -11 8.890625 -10.53125 Z M 8.890625 -10.53125 "/></g></g></g><g fill="#000000" fill-opacity="0.4"><g transform="translate(153.626122, 60.973965)"><g><path d="M 1.75 0.125 C 0.914062 0.207031 0.566406 -0.148438 0.703125 -0.953125 C 1.015625 -2.578125 1.304688 -4.515625 1.578125 -6.765625 C 1.859375 -9.023438 2 -11.644531 2 -14.625 C 2 -16.570312 1.921875 -18.4375 1.765625 -20.21875 C 1.617188 -22 1.441406 -23.582031 1.234375 -24.96875 C 1.023438 -26.363281 0.847656 -27.453125 0.703125 -28.234375 C 0.566406 -29.097656 0.914062 -29.457031 1.75 -29.3125 C 2.144531 -29.257812 2.582031 -29.210938 3.0625 -29.171875 C 3.550781 -29.128906 4.144531 -29.109375 4.84375 -29.109375 C 5.59375 -29.109375 6.21875 -29.128906 6.71875 -29.171875 C 7.21875 -29.210938 7.691406 -29.273438 8.140625 -29.359375 C 8.953125 -29.441406 9.285156 -29.082031 9.140625 -28.28125 C 8.785156 -26.382812 8.488281 -24.359375 8.25 -22.203125 C 8.007812 -20.046875 7.890625 -17.519531 7.890625 -14.625 C 7.890625 -12.613281 7.96875 -10.929688 8.125 -9.578125 C 8.28125 -8.234375 8.410156 -7.195312 8.515625 -6.46875 C 8.929688 -6.445312 9.515625 -6.425781 10.265625 -6.40625 C 11.023438 -6.394531 11.882812 -6.519531 12.84375 -6.78125 C 13.800781 -7.050781 14.78125 -7.5625 15.78125 -8.3125 C 16.144531 -8.5625 16.46875 -8.625 16.75 -8.5 C 17.03125 -8.375 17.15625 -8.117188 17.125 -7.734375 C 17.070312 -6.585938 17.035156 -5.421875 17.015625 -4.234375 C 17.003906 -3.054688 17.039062 -1.953125 17.125 -0.921875 C 17.15625 -0.140625 16.789062 0.207031 16.03125 0.125 C 14.976562 -0.0078125 13.859375 -0.0976562 12.671875 -0.140625 C 11.492188 -0.179688 10.207031 -0.203125 8.8125 -0.203125 C 7.582031 -0.203125 6.34375 -0.175781 5.09375 -0.125 C 3.84375 -0.0703125 2.726562 0.0078125 1.75 0.125 Z M 1.75 0.125 "/></g></g></g><g fill="#000000" fill-opacity="0.4"><g transform="translate(172.674031, 60.973965)"><g><path d="M 1.75 0.125 C 0.914062 0.207031 0.566406 -0.148438 0.703125 -0.953125 C 1.015625 -2.578125 1.304688 -4.515625 1.578125 -6.765625 C 1.859375 -9.023438 2 -11.644531 2 -14.625 C 2 -16.570312 1.921875 -18.4375 1.765625 -20.21875 C 1.617188 -22 1.441406 -23.582031 1.234375 -24.96875 C 1.023438 -26.363281 0.847656 -27.453125 0.703125 -28.234375 C 0.566406 -29.097656 0.914062 -29.457031 1.75 -29.3125 C 2.144531 -29.257812 2.582031 -29.210938 3.0625 -29.171875 C 3.550781 -29.128906 4.144531 -29.109375 4.84375 -29.109375 C 5.59375 -29.109375 6.21875 -29.128906 6.71875 -29.171875 C 7.21875 -29.210938 7.691406 -29.273438 8.140625 -29.359375 C 8.953125 -29.441406 9.285156 -29.082031 9.140625 -28.28125 C 8.785156 -26.382812 8.488281 -24.359375 8.25 -22.203125 C 8.007812 -20.046875 7.890625 -17.519531 7.890625 -14.625 C 7.890625 -12.613281 7.96875 -10.929688 8.125 -9.578125 C 8.28125 -8.234375 8.410156 -7.195312 8.515625 -6.46875 C 8.929688 -6.445312 9.515625 -6.425781 10.265625 -6.40625 C 11.023438 -6.394531 11.882812 -6.519531 12.84375 -6.78125 C 13.800781 -7.050781 14.78125 -7.5625 15.78125 -8.3125 C 16.144531 -8.5625 16.46875 -8.625 16.75 -8.5 C 17.03125 -8.375 17.15625 -8.117188 17.125 -7.734375 C 17.070312 -6.585938 17.035156 -5.421875 17.015625 -4.234375 C 17.003906 -3.054688 17.039062 -1.953125 17.125 -0.921875 C 17.15625 -0.140625 16.789062 0.207031 16.03125 0.125 C 14.976562 -0.0078125 13.859375 -0.0976562 12.671875 -0.140625 C 11.492188 -0.179688 10.207031 -0.203125 8.8125 -0.203125 C 7.582031 -0.203125 6.34375 -0.175781 5.09375 -0.125 C 3.84375 -0.0703125 2.726562 0.0078125 1.75 0.125 Z M 1.75 0.125 "/></g></g></g><g fill="#fff6ea" fill-opacity="1"><g transform="translate(41.753335, 59.127898)"><g><path d="M 10.6875 0.625 C 7.488281 0.625 5 -0.617188 3.21875 -3.109375 C 1.4375 -5.597656 0.546875 -9.445312 0.546875 -14.65625 C 0.546875 -19.414062 1.4375 -23.140625 3.21875 -25.828125 C 5 -28.515625 7.488281 -29.859375 10.6875 -29.859375 C 13.894531 -29.859375 16.378906 -28.515625 18.140625 -25.828125 C 19.910156 -23.140625 20.796875 -19.414062 20.796875 -14.65625 C 20.796875 -9.445312 19.910156 -5.597656 18.140625 -3.109375 C 16.378906 -0.617188 13.894531 0.625 10.6875 0.625 Z M 10.65625 -5.21875 C 11.34375 -5.21875 11.9375 -5.628906 12.4375 -6.453125 C 12.945312 -7.273438 13.335938 -8.390625 13.609375 -9.796875 C 13.890625 -11.203125 14.03125 -12.769531 14.03125 -14.5 C 14.03125 -17.394531 13.722656 -19.703125 13.109375 -21.421875 C 12.503906 -23.148438 11.6875 -24.015625 10.65625 -24.015625 C 9.625 -24.015625 8.800781 -23.148438 8.1875 -21.421875 C 7.570312 -19.703125 7.265625 -17.394531 7.265625 -14.5 C 7.265625 -12.769531 7.40625 -11.203125 7.6875 -9.796875 C 7.96875 -8.390625 8.363281 -7.273438 8.875 -6.453125 C 9.382812 -5.628906 9.976562 -5.21875 10.65625 -5.21875 Z M 10.65625 -5.21875 "/></g></g></g><g fill="#fff6ea" fill-opacity="1"><g transform="translate(64.351838, 59.127898)"><g><path d="M 6.015625 0.171875 C 5.265625 0.253906 4.890625 -0.078125 4.890625 -0.828125 C 4.859375 -3.054688 4.722656 -5.289062 4.484375 -7.53125 C 4.253906 -9.78125 3.972656 -12.015625 3.640625 -14.234375 C 3.359375 -16.191406 3.007812 -18.070312 2.59375 -19.875 C 2.175781 -21.6875 1.769531 -23.316406 1.375 -24.765625 C 0.988281 -26.210938 0.671875 -27.351562 0.421875 -28.1875 C 0.304688 -28.582031 0.332031 -28.882812 0.5 -29.09375 C 0.664062 -29.300781 0.957031 -29.375 1.375 -29.3125 C 1.769531 -29.257812 2.195312 -29.210938 2.65625 -29.171875 C 3.113281 -29.128906 3.691406 -29.109375 4.390625 -29.109375 C 5.171875 -29.109375 5.8125 -29.132812 6.3125 -29.1875 C 6.8125 -29.25 7.3125 -29.304688 7.8125 -29.359375 C 8.59375 -29.492188 8.953125 -29.144531 8.890625 -28.3125 C 8.890625 -27.5625 8.890625 -26.503906 8.890625 -25.140625 C 8.890625 -23.773438 8.925781 -22.242188 9 -20.546875 C 9.070312 -18.847656 9.203125 -17.125 9.390625 -15.375 C 9.554688 -14.144531 9.71875 -13.050781 9.875 -12.09375 C 10.03125 -11.132812 10.191406 -10.191406 10.359375 -9.265625 C 10.523438 -8.347656 10.691406 -7.363281 10.859375 -6.3125 C 11.023438 -7.363281 11.191406 -8.347656 11.359375 -9.265625 C 11.523438 -10.191406 11.691406 -11.132812 11.859375 -12.09375 C 12.023438 -13.050781 12.179688 -14.144531 12.328125 -15.375 C 12.515625 -17.125 12.644531 -18.847656 12.71875 -20.546875 C 12.789062 -22.242188 12.832031 -23.773438 12.84375 -25.140625 C 12.851562 -26.503906 12.847656 -27.578125 12.828125 -28.359375 C 12.765625 -29.160156 13.125 -29.492188 13.90625 -29.359375 C 14.40625 -29.304688 14.90625 -29.25 15.40625 -29.1875 C 15.90625 -29.132812 16.546875 -29.109375 17.328125 -29.109375 C 18.023438 -29.109375 18.601562 -29.128906 19.0625 -29.171875 C 19.519531 -29.210938 19.945312 -29.257812 20.34375 -29.3125 C 20.757812 -29.375 21.054688 -29.300781 21.234375 -29.09375 C 21.421875 -28.882812 21.457031 -28.582031 21.34375 -28.1875 C 21.09375 -27.351562 20.765625 -26.210938 20.359375 -24.765625 C 19.953125 -23.316406 19.546875 -21.6875 19.140625 -19.875 C 18.742188 -18.070312 18.390625 -16.191406 18.078125 -14.234375 C 17.742188 -12.015625 17.46875 -9.789062 17.25 -7.5625 C 17.03125 -5.332031 16.890625 -3.085938 16.828125 -0.828125 C 16.828125 -0.078125 16.453125 0.253906 15.703125 0.171875 C 14.003906 -0.0234375 12.367188 -0.113281 10.796875 -0.09375 C 9.222656 -0.0820312 7.628906 0.00390625 6.015625 0.171875 Z M 6.015625 0.171875 "/></g></g></g><g fill="#fff6ea" fill-opacity="1"><g transform="translate(87.326284, 59.127898)"><g><path d="M 1.71875 0.125 C 0.875 0.207031 0.535156 -0.148438 0.703125 -0.953125 C 0.847656 -1.765625 1.023438 -2.863281 1.234375 -4.25 C 1.441406 -5.644531 1.617188 -7.234375 1.765625 -9.015625 C 1.921875 -10.796875 2 -12.664062 2 -14.625 C 2 -16.570312 1.921875 -18.4375 1.765625 -20.21875 C 1.617188 -22 1.441406 -23.59375 1.234375 -25 C 1.023438 -26.40625 0.847656 -27.5 0.703125 -28.28125 C 0.535156 -29.082031 0.875 -29.441406 1.71875 -29.359375 C 2.800781 -29.242188 3.992188 -29.148438 5.296875 -29.078125 C 6.609375 -29.015625 7.925781 -28.984375 9.25 -28.984375 C 10.570312 -28.984375 11.832031 -29.015625 13.03125 -29.078125 C 14.226562 -29.148438 15.257812 -29.257812 16.125 -29.40625 C 16.875 -29.539062 17.207031 -29.164062 17.125 -28.28125 C 17.070312 -27.332031 17.046875 -26.445312 17.046875 -25.625 C 17.046875 -24.800781 17.070312 -23.789062 17.125 -22.59375 C 17.125 -21.644531 16.707031 -21.4375 15.875 -21.96875 C 14.925781 -22.664062 13.976562 -23.128906 13.03125 -23.359375 C 12.082031 -23.597656 11.21875 -23.71875 10.4375 -23.71875 C 9.65625 -23.71875 9.015625 -23.707031 8.515625 -23.6875 C 8.515625 -23.6875 8.476562 -23.335938 8.40625 -22.640625 C 8.34375 -21.941406 8.269531 -21.082031 8.1875 -20.0625 C 8.101562 -19.050781 8.019531 -18.046875 7.9375 -17.046875 C 8.738281 -17.046875 9.5625 -17.15625 10.40625 -17.375 C 11.257812 -17.59375 11.992188 -17.84375 12.609375 -18.125 C 12.972656 -18.257812 13.238281 -18.285156 13.40625 -18.203125 C 13.570312 -18.117188 13.628906 -17.867188 13.578125 -17.453125 C 13.546875 -17.066406 13.519531 -16.671875 13.5 -16.265625 C 13.488281 -15.859375 13.484375 -15.4375 13.484375 -15 C 13.484375 -14.601562 13.484375 -14.203125 13.484375 -13.796875 C 13.484375 -13.398438 13.5 -13.003906 13.53125 -12.609375 C 13.613281 -11.828125 13.28125 -11.601562 12.53125 -11.9375 C 11.914062 -12.195312 11.175781 -12.421875 10.3125 -12.609375 C 9.445312 -12.804688 8.640625 -12.90625 7.890625 -12.90625 C 7.953125 -12.15625 8.015625 -11.351562 8.078125 -10.5 C 8.148438 -9.65625 8.21875 -8.851562 8.28125 -8.09375 C 8.351562 -7.34375 8.410156 -6.734375 8.453125 -6.265625 C 8.492188 -5.796875 8.515625 -5.5625 8.515625 -5.5625 C 9.015625 -5.53125 9.695312 -5.535156 10.5625 -5.578125 C 11.425781 -5.617188 12.378906 -5.785156 13.421875 -6.078125 C 14.472656 -6.367188 15.484375 -6.890625 16.453125 -7.640625 C 17.117188 -8.085938 17.441406 -7.921875 17.421875 -7.140625 C 17.359375 -6.140625 17.332031 -5.070312 17.34375 -3.9375 C 17.363281 -2.8125 17.429688 -1.804688 17.546875 -0.921875 C 17.628906 -0.140625 17.28125 0.207031 16.5 0.125 C 15.332031 -0.0078125 14.09375 -0.0976562 12.78125 -0.140625 C 11.46875 -0.179688 10.1875 -0.203125 8.9375 -0.203125 C 6.175781 -0.203125 3.769531 -0.09375 1.71875 0.125 Z M 1.71875 0.125 "/></g></g></g><g fill="#fff6ea" fill-opacity="1"><g transform="translate(106.875452, 59.127898)"><g><path d="M 8.109375 0.125 C 7.628906 0.0390625 7.144531 -0.0195312 6.65625 -0.0625 C 6.175781 -0.101562 5.554688 -0.125 4.796875 -0.125 C 4.109375 -0.125 3.519531 -0.101562 3.03125 -0.0625 C 2.539062 -0.0195312 2.101562 0.0234375 1.71875 0.078125 C 1.320312 0.140625 1.023438 0.0703125 0.828125 -0.125 C 0.640625 -0.320312 0.585938 -0.613281 0.671875 -1 C 0.835938 -1.8125 1.015625 -2.90625 1.203125 -4.28125 C 1.398438 -5.65625 1.578125 -7.234375 1.734375 -9.015625 C 1.890625 -10.796875 1.96875 -12.664062 1.96875 -14.625 C 1.96875 -16.570312 1.890625 -18.4375 1.734375 -20.21875 C 1.578125 -22 1.398438 -23.59375 1.203125 -25 C 1.015625 -26.40625 0.835938 -27.5 0.671875 -28.28125 C 0.503906 -29.082031 0.851562 -29.441406 1.71875 -29.359375 C 2.65625 -29.242188 3.476562 -29.203125 4.1875 -29.234375 C 4.90625 -29.265625 5.628906 -29.320312 6.359375 -29.40625 C 7.097656 -29.488281 7.957031 -29.53125 8.9375 -29.53125 C 12.164062 -29.5 14.625 -28.664062 16.3125 -27.03125 C 18 -25.40625 18.84375 -23.050781 18.84375 -19.96875 C 18.84375 -18.101562 18.523438 -16.539062 17.890625 -15.28125 C 17.265625 -14.03125 16.367188 -13.054688 15.203125 -12.359375 C 16.347656 -11.640625 17.253906 -10.722656 17.921875 -9.609375 C 18.585938 -8.492188 18.988281 -7.546875 19.125 -6.765625 C 19.320312 -5.679688 19.566406 -4.625 19.859375 -3.59375 C 20.148438 -2.5625 20.421875 -1.710938 20.671875 -1.046875 C 20.921875 -0.179688 20.601562 0.207031 19.71875 0.125 C 19.21875 0.0703125 18.671875 0.0234375 18.078125 -0.015625 C 17.492188 -0.0546875 16.84375 -0.078125 16.125 -0.078125 C 15.457031 -0.078125 14.925781 -0.0625 14.53125 -0.03125 C 14.144531 -0.0078125 13.785156 0.0234375 13.453125 0.078125 C 12.703125 0.191406 12.410156 -0.148438 12.578125 -0.953125 C 12.710938 -1.429688 12.820312 -2.046875 12.90625 -2.796875 C 12.988281 -3.546875 13.03125 -4.46875 13.03125 -5.5625 C 13.03125 -7.03125 12.519531 -8.160156 11.5 -8.953125 C 10.488281 -9.753906 9.300781 -10.25 7.9375 -10.4375 C 8.050781 -8.269531 8.222656 -6.367188 8.453125 -4.734375 C 8.691406 -3.109375 8.894531 -1.863281 9.0625 -1 C 9.226562 -0.164062 8.910156 0.207031 8.109375 0.125 Z M 7.859375 -13.40625 L 8.9375 -13.40625 C 10.164062 -13.40625 11.140625 -13.945312 11.859375 -15.03125 C 12.585938 -16.125 12.953125 -17.769531 12.953125 -19.96875 C 12.953125 -21.582031 12.726562 -22.734375 12.28125 -23.421875 C 11.832031 -24.117188 11.164062 -24.46875 10.28125 -24.46875 C 9.75 -24.46875 9.285156 -24.242188 8.890625 -23.796875 C 8.503906 -23.359375 8.242188 -22.816406 8.109375 -22.171875 C 7.859375 -20.835938 7.753906 -19.414062 7.796875 -17.90625 C 7.835938 -16.40625 7.859375 -14.90625 7.859375 -13.40625 Z M 7.859375 -13.40625 "/></g></g></g><g fill="#fff6ea" fill-opacity="1"><g transform="translate(129.223325, 59.127898)"><g><path d="M 13.734375 0.046875 C 12.929688 0.179688 12.554688 -0.140625 12.609375 -0.921875 C 12.609375 -1.472656 12.613281 -2.179688 12.625 -3.046875 C 12.644531 -3.910156 12.640625 -4.859375 12.609375 -5.890625 L 8.6875 -5.890625 C 8.65625 -4.859375 8.644531 -3.914062 8.65625 -3.0625 C 8.675781 -2.21875 8.6875 -1.515625 8.6875 -0.953125 C 8.6875 -0.148438 8.3125 0.164062 7.5625 0 C 5.414062 -0.414062 3.285156 -0.429688 1.171875 -0.046875 C 0.273438 0.117188 -0.046875 -0.222656 0.203125 -1.078125 C 0.453125 -1.921875 0.769531 -3.054688 1.15625 -4.484375 C 1.550781 -5.921875 1.957031 -7.539062 2.375 -9.34375 C 2.789062 -11.15625 3.140625 -13.039062 3.421875 -15 C 3.753906 -17.21875 4.039062 -19.441406 4.28125 -21.671875 C 4.519531 -23.898438 4.648438 -26.128906 4.671875 -28.359375 C 4.671875 -29.140625 5.0625 -29.457031 5.84375 -29.3125 C 7.4375 -29.0625 9.023438 -28.941406 10.609375 -28.953125 C 12.191406 -28.972656 13.789062 -29.09375 15.40625 -29.3125 C 16.21875 -29.457031 16.625 -29.140625 16.625 -28.359375 C 16.675781 -26.128906 16.8125 -23.898438 17.03125 -21.671875 C 17.257812 -19.441406 17.539062 -17.21875 17.875 -15 C 18.175781 -13.070312 18.53125 -11.203125 18.9375 -9.390625 C 19.34375 -7.585938 19.738281 -5.96875 20.125 -4.53125 C 20.519531 -3.09375 20.84375 -1.957031 21.09375 -1.125 C 21.375 -0.238281 21.023438 0.117188 20.046875 -0.046875 C 18.984375 -0.234375 17.929688 -0.320312 16.890625 -0.3125 C 15.847656 -0.300781 14.796875 -0.179688 13.734375 0.046875 Z M 8.890625 -10.53125 L 12.40625 -10.53125 C 12.375 -11.082031 12.332031 -11.632812 12.28125 -12.1875 C 12.226562 -12.75 12.171875 -13.304688 12.109375 -13.859375 C 11.890625 -15.785156 11.644531 -17.566406 11.375 -19.203125 C 11.113281 -20.847656 10.875 -22.425781 10.65625 -23.9375 C 10.40625 -22.34375 10.144531 -20.65625 9.875 -18.875 C 9.613281 -17.09375 9.382812 -15.421875 9.1875 -13.859375 C 9.132812 -13.359375 9.085938 -12.796875 9.046875 -12.171875 C 9.003906 -11.546875 8.953125 -11 8.890625 -10.53125 Z M 8.890625 -10.53125 "/></g></g></g><g fill="#fff6ea" fill-opacity="1"><g transform="translate(151.780056, 59.127898)"><g><path d="M 1.75 0.125 C 0.914062 0.207031 0.566406 -0.148438 0.703125 -0.953125 C 1.015625 -2.578125 1.304688 -4.515625 1.578125 -6.765625 C 1.859375 -9.023438 2 -11.644531 2 -14.625 C 2 -16.570312 1.921875 -18.4375 1.765625 -20.21875 C 1.617188 -22 1.441406 -23.582031 1.234375 -24.96875 C 1.023438 -26.363281 0.847656 -27.453125 0.703125 -28.234375 C 0.566406 -29.097656 0.914062 -29.457031 1.75 -29.3125 C 2.144531 -29.257812 2.582031 -29.210938 3.0625 -29.171875 C 3.550781 -29.128906 4.144531 -29.109375 4.84375 -29.109375 C 5.59375 -29.109375 6.21875 -29.128906 6.71875 -29.171875 C 7.21875 -29.210938 7.691406 -29.273438 8.140625 -29.359375 C 8.953125 -29.441406 9.285156 -29.082031 9.140625 -28.28125 C 8.785156 -26.382812 8.488281 -24.359375 8.25 -22.203125 C 8.007812 -20.046875 7.890625 -17.519531 7.890625 -14.625 C 7.890625 -12.613281 7.96875 -10.929688 8.125 -9.578125 C 8.28125 -8.234375 8.410156 -7.195312 8.515625 -6.46875 C 8.929688 -6.445312 9.515625 -6.425781 10.265625 -6.40625 C 11.023438 -6.394531 11.882812 -6.519531 12.84375 -6.78125 C 13.800781 -7.050781 14.78125 -7.5625 15.78125 -8.3125 C 16.144531 -8.5625 16.46875 -8.625 16.75 -8.5 C 17.03125 -8.375 17.15625 -8.117188 17.125 -7.734375 C 17.070312 -6.585938 17.035156 -5.421875 17.015625 -4.234375 C 17.003906 -3.054688 17.039062 -1.953125 17.125 -0.921875 C 17.15625 -0.140625 16.789062 0.207031 16.03125 0.125 C 14.976562 -0.0078125 13.859375 -0.0976562 12.671875 -0.140625 C 11.492188 -0.179688 10.207031 -0.203125 8.8125 -0.203125 C 7.582031 -0.203125 6.34375 -0.175781 5.09375 -0.125 C 3.84375 -0.0703125 2.726562 0.0078125 1.75 0.125 Z M 1.75 0.125 "/></g></g></g><g fill="#fff6ea" fill-opacity="1"><g transform="translate(170.827964, 59.127898)"><g><path d="M 1.75 0.125 C 0.914062 0.207031 0.566406 -0.148438 0.703125 -0.953125 C 1.015625 -2.578125 1.304688 -4.515625 1.578125 -6.765625 C 1.859375 -9.023438 2 -11.644531 2 -14.625 C 2 -16.570312 1.921875 -18.4375 1.765625 -20.21875 C 1.617188 -22 1.441406 -23.582031 1.234375 -24.96875 C 1.023438 -26.363281 0.847656 -27.453125 0.703125 -28.234375 C 0.566406 -29.097656 0.914062 -29.457031 1.75 -29.3125 C 2.144531 -29.257812 2.582031 -29.210938 3.0625 -29.171875 C 3.550781 -29.128906 4.144531 -29.109375 4.84375 -29.109375 C 5.59375 -29.109375 6.21875 -29.128906 6.71875 -29.171875 C 7.21875 -29.210938 7.691406 -29.273438 8.140625 -29.359375 C 8.953125 -29.441406 9.285156 -29.082031 9.140625 -28.28125 C 8.785156 -26.382812 8.488281 -24.359375 8.25 -22.203125 C 8.007812 -20.046875 7.890625 -17.519531 7.890625 -14.625 C 7.890625 -12.613281 7.96875 -10.929688 8.125 -9.578125 C 8.28125 -8.234375 8.410156 -7.195312 8.515625 -6.46875 C 8.929688 -6.445312 9.515625 -6.425781 10.265625 -6.40625 C 11.023438 -6.394531 11.882812 -6.519531 12.84375 -6.78125 C 13.800781 -7.050781 14.78125 -7.5625 15.78125 -8.3125 C 16.144531 -8.5625 16.46875 -8.625 16.75 -8.5 C 17.03125 -8.375 17.15625 -8.117188 17.125 -7.734375 C 17.070312 -6.585938 17.035156 -5.421875 17.015625 -4.234375 C 17.003906 -3.054688 17.039062 -1.953125 17.125 -0.921875 C 17.15625 -0.140625 16.789062 0.207031 16.03125 0.125 C 14.976562 -0.0078125 13.859375 -0.0976562 12.671875 -0.140625 C 11.492188 -0.179688 10.207031 -0.203125 8.8125 -0.203125 C 7.582031 -0.203125 6.34375 -0.175781 5.09375 -0.125 C 3.84375 -0.0703125 2.726562 0.0078125 1.75 0.125 Z M 1.75 0.125 "/></g></g></g></svg>