<svg xmlns="http://www.w3.org/2000/svg" xmlns:xlink="http://www.w3.org/1999/xlink" width="433" zoomAndPan="magnify" viewBox="0 0 324.75 127.500001" height="170" preserveAspectRatio="xMidYMid meet" version="1.0"><defs><g/><clipPath id="10fac03ecf"><path d="M 1 0 L 323.992188 0 L 323.992188 127 L 1 127 Z M 1 0 " clip-rule="nonzero"/></clipPath><clipPath id="fca17c9533"><path d="M 0.511719 22.859375 L 315.695312 0.0195312 L 323.199219 103.59375 L 8.015625 126.429688 Z M 0.511719 22.859375 " clip-rule="nonzero"/></clipPath><clipPath id="3a5151a529"><path d="M 4 18 L 318 18 L 318 107 L 4 107 Z M 4 18 " clip-rule="nonzero"/></clipPath><clipPath id="d08126ecdd"><path d="M -0.488281 22.859375 L 314.695312 0.0195312 L 322.199219 103.59375 L 7.015625 126.429688 Z M -0.488281 22.859375 " clip-rule="nonzero"/></clipPath><clipPath id="ea86da92d4"><path d="M 7.03125 126.675781 L 322.21875 103.835938 L 314.710938 0.265625 L -0.472656 23.105469 Z M 7.03125 126.675781 " clip-rule="nonzero"/></clipPath><clipPath id="05d56ec48b"><rect x="0" width="323" y="0" height="127"/></clipPath></defs><g clip-path="url(#10fac03ecf)"><g clip-path="url(#fca17c9533)"><g transform="matrix(1, 0, 0, 1, 1, -0.000000000000017289)"><g clip-path="url(#05d56ec48b)"><g clip-path="url(#3a5151a529)"><g clip-path="url(#d08126ecdd)"><g clip-path="url(#ea86da92d4)"><path fill="#ff5757" d="M 9.425781 48.867188 C 8.738281 49.832031 7.753906 50.105469 6.976562 50.660156 C 3.710938 52.96875 3.28125 56.511719 5.929688 59.5 C 6.839844 60.519531 7.800781 61.5 8.730469 62.503906 C 9.914062 63.78125 9.878906 64.085938 8.550781 65.34375 C 7.769531 66.082031 6.992188 66.832031 6.273438 67.632812 C 3.117188 71.1875 4.324219 73.472656 6.4375 75.902344 C 7.339844 76.933594 8.253906 77.964844 9.277344 78.863281 C 10.277344 79.742188 10.117188 80.429688 9.335938 81.324219 C 8.117188 82.71875 6.761719 84.003906 6.050781 85.808594 C 4.878906 88.835938 5.316406 90.386719 8.066406 92.28125 C 10.300781 93.824219 10.488281 94.410156 9.484375 96.929688 C 8.976562 98.203125 8.339844 99.441406 7.921875 100.742188 C 6.921875 103.878906 7.988281 105.542969 11.160156 106.324219 C 13.859375 106.988281 16.640625 106.980469 19.320312 106.9375 C 23.328125 106.875 27.339844 106.976562 31.34375 106.917969 C 61.277344 106.484375 91.214844 106.039062 121.15625 105.875 C 152.140625 105.707031 183.125 105.941406 214.113281 105.863281 C 244.21875 105.796875 275.351562 107.21875 305.320312 104.128906 C 307.867188 103.867188 310.351562 103.394531 312.832031 102.855469 C 316.253906 102.109375 317.132812 100.347656 315.925781 96.984375 C 315.429688 95.609375 314.742188 94.300781 314.078125 92.992188 C 313.597656 92.039062 313.59375 91.253906 314.210938 90.28125 C 314.84375 89.285156 315.605469 88.390625 316.242188 87.410156 C 318.117188 84.503906 318 82.972656 315.910156 80.214844 C 315.253906 79.347656 314.523438 78.574219 313.707031 77.863281 C 312.792969 77.066406 312.753906 76.21875 313.554688 75.3125 C 314.335938 74.429688 315.148438 73.578125 315.878906 72.652344 C 317.464844 70.625 317.558594 69.199219 316.238281 66.992188 C 315.6875 66.074219 314.964844 65.253906 314.394531 64.34375 C 313.355469 62.675781 313.453125 62.160156 314.855469 60.820312 C 315.28125 60.417969 315.742188 60.039062 316.113281 59.585938 C 318.78125 56.378906 318.570312 54.003906 315.40625 51.253906 C 315.183594 51.0625 314.957031 50.875 314.726562 50.683594 C 312.320312 48.617188 312.214844 48.558594 313.847656 45.921875 C 316.429688 41.753906 317.28125 38.542969 310.425781 34.863281 C 310.09375 34.683594 309.78125 34.46875 309.359375 34.214844 C 309.890625 32.757812 310.605469 31.492188 311.632812 30.453125 C 313.164062 28.902344 314.183594 26.988281 315.5 25.28125 C 316.625 23.824219 316.339844 21.984375 314.914062 20.851562 C 313.65625 19.851562 312.15625 19.304688 310.558594 19.28125 C 214.886719 18.078125 117.941406 18.277344 22.03125 21.515625 C 19.085938 21.617188 16.148438 21.621094 13.210938 21.867188 C 12.425781 21.929688 11.640625 21.960938 10.867188 22.054688 C 6.824219 22.539062 5.414062 25.8125 7.890625 29.066406 C 8.476562 29.839844 9.320312 30.40625 9.996094 31.117188 C 11.1875 32.355469 11.167969 32.960938 9.78125 33.925781 C 8.816406 34.601562 7.945312 35.382812 7.011719 36.089844 C 3.117188 39.039062 3.921875 43.410156 6.648438 46.3125 C 7.503906 47.226562 8.496094 48.019531 9.425781 48.867188 Z M 9.425781 48.867188 " fill-opacity="1" fill-rule="nonzero"/></g></g></g></g></g></g></g><g fill="#000000" fill-opacity="0.4"><g transform="translate(55.300997, 90.435278)"><g><path d="M 10.71875 0.171875 C 10.125 0.0546875 9.492188 -0.0234375 8.828125 -0.078125 C 8.171875 -0.140625 7.363281 -0.171875 6.40625 -0.171875 C 5.488281 -0.171875 4.707031 -0.140625 4.0625 -0.078125 C 3.414062 -0.0234375 2.816406 0.0351562 2.265625 0.109375 C 1.785156 0.179688 1.414062 0.09375 1.15625 -0.15625 C 0.90625 -0.414062 0.832031 -0.804688 0.9375 -1.328125 C 1.125 -2.390625 1.34375 -3.832031 1.59375 -5.65625 C 1.851562 -7.476562 2.082031 -9.566406 2.28125 -11.921875 C 2.488281 -14.285156 2.59375 -16.757812 2.59375 -19.34375 C 2.59375 -21.914062 2.488281 -24.378906 2.28125 -26.734375 C 2.082031 -29.097656 1.851562 -31.207031 1.59375 -33.0625 C 1.34375 -34.925781 1.125 -36.375 0.9375 -37.40625 C 0.71875 -38.46875 1.160156 -38.945312 2.265625 -38.84375 C 3.515625 -38.695312 4.609375 -38.640625 5.546875 -38.671875 C 6.492188 -38.710938 7.472656 -38.785156 8.484375 -38.890625 C 9.492188 -39.003906 10.695312 -39.0625 12.09375 -39.0625 C 15.257812 -39.0625 17.78125 -38.472656 19.65625 -37.296875 C 21.539062 -36.117188 22.890625 -34.40625 23.703125 -32.15625 C 24.515625 -29.90625 24.921875 -27.179688 24.921875 -23.984375 C 24.921875 -21.179688 24.410156 -18.632812 23.390625 -16.34375 C 22.378906 -14.0625 20.90625 -12.238281 18.96875 -10.875 C 17.039062 -9.519531 14.675781 -8.820312 11.875 -8.78125 L 11 -8.78125 C 11.175781 -7.164062 11.363281 -5.710938 11.5625 -4.421875 C 11.769531 -3.128906 11.945312 -2.097656 12.09375 -1.328125 C 12.28125 -0.222656 11.820312 0.273438 10.71875 0.171875 Z M 10.5 -15.578125 L 11.875 -15.578125 C 13.5 -15.617188 14.789062 -16.328125 15.75 -17.703125 C 16.707031 -19.085938 17.1875 -21.015625 17.1875 -23.484375 C 17.1875 -26.359375 16.878906 -28.554688 16.265625 -30.078125 C 15.660156 -31.609375 14.769531 -32.375 13.59375 -32.375 C 12.707031 -32.375 12.050781 -31.882812 11.625 -30.90625 C 11.207031 -29.9375 10.925781 -28.84375 10.78125 -27.625 C 10.664062 -26.332031 10.570312 -24.988281 10.5 -23.59375 C 10.425781 -22.195312 10.390625 -20.78125 10.390625 -19.34375 C 10.390625 -18.707031 10.394531 -18.078125 10.40625 -17.453125 C 10.425781 -16.828125 10.457031 -16.203125 10.5 -15.578125 Z M 10.5 -15.578125 "/></g></g></g><g fill="#000000" fill-opacity="0.4"><g transform="translate(82.207201, 90.435278)"><g><path d="M 10.71875 0.171875 C 10.09375 0.0546875 9.457031 -0.0234375 8.8125 -0.078125 C 8.164062 -0.140625 7.347656 -0.171875 6.359375 -0.171875 C 5.429688 -0.171875 4.644531 -0.140625 4 -0.078125 C 3.351562 -0.0234375 2.773438 0.0351562 2.265625 0.109375 C 1.742188 0.179688 1.351562 0.09375 1.09375 -0.15625 C 0.84375 -0.414062 0.773438 -0.804688 0.890625 -1.328125 C 1.109375 -2.390625 1.34375 -3.832031 1.59375 -5.65625 C 1.851562 -7.476562 2.082031 -9.566406 2.28125 -11.921875 C 2.488281 -14.285156 2.59375 -16.757812 2.59375 -19.34375 C 2.59375 -21.914062 2.488281 -24.378906 2.28125 -26.734375 C 2.082031 -29.097656 1.851562 -31.207031 1.59375 -33.0625 C 1.34375 -34.925781 1.109375 -36.375 0.890625 -37.40625 C 0.660156 -38.46875 1.117188 -38.945312 2.265625 -38.84375 C 3.515625 -38.695312 4.609375 -38.640625 5.546875 -38.671875 C 6.492188 -38.710938 7.453125 -38.785156 8.421875 -38.890625 C 9.398438 -39.003906 10.535156 -39.0625 11.828125 -39.0625 C 16.097656 -39.019531 19.347656 -37.921875 21.578125 -35.765625 C 23.804688 -33.617188 24.921875 -30.5 24.921875 -26.40625 C 24.921875 -23.9375 24.503906 -21.875 23.671875 -20.21875 C 22.847656 -18.5625 21.660156 -17.273438 20.109375 -16.359375 C 21.617188 -15.398438 22.816406 -14.179688 23.703125 -12.703125 C 24.585938 -11.234375 25.117188 -9.984375 25.296875 -8.953125 C 25.554688 -7.515625 25.878906 -6.113281 26.265625 -4.75 C 26.648438 -3.382812 27.007812 -2.257812 27.34375 -1.375 C 27.675781 -0.238281 27.253906 0.273438 26.078125 0.171875 C 25.410156 0.0976562 24.691406 0.0351562 23.921875 -0.015625 C 23.148438 -0.078125 22.285156 -0.109375 21.328125 -0.109375 C 20.441406 -0.109375 19.738281 -0.0859375 19.21875 -0.046875 C 18.707031 -0.015625 18.234375 0.0351562 17.796875 0.109375 C 16.796875 0.253906 16.40625 -0.203125 16.625 -1.265625 C 16.8125 -1.890625 16.957031 -2.695312 17.0625 -3.6875 C 17.175781 -4.6875 17.234375 -5.90625 17.234375 -7.34375 C 17.234375 -9.300781 16.5625 -10.800781 15.21875 -11.84375 C 13.875 -12.894531 12.300781 -13.550781 10.5 -13.8125 C 10.644531 -10.9375 10.875 -8.421875 11.1875 -6.265625 C 11.5 -4.109375 11.765625 -2.460938 11.984375 -1.328125 C 12.210938 -0.222656 11.789062 0.273438 10.71875 0.171875 Z M 10.390625 -17.734375 L 11.828125 -17.734375 C 13.441406 -17.734375 14.726562 -18.453125 15.6875 -19.890625 C 16.644531 -21.328125 17.125 -23.5 17.125 -26.40625 C 17.125 -28.539062 16.828125 -30.066406 16.234375 -30.984375 C 15.648438 -31.910156 14.769531 -32.375 13.59375 -32.375 C 12.894531 -32.375 12.285156 -32.078125 11.765625 -31.484375 C 11.253906 -30.898438 10.90625 -30.1875 10.71875 -29.34375 C 10.382812 -27.570312 10.242188 -25.691406 10.296875 -23.703125 C 10.359375 -21.710938 10.390625 -19.722656 10.390625 -17.734375 Z M 10.390625 -17.734375 "/></g></g></g><g fill="#000000" fill-opacity="0.4"><g transform="translate(111.765323, 90.435278)"><g><path d="M 14.140625 0.828125 C 9.910156 0.828125 6.613281 -0.816406 4.25 -4.109375 C 1.894531 -7.410156 0.71875 -12.503906 0.71875 -19.390625 C 0.71875 -25.691406 1.894531 -30.617188 4.25 -34.171875 C 6.613281 -37.722656 9.910156 -39.5 14.140625 -39.5 C 18.378906 -39.5 21.664062 -37.722656 24 -34.171875 C 26.34375 -30.617188 27.515625 -25.691406 27.515625 -19.390625 C 27.515625 -12.503906 26.34375 -7.410156 24 -4.109375 C 21.664062 -0.816406 18.378906 0.828125 14.140625 0.828125 Z M 14.09375 -6.90625 C 15.007812 -6.90625 15.796875 -7.445312 16.453125 -8.53125 C 17.117188 -9.625 17.632812 -11.097656 18 -12.953125 C 18.375 -14.816406 18.5625 -16.890625 18.5625 -19.171875 C 18.5625 -23.003906 18.15625 -26.0625 17.34375 -28.34375 C 16.539062 -30.625 15.457031 -31.765625 14.09375 -31.765625 C 12.726562 -31.765625 11.640625 -30.625 10.828125 -28.34375 C 10.015625 -26.0625 9.609375 -23.003906 9.609375 -19.171875 C 9.609375 -16.890625 9.789062 -14.816406 10.15625 -12.953125 C 10.53125 -11.097656 11.054688 -9.625 11.734375 -8.53125 C 12.421875 -7.445312 13.207031 -6.90625 14.09375 -6.90625 Z M 14.09375 -6.90625 "/></g></g></g><g fill="#000000" fill-opacity="0.4"><g transform="translate(141.654929, 90.435278)"><g><path d="M 14.203125 0.828125 L 14.140625 0.828125 C 9.910156 0.828125 6.613281 -0.816406 4.25 -4.109375 C 1.894531 -7.410156 0.71875 -12.503906 0.71875 -19.390625 C 0.71875 -23.585938 1.285156 -27.1875 2.421875 -30.1875 C 3.566406 -33.195312 5.179688 -35.5 7.265625 -37.09375 C 9.347656 -38.695312 11.789062 -39.5 14.59375 -39.5 L 14.640625 -39.5 C 15.960938 -39.5 17.09375 -39.441406 18.03125 -39.328125 C 18.976562 -39.222656 19.847656 -39.113281 20.640625 -39 C 21.429688 -38.894531 22.269531 -38.859375 23.15625 -38.890625 C 24.1875 -38.960938 24.644531 -38.503906 24.53125 -37.515625 C 24.382812 -36.148438 24.273438 -34.664062 24.203125 -33.0625 C 24.128906 -31.457031 24.109375 -29.941406 24.140625 -28.515625 C 24.179688 -27.878906 24.0625 -27.523438 23.78125 -27.453125 C 23.507812 -27.378906 23.171875 -27.582031 22.765625 -28.0625 C 21.734375 -29.238281 20.644531 -30.148438 19.5 -30.796875 C 18.363281 -31.441406 17.203125 -31.765625 16.015625 -31.765625 L 15.90625 -31.765625 C 14.769531 -31.765625 13.722656 -31.25 12.765625 -30.21875 C 11.804688 -29.1875 11.039062 -27.722656 10.46875 -25.828125 C 9.894531 -23.929688 9.609375 -21.710938 9.609375 -19.171875 C 9.609375 -16.890625 9.789062 -14.816406 10.15625 -12.953125 C 10.53125 -11.097656 11.054688 -9.625 11.734375 -8.53125 C 12.421875 -7.445312 13.207031 -6.90625 14.09375 -6.90625 L 14.203125 -6.90625 C 15.085938 -6.90625 15.8125 -7.125 16.375 -7.5625 C 16.945312 -8.007812 17.378906 -8.554688 17.671875 -9.203125 C 17.972656 -9.847656 18.175781 -10.472656 18.28125 -11.078125 C 18.394531 -11.679688 18.453125 -12.171875 18.453125 -12.546875 C 18.453125 -13.609375 18.285156 -14.726562 17.953125 -15.90625 C 17.617188 -17.09375 17.25 -18.085938 16.84375 -18.890625 C 16.332031 -19.816406 16.570312 -20.222656 17.5625 -20.109375 C 18.34375 -20.078125 19.128906 -20.019531 19.921875 -19.9375 C 20.710938 -19.863281 21.457031 -19.828125 22.15625 -19.828125 C 22.820312 -19.828125 23.472656 -19.84375 24.109375 -19.875 C 24.753906 -19.914062 25.375 -19.976562 25.96875 -20.0625 C 26.519531 -20.132812 26.847656 -20.066406 26.953125 -19.859375 C 27.066406 -19.660156 27.03125 -19.300781 26.84375 -18.78125 C 26.519531 -18.007812 26.253906 -17.070312 26.046875 -15.96875 C 25.847656 -14.863281 25.75 -13.722656 25.75 -12.546875 C 25.75 -10.410156 25.859375 -8.429688 26.078125 -6.609375 C 26.296875 -4.785156 26.644531 -3.023438 27.125 -1.328125 C 27.414062 -0.222656 26.957031 0.273438 25.75 0.171875 C 24.863281 0.0546875 24.195312 -0.015625 23.75 -0.046875 C 23.3125 -0.0859375 22.722656 -0.109375 21.984375 -0.109375 C 20.992188 -0.109375 19.84375 0.046875 18.53125 0.359375 C 17.226562 0.671875 15.785156 0.828125 14.203125 0.828125 Z M 14.203125 0.828125 "/></g></g></g><g fill="#000000" fill-opacity="0.4"><g transform="translate(171.323546, 90.435278)"><g><path d="M 10.71875 0.171875 C 10.09375 0.0546875 9.457031 -0.0234375 8.8125 -0.078125 C 8.164062 -0.140625 7.347656 -0.171875 6.359375 -0.171875 C 5.429688 -0.171875 4.644531 -0.140625 4 -0.078125 C 3.351562 -0.0234375 2.773438 0.0351562 2.265625 0.109375 C 1.742188 0.179688 1.351562 0.09375 1.09375 -0.15625 C 0.84375 -0.414062 0.773438 -0.804688 0.890625 -1.328125 C 1.109375 -2.390625 1.34375 -3.832031 1.59375 -5.65625 C 1.851562 -7.476562 2.082031 -9.566406 2.28125 -11.921875 C 2.488281 -14.285156 2.59375 -16.757812 2.59375 -19.34375 C 2.59375 -21.914062 2.488281 -24.378906 2.28125 -26.734375 C 2.082031 -29.097656 1.851562 -31.207031 1.59375 -33.0625 C 1.34375 -34.925781 1.109375 -36.375 0.890625 -37.40625 C 0.660156 -38.46875 1.117188 -38.945312 2.265625 -38.84375 C 3.515625 -38.695312 4.609375 -38.640625 5.546875 -38.671875 C 6.492188 -38.710938 7.453125 -38.785156 8.421875 -38.890625 C 9.398438 -39.003906 10.535156 -39.0625 11.828125 -39.0625 C 16.097656 -39.019531 19.347656 -37.921875 21.578125 -35.765625 C 23.804688 -33.617188 24.921875 -30.5 24.921875 -26.40625 C 24.921875 -23.9375 24.503906 -21.875 23.671875 -20.21875 C 22.847656 -18.5625 21.660156 -17.273438 20.109375 -16.359375 C 21.617188 -15.398438 22.816406 -14.179688 23.703125 -12.703125 C 24.585938 -11.234375 25.117188 -9.984375 25.296875 -8.953125 C 25.554688 -7.515625 25.878906 -6.113281 26.265625 -4.75 C 26.648438 -3.382812 27.007812 -2.257812 27.34375 -1.375 C 27.675781 -0.238281 27.253906 0.273438 26.078125 0.171875 C 25.410156 0.0976562 24.691406 0.0351562 23.921875 -0.015625 C 23.148438 -0.078125 22.285156 -0.109375 21.328125 -0.109375 C 20.441406 -0.109375 19.738281 -0.0859375 19.21875 -0.046875 C 18.707031 -0.015625 18.234375 0.0351562 17.796875 0.109375 C 16.796875 0.253906 16.40625 -0.203125 16.625 -1.265625 C 16.8125 -1.890625 16.957031 -2.695312 17.0625 -3.6875 C 17.175781 -4.6875 17.234375 -5.90625 17.234375 -7.34375 C 17.234375 -9.300781 16.5625 -10.800781 15.21875 -11.84375 C 13.875 -12.894531 12.300781 -13.550781 10.5 -13.8125 C 10.644531 -10.9375 10.875 -8.421875 11.1875 -6.265625 C 11.5 -4.109375 11.765625 -2.460938 11.984375 -1.328125 C 12.210938 -0.222656 11.789062 0.273438 10.71875 0.171875 Z M 10.390625 -17.734375 L 11.828125 -17.734375 C 13.441406 -17.734375 14.726562 -18.453125 15.6875 -19.890625 C 16.644531 -21.328125 17.125 -23.5 17.125 -26.40625 C 17.125 -28.539062 16.828125 -30.066406 16.234375 -30.984375 C 15.648438 -31.910156 14.769531 -32.375 13.59375 -32.375 C 12.894531 -32.375 12.285156 -32.078125 11.765625 -31.484375 C 11.253906 -30.898438 10.90625 -30.1875 10.71875 -29.34375 C 10.382812 -27.570312 10.242188 -25.691406 10.296875 -23.703125 C 10.359375 -21.710938 10.390625 -19.722656 10.390625 -17.734375 Z M 10.390625 -17.734375 "/></g></g></g><g fill="#000000" fill-opacity="0.4"><g transform="translate(200.881668, 90.435278)"><g><path d="M 2.265625 0.171875 C 1.160156 0.273438 0.71875 -0.203125 0.9375 -1.265625 C 1.125 -2.335938 1.351562 -3.789062 1.625 -5.625 C 1.90625 -7.46875 2.144531 -9.566406 2.34375 -11.921875 C 2.550781 -14.285156 2.65625 -16.757812 2.65625 -19.34375 C 2.65625 -21.914062 2.550781 -24.378906 2.34375 -26.734375 C 2.144531 -29.097656 1.90625 -31.207031 1.625 -33.0625 C 1.351562 -34.925781 1.125 -36.375 0.9375 -37.40625 C 0.71875 -38.46875 1.160156 -38.945312 2.265625 -38.84375 C 3.703125 -38.695312 5.285156 -38.578125 7.015625 -38.484375 C 8.742188 -38.390625 10.484375 -38.34375 12.234375 -38.34375 C 13.984375 -38.34375 15.648438 -38.390625 17.234375 -38.484375 C 18.816406 -38.578125 20.179688 -38.710938 21.328125 -38.890625 C 22.316406 -39.078125 22.757812 -38.582031 22.65625 -37.40625 C 22.582031 -36.15625 22.546875 -34.984375 22.546875 -33.890625 C 22.546875 -32.804688 22.582031 -31.472656 22.65625 -29.890625 C 22.65625 -28.640625 22.101562 -28.363281 21 -29.0625 C 19.738281 -29.976562 18.484375 -30.59375 17.234375 -30.90625 C 15.984375 -31.21875 14.84375 -31.375 13.8125 -31.375 C 12.78125 -31.375 11.929688 -31.359375 11.265625 -31.328125 C 11.265625 -31.328125 11.21875 -30.863281 11.125 -29.9375 C 11.039062 -29.019531 10.941406 -27.890625 10.828125 -26.546875 C 10.710938 -25.203125 10.601562 -23.867188 10.5 -22.546875 C 11.5625 -22.546875 12.65625 -22.691406 13.78125 -22.984375 C 14.90625 -23.273438 15.875 -23.609375 16.6875 -23.984375 C 17.164062 -24.160156 17.515625 -24.191406 17.734375 -24.078125 C 17.953125 -23.972656 18.023438 -23.644531 17.953125 -23.09375 C 17.921875 -22.582031 17.894531 -22.054688 17.875 -21.515625 C 17.851562 -20.984375 17.84375 -20.421875 17.84375 -19.828125 C 17.84375 -19.316406 17.84375 -18.789062 17.84375 -18.25 C 17.84375 -17.71875 17.863281 -17.195312 17.90625 -16.6875 C 18.007812 -15.65625 17.566406 -15.359375 16.578125 -15.796875 C 15.765625 -16.128906 14.785156 -16.425781 13.640625 -16.6875 C 12.503906 -16.945312 11.4375 -17.078125 10.4375 -17.078125 C 10.507812 -16.078125 10.59375 -15.015625 10.6875 -13.890625 C 10.78125 -12.765625 10.875 -11.707031 10.96875 -10.71875 C 11.0625 -9.726562 11.132812 -8.914062 11.1875 -8.28125 C 11.238281 -7.65625 11.265625 -7.34375 11.265625 -7.34375 C 11.929688 -7.3125 12.832031 -7.320312 13.96875 -7.375 C 15.113281 -7.425781 16.375 -7.644531 17.75 -8.03125 C 19.132812 -8.425781 20.472656 -9.117188 21.765625 -10.109375 C 22.648438 -10.703125 23.078125 -10.484375 23.046875 -9.453125 C 22.960938 -8.117188 22.929688 -6.707031 22.953125 -5.21875 C 22.972656 -3.726562 23.054688 -2.394531 23.203125 -1.21875 C 23.316406 -0.1875 22.859375 0.273438 21.828125 0.171875 C 20.273438 -0.015625 18.632812 -0.132812 16.90625 -0.1875 C 15.175781 -0.25 13.484375 -0.28125 11.828125 -0.28125 C 8.179688 -0.28125 4.992188 -0.128906 2.265625 0.171875 Z M 2.265625 0.171875 "/></g></g></g><g fill="#000000" fill-opacity="0.4"><g transform="translate(226.738159, 90.435278)"><g><path d="M 9.890625 0.828125 C 8.191406 0.828125 6.851562 0.753906 5.875 0.609375 C 4.90625 0.460938 3.8125 0.390625 2.59375 0.390625 C 1.5625 0.390625 1.101562 -0.109375 1.21875 -1.109375 C 1.320312 -2.503906 1.429688 -4.007812 1.546875 -5.625 C 1.660156 -7.25 1.695312 -8.800781 1.65625 -10.28125 C 1.625 -10.90625 1.734375 -11.257812 1.984375 -11.34375 C 2.242188 -11.4375 2.578125 -11.25 2.984375 -10.78125 C 4.046875 -9.519531 5.191406 -8.546875 6.421875 -7.859375 C 7.660156 -7.179688 8.851562 -6.84375 10 -6.84375 C 10.957031 -6.84375 11.8125 -7.0625 12.5625 -7.5 C 13.320312 -7.945312 13.703125 -8.671875 13.703125 -9.671875 C 13.703125 -10.441406 13.257812 -11.257812 12.375 -12.125 C 11.488281 -12.988281 10.4375 -13.878906 9.21875 -14.796875 C 8.007812 -15.722656 6.90625 -16.628906 5.90625 -17.515625 C 3.914062 -19.359375 2.535156 -21.113281 1.765625 -22.78125 C 0.992188 -24.457031 0.609375 -26.457031 0.609375 -28.78125 C 0.609375 -31.03125 1.085938 -32.957031 2.046875 -34.5625 C 3.003906 -36.164062 4.328125 -37.390625 6.015625 -38.234375 C 7.710938 -39.078125 9.648438 -39.5 11.828125 -39.5 C 12.960938 -39.5 13.914062 -39.441406 14.6875 -39.328125 C 15.46875 -39.222656 16.207031 -39.113281 16.90625 -39 C 17.601562 -38.894531 18.359375 -38.859375 19.171875 -38.890625 C 20.085938 -38.929688 20.53125 -38.472656 20.5 -37.515625 C 20.382812 -36.367188 20.304688 -35.015625 20.265625 -33.453125 C 20.234375 -31.890625 20.21875 -30.28125 20.21875 -28.625 C 20.21875 -28 20.070312 -27.644531 19.78125 -27.5625 C 19.488281 -27.488281 19.140625 -27.691406 18.734375 -28.171875 C 17.441406 -29.753906 16.222656 -30.785156 15.078125 -31.265625 C 13.941406 -31.742188 12.984375 -31.984375 12.203125 -31.984375 C 11.359375 -31.984375 10.507812 -31.769531 9.65625 -31.34375 C 8.8125 -30.925781 8.390625 -30.070312 8.390625 -28.78125 C 8.390625 -27.9375 8.75 -27.132812 9.46875 -26.375 C 10.1875 -25.625 11.050781 -24.878906 12.0625 -24.140625 C 13.082031 -23.410156 14.035156 -22.675781 14.921875 -21.9375 C 16.128906 -20.976562 17.273438 -19.945312 18.359375 -18.84375 C 19.453125 -17.738281 20.347656 -16.503906 21.046875 -15.140625 C 21.742188 -13.773438 22.09375 -12.207031 22.09375 -10.4375 C 22.09375 -7.007812 21.097656 -4.273438 19.109375 -2.234375 C 17.128906 -0.191406 14.054688 0.828125 9.890625 0.828125 Z M 9.890625 0.828125 "/></g></g></g><g fill="#000000" fill-opacity="0.4"><g transform="translate(251.102948, 90.435278)"><g><path d="M 9.890625 0.828125 C 8.191406 0.828125 6.851562 0.753906 5.875 0.609375 C 4.90625 0.460938 3.8125 0.390625 2.59375 0.390625 C 1.5625 0.390625 1.101562 -0.109375 1.21875 -1.109375 C 1.320312 -2.503906 1.429688 -4.007812 1.546875 -5.625 C 1.660156 -7.25 1.695312 -8.800781 1.65625 -10.28125 C 1.625 -10.90625 1.734375 -11.257812 1.984375 -11.34375 C 2.242188 -11.4375 2.578125 -11.25 2.984375 -10.78125 C 4.046875 -9.519531 5.191406 -8.546875 6.421875 -7.859375 C 7.660156 -7.179688 8.851562 -6.84375 10 -6.84375 C 10.957031 -6.84375 11.8125 -7.0625 12.5625 -7.5 C 13.320312 -7.945312 13.703125 -8.671875 13.703125 -9.671875 C 13.703125 -10.441406 13.257812 -11.257812 12.375 -12.125 C 11.488281 -12.988281 10.4375 -13.878906 9.21875 -14.796875 C 8.007812 -15.722656 6.90625 -16.628906 5.90625 -17.515625 C 3.914062 -19.359375 2.535156 -21.113281 1.765625 -22.78125 C 0.992188 -24.457031 0.609375 -26.457031 0.609375 -28.78125 C 0.609375 -31.03125 1.085938 -32.957031 2.046875 -34.5625 C 3.003906 -36.164062 4.328125 -37.390625 6.015625 -38.234375 C 7.710938 -39.078125 9.648438 -39.5 11.828125 -39.5 C 12.960938 -39.5 13.914062 -39.441406 14.6875 -39.328125 C 15.46875 -39.222656 16.207031 -39.113281 16.90625 -39 C 17.601562 -38.894531 18.359375 -38.859375 19.171875 -38.890625 C 20.085938 -38.929688 20.53125 -38.472656 20.5 -37.515625 C 20.382812 -36.367188 20.304688 -35.015625 20.265625 -33.453125 C 20.234375 -31.890625 20.21875 -30.28125 20.21875 -28.625 C 20.21875 -28 20.070312 -27.644531 19.78125 -27.5625 C 19.488281 -27.488281 19.140625 -27.691406 18.734375 -28.171875 C 17.441406 -29.753906 16.222656 -30.785156 15.078125 -31.265625 C 13.941406 -31.742188 12.984375 -31.984375 12.203125 -31.984375 C 11.359375 -31.984375 10.507812 -31.769531 9.65625 -31.34375 C 8.8125 -30.925781 8.390625 -30.070312 8.390625 -28.78125 C 8.390625 -27.9375 8.75 -27.132812 9.46875 -26.375 C 10.1875 -25.625 11.050781 -24.878906 12.0625 -24.140625 C 13.082031 -23.410156 14.035156 -22.675781 14.921875 -21.9375 C 16.128906 -20.976562 17.273438 -19.945312 18.359375 -18.84375 C 19.453125 -17.738281 20.347656 -16.503906 21.046875 -15.140625 C 21.742188 -13.773438 22.09375 -12.207031 22.09375 -10.4375 C 22.09375 -7.007812 21.097656 -4.273438 19.109375 -2.234375 C 17.128906 -0.191406 14.054688 0.828125 9.890625 0.828125 Z M 9.890625 0.828125 "/></g></g></g><g fill="#fff6ea" fill-opacity="1"><g transform="translate(52.858854, 87.993135)"><g><path d="M 10.71875 0.171875 C 10.125 0.0546875 9.492188 -0.0234375 8.828125 -0.078125 C 8.171875 -0.140625 7.363281 -0.171875 6.40625 -0.171875 C 5.488281 -0.171875 4.707031 -0.140625 4.0625 -0.078125 C 3.414062 -0.0234375 2.816406 0.0351562 2.265625 0.109375 C 1.785156 0.179688 1.414062 0.09375 1.15625 -0.15625 C 0.90625 -0.414062 0.832031 -0.804688 0.9375 -1.328125 C 1.125 -2.390625 1.34375 -3.832031 1.59375 -5.65625 C 1.851562 -7.476562 2.082031 -9.566406 2.28125 -11.921875 C 2.488281 -14.285156 2.59375 -16.757812 2.59375 -19.34375 C 2.59375 -21.914062 2.488281 -24.378906 2.28125 -26.734375 C 2.082031 -29.097656 1.851562 -31.207031 1.59375 -33.0625 C 1.34375 -34.925781 1.125 -36.375 0.9375 -37.40625 C 0.71875 -38.46875 1.160156 -38.945312 2.265625 -38.84375 C 3.515625 -38.695312 4.609375 -38.640625 5.546875 -38.671875 C 6.492188 -38.710938 7.472656 -38.785156 8.484375 -38.890625 C 9.492188 -39.003906 10.695312 -39.0625 12.09375 -39.0625 C 15.257812 -39.0625 17.78125 -38.472656 19.65625 -37.296875 C 21.539062 -36.117188 22.890625 -34.40625 23.703125 -32.15625 C 24.515625 -29.90625 24.921875 -27.179688 24.921875 -23.984375 C 24.921875 -21.179688 24.410156 -18.632812 23.390625 -16.34375 C 22.378906 -14.0625 20.90625 -12.238281 18.96875 -10.875 C 17.039062 -9.519531 14.675781 -8.820312 11.875 -8.78125 L 11 -8.78125 C 11.175781 -7.164062 11.363281 -5.710938 11.5625 -4.421875 C 11.769531 -3.128906 11.945312 -2.097656 12.09375 -1.328125 C 12.28125 -0.222656 11.820312 0.273438 10.71875 0.171875 Z M 10.5 -15.578125 L 11.875 -15.578125 C 13.5 -15.617188 14.789062 -16.328125 15.75 -17.703125 C 16.707031 -19.085938 17.1875 -21.015625 17.1875 -23.484375 C 17.1875 -26.359375 16.878906 -28.554688 16.265625 -30.078125 C 15.660156 -31.609375 14.769531 -32.375 13.59375 -32.375 C 12.707031 -32.375 12.050781 -31.882812 11.625 -30.90625 C 11.207031 -29.9375 10.925781 -28.84375 10.78125 -27.625 C 10.664062 -26.332031 10.570312 -24.988281 10.5 -23.59375 C 10.425781 -22.195312 10.390625 -20.78125 10.390625 -19.34375 C 10.390625 -18.707031 10.394531 -18.078125 10.40625 -17.453125 C 10.425781 -16.828125 10.457031 -16.203125 10.5 -15.578125 Z M 10.5 -15.578125 "/></g></g></g><g fill="#fff6ea" fill-opacity="1"><g transform="translate(79.765058, 87.993135)"><g><path d="M 10.71875 0.171875 C 10.09375 0.0546875 9.457031 -0.0234375 8.8125 -0.078125 C 8.164062 -0.140625 7.347656 -0.171875 6.359375 -0.171875 C 5.429688 -0.171875 4.644531 -0.140625 4 -0.078125 C 3.351562 -0.0234375 2.773438 0.0351562 2.265625 0.109375 C 1.742188 0.179688 1.351562 0.09375 1.09375 -0.15625 C 0.84375 -0.414062 0.773438 -0.804688 0.890625 -1.328125 C 1.109375 -2.390625 1.34375 -3.832031 1.59375 -5.65625 C 1.851562 -7.476562 2.082031 -9.566406 2.28125 -11.921875 C 2.488281 -14.285156 2.59375 -16.757812 2.59375 -19.34375 C 2.59375 -21.914062 2.488281 -24.378906 2.28125 -26.734375 C 2.082031 -29.097656 1.851562 -31.207031 1.59375 -33.0625 C 1.34375 -34.925781 1.109375 -36.375 0.890625 -37.40625 C 0.660156 -38.46875 1.117188 -38.945312 2.265625 -38.84375 C 3.515625 -38.695312 4.609375 -38.640625 5.546875 -38.671875 C 6.492188 -38.710938 7.453125 -38.785156 8.421875 -38.890625 C 9.398438 -39.003906 10.535156 -39.0625 11.828125 -39.0625 C 16.097656 -39.019531 19.347656 -37.921875 21.578125 -35.765625 C 23.804688 -33.617188 24.921875 -30.5 24.921875 -26.40625 C 24.921875 -23.9375 24.503906 -21.875 23.671875 -20.21875 C 22.847656 -18.5625 21.660156 -17.273438 20.109375 -16.359375 C 21.617188 -15.398438 22.816406 -14.179688 23.703125 -12.703125 C 24.585938 -11.234375 25.117188 -9.984375 25.296875 -8.953125 C 25.554688 -7.515625 25.878906 -6.113281 26.265625 -4.75 C 26.648438 -3.382812 27.007812 -2.257812 27.34375 -1.375 C 27.675781 -0.238281 27.253906 0.273438 26.078125 0.171875 C 25.410156 0.0976562 24.691406 0.0351562 23.921875 -0.015625 C 23.148438 -0.078125 22.285156 -0.109375 21.328125 -0.109375 C 20.441406 -0.109375 19.738281 -0.0859375 19.21875 -0.046875 C 18.707031 -0.015625 18.234375 0.0351562 17.796875 0.109375 C 16.796875 0.253906 16.40625 -0.203125 16.625 -1.265625 C 16.8125 -1.890625 16.957031 -2.695312 17.0625 -3.6875 C 17.175781 -4.6875 17.234375 -5.90625 17.234375 -7.34375 C 17.234375 -9.300781 16.5625 -10.800781 15.21875 -11.84375 C 13.875 -12.894531 12.300781 -13.550781 10.5 -13.8125 C 10.644531 -10.9375 10.875 -8.421875 11.1875 -6.265625 C 11.5 -4.109375 11.765625 -2.460938 11.984375 -1.328125 C 12.210938 -0.222656 11.789062 0.273438 10.71875 0.171875 Z M 10.390625 -17.734375 L 11.828125 -17.734375 C 13.441406 -17.734375 14.726562 -18.453125 15.6875 -19.890625 C 16.644531 -21.328125 17.125 -23.5 17.125 -26.40625 C 17.125 -28.539062 16.828125 -30.066406 16.234375 -30.984375 C 15.648438 -31.910156 14.769531 -32.375 13.59375 -32.375 C 12.894531 -32.375 12.285156 -32.078125 11.765625 -31.484375 C 11.253906 -30.898438 10.90625 -30.1875 10.71875 -29.34375 C 10.382812 -27.570312 10.242188 -25.691406 10.296875 -23.703125 C 10.359375 -21.710938 10.390625 -19.722656 10.390625 -17.734375 Z M 10.390625 -17.734375 "/></g></g></g><g fill="#fff6ea" fill-opacity="1"><g transform="translate(109.323181, 87.993135)"><g><path d="M 14.140625 0.828125 C 9.910156 0.828125 6.613281 -0.816406 4.25 -4.109375 C 1.894531 -7.410156 0.71875 -12.503906 0.71875 -19.390625 C 0.71875 -25.691406 1.894531 -30.617188 4.25 -34.171875 C 6.613281 -37.722656 9.910156 -39.5 14.140625 -39.5 C 18.378906 -39.5 21.664062 -37.722656 24 -34.171875 C 26.34375 -30.617188 27.515625 -25.691406 27.515625 -19.390625 C 27.515625 -12.503906 26.34375 -7.410156 24 -4.109375 C 21.664062 -0.816406 18.378906 0.828125 14.140625 0.828125 Z M 14.09375 -6.90625 C 15.007812 -6.90625 15.796875 -7.445312 16.453125 -8.53125 C 17.117188 -9.625 17.632812 -11.097656 18 -12.953125 C 18.375 -14.816406 18.5625 -16.890625 18.5625 -19.171875 C 18.5625 -23.003906 18.15625 -26.0625 17.34375 -28.34375 C 16.539062 -30.625 15.457031 -31.765625 14.09375 -31.765625 C 12.726562 -31.765625 11.640625 -30.625 10.828125 -28.34375 C 10.015625 -26.0625 9.609375 -23.003906 9.609375 -19.171875 C 9.609375 -16.890625 9.789062 -14.816406 10.15625 -12.953125 C 10.53125 -11.097656 11.054688 -9.625 11.734375 -8.53125 C 12.421875 -7.445312 13.207031 -6.90625 14.09375 -6.90625 Z M 14.09375 -6.90625 "/></g></g></g><g fill="#fff6ea" fill-opacity="1"><g transform="translate(139.212786, 87.993135)"><g><path d="M 14.203125 0.828125 L 14.140625 0.828125 C 9.910156 0.828125 6.613281 -0.816406 4.25 -4.109375 C 1.894531 -7.410156 0.71875 -12.503906 0.71875 -19.390625 C 0.71875 -23.585938 1.285156 -27.1875 2.421875 -30.1875 C 3.566406 -33.195312 5.179688 -35.5 7.265625 -37.09375 C 9.347656 -38.695312 11.789062 -39.5 14.59375 -39.5 L 14.640625 -39.5 C 15.960938 -39.5 17.09375 -39.441406 18.03125 -39.328125 C 18.976562 -39.222656 19.847656 -39.113281 20.640625 -39 C 21.429688 -38.894531 22.269531 -38.859375 23.15625 -38.890625 C 24.1875 -38.960938 24.644531 -38.503906 24.53125 -37.515625 C 24.382812 -36.148438 24.273438 -34.664062 24.203125 -33.0625 C 24.128906 -31.457031 24.109375 -29.941406 24.140625 -28.515625 C 24.179688 -27.878906 24.0625 -27.523438 23.78125 -27.453125 C 23.507812 -27.378906 23.171875 -27.582031 22.765625 -28.0625 C 21.734375 -29.238281 20.644531 -30.148438 19.5 -30.796875 C 18.363281 -31.441406 17.203125 -31.765625 16.015625 -31.765625 L 15.90625 -31.765625 C 14.769531 -31.765625 13.722656 -31.25 12.765625 -30.21875 C 11.804688 -29.1875 11.039062 -27.722656 10.46875 -25.828125 C 9.894531 -23.929688 9.609375 -21.710938 9.609375 -19.171875 C 9.609375 -16.890625 9.789062 -14.816406 10.15625 -12.953125 C 10.53125 -11.097656 11.054688 -9.625 11.734375 -8.53125 C 12.421875 -7.445312 13.207031 -6.90625 14.09375 -6.90625 L 14.203125 -6.90625 C 15.085938 -6.90625 15.8125 -7.125 16.375 -7.5625 C 16.945312 -8.007812 17.378906 -8.554688 17.671875 -9.203125 C 17.972656 -9.847656 18.175781 -10.472656 18.28125 -11.078125 C 18.394531 -11.679688 18.453125 -12.171875 18.453125 -12.546875 C 18.453125 -13.609375 18.285156 -14.726562 17.953125 -15.90625 C 17.617188 -17.09375 17.25 -18.085938 16.84375 -18.890625 C 16.332031 -19.816406 16.570312 -20.222656 17.5625 -20.109375 C 18.34375 -20.078125 19.128906 -20.019531 19.921875 -19.9375 C 20.710938 -19.863281 21.457031 -19.828125 22.15625 -19.828125 C 22.820312 -19.828125 23.472656 -19.84375 24.109375 -19.875 C 24.753906 -19.914062 25.375 -19.976562 25.96875 -20.0625 C 26.519531 -20.132812 26.847656 -20.066406 26.953125 -19.859375 C 27.066406 -19.660156 27.03125 -19.300781 26.84375 -18.78125 C 26.519531 -18.007812 26.253906 -17.070312 26.046875 -15.96875 C 25.847656 -14.863281 25.75 -13.722656 25.75 -12.546875 C 25.75 -10.410156 25.859375 -8.429688 26.078125 -6.609375 C 26.296875 -4.785156 26.644531 -3.023438 27.125 -1.328125 C 27.414062 -0.222656 26.957031 0.273438 25.75 0.171875 C 24.863281 0.0546875 24.195312 -0.015625 23.75 -0.046875 C 23.3125 -0.0859375 22.722656 -0.109375 21.984375 -0.109375 C 20.992188 -0.109375 19.84375 0.046875 18.53125 0.359375 C 17.226562 0.671875 15.785156 0.828125 14.203125 0.828125 Z M 14.203125 0.828125 "/></g></g></g><g fill="#fff6ea" fill-opacity="1"><g transform="translate(168.881403, 87.993135)"><g><path d="M 10.71875 0.171875 C 10.09375 0.0546875 9.457031 -0.0234375 8.8125 -0.078125 C 8.164062 -0.140625 7.347656 -0.171875 6.359375 -0.171875 C 5.429688 -0.171875 4.644531 -0.140625 4 -0.078125 C 3.351562 -0.0234375 2.773438 0.0351562 2.265625 0.109375 C 1.742188 0.179688 1.351562 0.09375 1.09375 -0.15625 C 0.84375 -0.414062 0.773438 -0.804688 0.890625 -1.328125 C 1.109375 -2.390625 1.34375 -3.832031 1.59375 -5.65625 C 1.851562 -7.476562 2.082031 -9.566406 2.28125 -11.921875 C 2.488281 -14.285156 2.59375 -16.757812 2.59375 -19.34375 C 2.59375 -21.914062 2.488281 -24.378906 2.28125 -26.734375 C 2.082031 -29.097656 1.851562 -31.207031 1.59375 -33.0625 C 1.34375 -34.925781 1.109375 -36.375 0.890625 -37.40625 C 0.660156 -38.46875 1.117188 -38.945312 2.265625 -38.84375 C 3.515625 -38.695312 4.609375 -38.640625 5.546875 -38.671875 C 6.492188 -38.710938 7.453125 -38.785156 8.421875 -38.890625 C 9.398438 -39.003906 10.535156 -39.0625 11.828125 -39.0625 C 16.097656 -39.019531 19.347656 -37.921875 21.578125 -35.765625 C 23.804688 -33.617188 24.921875 -30.5 24.921875 -26.40625 C 24.921875 -23.9375 24.503906 -21.875 23.671875 -20.21875 C 22.847656 -18.5625 21.660156 -17.273438 20.109375 -16.359375 C 21.617188 -15.398438 22.816406 -14.179688 23.703125 -12.703125 C 24.585938 -11.234375 25.117188 -9.984375 25.296875 -8.953125 C 25.554688 -7.515625 25.878906 -6.113281 26.265625 -4.75 C 26.648438 -3.382812 27.007812 -2.257812 27.34375 -1.375 C 27.675781 -0.238281 27.253906 0.273438 26.078125 0.171875 C 25.410156 0.0976562 24.691406 0.0351562 23.921875 -0.015625 C 23.148438 -0.078125 22.285156 -0.109375 21.328125 -0.109375 C 20.441406 -0.109375 19.738281 -0.0859375 19.21875 -0.046875 C 18.707031 -0.015625 18.234375 0.0351562 17.796875 0.109375 C 16.796875 0.253906 16.40625 -0.203125 16.625 -1.265625 C 16.8125 -1.890625 16.957031 -2.695312 17.0625 -3.6875 C 17.175781 -4.6875 17.234375 -5.90625 17.234375 -7.34375 C 17.234375 -9.300781 16.5625 -10.800781 15.21875 -11.84375 C 13.875 -12.894531 12.300781 -13.550781 10.5 -13.8125 C 10.644531 -10.9375 10.875 -8.421875 11.1875 -6.265625 C 11.5 -4.109375 11.765625 -2.460938 11.984375 -1.328125 C 12.210938 -0.222656 11.789062 0.273438 10.71875 0.171875 Z M 10.390625 -17.734375 L 11.828125 -17.734375 C 13.441406 -17.734375 14.726562 -18.453125 15.6875 -19.890625 C 16.644531 -21.328125 17.125 -23.5 17.125 -26.40625 C 17.125 -28.539062 16.828125 -30.066406 16.234375 -30.984375 C 15.648438 -31.910156 14.769531 -32.375 13.59375 -32.375 C 12.894531 -32.375 12.285156 -32.078125 11.765625 -31.484375 C 11.253906 -30.898438 10.90625 -30.1875 10.71875 -29.34375 C 10.382812 -27.570312 10.242188 -25.691406 10.296875 -23.703125 C 10.359375 -21.710938 10.390625 -19.722656 10.390625 -17.734375 Z M 10.390625 -17.734375 "/></g></g></g><g fill="#fff6ea" fill-opacity="1"><g transform="translate(198.439525, 87.993135)"><g><path d="M 2.265625 0.171875 C 1.160156 0.273438 0.71875 -0.203125 0.9375 -1.265625 C 1.125 -2.335938 1.351562 -3.789062 1.625 -5.625 C 1.90625 -7.46875 2.144531 -9.566406 2.34375 -11.921875 C 2.550781 -14.285156 2.65625 -16.757812 2.65625 -19.34375 C 2.65625 -21.914062 2.550781 -24.378906 2.34375 -26.734375 C 2.144531 -29.097656 1.90625 -31.207031 1.625 -33.0625 C 1.351562 -34.925781 1.125 -36.375 0.9375 -37.40625 C 0.71875 -38.46875 1.160156 -38.945312 2.265625 -38.84375 C 3.703125 -38.695312 5.285156 -38.578125 7.015625 -38.484375 C 8.742188 -38.390625 10.484375 -38.34375 12.234375 -38.34375 C 13.984375 -38.34375 15.648438 -38.390625 17.234375 -38.484375 C 18.816406 -38.578125 20.179688 -38.710938 21.328125 -38.890625 C 22.316406 -39.078125 22.757812 -38.582031 22.65625 -37.40625 C 22.582031 -36.15625 22.546875 -34.984375 22.546875 -33.890625 C 22.546875 -32.804688 22.582031 -31.472656 22.65625 -29.890625 C 22.65625 -28.640625 22.101562 -28.363281 21 -29.0625 C 19.738281 -29.976562 18.484375 -30.59375 17.234375 -30.90625 C 15.984375 -31.21875 14.84375 -31.375 13.8125 -31.375 C 12.78125 -31.375 11.929688 -31.359375 11.265625 -31.328125 C 11.265625 -31.328125 11.21875 -30.863281 11.125 -29.9375 C 11.039062 -29.019531 10.941406 -27.890625 10.828125 -26.546875 C 10.710938 -25.203125 10.601562 -23.867188 10.5 -22.546875 C 11.5625 -22.546875 12.65625 -22.691406 13.78125 -22.984375 C 14.90625 -23.273438 15.875 -23.609375 16.6875 -23.984375 C 17.164062 -24.160156 17.515625 -24.191406 17.734375 -24.078125 C 17.953125 -23.972656 18.023438 -23.644531 17.953125 -23.09375 C 17.921875 -22.582031 17.894531 -22.054688 17.875 -21.515625 C 17.851562 -20.984375 17.84375 -20.421875 17.84375 -19.828125 C 17.84375 -19.316406 17.84375 -18.789062 17.84375 -18.25 C 17.84375 -17.71875 17.863281 -17.195312 17.90625 -16.6875 C 18.007812 -15.65625 17.566406 -15.359375 16.578125 -15.796875 C 15.765625 -16.128906 14.785156 -16.425781 13.640625 -16.6875 C 12.503906 -16.945312 11.4375 -17.078125 10.4375 -17.078125 C 10.507812 -16.078125 10.59375 -15.015625 10.6875 -13.890625 C 10.78125 -12.765625 10.875 -11.707031 10.96875 -10.71875 C 11.0625 -9.726562 11.132812 -8.914062 11.1875 -8.28125 C 11.238281 -7.65625 11.265625 -7.34375 11.265625 -7.34375 C 11.929688 -7.3125 12.832031 -7.320312 13.96875 -7.375 C 15.113281 -7.425781 16.375 -7.644531 17.75 -8.03125 C 19.132812 -8.425781 20.472656 -9.117188 21.765625 -10.109375 C 22.648438 -10.703125 23.078125 -10.484375 23.046875 -9.453125 C 22.960938 -8.117188 22.929688 -6.707031 22.953125 -5.21875 C 22.972656 -3.726562 23.054688 -2.394531 23.203125 -1.21875 C 23.316406 -0.1875 22.859375 0.273438 21.828125 0.171875 C 20.273438 -0.015625 18.632812 -0.132812 16.90625 -0.1875 C 15.175781 -0.25 13.484375 -0.28125 11.828125 -0.28125 C 8.179688 -0.28125 4.992188 -0.128906 2.265625 0.171875 Z M 2.265625 0.171875 "/></g></g></g><g fill="#fff6ea" fill-opacity="1"><g transform="translate(224.296016, 87.993135)"><g><path d="M 9.890625 0.828125 C 8.191406 0.828125 6.851562 0.753906 5.875 0.609375 C 4.90625 0.460938 3.8125 0.390625 2.59375 0.390625 C 1.5625 0.390625 1.101562 -0.109375 1.21875 -1.109375 C 1.320312 -2.503906 1.429688 -4.007812 1.546875 -5.625 C 1.660156 -7.25 1.695312 -8.800781 1.65625 -10.28125 C 1.625 -10.90625 1.734375 -11.257812 1.984375 -11.34375 C 2.242188 -11.4375 2.578125 -11.25 2.984375 -10.78125 C 4.046875 -9.519531 5.191406 -8.546875 6.421875 -7.859375 C 7.660156 -7.179688 8.851562 -6.84375 10 -6.84375 C 10.957031 -6.84375 11.8125 -7.0625 12.5625 -7.5 C 13.320312 -7.945312 13.703125 -8.671875 13.703125 -9.671875 C 13.703125 -10.441406 13.257812 -11.257812 12.375 -12.125 C 11.488281 -12.988281 10.4375 -13.878906 9.21875 -14.796875 C 8.007812 -15.722656 6.90625 -16.628906 5.90625 -17.515625 C 3.914062 -19.359375 2.535156 -21.113281 1.765625 -22.78125 C 0.992188 -24.457031 0.609375 -26.457031 0.609375 -28.78125 C 0.609375 -31.03125 1.085938 -32.957031 2.046875 -34.5625 C 3.003906 -36.164062 4.328125 -37.390625 6.015625 -38.234375 C 7.710938 -39.078125 9.648438 -39.5 11.828125 -39.5 C 12.960938 -39.5 13.914062 -39.441406 14.6875 -39.328125 C 15.46875 -39.222656 16.207031 -39.113281 16.90625 -39 C 17.601562 -38.894531 18.359375 -38.859375 19.171875 -38.890625 C 20.085938 -38.929688 20.53125 -38.472656 20.5 -37.515625 C 20.382812 -36.367188 20.304688 -35.015625 20.265625 -33.453125 C 20.234375 -31.890625 20.21875 -30.28125 20.21875 -28.625 C 20.21875 -28 20.070312 -27.644531 19.78125 -27.5625 C 19.488281 -27.488281 19.140625 -27.691406 18.734375 -28.171875 C 17.441406 -29.753906 16.222656 -30.785156 15.078125 -31.265625 C 13.941406 -31.742188 12.984375 -31.984375 12.203125 -31.984375 C 11.359375 -31.984375 10.507812 -31.769531 9.65625 -31.34375 C 8.8125 -30.925781 8.390625 -30.070312 8.390625 -28.78125 C 8.390625 -27.9375 8.75 -27.132812 9.46875 -26.375 C 10.1875 -25.625 11.050781 -24.878906 12.0625 -24.140625 C 13.082031 -23.410156 14.035156 -22.675781 14.921875 -21.9375 C 16.128906 -20.976562 17.273438 -19.945312 18.359375 -18.84375 C 19.453125 -17.738281 20.347656 -16.503906 21.046875 -15.140625 C 21.742188 -13.773438 22.09375 -12.207031 22.09375 -10.4375 C 22.09375 -7.007812 21.097656 -4.273438 19.109375 -2.234375 C 17.128906 -0.191406 14.054688 0.828125 9.890625 0.828125 Z M 9.890625 0.828125 "/></g></g></g><g fill="#fff6ea" fill-opacity="1"><g transform="translate(248.660806, 87.993135)"><g><path d="M 9.890625 0.828125 C 8.191406 0.828125 6.851562 0.753906 5.875 0.609375 C 4.90625 0.460938 3.8125 0.390625 2.59375 0.390625 C 1.5625 0.390625 1.101562 -0.109375 1.21875 -1.109375 C 1.320312 -2.503906 1.429688 -4.007812 1.546875 -5.625 C 1.660156 -7.25 1.695312 -8.800781 1.65625 -10.28125 C 1.625 -10.90625 1.734375 -11.257812 1.984375 -11.34375 C 2.242188 -11.4375 2.578125 -11.25 2.984375 -10.78125 C 4.046875 -9.519531 5.191406 -8.546875 6.421875 -7.859375 C 7.660156 -7.179688 8.851562 -6.84375 10 -6.84375 C 10.957031 -6.84375 11.8125 -7.0625 12.5625 -7.5 C 13.320312 -7.945312 13.703125 -8.671875 13.703125 -9.671875 C 13.703125 -10.441406 13.257812 -11.257812 12.375 -12.125 C 11.488281 -12.988281 10.4375 -13.878906 9.21875 -14.796875 C 8.007812 -15.722656 6.90625 -16.628906 5.90625 -17.515625 C 3.914062 -19.359375 2.535156 -21.113281 1.765625 -22.78125 C 0.992188 -24.457031 0.609375 -26.457031 0.609375 -28.78125 C 0.609375 -31.03125 1.085938 -32.957031 2.046875 -34.5625 C 3.003906 -36.164062 4.328125 -37.390625 6.015625 -38.234375 C 7.710938 -39.078125 9.648438 -39.5 11.828125 -39.5 C 12.960938 -39.5 13.914062 -39.441406 14.6875 -39.328125 C 15.46875 -39.222656 16.207031 -39.113281 16.90625 -39 C 17.601562 -38.894531 18.359375 -38.859375 19.171875 -38.890625 C 20.085938 -38.929688 20.53125 -38.472656 20.5 -37.515625 C 20.382812 -36.367188 20.304688 -35.015625 20.265625 -33.453125 C 20.234375 -31.890625 20.21875 -30.28125 20.21875 -28.625 C 20.21875 -28 20.070312 -27.644531 19.78125 -27.5625 C 19.488281 -27.488281 19.140625 -27.691406 18.734375 -28.171875 C 17.441406 -29.753906 16.222656 -30.785156 15.078125 -31.265625 C 13.941406 -31.742188 12.984375 -31.984375 12.203125 -31.984375 C 11.359375 -31.984375 10.507812 -31.769531 9.65625 -31.34375 C 8.8125 -30.925781 8.390625 -30.070312 8.390625 -28.78125 C 8.390625 -27.9375 8.75 -27.132812 9.46875 -26.375 C 10.1875 -25.625 11.050781 -24.878906 12.0625 -24.140625 C 13.082031 -23.410156 14.035156 -22.675781 14.921875 -21.9375 C 16.128906 -20.976562 17.273438 -19.945312 18.359375 -18.84375 C 19.453125 -17.738281 20.347656 -16.503906 21.046875 -15.140625 C 21.742188 -13.773438 22.09375 -12.207031 22.09375 -10.4375 C 22.09375 -7.007812 21.097656 -4.273438 19.109375 -2.234375 C 17.128906 -0.191406 14.054688 0.828125 9.890625 0.828125 Z M 9.890625 0.828125 "/></g></g></g></svg>