<svg xmlns="http://www.w3.org/2000/svg" xmlns:xlink="http://www.w3.org/1999/xlink" width="361" zoomAndPan="magnify" viewBox="0 0 270.75 91.5" height="122" preserveAspectRatio="xMidYMid meet" version="1.0"><defs><g/><clipPath id="f47c8f3521"><path d="M 21 0 L 251 0 L 251 91 L 21 91 Z M 21 0 " clip-rule="nonzero"/></clipPath><clipPath id="c00cfcb568"><path d="M 21.960938 16.714844 L 245.929688 0.957031 L 251.113281 74.621094 L 27.140625 90.378906 Z M 21.960938 16.714844 " clip-rule="nonzero"/></clipPath><clipPath id="c2413639ed"><path d="M 4 14 L 227 14 L 227 78 L 4 78 Z M 4 14 " clip-rule="nonzero"/></clipPath><clipPath id="ecc668a9d1"><path d="M 0.960938 16.714844 L 224.929688 0.957031 L 230.113281 74.621094 L 6.140625 90.378906 Z M 0.960938 16.714844 " clip-rule="nonzero"/></clipPath><clipPath id="13df4be1cb"><path d="M 225.023438 0.949219 L 1.050781 16.710938 L 6.234375 90.375 L 230.203125 74.613281 Z M 225.023438 0.949219 " clip-rule="nonzero"/></clipPath><clipPath id="19cc6277e3"><rect x="0" width="230" y="0" height="91"/></clipPath></defs><g clip-path="url(#f47c8f3521)"><g clip-path="url(#c00cfcb568)"><g transform="matrix(1, 0, 0, 1, 21, 0.000000000000004552)"><g clip-path="url(#19cc6277e3)"><g clip-path="url(#c2413639ed)"><g clip-path="url(#ecc668a9d1)"><g clip-path="url(#13df4be1cb)"><path fill="#ff5757" d="M 223.203125 56.199219 C 223.691406 55.515625 224.390625 55.324219 224.945312 54.929688 C 227.269531 53.296875 227.578125 50.78125 225.699219 48.65625 C 225.058594 47.929688 224.378906 47.234375 223.71875 46.519531 C 222.878906 45.609375 222.902344 45.394531 223.847656 44.503906 C 224.402344 43.980469 224.957031 43.449219 225.46875 42.878906 C 227.714844 40.359375 226.863281 38.734375 225.363281 37.007812 C 224.726562 36.273438 224.078125 35.539062 223.351562 34.902344 C 222.644531 34.273438 222.757812 33.785156 223.316406 33.152344 C 224.179688 32.164062 225.148438 31.253906 225.652344 29.972656 C 226.492188 27.824219 226.183594 26.722656 224.230469 25.371094 C 222.648438 24.273438 222.515625 23.859375 223.234375 22.070312 C 223.59375 21.164062 224.050781 20.285156 224.347656 19.367188 C 225.0625 17.136719 224.308594 15.953125 222.054688 15.394531 C 220.140625 14.921875 218.164062 14.921875 216.261719 14.949219 C 213.417969 14.988281 210.566406 14.910156 207.722656 14.945312 C 186.46875 15.207031 165.207031 15.480469 143.945312 15.550781 C 121.941406 15.625 99.9375 15.414062 77.933594 15.421875 C 56.554688 15.425781 34.445312 14.367188 13.160156 16.519531 C 11.351562 16.703125 9.585938 17.03125 7.824219 17.410156 C 5.394531 17.9375 4.765625 19.183594 5.617188 21.574219 C 5.96875 22.554688 6.457031 23.484375 6.925781 24.414062 C 7.265625 25.09375 7.265625 25.648438 6.828125 26.335938 C 6.375 27.046875 5.832031 27.679688 5.378906 28.375 C 4.042969 30.4375 4.125 31.523438 5.605469 33.484375 C 6.070312 34.101562 6.589844 34.652344 7.164062 35.15625 C 7.816406 35.726562 7.839844 36.328125 7.269531 36.96875 C 6.714844 37.59375 6.132812 38.199219 5.617188 38.855469 C 4.484375 40.292969 4.417969 41.304688 5.351562 42.875 C 5.742188 43.527344 6.253906 44.109375 6.660156 44.757812 C 7.390625 45.941406 7.324219 46.3125 6.324219 47.257812 C 6.023438 47.542969 5.695312 47.8125 5.429688 48.132812 C 3.53125 50.40625 3.675781 52.09375 5.917969 54.050781 C 6.078125 54.1875 6.238281 54.320312 6.402344 54.457031 C 8.109375 55.929688 8.183594 55.972656 7.019531 57.839844 C 5.179688 60.796875 4.570312 63.074219 9.429688 65.699219 C 9.667969 65.828125 9.890625 65.980469 10.191406 66.160156 C 9.808594 67.195312 9.300781 68.09375 8.566406 68.828125 C 7.480469 69.925781 6.75 71.285156 5.816406 72.496094 C 5.015625 73.527344 5.214844 74.835938 6.222656 75.640625 C 7.117188 76.355469 8.179688 76.746094 9.3125 76.765625 C 77.25 77.757812 146.097656 77.761719 214.210938 75.605469 C 216.300781 75.539062 218.390625 75.539062 220.472656 75.371094 C 221.03125 75.324219 221.589844 75.304688 222.140625 75.238281 C 225.011719 74.902344 226.015625 72.578125 224.265625 70.265625 C 223.847656 69.714844 223.25 69.308594 222.773438 68.804688 C 221.925781 67.925781 221.941406 67.492188 222.925781 66.808594 C 223.617188 66.332031 224.234375 65.777344 224.898438 65.277344 C 227.667969 63.1875 227.105469 60.082031 225.171875 58.019531 C 224.566406 57.367188 223.863281 56.804688 223.203125 56.199219 Z M 223.203125 56.199219 " fill-opacity="1" fill-rule="nonzero"/></g></g></g></g></g></g></g><g fill="#000000" fill-opacity="0.4"><g transform="translate(35.083632, 60.973965)"><g><path d="M 7.515625 0.078125 C 6.648438 0.222656 6.289062 -0.117188 6.4375 -0.953125 C 6.519531 -1.765625 6.628906 -2.863281 6.765625 -4.25 C 6.898438 -5.644531 7.035156 -7.234375 7.171875 -9.015625 C 7.316406 -10.796875 7.414062 -12.664062 7.46875 -14.625 C 7.53125 -16.425781 7.507812 -18.128906 7.40625 -19.734375 C 7.3125 -21.335938 7.195312 -22.765625 7.0625 -24.015625 C 6.363281 -24.066406 5.566406 -24.007812 4.671875 -23.84375 C 3.785156 -23.675781 2.800781 -23.367188 1.71875 -22.921875 C 1.351562 -22.785156 1.050781 -22.796875 0.8125 -22.953125 C 0.570312 -23.109375 0.46875 -23.394531 0.5 -23.8125 C 0.550781 -24.8125 0.582031 -25.613281 0.59375 -26.21875 C 0.613281 -26.832031 0.597656 -27.519531 0.546875 -28.28125 C 0.515625 -28.664062 0.59375 -28.953125 0.78125 -29.140625 C 0.976562 -29.335938 1.257812 -29.410156 1.625 -29.359375 C 2.457031 -29.242188 3.203125 -29.179688 3.859375 -29.171875 C 4.515625 -29.160156 5.316406 -29.15625 6.265625 -29.15625 L 14.5 -29.15625 C 15.46875 -29.15625 16.269531 -29.160156 16.90625 -29.171875 C 17.550781 -29.179688 18.289062 -29.242188 19.125 -29.359375 C 19.488281 -29.410156 19.773438 -29.347656 19.984375 -29.171875 C 20.191406 -28.992188 20.269531 -28.707031 20.21875 -28.3125 C 20.1875 -27.59375 20.160156 -26.867188 20.140625 -26.140625 C 20.128906 -25.421875 20.15625 -24.628906 20.21875 -23.765625 C 20.238281 -23.378906 20.140625 -23.109375 19.921875 -22.953125 C 19.703125 -22.796875 19.394531 -22.785156 19 -22.921875 C 16.882812 -23.765625 15.144531 -24.128906 13.78125 -24.015625 C 13.644531 -22.765625 13.519531 -21.335938 13.40625 -19.734375 C 13.289062 -18.128906 13.234375 -16.425781 13.234375 -14.625 C 13.234375 -12.664062 13.296875 -10.796875 13.421875 -9.015625 C 13.546875 -7.234375 13.691406 -5.644531 13.859375 -4.25 C 14.023438 -2.863281 14.164062 -1.765625 14.28125 -0.953125 C 14.425781 -0.117188 14.078125 0.222656 13.234375 0.078125 C 12.816406 0.0234375 12.382812 -0.0195312 11.9375 -0.0625 C 11.5 -0.101562 10.945312 -0.125 10.28125 -0.125 C 9.632812 -0.125 9.101562 -0.101562 8.6875 -0.0625 C 8.269531 -0.0195312 7.878906 0.0234375 7.515625 0.078125 Z M 7.515625 0.078125 "/></g></g></g><g fill="#000000" fill-opacity="0.4"><g transform="translate(57.097332, 60.973965)"><g><path d="M 8.109375 0.125 C 7.660156 0.0390625 7.1875 -0.0195312 6.6875 -0.0625 C 6.1875 -0.101562 5.554688 -0.125 4.796875 -0.125 C 4.109375 -0.125 3.519531 -0.101562 3.03125 -0.0625 C 2.539062 -0.0195312 2.101562 0.0234375 1.71875 0.078125 C 1.351562 0.140625 1.066406 0.0703125 0.859375 -0.125 C 0.648438 -0.320312 0.585938 -0.613281 0.671875 -1 C 0.835938 -1.8125 1.015625 -2.90625 1.203125 -4.28125 C 1.398438 -5.65625 1.578125 -7.234375 1.734375 -9.015625 C 1.890625 -10.796875 1.96875 -12.664062 1.96875 -14.625 C 1.96875 -16.570312 1.890625 -18.4375 1.734375 -20.21875 C 1.578125 -22 1.398438 -23.582031 1.203125 -24.96875 C 1.015625 -26.363281 0.835938 -27.453125 0.671875 -28.234375 C 0.609375 -28.617188 0.675781 -28.910156 0.875 -29.109375 C 1.070312 -29.304688 1.351562 -29.375 1.71875 -29.3125 C 2.101562 -29.257812 2.539062 -29.210938 3.03125 -29.171875 C 3.519531 -29.128906 4.109375 -29.109375 4.796875 -29.109375 C 5.554688 -29.109375 6.1875 -29.128906 6.6875 -29.171875 C 7.1875 -29.210938 7.660156 -29.273438 8.109375 -29.359375 C 8.492188 -29.410156 8.78125 -29.332031 8.96875 -29.125 C 9.164062 -28.914062 9.210938 -28.617188 9.109375 -28.234375 C 8.910156 -27.203125 8.675781 -25.660156 8.40625 -23.609375 C 8.144531 -21.566406 7.972656 -19.304688 7.890625 -16.828125 L 12.734375 -16.828125 C 12.648438 -19.304688 12.472656 -21.566406 12.203125 -23.609375 C 11.941406 -25.660156 11.71875 -27.203125 11.53125 -28.234375 C 11.445312 -28.617188 11.5 -28.910156 11.6875 -29.109375 C 11.882812 -29.304688 12.164062 -29.375 12.53125 -29.3125 C 12.914062 -29.257812 13.351562 -29.210938 13.84375 -29.171875 C 14.332031 -29.128906 14.925781 -29.109375 15.625 -29.109375 C 16.375 -29.109375 17 -29.128906 17.5 -29.171875 C 18 -29.210938 18.472656 -29.273438 18.921875 -29.359375 C 19.304688 -29.410156 19.597656 -29.332031 19.796875 -29.125 C 19.992188 -28.914062 20.050781 -28.617188 19.96875 -28.234375 C 19.820312 -27.453125 19.644531 -26.363281 19.4375 -24.96875 C 19.226562 -23.582031 19.046875 -22 18.890625 -20.21875 C 18.742188 -18.4375 18.671875 -16.570312 18.671875 -14.625 C 18.671875 -12.664062 18.742188 -10.796875 18.890625 -9.015625 C 19.046875 -7.234375 19.226562 -5.644531 19.4375 -4.25 C 19.644531 -2.863281 19.820312 -1.78125 19.96875 -1 C 20.050781 -0.613281 19.992188 -0.320312 19.796875 -0.125 C 19.597656 0.0703125 19.304688 0.15625 18.921875 0.125 C 18.472656 0.0390625 18 -0.0195312 17.5 -0.0625 C 17 -0.101562 16.375 -0.125 15.625 -0.125 C 14.925781 -0.125 14.332031 -0.101562 13.84375 -0.0625 C 13.351562 -0.0195312 12.914062 0.0234375 12.53125 0.078125 C 12.164062 0.140625 11.878906 0.0703125 11.671875 -0.125 C 11.460938 -0.320312 11.414062 -0.613281 11.53125 -1 C 11.71875 -2.03125 11.941406 -3.539062 12.203125 -5.53125 C 12.472656 -7.519531 12.648438 -9.742188 12.734375 -12.203125 L 7.890625 -12.203125 C 7.972656 -9.742188 8.144531 -7.507812 8.40625 -5.5 C 8.675781 -3.5 8.910156 -2 9.109375 -1 C 9.210938 -0.613281 9.164062 -0.320312 8.96875 -0.125 C 8.78125 0.0703125 8.492188 0.15625 8.109375 0.125 Z M 8.109375 0.125 "/></g></g></g><g fill="#000000" fill-opacity="0.4"><g transform="translate(78.985718, 60.973965)"><g><path d="M 7.859375 0.125 C 7.410156 0.0390625 6.957031 -0.0195312 6.5 -0.0625 C 6.039062 -0.101562 5.460938 -0.125 4.765625 -0.125 C 4.117188 -0.125 3.566406 -0.101562 3.109375 -0.0625 C 2.648438 -0.0195312 2.226562 0.0234375 1.84375 0.078125 C 1 0.222656 0.648438 -0.132812 0.796875 -1 C 0.929688 -1.78125 1.082031 -2.863281 1.25 -4.25 C 1.414062 -5.644531 1.566406 -7.234375 1.703125 -9.015625 C 1.847656 -10.796875 1.921875 -12.664062 1.921875 -14.625 C 1.921875 -16.570312 1.847656 -18.4375 1.703125 -20.21875 C 1.566406 -22 1.414062 -23.582031 1.25 -24.96875 C 1.082031 -26.363281 0.929688 -27.453125 0.796875 -28.234375 C 0.648438 -29.097656 1 -29.457031 1.84375 -29.3125 C 2.226562 -29.257812 2.648438 -29.210938 3.109375 -29.171875 C 3.566406 -29.128906 4.117188 -29.109375 4.765625 -29.109375 C 5.460938 -29.109375 6.039062 -29.128906 6.5 -29.171875 C 6.957031 -29.210938 7.410156 -29.273438 7.859375 -29.359375 C 8.691406 -29.441406 9.035156 -29.082031 8.890625 -28.28125 C 8.785156 -27.5 8.640625 -26.410156 8.453125 -25.015625 C 8.273438 -23.617188 8.113281 -22.03125 7.96875 -20.25 C 7.832031 -18.46875 7.765625 -16.59375 7.765625 -14.625 C 7.765625 -12.664062 7.832031 -10.796875 7.96875 -9.015625 C 8.113281 -7.234375 8.273438 -5.644531 8.453125 -4.25 C 8.640625 -2.863281 8.785156 -1.765625 8.890625 -0.953125 C 9.035156 -0.148438 8.691406 0.207031 7.859375 0.125 Z M 7.859375 0.125 "/></g></g></g><g fill="#000000" fill-opacity="0.4"><g transform="translate(89.929911, 60.973965)"><g><path d="M 7.46875 0.625 C 6.195312 0.625 5.191406 0.566406 4.453125 0.453125 C 3.710938 0.347656 2.882812 0.296875 1.96875 0.296875 C 1.1875 0.296875 0.835938 -0.078125 0.921875 -0.828125 C 1.003906 -1.890625 1.085938 -3.03125 1.171875 -4.25 C 1.253906 -5.476562 1.28125 -6.648438 1.25 -7.765625 C 1.226562 -8.242188 1.3125 -8.515625 1.5 -8.578125 C 1.695312 -8.648438 1.945312 -8.503906 2.25 -8.140625 C 3.0625 -7.191406 3.929688 -6.457031 4.859375 -5.9375 C 5.796875 -5.425781 6.695312 -5.171875 7.5625 -5.171875 C 8.28125 -5.171875 8.925781 -5.335938 9.5 -5.671875 C 10.070312 -6.015625 10.359375 -6.5625 10.359375 -7.3125 C 10.359375 -7.894531 10.023438 -8.515625 9.359375 -9.171875 C 8.691406 -9.828125 7.894531 -10.5 6.96875 -11.1875 C 6.050781 -11.882812 5.21875 -12.566406 4.46875 -13.234375 C 2.96875 -14.628906 1.921875 -15.957031 1.328125 -17.21875 C 0.742188 -18.488281 0.453125 -20.003906 0.453125 -21.765625 C 0.453125 -23.460938 0.8125 -24.914062 1.53125 -26.125 C 2.257812 -27.332031 3.265625 -28.253906 4.546875 -28.890625 C 5.828125 -29.535156 7.289062 -29.859375 8.9375 -29.859375 C 9.800781 -29.859375 10.523438 -29.816406 11.109375 -29.734375 C 11.691406 -29.648438 12.25 -29.566406 12.78125 -29.484375 C 13.3125 -29.398438 13.882812 -29.375 14.5 -29.40625 C 15.1875 -29.425781 15.519531 -29.078125 15.5 -28.359375 C 15.414062 -27.492188 15.359375 -26.46875 15.328125 -25.28125 C 15.296875 -24.101562 15.28125 -22.890625 15.28125 -21.640625 C 15.28125 -21.160156 15.171875 -20.890625 14.953125 -20.828125 C 14.734375 -20.773438 14.46875 -20.929688 14.15625 -21.296875 C 13.1875 -22.492188 12.269531 -23.273438 11.40625 -23.640625 C 10.539062 -24.003906 9.816406 -24.1875 9.234375 -24.1875 C 8.585938 -24.1875 7.941406 -24.023438 7.296875 -23.703125 C 6.660156 -23.378906 6.34375 -22.734375 6.34375 -21.765625 C 6.34375 -21.117188 6.613281 -20.507812 7.15625 -19.9375 C 7.707031 -19.375 8.363281 -18.8125 9.125 -18.25 C 9.894531 -17.695312 10.613281 -17.140625 11.28125 -16.578125 C 12.195312 -15.859375 13.066406 -15.078125 13.890625 -14.234375 C 14.710938 -13.398438 15.382812 -12.46875 15.90625 -11.4375 C 16.4375 -10.414062 16.703125 -9.234375 16.703125 -7.890625 C 16.703125 -5.304688 15.953125 -3.238281 14.453125 -1.6875 C 12.953125 -0.144531 10.625 0.625 7.46875 0.625 Z M 7.46875 0.625 "/></g></g></g><g fill="#000000" fill-opacity="0.4"><g transform="translate(108.351235, 60.973965)"><g/></g></g><g fill="#000000" fill-opacity="0.4"><g transform="translate(117.958727, 60.973965)"><g><path d="M 15.03125 0.296875 L 13.109375 0.296875 C 12.472656 0.296875 12.082031 -0.0351562 11.9375 -0.703125 C 11.75 -1.960938 11.515625 -3.296875 11.234375 -4.703125 C 10.953125 -6.109375 10.679688 -7.453125 10.421875 -8.734375 C 10.160156 -10.015625 9.929688 -11.082031 9.734375 -11.9375 C 9.453125 -13.332031 9.164062 -14.550781 8.875 -15.59375 C 8.582031 -16.644531 8.285156 -17.597656 7.984375 -18.453125 L 7.984375 -18.328125 C 7.921875 -17.722656 7.867188 -17.113281 7.828125 -16.5 C 7.785156 -15.882812 7.765625 -15.257812 7.765625 -14.625 C 7.765625 -12.664062 7.84375 -10.796875 8 -9.015625 C 8.15625 -7.234375 8.335938 -5.644531 8.546875 -4.25 C 8.753906 -2.863281 8.925781 -1.78125 9.0625 -1 C 9.113281 -0.632812 9.054688 -0.34375 8.890625 -0.125 C 8.722656 0.09375 8.429688 0.175781 8.015625 0.125 C 7.484375 0.0390625 7.023438 -0.0195312 6.640625 -0.0625 C 6.253906 -0.101562 5.628906 -0.125 4.765625 -0.125 C 4.066406 -0.125 3.472656 -0.101562 2.984375 -0.0625 C 2.492188 -0.0195312 2.039062 0.0234375 1.625 0.078125 C 0.789062 0.222656 0.457031 -0.148438 0.625 -1.046875 C 0.757812 -1.828125 0.925781 -2.90625 1.125 -4.28125 C 1.320312 -5.65625 1.492188 -7.234375 1.640625 -9.015625 C 1.796875 -10.796875 1.875 -12.664062 1.875 -14.625 C 1.875 -16.570312 1.796875 -18.4375 1.640625 -20.21875 C 1.492188 -22 1.320312 -23.582031 1.125 -24.96875 C 0.925781 -26.363281 0.757812 -27.453125 0.625 -28.234375 C 0.488281 -29.097656 0.820312 -29.457031 1.625 -29.3125 C 2.039062 -29.257812 2.492188 -29.210938 2.984375 -29.171875 C 3.472656 -29.128906 4.066406 -29.109375 4.765625 -29.109375 C 5.566406 -29.109375 6.363281 -29.132812 7.15625 -29.1875 C 7.957031 -29.25 8.703125 -29.320312 9.390625 -29.40625 C 10.066406 -29.488281 10.445312 -29.179688 10.53125 -28.484375 C 10.75 -26.785156 11.195312 -24.46875 11.875 -21.53125 C 12.5625 -18.59375 13.296875 -15.21875 14.078125 -11.40625 C 14.859375 -15 15.601562 -18.289062 16.3125 -21.28125 C 17.019531 -24.269531 17.472656 -26.671875 17.671875 -28.484375 C 17.753906 -29.148438 18.128906 -29.441406 18.796875 -29.359375 C 19.410156 -29.304688 20.078125 -29.25 20.796875 -29.1875 C 21.523438 -29.132812 22.332031 -29.109375 23.21875 -29.109375 C 23.832031 -29.109375 24.296875 -29.113281 24.609375 -29.125 C 24.929688 -29.144531 25.222656 -29.175781 25.484375 -29.21875 C 25.753906 -29.257812 26.085938 -29.304688 26.484375 -29.359375 C 26.867188 -29.410156 27.160156 -29.335938 27.359375 -29.140625 C 27.554688 -28.953125 27.613281 -28.632812 27.53125 -28.1875 C 27.382812 -27.4375 27.210938 -26.363281 27.015625 -24.96875 C 26.828125 -23.582031 26.65625 -22.003906 26.5 -20.234375 C 26.34375 -18.460938 26.265625 -16.59375 26.265625 -14.625 C 26.265625 -12.664062 26.34375 -10.796875 26.5 -9.015625 C 26.65625 -7.234375 26.828125 -5.65625 27.015625 -4.28125 C 27.210938 -2.90625 27.382812 -1.828125 27.53125 -1.046875 C 27.613281 -0.597656 27.554688 -0.273438 27.359375 -0.078125 C 27.160156 0.109375 26.867188 0.175781 26.484375 0.125 C 26.085938 0.0703125 25.753906 0.0234375 25.484375 -0.015625 C 25.222656 -0.0546875 24.929688 -0.0820312 24.609375 -0.09375 C 24.296875 -0.113281 23.832031 -0.125 23.21875 -0.125 C 22.519531 -0.125 21.925781 -0.101562 21.4375 -0.0625 C 20.957031 -0.0195312 20.519531 0.0234375 20.125 0.078125 C 19.269531 0.222656 18.925781 -0.132812 19.09375 -1 C 19.257812 -1.8125 19.4375 -2.90625 19.625 -4.28125 C 19.820312 -5.65625 19.992188 -7.234375 20.140625 -9.015625 C 20.296875 -10.796875 20.375 -12.664062 20.375 -14.625 C 20.375 -15.257812 20.359375 -15.867188 20.328125 -16.453125 C 20.304688 -17.035156 20.269531 -17.617188 20.21875 -18.203125 L 20.171875 -18.625 C 20.054688 -18.09375 19.835938 -17.25 19.515625 -16.09375 C 19.203125 -14.945312 18.878906 -13.5625 18.546875 -11.9375 C 18.210938 -10.382812 17.84375 -8.695312 17.4375 -6.875 C 17.03125 -5.050781 16.617188 -2.984375 16.203125 -0.671875 C 16.066406 -0.0234375 15.675781 0.296875 15.03125 0.296875 Z M 15.03125 0.296875 "/></g></g></g><g fill="#000000" fill-opacity="0.4"><g transform="translate(147.366027, 60.973965)"><g><path d="M 10.6875 0.625 C 7.488281 0.625 5 -0.617188 3.21875 -3.109375 C 1.4375 -5.597656 0.546875 -9.445312 0.546875 -14.65625 C 0.546875 -19.414062 1.4375 -23.140625 3.21875 -25.828125 C 5 -28.515625 7.488281 -29.859375 10.6875 -29.859375 C 13.894531 -29.859375 16.378906 -28.515625 18.140625 -25.828125 C 19.910156 -23.140625 20.796875 -19.414062 20.796875 -14.65625 C 20.796875 -9.445312 19.910156 -5.597656 18.140625 -3.109375 C 16.378906 -0.617188 13.894531 0.625 10.6875 0.625 Z M 10.65625 -5.21875 C 11.34375 -5.21875 11.9375 -5.628906 12.4375 -6.453125 C 12.945312 -7.273438 13.335938 -8.390625 13.609375 -9.796875 C 13.890625 -11.203125 14.03125 -12.769531 14.03125 -14.5 C 14.03125 -17.394531 13.722656 -19.703125 13.109375 -21.421875 C 12.503906 -23.148438 11.6875 -24.015625 10.65625 -24.015625 C 9.625 -24.015625 8.800781 -23.148438 8.1875 -21.421875 C 7.570312 -19.703125 7.265625 -17.394531 7.265625 -14.5 C 7.265625 -12.769531 7.40625 -11.203125 7.6875 -9.796875 C 7.96875 -8.390625 8.363281 -7.273438 8.875 -6.453125 C 9.382812 -5.628906 9.976562 -5.21875 10.65625 -5.21875 Z M 10.65625 -5.21875 "/></g></g></g><g fill="#000000" fill-opacity="0.4"><g transform="translate(169.96453, 60.973965)"><g><path d="M 8.0625 0.125 C 7.613281 0.0390625 7.144531 -0.0195312 6.65625 -0.0625 C 6.175781 -0.101562 5.554688 -0.125 4.796875 -0.125 C 4.109375 -0.125 3.519531 -0.101562 3.03125 -0.0625 C 2.539062 -0.0195312 2.085938 0.0234375 1.671875 0.078125 C 1.304688 0.140625 1.023438 0.0703125 0.828125 -0.125 C 0.640625 -0.320312 0.585938 -0.613281 0.671875 -1 C 0.804688 -1.8125 0.976562 -2.90625 1.1875 -4.28125 C 1.394531 -5.65625 1.578125 -7.234375 1.734375 -9.015625 C 1.890625 -10.796875 1.96875 -12.664062 1.96875 -14.625 C 1.96875 -16.570312 1.890625 -18.4375 1.734375 -20.21875 C 1.578125 -22 1.394531 -23.582031 1.1875 -24.96875 C 0.976562 -26.363281 0.804688 -27.453125 0.671875 -28.234375 C 0.585938 -28.617188 0.640625 -28.910156 0.828125 -29.109375 C 1.023438 -29.304688 1.304688 -29.375 1.671875 -29.3125 C 2.140625 -29.257812 2.640625 -29.210938 3.171875 -29.171875 C 3.703125 -29.128906 4.328125 -29.109375 5.046875 -29.109375 C 5.859375 -29.109375 6.5625 -29.132812 7.15625 -29.1875 C 7.757812 -29.25 8.335938 -29.304688 8.890625 -29.359375 C 9.617188 -29.472656 9.984375 -29.125 9.984375 -28.3125 C 9.953125 -27.28125 10.035156 -26.144531 10.234375 -24.90625 C 10.429688 -23.664062 10.707031 -22.441406 11.0625 -21.234375 C 11.425781 -20.023438 11.832031 -18.929688 12.28125 -17.953125 C 13.164062 -16.117188 14.054688 -14.421875 14.953125 -12.859375 L 15 -14.625 C 15 -16.570312 14.921875 -18.4375 14.765625 -20.21875 C 14.609375 -22 14.425781 -23.582031 14.21875 -24.96875 C 14.007812 -26.363281 13.835938 -27.453125 13.703125 -28.234375 C 13.554688 -29.097656 13.90625 -29.457031 14.75 -29.3125 C 15.132812 -29.257812 15.570312 -29.210938 16.0625 -29.171875 C 16.550781 -29.128906 17.140625 -29.109375 17.828125 -29.109375 C 18.585938 -29.109375 19.21875 -29.128906 19.71875 -29.171875 C 20.21875 -29.210938 20.703125 -29.273438 21.171875 -29.359375 C 21.984375 -29.441406 22.316406 -29.082031 22.171875 -28.28125 C 21.984375 -27.132812 21.789062 -25.960938 21.59375 -24.765625 C 21.394531 -23.566406 21.226562 -22.164062 21.09375 -20.5625 C 20.957031 -18.96875 20.875 -16.988281 20.84375 -14.625 C 20.84375 -12.664062 20.914062 -10.796875 21.0625 -9.015625 C 21.21875 -7.234375 21.398438 -5.644531 21.609375 -4.25 C 21.816406 -2.863281 21.992188 -1.78125 22.140625 -1 C 22.222656 -0.613281 22.171875 -0.320312 21.984375 -0.125 C 21.804688 0.0703125 21.523438 0.15625 21.140625 0.125 C 20.691406 0.0390625 20.21875 -0.0195312 19.71875 -0.0625 C 19.21875 -0.101562 18.585938 -0.125 17.828125 -0.125 C 17.054688 -0.125 16.414062 -0.09375 15.90625 -0.03125 C 15.40625 0.0195312 14.921875 0.0703125 14.453125 0.125 C 13.804688 0.257812 13.414062 -0.046875 13.28125 -0.796875 C 13.144531 -1.578125 12.921875 -2.648438 12.609375 -4.015625 C 12.304688 -5.378906 11.910156 -6.859375 11.421875 -8.453125 C 10.929688 -10.054688 10.335938 -11.566406 9.640625 -12.984375 C 9.285156 -13.734375 8.960938 -14.398438 8.671875 -14.984375 C 8.378906 -15.578125 8.109375 -16.109375 7.859375 -16.578125 C 7.828125 -16.273438 7.8125 -15.957031 7.8125 -15.625 C 7.8125 -15.289062 7.8125 -14.957031 7.8125 -14.625 C 7.8125 -12.664062 7.882812 -10.796875 8.03125 -9.015625 C 8.1875 -7.234375 8.367188 -5.644531 8.578125 -4.25 C 8.785156 -2.863281 8.960938 -1.78125 9.109375 -1 C 9.191406 -0.613281 9.132812 -0.320312 8.9375 -0.125 C 8.738281 0.0703125 8.445312 0.15625 8.0625 0.125 Z M 8.0625 0.125 "/></g></g></g><g fill="#000000" fill-opacity="0.4"><g transform="translate(194.066819, 60.973965)"><g><path d="M 7.515625 0.078125 C 6.648438 0.222656 6.289062 -0.117188 6.4375 -0.953125 C 6.519531 -1.765625 6.628906 -2.863281 6.765625 -4.25 C 6.898438 -5.644531 7.035156 -7.234375 7.171875 -9.015625 C 7.316406 -10.796875 7.414062 -12.664062 7.46875 -14.625 C 7.53125 -16.425781 7.507812 -18.128906 7.40625 -19.734375 C 7.3125 -21.335938 7.195312 -22.765625 7.0625 -24.015625 C 6.363281 -24.066406 5.566406 -24.007812 4.671875 -23.84375 C 3.785156 -23.675781 2.800781 -23.367188 1.71875 -22.921875 C 1.351562 -22.785156 1.050781 -22.796875 0.8125 -22.953125 C 0.570312 -23.109375 0.46875 -23.394531 0.5 -23.8125 C 0.550781 -24.8125 0.582031 -25.613281 0.59375 -26.21875 C 0.613281 -26.832031 0.597656 -27.519531 0.546875 -28.28125 C 0.515625 -28.664062 0.59375 -28.953125 0.78125 -29.140625 C 0.976562 -29.335938 1.257812 -29.410156 1.625 -29.359375 C 2.457031 -29.242188 3.203125 -29.179688 3.859375 -29.171875 C 4.515625 -29.160156 5.316406 -29.15625 6.265625 -29.15625 L 14.5 -29.15625 C 15.46875 -29.15625 16.269531 -29.160156 16.90625 -29.171875 C 17.550781 -29.179688 18.289062 -29.242188 19.125 -29.359375 C 19.488281 -29.410156 19.773438 -29.347656 19.984375 -29.171875 C 20.191406 -28.992188 20.269531 -28.707031 20.21875 -28.3125 C 20.1875 -27.59375 20.160156 -26.867188 20.140625 -26.140625 C 20.128906 -25.421875 20.15625 -24.628906 20.21875 -23.765625 C 20.238281 -23.378906 20.140625 -23.109375 19.921875 -22.953125 C 19.703125 -22.796875 19.394531 -22.785156 19 -22.921875 C 16.882812 -23.765625 15.144531 -24.128906 13.78125 -24.015625 C 13.644531 -22.765625 13.519531 -21.335938 13.40625 -19.734375 C 13.289062 -18.128906 13.234375 -16.425781 13.234375 -14.625 C 13.234375 -12.664062 13.296875 -10.796875 13.421875 -9.015625 C 13.546875 -7.234375 13.691406 -5.644531 13.859375 -4.25 C 14.023438 -2.863281 14.164062 -1.765625 14.28125 -0.953125 C 14.425781 -0.117188 14.078125 0.222656 13.234375 0.078125 C 12.816406 0.0234375 12.382812 -0.0195312 11.9375 -0.0625 C 11.5 -0.101562 10.945312 -0.125 10.28125 -0.125 C 9.632812 -0.125 9.101562 -0.101562 8.6875 -0.0625 C 8.269531 -0.0195312 7.878906 0.0234375 7.515625 0.078125 Z M 7.515625 0.078125 "/></g></g></g><g fill="#000000" fill-opacity="0.4"><g transform="translate(216.080519, 60.973965)"><g><path d="M 8.109375 0.125 C 7.660156 0.0390625 7.1875 -0.0195312 6.6875 -0.0625 C 6.1875 -0.101562 5.554688 -0.125 4.796875 -0.125 C 4.109375 -0.125 3.519531 -0.101562 3.03125 -0.0625 C 2.539062 -0.0195312 2.101562 0.0234375 1.71875 0.078125 C 1.351562 0.140625 1.066406 0.0703125 0.859375 -0.125 C 0.648438 -0.320312 0.585938 -0.613281 0.671875 -1 C 0.835938 -1.8125 1.015625 -2.90625 1.203125 -4.28125 C 1.398438 -5.65625 1.578125 -7.234375 1.734375 -9.015625 C 1.890625 -10.796875 1.96875 -12.664062 1.96875 -14.625 C 1.96875 -16.570312 1.890625 -18.4375 1.734375 -20.21875 C 1.578125 -22 1.398438 -23.582031 1.203125 -24.96875 C 1.015625 -26.363281 0.835938 -27.453125 0.671875 -28.234375 C 0.609375 -28.617188 0.675781 -28.910156 0.875 -29.109375 C 1.070312 -29.304688 1.351562 -29.375 1.71875 -29.3125 C 2.101562 -29.257812 2.539062 -29.210938 3.03125 -29.171875 C 3.519531 -29.128906 4.109375 -29.109375 4.796875 -29.109375 C 5.554688 -29.109375 6.1875 -29.128906 6.6875 -29.171875 C 7.1875 -29.210938 7.660156 -29.273438 8.109375 -29.359375 C 8.492188 -29.410156 8.78125 -29.332031 8.96875 -29.125 C 9.164062 -28.914062 9.210938 -28.617188 9.109375 -28.234375 C 8.910156 -27.203125 8.675781 -25.660156 8.40625 -23.609375 C 8.144531 -21.566406 7.972656 -19.304688 7.890625 -16.828125 L 12.734375 -16.828125 C 12.648438 -19.304688 12.472656 -21.566406 12.203125 -23.609375 C 11.941406 -25.660156 11.71875 -27.203125 11.53125 -28.234375 C 11.445312 -28.617188 11.5 -28.910156 11.6875 -29.109375 C 11.882812 -29.304688 12.164062 -29.375 12.53125 -29.3125 C 12.914062 -29.257812 13.351562 -29.210938 13.84375 -29.171875 C 14.332031 -29.128906 14.925781 -29.109375 15.625 -29.109375 C 16.375 -29.109375 17 -29.128906 17.5 -29.171875 C 18 -29.210938 18.472656 -29.273438 18.921875 -29.359375 C 19.304688 -29.410156 19.597656 -29.332031 19.796875 -29.125 C 19.992188 -28.914062 20.050781 -28.617188 19.96875 -28.234375 C 19.820312 -27.453125 19.644531 -26.363281 19.4375 -24.96875 C 19.226562 -23.582031 19.046875 -22 18.890625 -20.21875 C 18.742188 -18.4375 18.671875 -16.570312 18.671875 -14.625 C 18.671875 -12.664062 18.742188 -10.796875 18.890625 -9.015625 C 19.046875 -7.234375 19.226562 -5.644531 19.4375 -4.25 C 19.644531 -2.863281 19.820312 -1.78125 19.96875 -1 C 20.050781 -0.613281 19.992188 -0.320312 19.796875 -0.125 C 19.597656 0.0703125 19.304688 0.15625 18.921875 0.125 C 18.472656 0.0390625 18 -0.0195312 17.5 -0.0625 C 17 -0.101562 16.375 -0.125 15.625 -0.125 C 14.925781 -0.125 14.332031 -0.101562 13.84375 -0.0625 C 13.351562 -0.0195312 12.914062 0.0234375 12.53125 0.078125 C 12.164062 0.140625 11.878906 0.0703125 11.671875 -0.125 C 11.460938 -0.320312 11.414062 -0.613281 11.53125 -1 C 11.71875 -2.03125 11.941406 -3.539062 12.203125 -5.53125 C 12.472656 -7.519531 12.648438 -9.742188 12.734375 -12.203125 L 7.890625 -12.203125 C 7.972656 -9.742188 8.144531 -7.507812 8.40625 -5.5 C 8.675781 -3.5 8.910156 -2 9.109375 -1 C 9.210938 -0.613281 9.164062 -0.320312 8.96875 -0.125 C 8.78125 0.0703125 8.492188 0.15625 8.109375 0.125 Z M 8.109375 0.125 "/></g></g></g><g fill="#fff6ea" fill-opacity="1"><g transform="translate(33.237565, 59.127898)"><g><path d="M 7.515625 0.078125 C 6.648438 0.222656 6.289062 -0.117188 6.4375 -0.953125 C 6.519531 -1.765625 6.628906 -2.863281 6.765625 -4.25 C 6.898438 -5.644531 7.035156 -7.234375 7.171875 -9.015625 C 7.316406 -10.796875 7.414062 -12.664062 7.46875 -14.625 C 7.53125 -16.425781 7.507812 -18.128906 7.40625 -19.734375 C 7.3125 -21.335938 7.195312 -22.765625 7.0625 -24.015625 C 6.363281 -24.066406 5.566406 -24.007812 4.671875 -23.84375 C 3.785156 -23.675781 2.800781 -23.367188 1.71875 -22.921875 C 1.351562 -22.785156 1.050781 -22.796875 0.8125 -22.953125 C 0.570312 -23.109375 0.46875 -23.394531 0.5 -23.8125 C 0.550781 -24.8125 0.582031 -25.613281 0.59375 -26.21875 C 0.613281 -26.832031 0.597656 -27.519531 0.546875 -28.28125 C 0.515625 -28.664062 0.59375 -28.953125 0.78125 -29.140625 C 0.976562 -29.335938 1.257812 -29.410156 1.625 -29.359375 C 2.457031 -29.242188 3.203125 -29.179688 3.859375 -29.171875 C 4.515625 -29.160156 5.316406 -29.15625 6.265625 -29.15625 L 14.5 -29.15625 C 15.46875 -29.15625 16.269531 -29.160156 16.90625 -29.171875 C 17.550781 -29.179688 18.289062 -29.242188 19.125 -29.359375 C 19.488281 -29.410156 19.773438 -29.347656 19.984375 -29.171875 C 20.191406 -28.992188 20.269531 -28.707031 20.21875 -28.3125 C 20.1875 -27.59375 20.160156 -26.867188 20.140625 -26.140625 C 20.128906 -25.421875 20.15625 -24.628906 20.21875 -23.765625 C 20.238281 -23.378906 20.140625 -23.109375 19.921875 -22.953125 C 19.703125 -22.796875 19.394531 -22.785156 19 -22.921875 C 16.882812 -23.765625 15.144531 -24.128906 13.78125 -24.015625 C 13.644531 -22.765625 13.519531 -21.335938 13.40625 -19.734375 C 13.289062 -18.128906 13.234375 -16.425781 13.234375 -14.625 C 13.234375 -12.664062 13.296875 -10.796875 13.421875 -9.015625 C 13.546875 -7.234375 13.691406 -5.644531 13.859375 -4.25 C 14.023438 -2.863281 14.164062 -1.765625 14.28125 -0.953125 C 14.425781 -0.117188 14.078125 0.222656 13.234375 0.078125 C 12.816406 0.0234375 12.382812 -0.0195312 11.9375 -0.0625 C 11.5 -0.101562 10.945312 -0.125 10.28125 -0.125 C 9.632812 -0.125 9.101562 -0.101562 8.6875 -0.0625 C 8.269531 -0.0195312 7.878906 0.0234375 7.515625 0.078125 Z M 7.515625 0.078125 "/></g></g></g><g fill="#fff6ea" fill-opacity="1"><g transform="translate(55.251265, 59.127898)"><g><path d="M 8.109375 0.125 C 7.660156 0.0390625 7.1875 -0.0195312 6.6875 -0.0625 C 6.1875 -0.101562 5.554688 -0.125 4.796875 -0.125 C 4.109375 -0.125 3.519531 -0.101562 3.03125 -0.0625 C 2.539062 -0.0195312 2.101562 0.0234375 1.71875 0.078125 C 1.351562 0.140625 1.066406 0.0703125 0.859375 -0.125 C 0.648438 -0.320312 0.585938 -0.613281 0.671875 -1 C 0.835938 -1.8125 1.015625 -2.90625 1.203125 -4.28125 C 1.398438 -5.65625 1.578125 -7.234375 1.734375 -9.015625 C 1.890625 -10.796875 1.96875 -12.664062 1.96875 -14.625 C 1.96875 -16.570312 1.890625 -18.4375 1.734375 -20.21875 C 1.578125 -22 1.398438 -23.582031 1.203125 -24.96875 C 1.015625 -26.363281 0.835938 -27.453125 0.671875 -28.234375 C 0.609375 -28.617188 0.675781 -28.910156 0.875 -29.109375 C 1.070312 -29.304688 1.351562 -29.375 1.71875 -29.3125 C 2.101562 -29.257812 2.539062 -29.210938 3.03125 -29.171875 C 3.519531 -29.128906 4.109375 -29.109375 4.796875 -29.109375 C 5.554688 -29.109375 6.1875 -29.128906 6.6875 -29.171875 C 7.1875 -29.210938 7.660156 -29.273438 8.109375 -29.359375 C 8.492188 -29.410156 8.78125 -29.332031 8.96875 -29.125 C 9.164062 -28.914062 9.210938 -28.617188 9.109375 -28.234375 C 8.910156 -27.203125 8.675781 -25.660156 8.40625 -23.609375 C 8.144531 -21.566406 7.972656 -19.304688 7.890625 -16.828125 L 12.734375 -16.828125 C 12.648438 -19.304688 12.472656 -21.566406 12.203125 -23.609375 C 11.941406 -25.660156 11.71875 -27.203125 11.53125 -28.234375 C 11.445312 -28.617188 11.5 -28.910156 11.6875 -29.109375 C 11.882812 -29.304688 12.164062 -29.375 12.53125 -29.3125 C 12.914062 -29.257812 13.351562 -29.210938 13.84375 -29.171875 C 14.332031 -29.128906 14.925781 -29.109375 15.625 -29.109375 C 16.375 -29.109375 17 -29.128906 17.5 -29.171875 C 18 -29.210938 18.472656 -29.273438 18.921875 -29.359375 C 19.304688 -29.410156 19.597656 -29.332031 19.796875 -29.125 C 19.992188 -28.914062 20.050781 -28.617188 19.96875 -28.234375 C 19.820312 -27.453125 19.644531 -26.363281 19.4375 -24.96875 C 19.226562 -23.582031 19.046875 -22 18.890625 -20.21875 C 18.742188 -18.4375 18.671875 -16.570312 18.671875 -14.625 C 18.671875 -12.664062 18.742188 -10.796875 18.890625 -9.015625 C 19.046875 -7.234375 19.226562 -5.644531 19.4375 -4.25 C 19.644531 -2.863281 19.820312 -1.78125 19.96875 -1 C 20.050781 -0.613281 19.992188 -0.320312 19.796875 -0.125 C 19.597656 0.0703125 19.304688 0.15625 18.921875 0.125 C 18.472656 0.0390625 18 -0.0195312 17.5 -0.0625 C 17 -0.101562 16.375 -0.125 15.625 -0.125 C 14.925781 -0.125 14.332031 -0.101562 13.84375 -0.0625 C 13.351562 -0.0195312 12.914062 0.0234375 12.53125 0.078125 C 12.164062 0.140625 11.878906 0.0703125 11.671875 -0.125 C 11.460938 -0.320312 11.414062 -0.613281 11.53125 -1 C 11.71875 -2.03125 11.941406 -3.539062 12.203125 -5.53125 C 12.472656 -7.519531 12.648438 -9.742188 12.734375 -12.203125 L 7.890625 -12.203125 C 7.972656 -9.742188 8.144531 -7.507812 8.40625 -5.5 C 8.675781 -3.5 8.910156 -2 9.109375 -1 C 9.210938 -0.613281 9.164062 -0.320312 8.96875 -0.125 C 8.78125 0.0703125 8.492188 0.15625 8.109375 0.125 Z M 8.109375 0.125 "/></g></g></g><g fill="#fff6ea" fill-opacity="1"><g transform="translate(77.139651, 59.127898)"><g><path d="M 7.859375 0.125 C 7.410156 0.0390625 6.957031 -0.0195312 6.5 -0.0625 C 6.039062 -0.101562 5.460938 -0.125 4.765625 -0.125 C 4.117188 -0.125 3.566406 -0.101562 3.109375 -0.0625 C 2.648438 -0.0195312 2.226562 0.0234375 1.84375 0.078125 C 1 0.222656 0.648438 -0.132812 0.796875 -1 C 0.929688 -1.78125 1.082031 -2.863281 1.25 -4.25 C 1.414062 -5.644531 1.566406 -7.234375 1.703125 -9.015625 C 1.847656 -10.796875 1.921875 -12.664062 1.921875 -14.625 C 1.921875 -16.570312 1.847656 -18.4375 1.703125 -20.21875 C 1.566406 -22 1.414062 -23.582031 1.25 -24.96875 C 1.082031 -26.363281 0.929688 -27.453125 0.796875 -28.234375 C 0.648438 -29.097656 1 -29.457031 1.84375 -29.3125 C 2.226562 -29.257812 2.648438 -29.210938 3.109375 -29.171875 C 3.566406 -29.128906 4.117188 -29.109375 4.765625 -29.109375 C 5.460938 -29.109375 6.039062 -29.128906 6.5 -29.171875 C 6.957031 -29.210938 7.410156 -29.273438 7.859375 -29.359375 C 8.691406 -29.441406 9.035156 -29.082031 8.890625 -28.28125 C 8.785156 -27.5 8.640625 -26.410156 8.453125 -25.015625 C 8.273438 -23.617188 8.113281 -22.03125 7.96875 -20.25 C 7.832031 -18.46875 7.765625 -16.59375 7.765625 -14.625 C 7.765625 -12.664062 7.832031 -10.796875 7.96875 -9.015625 C 8.113281 -7.234375 8.273438 -5.644531 8.453125 -4.25 C 8.640625 -2.863281 8.785156 -1.765625 8.890625 -0.953125 C 9.035156 -0.148438 8.691406 0.207031 7.859375 0.125 Z M 7.859375 0.125 "/></g></g></g><g fill="#fff6ea" fill-opacity="1"><g transform="translate(88.083844, 59.127898)"><g><path d="M 7.46875 0.625 C 6.195312 0.625 5.191406 0.566406 4.453125 0.453125 C 3.710938 0.347656 2.882812 0.296875 1.96875 0.296875 C 1.1875 0.296875 0.835938 -0.078125 0.921875 -0.828125 C 1.003906 -1.890625 1.085938 -3.03125 1.171875 -4.25 C 1.253906 -5.476562 1.28125 -6.648438 1.25 -7.765625 C 1.226562 -8.242188 1.3125 -8.515625 1.5 -8.578125 C 1.695312 -8.648438 1.945312 -8.503906 2.25 -8.140625 C 3.0625 -7.191406 3.929688 -6.457031 4.859375 -5.9375 C 5.796875 -5.425781 6.695312 -5.171875 7.5625 -5.171875 C 8.28125 -5.171875 8.925781 -5.335938 9.5 -5.671875 C 10.070312 -6.015625 10.359375 -6.5625 10.359375 -7.3125 C 10.359375 -7.894531 10.023438 -8.515625 9.359375 -9.171875 C 8.691406 -9.828125 7.894531 -10.5 6.96875 -11.1875 C 6.050781 -11.882812 5.21875 -12.566406 4.46875 -13.234375 C 2.96875 -14.628906 1.921875 -15.957031 1.328125 -17.21875 C 0.742188 -18.488281 0.453125 -20.003906 0.453125 -21.765625 C 0.453125 -23.460938 0.8125 -24.914062 1.53125 -26.125 C 2.257812 -27.332031 3.265625 -28.253906 4.546875 -28.890625 C 5.828125 -29.535156 7.289062 -29.859375 8.9375 -29.859375 C 9.800781 -29.859375 10.523438 -29.816406 11.109375 -29.734375 C 11.691406 -29.648438 12.25 -29.566406 12.78125 -29.484375 C 13.3125 -29.398438 13.882812 -29.375 14.5 -29.40625 C 15.1875 -29.425781 15.519531 -29.078125 15.5 -28.359375 C 15.414062 -27.492188 15.359375 -26.46875 15.328125 -25.28125 C 15.296875 -24.101562 15.28125 -22.890625 15.28125 -21.640625 C 15.28125 -21.160156 15.171875 -20.890625 14.953125 -20.828125 C 14.734375 -20.773438 14.46875 -20.929688 14.15625 -21.296875 C 13.1875 -22.492188 12.269531 -23.273438 11.40625 -23.640625 C 10.539062 -24.003906 9.816406 -24.1875 9.234375 -24.1875 C 8.585938 -24.1875 7.941406 -24.023438 7.296875 -23.703125 C 6.660156 -23.378906 6.34375 -22.734375 6.34375 -21.765625 C 6.34375 -21.117188 6.613281 -20.507812 7.15625 -19.9375 C 7.707031 -19.375 8.363281 -18.8125 9.125 -18.25 C 9.894531 -17.695312 10.613281 -17.140625 11.28125 -16.578125 C 12.195312 -15.859375 13.066406 -15.078125 13.890625 -14.234375 C 14.710938 -13.398438 15.382812 -12.46875 15.90625 -11.4375 C 16.4375 -10.414062 16.703125 -9.234375 16.703125 -7.890625 C 16.703125 -5.304688 15.953125 -3.238281 14.453125 -1.6875 C 12.953125 -0.144531 10.625 0.625 7.46875 0.625 Z M 7.46875 0.625 "/></g></g></g><g fill="#fff6ea" fill-opacity="1"><g transform="translate(106.505168, 59.127898)"><g/></g></g><g fill="#fff6ea" fill-opacity="1"><g transform="translate(116.11266, 59.127898)"><g><path d="M 15.03125 0.296875 L 13.109375 0.296875 C 12.472656 0.296875 12.082031 -0.0351562 11.9375 -0.703125 C 11.75 -1.960938 11.515625 -3.296875 11.234375 -4.703125 C 10.953125 -6.109375 10.679688 -7.453125 10.421875 -8.734375 C 10.160156 -10.015625 9.929688 -11.082031 9.734375 -11.9375 C 9.453125 -13.332031 9.164062 -14.550781 8.875 -15.59375 C 8.582031 -16.644531 8.285156 -17.597656 7.984375 -18.453125 L 7.984375 -18.328125 C 7.921875 -17.722656 7.867188 -17.113281 7.828125 -16.5 C 7.785156 -15.882812 7.765625 -15.257812 7.765625 -14.625 C 7.765625 -12.664062 7.84375 -10.796875 8 -9.015625 C 8.15625 -7.234375 8.335938 -5.644531 8.546875 -4.25 C 8.753906 -2.863281 8.925781 -1.78125 9.0625 -1 C 9.113281 -0.632812 9.054688 -0.34375 8.890625 -0.125 C 8.722656 0.09375 8.429688 0.175781 8.015625 0.125 C 7.484375 0.0390625 7.023438 -0.0195312 6.640625 -0.0625 C 6.253906 -0.101562 5.628906 -0.125 4.765625 -0.125 C 4.066406 -0.125 3.472656 -0.101562 2.984375 -0.0625 C 2.492188 -0.0195312 2.039062 0.0234375 1.625 0.078125 C 0.789062 0.222656 0.457031 -0.148438 0.625 -1.046875 C 0.757812 -1.828125 0.925781 -2.90625 1.125 -4.28125 C 1.320312 -5.65625 1.492188 -7.234375 1.640625 -9.015625 C 1.796875 -10.796875 1.875 -12.664062 1.875 -14.625 C 1.875 -16.570312 1.796875 -18.4375 1.640625 -20.21875 C 1.492188 -22 1.320312 -23.582031 1.125 -24.96875 C 0.925781 -26.363281 0.757812 -27.453125 0.625 -28.234375 C 0.488281 -29.097656 0.820312 -29.457031 1.625 -29.3125 C 2.039062 -29.257812 2.492188 -29.210938 2.984375 -29.171875 C 3.472656 -29.128906 4.066406 -29.109375 4.765625 -29.109375 C 5.566406 -29.109375 6.363281 -29.132812 7.15625 -29.1875 C 7.957031 -29.25 8.703125 -29.320312 9.390625 -29.40625 C 10.066406 -29.488281 10.445312 -29.179688 10.53125 -28.484375 C 10.75 -26.785156 11.195312 -24.46875 11.875 -21.53125 C 12.5625 -18.59375 13.296875 -15.21875 14.078125 -11.40625 C 14.859375 -15 15.601562 -18.289062 16.3125 -21.28125 C 17.019531 -24.269531 17.472656 -26.671875 17.671875 -28.484375 C 17.753906 -29.148438 18.128906 -29.441406 18.796875 -29.359375 C 19.410156 -29.304688 20.078125 -29.25 20.796875 -29.1875 C 21.523438 -29.132812 22.332031 -29.109375 23.21875 -29.109375 C 23.832031 -29.109375 24.296875 -29.113281 24.609375 -29.125 C 24.929688 -29.144531 25.222656 -29.175781 25.484375 -29.21875 C 25.753906 -29.257812 26.085938 -29.304688 26.484375 -29.359375 C 26.867188 -29.410156 27.160156 -29.335938 27.359375 -29.140625 C 27.554688 -28.953125 27.613281 -28.632812 27.53125 -28.1875 C 27.382812 -27.4375 27.210938 -26.363281 27.015625 -24.96875 C 26.828125 -23.582031 26.65625 -22.003906 26.5 -20.234375 C 26.34375 -18.460938 26.265625 -16.59375 26.265625 -14.625 C 26.265625 -12.664062 26.34375 -10.796875 26.5 -9.015625 C 26.65625 -7.234375 26.828125 -5.65625 27.015625 -4.28125 C 27.210938 -2.90625 27.382812 -1.828125 27.53125 -1.046875 C 27.613281 -0.597656 27.554688 -0.273438 27.359375 -0.078125 C 27.160156 0.109375 26.867188 0.175781 26.484375 0.125 C 26.085938 0.0703125 25.753906 0.0234375 25.484375 -0.015625 C 25.222656 -0.0546875 24.929688 -0.0820312 24.609375 -0.09375 C 24.296875 -0.113281 23.832031 -0.125 23.21875 -0.125 C 22.519531 -0.125 21.925781 -0.101562 21.4375 -0.0625 C 20.957031 -0.0195312 20.519531 0.0234375 20.125 0.078125 C 19.269531 0.222656 18.925781 -0.132812 19.09375 -1 C 19.257812 -1.8125 19.4375 -2.90625 19.625 -4.28125 C 19.820312 -5.65625 19.992188 -7.234375 20.140625 -9.015625 C 20.296875 -10.796875 20.375 -12.664062 20.375 -14.625 C 20.375 -15.257812 20.359375 -15.867188 20.328125 -16.453125 C 20.304688 -17.035156 20.269531 -17.617188 20.21875 -18.203125 L 20.171875 -18.625 C 20.054688 -18.09375 19.835938 -17.25 19.515625 -16.09375 C 19.203125 -14.945312 18.878906 -13.5625 18.546875 -11.9375 C 18.210938 -10.382812 17.84375 -8.695312 17.4375 -6.875 C 17.03125 -5.050781 16.617188 -2.984375 16.203125 -0.671875 C 16.066406 -0.0234375 15.675781 0.296875 15.03125 0.296875 Z M 15.03125 0.296875 "/></g></g></g><g fill="#fff6ea" fill-opacity="1"><g transform="translate(145.51996, 59.127898)"><g><path d="M 10.6875 0.625 C 7.488281 0.625 5 -0.617188 3.21875 -3.109375 C 1.4375 -5.597656 0.546875 -9.445312 0.546875 -14.65625 C 0.546875 -19.414062 1.4375 -23.140625 3.21875 -25.828125 C 5 -28.515625 7.488281 -29.859375 10.6875 -29.859375 C 13.894531 -29.859375 16.378906 -28.515625 18.140625 -25.828125 C 19.910156 -23.140625 20.796875 -19.414062 20.796875 -14.65625 C 20.796875 -9.445312 19.910156 -5.597656 18.140625 -3.109375 C 16.378906 -0.617188 13.894531 0.625 10.6875 0.625 Z M 10.65625 -5.21875 C 11.34375 -5.21875 11.9375 -5.628906 12.4375 -6.453125 C 12.945312 -7.273438 13.335938 -8.390625 13.609375 -9.796875 C 13.890625 -11.203125 14.03125 -12.769531 14.03125 -14.5 C 14.03125 -17.394531 13.722656 -19.703125 13.109375 -21.421875 C 12.503906 -23.148438 11.6875 -24.015625 10.65625 -24.015625 C 9.625 -24.015625 8.800781 -23.148438 8.1875 -21.421875 C 7.570312 -19.703125 7.265625 -17.394531 7.265625 -14.5 C 7.265625 -12.769531 7.40625 -11.203125 7.6875 -9.796875 C 7.96875 -8.390625 8.363281 -7.273438 8.875 -6.453125 C 9.382812 -5.628906 9.976562 -5.21875 10.65625 -5.21875 Z M 10.65625 -5.21875 "/></g></g></g><g fill="#fff6ea" fill-opacity="1"><g transform="translate(168.118463, 59.127898)"><g><path d="M 8.0625 0.125 C 7.613281 0.0390625 7.144531 -0.0195312 6.65625 -0.0625 C 6.175781 -0.101562 5.554688 -0.125 4.796875 -0.125 C 4.109375 -0.125 3.519531 -0.101562 3.03125 -0.0625 C 2.539062 -0.0195312 2.085938 0.0234375 1.671875 0.078125 C 1.304688 0.140625 1.023438 0.0703125 0.828125 -0.125 C 0.640625 -0.320312 0.585938 -0.613281 0.671875 -1 C 0.804688 -1.8125 0.976562 -2.90625 1.1875 -4.28125 C 1.394531 -5.65625 1.578125 -7.234375 1.734375 -9.015625 C 1.890625 -10.796875 1.96875 -12.664062 1.96875 -14.625 C 1.96875 -16.570312 1.890625 -18.4375 1.734375 -20.21875 C 1.578125 -22 1.394531 -23.582031 1.1875 -24.96875 C 0.976562 -26.363281 0.804688 -27.453125 0.671875 -28.234375 C 0.585938 -28.617188 0.640625 -28.910156 0.828125 -29.109375 C 1.023438 -29.304688 1.304688 -29.375 1.671875 -29.3125 C 2.140625 -29.257812 2.640625 -29.210938 3.171875 -29.171875 C 3.703125 -29.128906 4.328125 -29.109375 5.046875 -29.109375 C 5.859375 -29.109375 6.5625 -29.132812 7.15625 -29.1875 C 7.757812 -29.25 8.335938 -29.304688 8.890625 -29.359375 C 9.617188 -29.472656 9.984375 -29.125 9.984375 -28.3125 C 9.953125 -27.28125 10.035156 -26.144531 10.234375 -24.90625 C 10.429688 -23.664062 10.707031 -22.441406 11.0625 -21.234375 C 11.425781 -20.023438 11.832031 -18.929688 12.28125 -17.953125 C 13.164062 -16.117188 14.054688 -14.421875 14.953125 -12.859375 L 15 -14.625 C 15 -16.570312 14.921875 -18.4375 14.765625 -20.21875 C 14.609375 -22 14.425781 -23.582031 14.21875 -24.96875 C 14.007812 -26.363281 13.835938 -27.453125 13.703125 -28.234375 C 13.554688 -29.097656 13.90625 -29.457031 14.75 -29.3125 C 15.132812 -29.257812 15.570312 -29.210938 16.0625 -29.171875 C 16.550781 -29.128906 17.140625 -29.109375 17.828125 -29.109375 C 18.585938 -29.109375 19.21875 -29.128906 19.71875 -29.171875 C 20.21875 -29.210938 20.703125 -29.273438 21.171875 -29.359375 C 21.984375 -29.441406 22.316406 -29.082031 22.171875 -28.28125 C 21.984375 -27.132812 21.789062 -25.960938 21.59375 -24.765625 C 21.394531 -23.566406 21.226562 -22.164062 21.09375 -20.5625 C 20.957031 -18.96875 20.875 -16.988281 20.84375 -14.625 C 20.84375 -12.664062 20.914062 -10.796875 21.0625 -9.015625 C 21.21875 -7.234375 21.398438 -5.644531 21.609375 -4.25 C 21.816406 -2.863281 21.992188 -1.78125 22.140625 -1 C 22.222656 -0.613281 22.171875 -0.320312 21.984375 -0.125 C 21.804688 0.0703125 21.523438 0.15625 21.140625 0.125 C 20.691406 0.0390625 20.21875 -0.0195312 19.71875 -0.0625 C 19.21875 -0.101562 18.585938 -0.125 17.828125 -0.125 C 17.054688 -0.125 16.414062 -0.09375 15.90625 -0.03125 C 15.40625 0.0195312 14.921875 0.0703125 14.453125 0.125 C 13.804688 0.257812 13.414062 -0.046875 13.28125 -0.796875 C 13.144531 -1.578125 12.921875 -2.648438 12.609375 -4.015625 C 12.304688 -5.378906 11.910156 -6.859375 11.421875 -8.453125 C 10.929688 -10.054688 10.335938 -11.566406 9.640625 -12.984375 C 9.285156 -13.734375 8.960938 -14.398438 8.671875 -14.984375 C 8.378906 -15.578125 8.109375 -16.109375 7.859375 -16.578125 C 7.828125 -16.273438 7.8125 -15.957031 7.8125 -15.625 C 7.8125 -15.289062 7.8125 -14.957031 7.8125 -14.625 C 7.8125 -12.664062 7.882812 -10.796875 8.03125 -9.015625 C 8.1875 -7.234375 8.367188 -5.644531 8.578125 -4.25 C 8.785156 -2.863281 8.960938 -1.78125 9.109375 -1 C 9.191406 -0.613281 9.132812 -0.320312 8.9375 -0.125 C 8.738281 0.0703125 8.445312 0.15625 8.0625 0.125 Z M 8.0625 0.125 "/></g></g></g><g fill="#fff6ea" fill-opacity="1"><g transform="translate(192.220752, 59.127898)"><g><path d="M 7.515625 0.078125 C 6.648438 0.222656 6.289062 -0.117188 6.4375 -0.953125 C 6.519531 -1.765625 6.628906 -2.863281 6.765625 -4.25 C 6.898438 -5.644531 7.035156 -7.234375 7.171875 -9.015625 C 7.316406 -10.796875 7.414062 -12.664062 7.46875 -14.625 C 7.53125 -16.425781 7.507812 -18.128906 7.40625 -19.734375 C 7.3125 -21.335938 7.195312 -22.765625 7.0625 -24.015625 C 6.363281 -24.066406 5.566406 -24.007812 4.671875 -23.84375 C 3.785156 -23.675781 2.800781 -23.367188 1.71875 -22.921875 C 1.351562 -22.785156 1.050781 -22.796875 0.8125 -22.953125 C 0.570312 -23.109375 0.46875 -23.394531 0.5 -23.8125 C 0.550781 -24.8125 0.582031 -25.613281 0.59375 -26.21875 C 0.613281 -26.832031 0.597656 -27.519531 0.546875 -28.28125 C 0.515625 -28.664062 0.59375 -28.953125 0.78125 -29.140625 C 0.976562 -29.335938 1.257812 -29.410156 1.625 -29.359375 C 2.457031 -29.242188 3.203125 -29.179688 3.859375 -29.171875 C 4.515625 -29.160156 5.316406 -29.15625 6.265625 -29.15625 L 14.5 -29.15625 C 15.46875 -29.15625 16.269531 -29.160156 16.90625 -29.171875 C 17.550781 -29.179688 18.289062 -29.242188 19.125 -29.359375 C 19.488281 -29.410156 19.773438 -29.347656 19.984375 -29.171875 C 20.191406 -28.992188 20.269531 -28.707031 20.21875 -28.3125 C 20.1875 -27.59375 20.160156 -26.867188 20.140625 -26.140625 C 20.128906 -25.421875 20.15625 -24.628906 20.21875 -23.765625 C 20.238281 -23.378906 20.140625 -23.109375 19.921875 -22.953125 C 19.703125 -22.796875 19.394531 -22.785156 19 -22.921875 C 16.882812 -23.765625 15.144531 -24.128906 13.78125 -24.015625 C 13.644531 -22.765625 13.519531 -21.335938 13.40625 -19.734375 C 13.289062 -18.128906 13.234375 -16.425781 13.234375 -14.625 C 13.234375 -12.664062 13.296875 -10.796875 13.421875 -9.015625 C 13.546875 -7.234375 13.691406 -5.644531 13.859375 -4.25 C 14.023438 -2.863281 14.164062 -1.765625 14.28125 -0.953125 C 14.425781 -0.117188 14.078125 0.222656 13.234375 0.078125 C 12.816406 0.0234375 12.382812 -0.0195312 11.9375 -0.0625 C 11.5 -0.101562 10.945312 -0.125 10.28125 -0.125 C 9.632812 -0.125 9.101562 -0.101562 8.6875 -0.0625 C 8.269531 -0.0195312 7.878906 0.0234375 7.515625 0.078125 Z M 7.515625 0.078125 "/></g></g></g><g fill="#fff6ea" fill-opacity="1"><g transform="translate(214.234453, 59.127898)"><g><path d="M 8.109375 0.125 C 7.660156 0.0390625 7.1875 -0.0195312 6.6875 -0.0625 C 6.1875 -0.101562 5.554688 -0.125 4.796875 -0.125 C 4.109375 -0.125 3.519531 -0.101562 3.03125 -0.0625 C 2.539062 -0.0195312 2.101562 0.0234375 1.71875 0.078125 C 1.351562 0.140625 1.066406 0.0703125 0.859375 -0.125 C 0.648438 -0.320312 0.585938 -0.613281 0.671875 -1 C 0.835938 -1.8125 1.015625 -2.90625 1.203125 -4.28125 C 1.398438 -5.65625 1.578125 -7.234375 1.734375 -9.015625 C 1.890625 -10.796875 1.96875 -12.664062 1.96875 -14.625 C 1.96875 -16.570312 1.890625 -18.4375 1.734375 -20.21875 C 1.578125 -22 1.398438 -23.582031 1.203125 -24.96875 C 1.015625 -26.363281 0.835938 -27.453125 0.671875 -28.234375 C 0.609375 -28.617188 0.675781 -28.910156 0.875 -29.109375 C 1.070312 -29.304688 1.351562 -29.375 1.71875 -29.3125 C 2.101562 -29.257812 2.539062 -29.210938 3.03125 -29.171875 C 3.519531 -29.128906 4.109375 -29.109375 4.796875 -29.109375 C 5.554688 -29.109375 6.1875 -29.128906 6.6875 -29.171875 C 7.1875 -29.210938 7.660156 -29.273438 8.109375 -29.359375 C 8.492188 -29.410156 8.78125 -29.332031 8.96875 -29.125 C 9.164062 -28.914062 9.210938 -28.617188 9.109375 -28.234375 C 8.910156 -27.203125 8.675781 -25.660156 8.40625 -23.609375 C 8.144531 -21.566406 7.972656 -19.304688 7.890625 -16.828125 L 12.734375 -16.828125 C 12.648438 -19.304688 12.472656 -21.566406 12.203125 -23.609375 C 11.941406 -25.660156 11.71875 -27.203125 11.53125 -28.234375 C 11.445312 -28.617188 11.5 -28.910156 11.6875 -29.109375 C 11.882812 -29.304688 12.164062 -29.375 12.53125 -29.3125 C 12.914062 -29.257812 13.351562 -29.210938 13.84375 -29.171875 C 14.332031 -29.128906 14.925781 -29.109375 15.625 -29.109375 C 16.375 -29.109375 17 -29.128906 17.5 -29.171875 C 18 -29.210938 18.472656 -29.273438 18.921875 -29.359375 C 19.304688 -29.410156 19.597656 -29.332031 19.796875 -29.125 C 19.992188 -28.914062 20.050781 -28.617188 19.96875 -28.234375 C 19.820312 -27.453125 19.644531 -26.363281 19.4375 -24.96875 C 19.226562 -23.582031 19.046875 -22 18.890625 -20.21875 C 18.742188 -18.4375 18.671875 -16.570312 18.671875 -14.625 C 18.671875 -12.664062 18.742188 -10.796875 18.890625 -9.015625 C 19.046875 -7.234375 19.226562 -5.644531 19.4375 -4.25 C 19.644531 -2.863281 19.820312 -1.78125 19.96875 -1 C 20.050781 -0.613281 19.992188 -0.320312 19.796875 -0.125 C 19.597656 0.0703125 19.304688 0.15625 18.921875 0.125 C 18.472656 0.0390625 18 -0.0195312 17.5 -0.0625 C 17 -0.101562 16.375 -0.125 15.625 -0.125 C 14.925781 -0.125 14.332031 -0.101562 13.84375 -0.0625 C 13.351562 -0.0195312 12.914062 0.0234375 12.53125 0.078125 C 12.164062 0.140625 11.878906 0.0703125 11.671875 -0.125 C 11.460938 -0.320312 11.414062 -0.613281 11.53125 -1 C 11.71875 -2.03125 11.941406 -3.539062 12.203125 -5.53125 C 12.472656 -7.519531 12.648438 -9.742188 12.734375 -12.203125 L 7.890625 -12.203125 C 7.972656 -9.742188 8.144531 -7.507812 8.40625 -5.5 C 8.675781 -3.5 8.910156 -2 9.109375 -1 C 9.210938 -0.613281 9.164062 -0.320312 8.96875 -0.125 C 8.78125 0.0703125 8.492188 0.15625 8.109375 0.125 Z M 8.109375 0.125 "/></g></g></g></svg>