<svg xmlns="http://www.w3.org/2000/svg" xmlns:xlink="http://www.w3.org/1999/xlink" width="333" zoomAndPan="magnify" viewBox="0 0 249.75 91.5" height="122" preserveAspectRatio="xMidYMid meet" version="1.0"><defs><g/><clipPath id="e63aae2910"><path d="M 8 0 L 240 0 L 240 91 L 8 91 Z M 8 0 " clip-rule="nonzero"/></clipPath><clipPath id="892b1b4132"><path d="M 7.816406 16.417969 L 234.730469 -0.0234375 L 240.121094 74.371094 L 13.207031 90.816406 Z M 7.816406 16.417969 " clip-rule="nonzero"/></clipPath><clipPath id="13f72ae501"><path d="M 3 13 L 229 13 L 229 77 L 3 77 Z M 3 13 " clip-rule="nonzero"/></clipPath><clipPath id="fdc24818b3"><path d="M -0.183594 16.417969 L 226.730469 -0.0234375 L 232.121094 74.371094 L 5.207031 90.816406 Z M -0.183594 16.417969 " clip-rule="nonzero"/></clipPath><clipPath id="0d4c469d6a"><path d="M 5.21875 90.976562 L 232.132812 74.535156 L 226.742188 0.136719 L -0.171875 16.582031 Z M 5.21875 90.976562 " clip-rule="nonzero"/></clipPath><clipPath id="3d851c9e02"><rect x="0" width="232" y="0" height="91"/></clipPath><clipPath id="0ea9d98a48"><rect x="0" width="206" y="0" height="73"/></clipPath></defs><g clip-path="url(#e63aae2910)"><g clip-path="url(#892b1b4132)"><g transform="matrix(1, 0, 0, 1, 8, 0.000000000000004566)"><g clip-path="url(#3d851c9e02)"><g clip-path="url(#13f72ae501)"><g clip-path="url(#fdc24818b3)"><g clip-path="url(#0d4c469d6a)"><path fill="#ff5757" d="M 6.9375 35.097656 C 6.445312 35.789062 5.738281 35.984375 5.179688 36.382812 C 2.832031 38.039062 2.523438 40.585938 4.429688 42.734375 C 5.082031 43.464844 5.769531 44.167969 6.4375 44.890625 C 7.289062 45.808594 7.265625 46.027344 6.308594 46.929688 C 5.75 47.457031 5.191406 47.996094 4.675781 48.574219 C 2.410156 51.125 3.277344 52.769531 4.792969 54.511719 C 5.441406 55.253906 6.097656 55.992188 6.832031 56.636719 C 7.550781 57.269531 7.433594 57.765625 6.875 58.40625 C 6 59.410156 5.023438 60.332031 4.515625 61.628906 C 3.671875 63.800781 3.988281 64.914062 5.964844 66.277344 C 7.566406 67.382812 7.699219 67.804688 6.980469 69.613281 C 6.617188 70.53125 6.160156 71.417969 5.859375 72.351562 C 5.140625 74.605469 5.90625 75.800781 8.183594 76.363281 C 10.121094 76.835938 12.121094 76.832031 14.042969 76.800781 C 16.921875 76.757812 19.804688 76.828125 22.679688 76.789062 C 44.179688 76.476562 65.679688 76.15625 87.183594 76.039062 C 109.4375 75.917969 131.691406 76.085938 153.945312 76.03125 C 175.566406 75.984375 197.925781 77.003906 219.449219 74.785156 C 221.277344 74.597656 223.0625 74.257812 224.84375 73.871094 C 227.300781 73.335938 227.933594 72.070312 227.066406 69.65625 C 226.707031 68.664062 226.214844 67.726562 225.738281 66.789062 C 225.394531 66.101562 225.390625 65.539062 225.832031 64.839844 C 226.289062 64.125 226.835938 63.480469 227.292969 62.777344 C 228.640625 60.691406 228.558594 59.589844 227.054688 57.609375 C 226.582031 56.988281 226.058594 56.433594 225.472656 55.921875 C 224.8125 55.347656 224.789062 54.738281 225.363281 54.089844 C 225.921875 53.457031 226.507812 52.84375 227.03125 52.179688 C 228.171875 50.722656 228.238281 49.699219 227.289062 48.113281 C 226.894531 47.453125 226.375 46.867188 225.964844 46.210938 C 225.222656 45.015625 225.289062 44.640625 226.296875 43.679688 C 226.601562 43.390625 226.933594 43.117188 227.199219 42.796875 C 229.117188 40.492188 228.964844 38.785156 226.691406 36.808594 C 226.535156 36.671875 226.371094 36.539062 226.207031 36.402344 C 224.476562 34.917969 224.398438 34.875 225.574219 32.980469 C 227.425781 29.988281 228.039062 27.679688 223.117188 25.039062 C 222.875 24.910156 222.652344 24.753906 222.347656 24.574219 C 222.730469 23.523438 223.246094 22.617188 223.984375 21.871094 C 225.082031 20.757812 225.816406 19.382812 226.761719 18.15625 C 227.566406 17.113281 227.363281 15.789062 226.339844 14.976562 C 225.433594 14.257812 224.359375 13.863281 223.210938 13.847656 C 154.5 12.984375 84.875 13.128906 15.992188 15.453125 C 13.878906 15.527344 11.765625 15.527344 9.65625 15.703125 C 9.09375 15.75 8.53125 15.773438 7.972656 15.839844 C 5.070312 16.1875 4.058594 18.539062 5.835938 20.875 C 6.257812 21.429688 6.863281 21.839844 7.347656 22.347656 C 8.203125 23.238281 8.191406 23.671875 7.195312 24.367188 C 6.5 24.851562 5.875 25.414062 5.203125 25.917969 C 2.40625 28.039062 2.984375 31.179688 4.945312 33.261719 C 5.558594 33.917969 6.269531 34.488281 6.9375 35.097656 Z M 6.9375 35.097656 " fill-opacity="1" fill-rule="nonzero"/></g></g></g></g></g></g></g><g transform="matrix(1, 0, 0, 1, 22, 9)"><g clip-path="url(#0ea9d98a48)"><g fill="#000000" fill-opacity="0.4"><g transform="translate(3.080171, 56.460717)"><g><path d="M 5.953125 0.171875 C 5.222656 0.253906 4.859375 -0.0976562 4.859375 -0.890625 C 4.828125 -3.140625 4.691406 -5.390625 4.453125 -7.640625 C 4.210938 -9.898438 3.910156 -12.15625 3.546875 -14.40625 C 3.265625 -16.375 2.921875 -18.273438 2.515625 -20.109375 C 2.109375 -21.941406 1.707031 -23.585938 1.3125 -25.046875 C 0.914062 -26.515625 0.59375 -27.671875 0.34375 -28.515625 C 0.226562 -28.910156 0.253906 -29.210938 0.421875 -29.421875 C 0.585938 -29.640625 0.867188 -29.71875 1.265625 -29.65625 C 1.691406 -29.601562 2.132812 -29.554688 2.59375 -29.515625 C 3.0625 -29.472656 3.648438 -29.453125 4.359375 -29.453125 C 5.117188 -29.453125 5.757812 -29.476562 6.28125 -29.53125 C 6.800781 -29.59375 7.300781 -29.648438 7.78125 -29.703125 C 8.59375 -29.835938 8.972656 -29.484375 8.921875 -28.640625 C 8.921875 -27.878906 8.921875 -26.804688 8.921875 -25.421875 C 8.921875 -24.046875 8.953125 -22.5 9.015625 -20.78125 C 9.085938 -19.0625 9.222656 -17.316406 9.421875 -15.546875 C 9.472656 -14.953125 9.566406 -14.378906 9.703125 -13.828125 C 9.847656 -13.285156 9.976562 -12.773438 10.09375 -12.296875 C 10.320312 -12.992188 10.546875 -13.769531 10.765625 -14.625 C 10.992188 -15.488281 11.222656 -16.441406 11.453125 -17.484375 C 11.648438 -18.359375 11.878906 -19.394531 12.140625 -20.59375 C 12.410156 -21.789062 12.6875 -23.035156 12.96875 -24.328125 C 13.25 -25.628906 13.488281 -26.859375 13.6875 -28.015625 C 13.832031 -28.691406 14.226562 -29.03125 14.875 -29.03125 L 16.8125 -29.03125 C 17.457031 -29.03125 17.851562 -28.691406 18 -28.015625 C 18.3125 -26.296875 18.707031 -24.484375 19.1875 -22.578125 C 19.664062 -20.679688 20.054688 -18.984375 20.359375 -17.484375 C 20.585938 -16.359375 20.8125 -15.351562 21.03125 -14.46875 C 21.257812 -13.582031 21.472656 -12.773438 21.671875 -12.046875 C 21.816406 -12.546875 21.941406 -13.097656 22.046875 -13.703125 C 22.160156 -14.316406 22.25 -14.929688 22.3125 -15.546875 C 22.507812 -17.316406 22.640625 -19.0625 22.703125 -20.78125 C 22.773438 -22.5 22.816406 -24.046875 22.828125 -25.421875 C 22.847656 -26.804688 22.84375 -27.894531 22.8125 -28.6875 C 22.757812 -29.5 23.140625 -29.835938 23.953125 -29.703125 C 24.429688 -29.648438 24.929688 -29.59375 25.453125 -29.53125 C 25.972656 -29.476562 26.613281 -29.453125 27.375 -29.453125 C 28.082031 -29.453125 28.675781 -29.472656 29.15625 -29.515625 C 29.632812 -29.554688 30.070312 -29.601562 30.46875 -29.65625 C 30.851562 -29.71875 31.140625 -29.640625 31.328125 -29.421875 C 31.515625 -29.210938 31.535156 -28.910156 31.390625 -28.515625 C 31.160156 -27.703125 30.84375 -26.5625 30.4375 -25.09375 C 30.03125 -23.632812 29.625 -21.976562 29.21875 -20.125 C 28.8125 -18.28125 28.46875 -16.375 28.1875 -14.40625 C 27.8125 -12.15625 27.507812 -9.898438 27.28125 -7.640625 C 27.0625 -5.390625 26.925781 -3.140625 26.875 -0.890625 C 26.875 -0.0976562 26.492188 0.222656 25.734375 0.078125 C 25.253906 0.0234375 24.765625 -0.0195312 24.265625 -0.0625 C 23.773438 -0.101562 23.289062 -0.125 22.8125 -0.125 C 22.300781 -0.125 21.78125 -0.09375 21.25 -0.03125 C 20.71875 0.0195312 20.179688 0.0859375 19.640625 0.171875 C 18.878906 0.253906 18.488281 -0.0820312 18.46875 -0.84375 C 18.382812 -2.445312 18.128906 -4.628906 17.703125 -7.390625 C 17.273438 -10.148438 16.65625 -13.363281 15.84375 -17.03125 C 15.03125 -13.363281 14.503906 -10.15625 14.265625 -7.40625 C 14.023438 -4.664062 13.890625 -2.476562 13.859375 -0.84375 C 13.859375 -0.0507812 13.492188 0.269531 12.765625 0.125 C 12.140625 0.0703125 11.523438 0.0195312 10.921875 -0.03125 C 10.316406 -0.09375 9.734375 -0.125 9.171875 -0.125 C 8.628906 -0.125 8.097656 -0.09375 7.578125 -0.03125 C 7.054688 0.0195312 6.515625 0.0859375 5.953125 0.171875 Z M 5.953125 0.171875 "/></g></g></g><g fill="#000000" fill-opacity="0.4"><g transform="translate(36.073965, 56.460717)"><g><path d="M 10.8125 0.640625 C 7.570312 0.640625 5.050781 -0.617188 3.25 -3.140625 C 1.445312 -5.660156 0.546875 -9.554688 0.546875 -14.828125 C 0.546875 -19.640625 1.445312 -23.40625 3.25 -26.125 C 5.050781 -28.84375 7.570312 -30.203125 10.8125 -30.203125 C 14.050781 -30.203125 16.566406 -28.84375 18.359375 -26.125 C 20.148438 -23.40625 21.046875 -19.640625 21.046875 -14.828125 C 21.046875 -9.554688 20.148438 -5.660156 18.359375 -3.140625 C 16.566406 -0.617188 14.050781 0.640625 10.8125 0.640625 Z M 10.78125 -5.28125 C 11.476562 -5.28125 12.078125 -5.695312 12.578125 -6.53125 C 13.085938 -7.363281 13.484375 -8.488281 13.765625 -9.90625 C 14.054688 -11.332031 14.203125 -12.914062 14.203125 -14.65625 C 14.203125 -17.59375 13.890625 -19.929688 13.265625 -21.671875 C 12.648438 -23.421875 11.820312 -24.296875 10.78125 -24.296875 C 9.726562 -24.296875 8.890625 -23.421875 8.265625 -21.671875 C 7.648438 -19.929688 7.34375 -17.59375 7.34375 -14.65625 C 7.34375 -12.914062 7.484375 -11.332031 7.765625 -9.90625 C 8.054688 -8.488281 8.460938 -7.363281 8.984375 -6.53125 C 9.503906 -5.695312 10.101562 -5.28125 10.78125 -5.28125 Z M 10.78125 -5.28125 "/></g></g></g><g fill="#000000" fill-opacity="0.4"><g transform="translate(58.928817, 56.460717)"><g><path d="M 8.203125 0.125 C 7.722656 0.0390625 7.234375 -0.0195312 6.734375 -0.0625 C 6.242188 -0.101562 5.617188 -0.125 4.859375 -0.125 C 4.148438 -0.125 3.550781 -0.101562 3.0625 -0.0625 C 2.570312 -0.0195312 2.128906 0.0234375 1.734375 0.078125 C 1.335938 0.140625 1.039062 0.0703125 0.84375 -0.125 C 0.644531 -0.320312 0.585938 -0.617188 0.671875 -1.015625 C 0.835938 -1.828125 1.019531 -2.929688 1.21875 -4.328125 C 1.414062 -5.722656 1.59375 -7.320312 1.75 -9.125 C 1.90625 -10.925781 1.984375 -12.8125 1.984375 -14.78125 C 1.984375 -16.757812 1.90625 -18.648438 1.75 -20.453125 C 1.59375 -22.253906 1.414062 -23.863281 1.21875 -25.28125 C 1.019531 -26.707031 0.835938 -27.816406 0.671875 -28.609375 C 0.503906 -29.421875 0.859375 -29.785156 1.734375 -29.703125 C 2.691406 -29.585938 3.53125 -29.546875 4.25 -29.578125 C 4.96875 -29.609375 5.695312 -29.664062 6.4375 -29.75 C 7.1875 -29.832031 8.054688 -29.875 9.046875 -29.875 C 12.304688 -29.84375 14.789062 -29.003906 16.5 -27.359375 C 18.207031 -25.710938 19.0625 -23.328125 19.0625 -20.203125 C 19.0625 -18.304688 18.742188 -16.722656 18.109375 -15.453125 C 17.472656 -14.191406 16.5625 -13.207031 15.375 -12.5 C 16.53125 -11.769531 17.445312 -10.84375 18.125 -9.71875 C 18.800781 -8.59375 19.207031 -7.632812 19.34375 -6.84375 C 19.539062 -5.75 19.785156 -4.675781 20.078125 -3.625 C 20.378906 -2.582031 20.65625 -1.726562 20.90625 -1.0625 C 21.164062 -0.1875 20.84375 0.207031 19.9375 0.125 C 19.4375 0.0703125 18.890625 0.0234375 18.296875 -0.015625 C 17.703125 -0.0546875 17.039062 -0.078125 16.3125 -0.078125 C 15.632812 -0.078125 15.097656 -0.0625 14.703125 -0.03125 C 14.304688 -0.0078125 13.941406 0.0234375 13.609375 0.078125 C 12.847656 0.191406 12.550781 -0.15625 12.71875 -0.96875 C 12.851562 -1.445312 12.960938 -2.066406 13.046875 -2.828125 C 13.140625 -3.585938 13.1875 -4.519531 13.1875 -5.625 C 13.1875 -7.113281 12.671875 -8.257812 11.640625 -9.0625 C 10.609375 -9.863281 9.40625 -10.363281 8.03125 -10.5625 C 8.144531 -8.363281 8.320312 -6.441406 8.5625 -4.796875 C 8.800781 -3.148438 9.003906 -1.890625 9.171875 -1.015625 C 9.335938 -0.171875 9.015625 0.207031 8.203125 0.125 Z M 7.9375 -13.5625 L 9.046875 -13.5625 C 10.285156 -13.5625 11.269531 -14.109375 12 -15.203125 C 12.726562 -16.304688 13.09375 -17.972656 13.09375 -20.203125 C 13.09375 -21.828125 12.867188 -22.992188 12.421875 -23.703125 C 11.972656 -24.410156 11.296875 -24.765625 10.390625 -24.765625 C 9.859375 -24.765625 9.394531 -24.535156 9 -24.078125 C 8.601562 -23.628906 8.335938 -23.082031 8.203125 -22.4375 C 7.941406 -21.082031 7.832031 -19.644531 7.875 -18.125 C 7.914062 -16.601562 7.9375 -15.082031 7.9375 -13.5625 Z M 7.9375 -13.5625 "/></g></g></g><g fill="#000000" fill-opacity="0.4"><g transform="translate(81.530197, 56.460717)"><g><path d="M 9.5 0.296875 C 8.4375 0.296875 7.515625 0.253906 6.734375 0.171875 C 5.960938 0.0859375 5.195312 0.0234375 4.4375 -0.015625 C 3.675781 -0.0546875 2.773438 -0.0078125 1.734375 0.125 C 1.367188 0.15625 1.078125 0.0820312 0.859375 -0.09375 C 0.648438 -0.28125 0.601562 -0.570312 0.71875 -0.96875 C 0.851562 -1.789062 1.019531 -2.90625 1.21875 -4.3125 C 1.414062 -5.71875 1.59375 -7.320312 1.75 -9.125 C 1.90625 -10.925781 1.984375 -12.8125 1.984375 -14.78125 C 1.984375 -16.757812 1.90625 -18.648438 1.75 -20.453125 C 1.59375 -22.253906 1.414062 -23.863281 1.21875 -25.28125 C 1.019531 -26.707031 0.851562 -27.816406 0.71875 -28.609375 C 0.601562 -28.992188 0.648438 -29.285156 0.859375 -29.484375 C 1.078125 -29.679688 1.367188 -29.753906 1.734375 -29.703125 C 2.804688 -29.585938 3.707031 -29.546875 4.4375 -29.578125 C 5.164062 -29.609375 5.910156 -29.664062 6.671875 -29.75 C 7.429688 -29.832031 8.375 -29.875 9.5 -29.875 C 12.71875 -29.875 15.238281 -28.597656 17.0625 -26.046875 C 18.894531 -23.492188 19.8125 -19.867188 19.8125 -15.171875 C 19.8125 -12.046875 19.394531 -9.316406 18.5625 -6.984375 C 17.738281 -4.660156 16.554688 -2.863281 15.015625 -1.59375 C 13.484375 -0.332031 11.644531 0.296875 9.5 0.296875 Z M 7.984375 -4.859375 L 9.5 -4.859375 C 10.738281 -4.859375 11.78125 -5.660156 12.625 -7.265625 C 13.476562 -8.867188 13.90625 -11.503906 13.90625 -15.171875 C 13.90625 -17.648438 13.734375 -19.578125 13.390625 -20.953125 C 13.054688 -22.335938 12.628906 -23.316406 12.109375 -23.890625 C 11.585938 -24.472656 11.015625 -24.765625 10.390625 -24.765625 C 9.691406 -24.765625 9.1875 -24.390625 8.875 -23.640625 C 8.5625 -22.890625 8.347656 -22.050781 8.234375 -21.125 C 8.148438 -20.132812 8.078125 -19.101562 8.015625 -18.03125 C 7.960938 -16.96875 7.9375 -15.882812 7.9375 -14.78125 C 7.9375 -12.925781 7.941406 -11.148438 7.953125 -9.453125 C 7.972656 -7.765625 7.984375 -6.234375 7.984375 -4.859375 Z M 7.984375 -4.859375 "/></g></g></g><g fill="#000000" fill-opacity="0.4"><g transform="translate(103.202179, 56.460717)"><g/></g></g><g fill="#000000" fill-opacity="0.4"><g transform="translate(112.918655, 56.460717)"><g><path d="M 10.78125 0.296875 C 9.820312 0.296875 8.816406 0.238281 7.765625 0.125 C 6.722656 0.0078125 5.753906 -0.0703125 4.859375 -0.125 C 4.148438 -0.125 3.550781 -0.101562 3.0625 -0.0625 C 2.570312 -0.0195312 2.128906 0.0234375 1.734375 0.078125 C 1.335938 0.140625 1.039062 0.0703125 0.84375 -0.125 C 0.644531 -0.320312 0.585938 -0.632812 0.671875 -1.0625 C 0.816406 -1.84375 0.992188 -2.929688 1.203125 -4.328125 C 1.410156 -5.722656 1.59375 -7.320312 1.75 -9.125 C 1.90625 -10.925781 1.984375 -12.8125 1.984375 -14.78125 C 1.984375 -16.78125 1.90625 -18.679688 1.75 -20.484375 C 1.59375 -22.285156 1.410156 -23.890625 1.203125 -25.296875 C 0.992188 -26.710938 0.816406 -27.800781 0.671875 -28.5625 C 0.503906 -29.40625 0.84375 -29.800781 1.6875 -29.75 C 2.875 -29.6875 4.207031 -29.695312 5.6875 -29.78125 C 7.164062 -29.863281 8.425781 -29.894531 9.46875 -29.875 C 12.59375 -29.84375 15.035156 -29.03125 16.796875 -27.4375 C 18.554688 -25.84375 19.4375 -23.441406 19.4375 -20.234375 C 19.4375 -18.773438 19.125 -17.578125 18.5 -16.640625 C 17.882812 -15.710938 17.097656 -14.96875 16.140625 -14.40625 C 17.546875 -14.289062 18.710938 -13.671875 19.640625 -12.546875 C 20.578125 -11.421875 21.046875 -9.941406 21.046875 -8.109375 C 21.046875 -5.859375 20.578125 -4.117188 19.640625 -2.890625 C 18.710938 -1.671875 17.472656 -0.832031 15.921875 -0.375 C 14.378906 0.0703125 12.664062 0.296875 10.78125 0.296875 Z M 8.0625 -15.421875 L 9.046875 -15.421875 C 10.335938 -15.421875 11.398438 -15.820312 12.234375 -16.625 C 13.066406 -17.425781 13.484375 -18.628906 13.484375 -20.234375 C 13.484375 -21.835938 13.222656 -22.992188 12.703125 -23.703125 C 12.179688 -24.410156 11.539062 -24.765625 10.78125 -24.765625 C 10.15625 -24.765625 9.59375 -24.5 9.09375 -23.96875 C 8.601562 -23.445312 8.257812 -22.738281 8.0625 -21.84375 C 7.875 -20.851562 7.828125 -19.832031 7.921875 -18.78125 C 8.015625 -17.726562 8.0625 -16.609375 8.0625 -15.421875 Z M 10.984375 -4.90625 C 11.796875 -4.90625 12.476562 -5.195312 13.03125 -5.78125 C 13.582031 -6.375 13.859375 -7.332031 13.859375 -8.65625 C 13.859375 -9.976562 13.425781 -10.96875 12.5625 -11.625 C 11.707031 -12.289062 10.578125 -12.625 9.171875 -12.625 L 8.15625 -12.625 C 8.15625 -11.644531 8.117188 -10.71875 8.046875 -9.84375 C 7.972656 -8.96875 8.050781 -8.125 8.28125 -7.3125 C 8.476562 -6.570312 8.820312 -5.984375 9.3125 -5.546875 C 9.8125 -5.117188 10.367188 -4.90625 10.984375 -4.90625 Z M 10.984375 -4.90625 "/></g></g></g><g fill="#000000" fill-opacity="0.4"><g transform="translate(135.435544, 56.460717)"><g><path d="M 13.90625 0.046875 C 13.082031 0.179688 12.703125 -0.140625 12.765625 -0.921875 C 12.765625 -1.492188 12.769531 -2.210938 12.78125 -3.078125 C 12.789062 -3.953125 12.785156 -4.910156 12.765625 -5.953125 L 8.78125 -5.953125 C 8.757812 -4.910156 8.753906 -3.957031 8.765625 -3.09375 C 8.773438 -2.238281 8.78125 -1.53125 8.78125 -0.96875 C 8.78125 -0.15625 8.398438 0.164062 7.640625 0 C 5.472656 -0.425781 3.320312 -0.441406 1.1875 -0.046875 C 0.28125 0.128906 -0.0390625 -0.21875 0.21875 -1.09375 C 0.46875 -1.9375 0.789062 -3.082031 1.1875 -4.53125 C 1.582031 -5.988281 1.988281 -7.628906 2.40625 -9.453125 C 2.832031 -11.285156 3.1875 -13.191406 3.46875 -15.171875 C 3.800781 -17.421875 4.085938 -19.671875 4.328125 -21.921875 C 4.566406 -24.179688 4.703125 -26.4375 4.734375 -28.6875 C 4.734375 -29.476562 5.128906 -29.800781 5.921875 -29.65625 C 7.523438 -29.40625 9.128906 -29.285156 10.734375 -29.296875 C 12.335938 -29.316406 13.957031 -29.4375 15.59375 -29.65625 C 16.40625 -29.800781 16.8125 -29.476562 16.8125 -28.6875 C 16.875 -26.4375 17.015625 -24.179688 17.234375 -21.921875 C 17.460938 -19.671875 17.742188 -17.421875 18.078125 -15.171875 C 18.390625 -13.222656 18.75 -11.332031 19.15625 -9.5 C 19.5625 -7.675781 19.960938 -6.035156 20.359375 -4.578125 C 20.753906 -3.128906 21.082031 -1.984375 21.34375 -1.140625 C 21.625 -0.234375 21.269531 0.128906 20.28125 -0.046875 C 19.207031 -0.242188 18.140625 -0.332031 17.078125 -0.3125 C 16.023438 -0.300781 14.96875 -0.179688 13.90625 0.046875 Z M 9 -10.640625 L 12.546875 -10.640625 C 12.515625 -11.203125 12.472656 -11.765625 12.421875 -12.328125 C 12.367188 -12.898438 12.3125 -13.46875 12.25 -14.03125 C 12.03125 -15.96875 11.785156 -17.765625 11.515625 -19.421875 C 11.242188 -21.085938 11 -22.679688 10.78125 -24.203125 C 10.519531 -22.597656 10.253906 -20.894531 9.984375 -19.09375 C 9.722656 -17.289062 9.492188 -15.601562 9.296875 -14.03125 C 9.234375 -13.519531 9.179688 -12.945312 9.140625 -12.3125 C 9.097656 -11.675781 9.050781 -11.117188 9 -10.640625 Z M 9 -10.640625 "/></g></g></g><g fill="#000000" fill-opacity="0.4"><g transform="translate(158.248151, 56.460717)"><g><path d="M 8.15625 0.125 C 7.707031 0.0390625 7.234375 -0.0195312 6.734375 -0.0625 C 6.242188 -0.101562 5.617188 -0.125 4.859375 -0.125 C 4.148438 -0.125 3.550781 -0.101562 3.0625 -0.0625 C 2.570312 -0.0195312 2.113281 0.0234375 1.6875 0.078125 C 1.320312 0.140625 1.039062 0.0703125 0.84375 -0.125 C 0.644531 -0.320312 0.585938 -0.617188 0.671875 -1.015625 C 0.816406 -1.828125 0.992188 -2.929688 1.203125 -4.328125 C 1.410156 -5.722656 1.59375 -7.320312 1.75 -9.125 C 1.90625 -10.925781 1.984375 -12.8125 1.984375 -14.78125 C 1.984375 -16.757812 1.90625 -18.648438 1.75 -20.453125 C 1.59375 -22.253906 1.410156 -23.859375 1.203125 -25.265625 C 0.992188 -26.671875 0.816406 -27.769531 0.671875 -28.5625 C 0.585938 -28.957031 0.644531 -29.253906 0.84375 -29.453125 C 1.039062 -29.648438 1.320312 -29.71875 1.6875 -29.65625 C 2.164062 -29.601562 2.671875 -29.554688 3.203125 -29.515625 C 3.742188 -29.472656 4.378906 -29.453125 5.109375 -29.453125 C 5.929688 -29.453125 6.644531 -29.476562 7.25 -29.53125 C 7.851562 -29.59375 8.4375 -29.648438 9 -29.703125 C 9.726562 -29.816406 10.09375 -29.460938 10.09375 -28.640625 C 10.070312 -27.597656 10.15625 -26.453125 10.34375 -25.203125 C 10.539062 -23.953125 10.820312 -22.710938 11.1875 -21.484375 C 11.5625 -20.253906 11.972656 -19.148438 12.421875 -18.171875 C 13.328125 -16.304688 14.226562 -14.585938 15.125 -13.015625 L 15.171875 -14.78125 C 15.171875 -16.757812 15.09375 -18.648438 14.9375 -20.453125 C 14.78125 -22.253906 14.59375 -23.859375 14.375 -25.265625 C 14.164062 -26.671875 13.992188 -27.769531 13.859375 -28.5625 C 13.710938 -29.4375 14.066406 -29.800781 14.921875 -29.65625 C 15.304688 -29.601562 15.742188 -29.554688 16.234375 -29.515625 C 16.734375 -29.472656 17.335938 -29.453125 18.046875 -29.453125 C 18.804688 -29.453125 19.4375 -29.472656 19.9375 -29.515625 C 20.445312 -29.554688 20.941406 -29.617188 21.421875 -29.703125 C 22.234375 -29.785156 22.570312 -29.421875 22.4375 -28.609375 C 22.238281 -27.453125 22.039062 -26.265625 21.84375 -25.046875 C 21.644531 -23.835938 21.472656 -22.421875 21.328125 -20.796875 C 21.191406 -19.179688 21.109375 -17.175781 21.078125 -14.78125 C 21.078125 -12.8125 21.15625 -10.925781 21.3125 -9.125 C 21.46875 -7.320312 21.648438 -5.71875 21.859375 -4.3125 C 22.078125 -2.90625 22.253906 -1.804688 22.390625 -1.015625 C 22.472656 -0.617188 22.421875 -0.320312 22.234375 -0.125 C 22.054688 0.0703125 21.769531 0.15625 21.375 0.125 C 20.925781 0.0390625 20.445312 -0.0195312 19.9375 -0.0625 C 19.4375 -0.101562 18.804688 -0.125 18.046875 -0.125 C 17.253906 -0.125 16.601562 -0.09375 16.09375 -0.03125 C 15.59375 0.0195312 15.101562 0.0703125 14.625 0.125 C 13.96875 0.269531 13.570312 -0.0351562 13.4375 -0.796875 C 13.289062 -1.585938 13.0625 -2.671875 12.75 -4.046875 C 12.445312 -5.429688 12.046875 -6.929688 11.546875 -8.546875 C 11.054688 -10.171875 10.460938 -11.703125 9.765625 -13.140625 C 9.390625 -13.898438 9.054688 -14.578125 8.765625 -15.171875 C 8.472656 -15.765625 8.195312 -16.296875 7.9375 -16.765625 C 7.914062 -16.460938 7.90625 -16.140625 7.90625 -15.796875 C 7.90625 -15.460938 7.90625 -15.125 7.90625 -14.78125 C 7.90625 -12.8125 7.976562 -10.925781 8.125 -9.125 C 8.28125 -7.320312 8.460938 -5.71875 8.671875 -4.3125 C 8.890625 -2.90625 9.066406 -1.804688 9.203125 -1.015625 C 9.296875 -0.617188 9.242188 -0.320312 9.046875 -0.125 C 8.847656 0.0703125 8.550781 0.15625 8.15625 0.125 Z M 8.15625 0.125 "/></g></g></g><g fill="#000000" fill-opacity="0.4"><g transform="translate(182.62385, 56.460717)"><g><path d="M 8.328125 0.125 C 7.847656 0.0390625 7.351562 -0.0195312 6.84375 -0.0625 C 6.332031 -0.101562 5.695312 -0.125 4.9375 -0.125 C 4.238281 -0.125 3.632812 -0.101562 3.125 -0.0625 C 2.613281 -0.0195312 2.164062 0.0234375 1.78125 0.078125 C 1.382812 0.140625 1.078125 0.0820312 0.859375 -0.09375 C 0.648438 -0.28125 0.578125 -0.570312 0.640625 -0.96875 C 0.804688 -1.925781 0.972656 -2.8125 1.140625 -3.625 C 1.304688 -4.445312 1.457031 -5.335938 1.59375 -6.296875 C 1.738281 -7.253906 1.851562 -8.398438 1.9375 -9.734375 C 2.019531 -11.078125 2.0625 -12.757812 2.0625 -14.78125 C 2.0625 -16.757812 1.984375 -18.648438 1.828125 -20.453125 C 1.679688 -22.253906 1.5 -23.859375 1.28125 -25.265625 C 1.070312 -26.671875 0.898438 -27.769531 0.765625 -28.5625 C 0.617188 -29.4375 0.96875 -29.800781 1.8125 -29.65625 C 2.207031 -29.601562 2.648438 -29.554688 3.140625 -29.515625 C 3.640625 -29.472656 4.238281 -29.453125 4.9375 -29.453125 C 5.695312 -29.453125 6.320312 -29.472656 6.8125 -29.515625 C 7.3125 -29.554688 7.800781 -29.617188 8.28125 -29.703125 C 9.09375 -29.785156 9.414062 -29.40625 9.25 -28.5625 C 9.050781 -27.519531 8.8125 -25.945312 8.53125 -23.84375 C 8.25 -21.75 8.082031 -19.363281 8.03125 -16.6875 C 9.601562 -16.65625 10.796875 -17.003906 11.609375 -17.734375 C 12.429688 -18.472656 12.84375 -19.71875 12.84375 -21.46875 C 12.84375 -22.757812 12.710938 -24.054688 12.453125 -25.359375 C 12.203125 -26.671875 11.96875 -27.722656 11.75 -28.515625 C 11.519531 -29.421875 11.84375 -29.800781 12.71875 -29.65625 C 13.113281 -29.601562 13.554688 -29.554688 14.046875 -29.515625 C 14.535156 -29.472656 15.117188 -29.453125 15.796875 -29.453125 C 16.535156 -29.453125 17.15625 -29.472656 17.65625 -29.515625 C 18.164062 -29.554688 18.644531 -29.601562 19.09375 -29.65625 C 19.488281 -29.71875 19.773438 -29.648438 19.953125 -29.453125 C 20.140625 -29.253906 20.175781 -28.957031 20.0625 -28.5625 C 19.78125 -27.351562 19.546875 -26.140625 19.359375 -24.921875 C 19.179688 -23.710938 19.023438 -22.488281 18.890625 -21.25 C 18.742188 -19.789062 18.351562 -18.515625 17.71875 -17.421875 C 17.082031 -16.335938 16.300781 -15.472656 15.375 -14.828125 C 16.5 -14.035156 17.445312 -12.941406 18.21875 -11.546875 C 19 -10.160156 19.472656 -8.773438 19.640625 -7.390625 C 19.785156 -6.179688 20.019531 -5.003906 20.34375 -3.859375 C 20.664062 -2.722656 20.941406 -1.789062 21.171875 -1.0625 C 21.421875 -0.1875 21.109375 0.207031 20.234375 0.125 C 19.703125 0.0703125 19.144531 0.0234375 18.5625 -0.015625 C 17.988281 -0.0546875 17.335938 -0.078125 16.609375 -0.078125 C 15.898438 -0.078125 15.347656 -0.0546875 14.953125 -0.015625 C 14.554688 0.0234375 14.175781 0.0703125 13.8125 0.125 C 12.96875 0.207031 12.628906 -0.15625 12.796875 -0.96875 C 12.910156 -1.476562 13.015625 -1.972656 13.109375 -2.453125 C 13.210938 -2.929688 13.300781 -3.53125 13.375 -4.25 C 13.445312 -4.96875 13.484375 -5.929688 13.484375 -7.140625 C 13.484375 -8.773438 12.984375 -10.082031 11.984375 -11.0625 C 10.984375 -12.050781 9.691406 -12.5625 8.109375 -12.59375 C 8.222656 -10.113281 8.410156 -7.820312 8.671875 -5.71875 C 8.941406 -3.625 9.164062 -2.039062 9.34375 -0.96875 C 9.476562 -0.15625 9.140625 0.207031 8.328125 0.125 Z M 8.328125 0.125 "/></g></g></g><g fill="#fff6ea" fill-opacity="1"><g transform="translate(1.213163, 54.593707)"><g><path d="M 5.953125 0.171875 C 5.222656 0.253906 4.859375 -0.0976562 4.859375 -0.890625 C 4.828125 -3.140625 4.691406 -5.390625 4.453125 -7.640625 C 4.210938 -9.898438 3.910156 -12.15625 3.546875 -14.40625 C 3.265625 -16.375 2.921875 -18.273438 2.515625 -20.109375 C 2.109375 -21.941406 1.707031 -23.585938 1.3125 -25.046875 C 0.914062 -26.515625 0.59375 -27.671875 0.34375 -28.515625 C 0.226562 -28.910156 0.253906 -29.210938 0.421875 -29.421875 C 0.585938 -29.640625 0.867188 -29.71875 1.265625 -29.65625 C 1.691406 -29.601562 2.132812 -29.554688 2.59375 -29.515625 C 3.0625 -29.472656 3.648438 -29.453125 4.359375 -29.453125 C 5.117188 -29.453125 5.757812 -29.476562 6.28125 -29.53125 C 6.800781 -29.59375 7.300781 -29.648438 7.78125 -29.703125 C 8.59375 -29.835938 8.972656 -29.484375 8.921875 -28.640625 C 8.921875 -27.878906 8.921875 -26.804688 8.921875 -25.421875 C 8.921875 -24.046875 8.953125 -22.5 9.015625 -20.78125 C 9.085938 -19.0625 9.222656 -17.316406 9.421875 -15.546875 C 9.472656 -14.953125 9.566406 -14.378906 9.703125 -13.828125 C 9.847656 -13.285156 9.976562 -12.773438 10.09375 -12.296875 C 10.320312 -12.992188 10.546875 -13.769531 10.765625 -14.625 C 10.992188 -15.488281 11.222656 -16.441406 11.453125 -17.484375 C 11.648438 -18.359375 11.878906 -19.394531 12.140625 -20.59375 C 12.410156 -21.789062 12.6875 -23.035156 12.96875 -24.328125 C 13.25 -25.628906 13.488281 -26.859375 13.6875 -28.015625 C 13.832031 -28.691406 14.226562 -29.03125 14.875 -29.03125 L 16.8125 -29.03125 C 17.457031 -29.03125 17.851562 -28.691406 18 -28.015625 C 18.3125 -26.296875 18.707031 -24.484375 19.1875 -22.578125 C 19.664062 -20.679688 20.054688 -18.984375 20.359375 -17.484375 C 20.585938 -16.359375 20.8125 -15.351562 21.03125 -14.46875 C 21.257812 -13.582031 21.472656 -12.773438 21.671875 -12.046875 C 21.816406 -12.546875 21.941406 -13.097656 22.046875 -13.703125 C 22.160156 -14.316406 22.25 -14.929688 22.3125 -15.546875 C 22.507812 -17.316406 22.640625 -19.0625 22.703125 -20.78125 C 22.773438 -22.5 22.816406 -24.046875 22.828125 -25.421875 C 22.847656 -26.804688 22.84375 -27.894531 22.8125 -28.6875 C 22.757812 -29.5 23.140625 -29.835938 23.953125 -29.703125 C 24.429688 -29.648438 24.929688 -29.59375 25.453125 -29.53125 C 25.972656 -29.476562 26.613281 -29.453125 27.375 -29.453125 C 28.082031 -29.453125 28.675781 -29.472656 29.15625 -29.515625 C 29.632812 -29.554688 30.070312 -29.601562 30.46875 -29.65625 C 30.851562 -29.71875 31.140625 -29.640625 31.328125 -29.421875 C 31.515625 -29.210938 31.535156 -28.910156 31.390625 -28.515625 C 31.160156 -27.703125 30.84375 -26.5625 30.4375 -25.09375 C 30.03125 -23.632812 29.625 -21.976562 29.21875 -20.125 C 28.8125 -18.28125 28.46875 -16.375 28.1875 -14.40625 C 27.8125 -12.15625 27.507812 -9.898438 27.28125 -7.640625 C 27.0625 -5.390625 26.925781 -3.140625 26.875 -0.890625 C 26.875 -0.0976562 26.492188 0.222656 25.734375 0.078125 C 25.253906 0.0234375 24.765625 -0.0195312 24.265625 -0.0625 C 23.773438 -0.101562 23.289062 -0.125 22.8125 -0.125 C 22.300781 -0.125 21.78125 -0.09375 21.25 -0.03125 C 20.71875 0.0195312 20.179688 0.0859375 19.640625 0.171875 C 18.878906 0.253906 18.488281 -0.0820312 18.46875 -0.84375 C 18.382812 -2.445312 18.128906 -4.628906 17.703125 -7.390625 C 17.273438 -10.148438 16.65625 -13.363281 15.84375 -17.03125 C 15.03125 -13.363281 14.503906 -10.15625 14.265625 -7.40625 C 14.023438 -4.664062 13.890625 -2.476562 13.859375 -0.84375 C 13.859375 -0.0507812 13.492188 0.269531 12.765625 0.125 C 12.140625 0.0703125 11.523438 0.0195312 10.921875 -0.03125 C 10.316406 -0.09375 9.734375 -0.125 9.171875 -0.125 C 8.628906 -0.125 8.097656 -0.09375 7.578125 -0.03125 C 7.054688 0.0195312 6.515625 0.0859375 5.953125 0.171875 Z M 5.953125 0.171875 "/></g></g></g><g fill="#fff6ea" fill-opacity="1"><g transform="translate(34.206957, 54.593707)"><g><path d="M 10.8125 0.640625 C 7.570312 0.640625 5.050781 -0.617188 3.25 -3.140625 C 1.445312 -5.660156 0.546875 -9.554688 0.546875 -14.828125 C 0.546875 -19.640625 1.445312 -23.40625 3.25 -26.125 C 5.050781 -28.84375 7.570312 -30.203125 10.8125 -30.203125 C 14.050781 -30.203125 16.566406 -28.84375 18.359375 -26.125 C 20.148438 -23.40625 21.046875 -19.640625 21.046875 -14.828125 C 21.046875 -9.554688 20.148438 -5.660156 18.359375 -3.140625 C 16.566406 -0.617188 14.050781 0.640625 10.8125 0.640625 Z M 10.78125 -5.28125 C 11.476562 -5.28125 12.078125 -5.695312 12.578125 -6.53125 C 13.085938 -7.363281 13.484375 -8.488281 13.765625 -9.90625 C 14.054688 -11.332031 14.203125 -12.914062 14.203125 -14.65625 C 14.203125 -17.59375 13.890625 -19.929688 13.265625 -21.671875 C 12.648438 -23.421875 11.820312 -24.296875 10.78125 -24.296875 C 9.726562 -24.296875 8.890625 -23.421875 8.265625 -21.671875 C 7.648438 -19.929688 7.34375 -17.59375 7.34375 -14.65625 C 7.34375 -12.914062 7.484375 -11.332031 7.765625 -9.90625 C 8.054688 -8.488281 8.460938 -7.363281 8.984375 -6.53125 C 9.503906 -5.695312 10.101562 -5.28125 10.78125 -5.28125 Z M 10.78125 -5.28125 "/></g></g></g><g fill="#fff6ea" fill-opacity="1"><g transform="translate(57.061809, 54.593707)"><g><path d="M 8.203125 0.125 C 7.722656 0.0390625 7.234375 -0.0195312 6.734375 -0.0625 C 6.242188 -0.101562 5.617188 -0.125 4.859375 -0.125 C 4.148438 -0.125 3.550781 -0.101562 3.0625 -0.0625 C 2.570312 -0.0195312 2.128906 0.0234375 1.734375 0.078125 C 1.335938 0.140625 1.039062 0.0703125 0.84375 -0.125 C 0.644531 -0.320312 0.585938 -0.617188 0.671875 -1.015625 C 0.835938 -1.828125 1.019531 -2.929688 1.21875 -4.328125 C 1.414062 -5.722656 1.59375 -7.320312 1.75 -9.125 C 1.90625 -10.925781 1.984375 -12.8125 1.984375 -14.78125 C 1.984375 -16.757812 1.90625 -18.648438 1.75 -20.453125 C 1.59375 -22.253906 1.414062 -23.863281 1.21875 -25.28125 C 1.019531 -26.707031 0.835938 -27.816406 0.671875 -28.609375 C 0.503906 -29.421875 0.859375 -29.785156 1.734375 -29.703125 C 2.691406 -29.585938 3.53125 -29.546875 4.25 -29.578125 C 4.96875 -29.609375 5.695312 -29.664062 6.4375 -29.75 C 7.1875 -29.832031 8.054688 -29.875 9.046875 -29.875 C 12.304688 -29.84375 14.789062 -29.003906 16.5 -27.359375 C 18.207031 -25.710938 19.0625 -23.328125 19.0625 -20.203125 C 19.0625 -18.304688 18.742188 -16.722656 18.109375 -15.453125 C 17.472656 -14.191406 16.5625 -13.207031 15.375 -12.5 C 16.53125 -11.769531 17.445312 -10.84375 18.125 -9.71875 C 18.800781 -8.59375 19.207031 -7.632812 19.34375 -6.84375 C 19.539062 -5.75 19.785156 -4.675781 20.078125 -3.625 C 20.378906 -2.582031 20.65625 -1.726562 20.90625 -1.0625 C 21.164062 -0.1875 20.84375 0.207031 19.9375 0.125 C 19.4375 0.0703125 18.890625 0.0234375 18.296875 -0.015625 C 17.703125 -0.0546875 17.039062 -0.078125 16.3125 -0.078125 C 15.632812 -0.078125 15.097656 -0.0625 14.703125 -0.03125 C 14.304688 -0.0078125 13.941406 0.0234375 13.609375 0.078125 C 12.847656 0.191406 12.550781 -0.15625 12.71875 -0.96875 C 12.851562 -1.445312 12.960938 -2.066406 13.046875 -2.828125 C 13.140625 -3.585938 13.1875 -4.519531 13.1875 -5.625 C 13.1875 -7.113281 12.671875 -8.257812 11.640625 -9.0625 C 10.609375 -9.863281 9.40625 -10.363281 8.03125 -10.5625 C 8.144531 -8.363281 8.320312 -6.441406 8.5625 -4.796875 C 8.800781 -3.148438 9.003906 -1.890625 9.171875 -1.015625 C 9.335938 -0.171875 9.015625 0.207031 8.203125 0.125 Z M 7.9375 -13.5625 L 9.046875 -13.5625 C 10.285156 -13.5625 11.269531 -14.109375 12 -15.203125 C 12.726562 -16.304688 13.09375 -17.972656 13.09375 -20.203125 C 13.09375 -21.828125 12.867188 -22.992188 12.421875 -23.703125 C 11.972656 -24.410156 11.296875 -24.765625 10.390625 -24.765625 C 9.859375 -24.765625 9.394531 -24.535156 9 -24.078125 C 8.601562 -23.628906 8.335938 -23.082031 8.203125 -22.4375 C 7.941406 -21.082031 7.832031 -19.644531 7.875 -18.125 C 7.914062 -16.601562 7.9375 -15.082031 7.9375 -13.5625 Z M 7.9375 -13.5625 "/></g></g></g><g fill="#fff6ea" fill-opacity="1"><g transform="translate(79.663189, 54.593707)"><g><path d="M 9.5 0.296875 C 8.4375 0.296875 7.515625 0.253906 6.734375 0.171875 C 5.960938 0.0859375 5.195312 0.0234375 4.4375 -0.015625 C 3.675781 -0.0546875 2.773438 -0.0078125 1.734375 0.125 C 1.367188 0.15625 1.078125 0.0820312 0.859375 -0.09375 C 0.648438 -0.28125 0.601562 -0.570312 0.71875 -0.96875 C 0.851562 -1.789062 1.019531 -2.90625 1.21875 -4.3125 C 1.414062 -5.71875 1.59375 -7.320312 1.75 -9.125 C 1.90625 -10.925781 1.984375 -12.8125 1.984375 -14.78125 C 1.984375 -16.757812 1.90625 -18.648438 1.75 -20.453125 C 1.59375 -22.253906 1.414062 -23.863281 1.21875 -25.28125 C 1.019531 -26.707031 0.851562 -27.816406 0.71875 -28.609375 C 0.601562 -28.992188 0.648438 -29.285156 0.859375 -29.484375 C 1.078125 -29.679688 1.367188 -29.753906 1.734375 -29.703125 C 2.804688 -29.585938 3.707031 -29.546875 4.4375 -29.578125 C 5.164062 -29.609375 5.910156 -29.664062 6.671875 -29.75 C 7.429688 -29.832031 8.375 -29.875 9.5 -29.875 C 12.71875 -29.875 15.238281 -28.597656 17.0625 -26.046875 C 18.894531 -23.492188 19.8125 -19.867188 19.8125 -15.171875 C 19.8125 -12.046875 19.394531 -9.316406 18.5625 -6.984375 C 17.738281 -4.660156 16.554688 -2.863281 15.015625 -1.59375 C 13.484375 -0.332031 11.644531 0.296875 9.5 0.296875 Z M 7.984375 -4.859375 L 9.5 -4.859375 C 10.738281 -4.859375 11.78125 -5.660156 12.625 -7.265625 C 13.476562 -8.867188 13.90625 -11.503906 13.90625 -15.171875 C 13.90625 -17.648438 13.734375 -19.578125 13.390625 -20.953125 C 13.054688 -22.335938 12.628906 -23.316406 12.109375 -23.890625 C 11.585938 -24.472656 11.015625 -24.765625 10.390625 -24.765625 C 9.691406 -24.765625 9.1875 -24.390625 8.875 -23.640625 C 8.5625 -22.890625 8.347656 -22.050781 8.234375 -21.125 C 8.148438 -20.132812 8.078125 -19.101562 8.015625 -18.03125 C 7.960938 -16.96875 7.9375 -15.882812 7.9375 -14.78125 C 7.9375 -12.925781 7.941406 -11.148438 7.953125 -9.453125 C 7.972656 -7.765625 7.984375 -6.234375 7.984375 -4.859375 Z M 7.984375 -4.859375 "/></g></g></g><g fill="#fff6ea" fill-opacity="1"><g transform="translate(101.335171, 54.593707)"><g/></g></g><g fill="#fff6ea" fill-opacity="1"><g transform="translate(111.051647, 54.593707)"><g><path d="M 10.78125 0.296875 C 9.820312 0.296875 8.816406 0.238281 7.765625 0.125 C 6.722656 0.0078125 5.753906 -0.0703125 4.859375 -0.125 C 4.148438 -0.125 3.550781 -0.101562 3.0625 -0.0625 C 2.570312 -0.0195312 2.128906 0.0234375 1.734375 0.078125 C 1.335938 0.140625 1.039062 0.0703125 0.84375 -0.125 C 0.644531 -0.320312 0.585938 -0.632812 0.671875 -1.0625 C 0.816406 -1.84375 0.992188 -2.929688 1.203125 -4.328125 C 1.410156 -5.722656 1.59375 -7.320312 1.75 -9.125 C 1.90625 -10.925781 1.984375 -12.8125 1.984375 -14.78125 C 1.984375 -16.78125 1.90625 -18.679688 1.75 -20.484375 C 1.59375 -22.285156 1.410156 -23.890625 1.203125 -25.296875 C 0.992188 -26.710938 0.816406 -27.800781 0.671875 -28.5625 C 0.503906 -29.40625 0.84375 -29.800781 1.6875 -29.75 C 2.875 -29.6875 4.207031 -29.695312 5.6875 -29.78125 C 7.164062 -29.863281 8.425781 -29.894531 9.46875 -29.875 C 12.59375 -29.84375 15.035156 -29.03125 16.796875 -27.4375 C 18.554688 -25.84375 19.4375 -23.441406 19.4375 -20.234375 C 19.4375 -18.773438 19.125 -17.578125 18.5 -16.640625 C 17.882812 -15.710938 17.097656 -14.96875 16.140625 -14.40625 C 17.546875 -14.289062 18.710938 -13.671875 19.640625 -12.546875 C 20.578125 -11.421875 21.046875 -9.941406 21.046875 -8.109375 C 21.046875 -5.859375 20.578125 -4.117188 19.640625 -2.890625 C 18.710938 -1.671875 17.472656 -0.832031 15.921875 -0.375 C 14.378906 0.0703125 12.664062 0.296875 10.78125 0.296875 Z M 8.0625 -15.421875 L 9.046875 -15.421875 C 10.335938 -15.421875 11.398438 -15.820312 12.234375 -16.625 C 13.066406 -17.425781 13.484375 -18.628906 13.484375 -20.234375 C 13.484375 -21.835938 13.222656 -22.992188 12.703125 -23.703125 C 12.179688 -24.410156 11.539062 -24.765625 10.78125 -24.765625 C 10.15625 -24.765625 9.59375 -24.5 9.09375 -23.96875 C 8.601562 -23.445312 8.257812 -22.738281 8.0625 -21.84375 C 7.875 -20.851562 7.828125 -19.832031 7.921875 -18.78125 C 8.015625 -17.726562 8.0625 -16.609375 8.0625 -15.421875 Z M 10.984375 -4.90625 C 11.796875 -4.90625 12.476562 -5.195312 13.03125 -5.78125 C 13.582031 -6.375 13.859375 -7.332031 13.859375 -8.65625 C 13.859375 -9.976562 13.425781 -10.96875 12.5625 -11.625 C 11.707031 -12.289062 10.578125 -12.625 9.171875 -12.625 L 8.15625 -12.625 C 8.15625 -11.644531 8.117188 -10.71875 8.046875 -9.84375 C 7.972656 -8.96875 8.050781 -8.125 8.28125 -7.3125 C 8.476562 -6.570312 8.820312 -5.984375 9.3125 -5.546875 C 9.8125 -5.117188 10.367188 -4.90625 10.984375 -4.90625 Z M 10.984375 -4.90625 "/></g></g></g><g fill="#fff6ea" fill-opacity="1"><g transform="translate(133.568537, 54.593707)"><g><path d="M 13.90625 0.046875 C 13.082031 0.179688 12.703125 -0.140625 12.765625 -0.921875 C 12.765625 -1.492188 12.769531 -2.210938 12.78125 -3.078125 C 12.789062 -3.953125 12.785156 -4.910156 12.765625 -5.953125 L 8.78125 -5.953125 C 8.757812 -4.910156 8.753906 -3.957031 8.765625 -3.09375 C 8.773438 -2.238281 8.78125 -1.53125 8.78125 -0.96875 C 8.78125 -0.15625 8.398438 0.164062 7.640625 0 C 5.472656 -0.425781 3.320312 -0.441406 1.1875 -0.046875 C 0.28125 0.128906 -0.0390625 -0.21875 0.21875 -1.09375 C 0.46875 -1.9375 0.789062 -3.082031 1.1875 -4.53125 C 1.582031 -5.988281 1.988281 -7.628906 2.40625 -9.453125 C 2.832031 -11.285156 3.1875 -13.191406 3.46875 -15.171875 C 3.800781 -17.421875 4.085938 -19.671875 4.328125 -21.921875 C 4.566406 -24.179688 4.703125 -26.4375 4.734375 -28.6875 C 4.734375 -29.476562 5.128906 -29.800781 5.921875 -29.65625 C 7.523438 -29.40625 9.128906 -29.285156 10.734375 -29.296875 C 12.335938 -29.316406 13.957031 -29.4375 15.59375 -29.65625 C 16.40625 -29.800781 16.8125 -29.476562 16.8125 -28.6875 C 16.875 -26.4375 17.015625 -24.179688 17.234375 -21.921875 C 17.460938 -19.671875 17.742188 -17.421875 18.078125 -15.171875 C 18.390625 -13.222656 18.75 -11.332031 19.15625 -9.5 C 19.5625 -7.675781 19.960938 -6.035156 20.359375 -4.578125 C 20.753906 -3.128906 21.082031 -1.984375 21.34375 -1.140625 C 21.625 -0.234375 21.269531 0.128906 20.28125 -0.046875 C 19.207031 -0.242188 18.140625 -0.332031 17.078125 -0.3125 C 16.023438 -0.300781 14.96875 -0.179688 13.90625 0.046875 Z M 9 -10.640625 L 12.546875 -10.640625 C 12.515625 -11.203125 12.472656 -11.765625 12.421875 -12.328125 C 12.367188 -12.898438 12.3125 -13.46875 12.25 -14.03125 C 12.03125 -15.96875 11.785156 -17.765625 11.515625 -19.421875 C 11.242188 -21.085938 11 -22.679688 10.78125 -24.203125 C 10.519531 -22.597656 10.253906 -20.894531 9.984375 -19.09375 C 9.722656 -17.289062 9.492188 -15.601562 9.296875 -14.03125 C 9.234375 -13.519531 9.179688 -12.945312 9.140625 -12.3125 C 9.097656 -11.675781 9.050781 -11.117188 9 -10.640625 Z M 9 -10.640625 "/></g></g></g><g fill="#fff6ea" fill-opacity="1"><g transform="translate(156.381144, 54.593707)"><g><path d="M 8.15625 0.125 C 7.707031 0.0390625 7.234375 -0.0195312 6.734375 -0.0625 C 6.242188 -0.101562 5.617188 -0.125 4.859375 -0.125 C 4.148438 -0.125 3.550781 -0.101562 3.0625 -0.0625 C 2.570312 -0.0195312 2.113281 0.0234375 1.6875 0.078125 C 1.320312 0.140625 1.039062 0.0703125 0.84375 -0.125 C 0.644531 -0.320312 0.585938 -0.617188 0.671875 -1.015625 C 0.816406 -1.828125 0.992188 -2.929688 1.203125 -4.328125 C 1.410156 -5.722656 1.59375 -7.320312 1.75 -9.125 C 1.90625 -10.925781 1.984375 -12.8125 1.984375 -14.78125 C 1.984375 -16.757812 1.90625 -18.648438 1.75 -20.453125 C 1.59375 -22.253906 1.410156 -23.859375 1.203125 -25.265625 C 0.992188 -26.671875 0.816406 -27.769531 0.671875 -28.5625 C 0.585938 -28.957031 0.644531 -29.253906 0.84375 -29.453125 C 1.039062 -29.648438 1.320312 -29.71875 1.6875 -29.65625 C 2.164062 -29.601562 2.671875 -29.554688 3.203125 -29.515625 C 3.742188 -29.472656 4.378906 -29.453125 5.109375 -29.453125 C 5.929688 -29.453125 6.644531 -29.476562 7.25 -29.53125 C 7.851562 -29.59375 8.4375 -29.648438 9 -29.703125 C 9.726562 -29.816406 10.09375 -29.460938 10.09375 -28.640625 C 10.070312 -27.597656 10.15625 -26.453125 10.34375 -25.203125 C 10.539062 -23.953125 10.820312 -22.710938 11.1875 -21.484375 C 11.5625 -20.253906 11.972656 -19.148438 12.421875 -18.171875 C 13.328125 -16.304688 14.226562 -14.585938 15.125 -13.015625 L 15.171875 -14.78125 C 15.171875 -16.757812 15.09375 -18.648438 14.9375 -20.453125 C 14.78125 -22.253906 14.59375 -23.859375 14.375 -25.265625 C 14.164062 -26.671875 13.992188 -27.769531 13.859375 -28.5625 C 13.710938 -29.4375 14.066406 -29.800781 14.921875 -29.65625 C 15.304688 -29.601562 15.742188 -29.554688 16.234375 -29.515625 C 16.734375 -29.472656 17.335938 -29.453125 18.046875 -29.453125 C 18.804688 -29.453125 19.4375 -29.472656 19.9375 -29.515625 C 20.445312 -29.554688 20.941406 -29.617188 21.421875 -29.703125 C 22.234375 -29.785156 22.570312 -29.421875 22.4375 -28.609375 C 22.238281 -27.453125 22.039062 -26.265625 21.84375 -25.046875 C 21.644531 -23.835938 21.472656 -22.421875 21.328125 -20.796875 C 21.191406 -19.179688 21.109375 -17.175781 21.078125 -14.78125 C 21.078125 -12.8125 21.15625 -10.925781 21.3125 -9.125 C 21.46875 -7.320312 21.648438 -5.71875 21.859375 -4.3125 C 22.078125 -2.90625 22.253906 -1.804688 22.390625 -1.015625 C 22.472656 -0.617188 22.421875 -0.320312 22.234375 -0.125 C 22.054688 0.0703125 21.769531 0.15625 21.375 0.125 C 20.925781 0.0390625 20.445312 -0.0195312 19.9375 -0.0625 C 19.4375 -0.101562 18.804688 -0.125 18.046875 -0.125 C 17.253906 -0.125 16.601562 -0.09375 16.09375 -0.03125 C 15.59375 0.0195312 15.101562 0.0703125 14.625 0.125 C 13.96875 0.269531 13.570312 -0.0351562 13.4375 -0.796875 C 13.289062 -1.585938 13.0625 -2.671875 12.75 -4.046875 C 12.445312 -5.429688 12.046875 -6.929688 11.546875 -8.546875 C 11.054688 -10.171875 10.460938 -11.703125 9.765625 -13.140625 C 9.390625 -13.898438 9.054688 -14.578125 8.765625 -15.171875 C 8.472656 -15.765625 8.195312 -16.296875 7.9375 -16.765625 C 7.914062 -16.460938 7.90625 -16.140625 7.90625 -15.796875 C 7.90625 -15.460938 7.90625 -15.125 7.90625 -14.78125 C 7.90625 -12.8125 7.976562 -10.925781 8.125 -9.125 C 8.28125 -7.320312 8.460938 -5.71875 8.671875 -4.3125 C 8.890625 -2.90625 9.066406 -1.804688 9.203125 -1.015625 C 9.296875 -0.617188 9.242188 -0.320312 9.046875 -0.125 C 8.847656 0.0703125 8.550781 0.15625 8.15625 0.125 Z M 8.15625 0.125 "/></g></g></g><g fill="#fff6ea" fill-opacity="1"><g transform="translate(180.756842, 54.593707)"><g><path d="M 8.328125 0.125 C 7.847656 0.0390625 7.351562 -0.0195312 6.84375 -0.0625 C 6.332031 -0.101562 5.695312 -0.125 4.9375 -0.125 C 4.238281 -0.125 3.632812 -0.101562 3.125 -0.0625 C 2.613281 -0.0195312 2.164062 0.0234375 1.78125 0.078125 C 1.382812 0.140625 1.078125 0.0820312 0.859375 -0.09375 C 0.648438 -0.28125 0.578125 -0.570312 0.640625 -0.96875 C 0.804688 -1.925781 0.972656 -2.8125 1.140625 -3.625 C 1.304688 -4.445312 1.457031 -5.335938 1.59375 -6.296875 C 1.738281 -7.253906 1.851562 -8.398438 1.9375 -9.734375 C 2.019531 -11.078125 2.0625 -12.757812 2.0625 -14.78125 C 2.0625 -16.757812 1.984375 -18.648438 1.828125 -20.453125 C 1.679688 -22.253906 1.5 -23.859375 1.28125 -25.265625 C 1.070312 -26.671875 0.898438 -27.769531 0.765625 -28.5625 C 0.617188 -29.4375 0.96875 -29.800781 1.8125 -29.65625 C 2.207031 -29.601562 2.648438 -29.554688 3.140625 -29.515625 C 3.640625 -29.472656 4.238281 -29.453125 4.9375 -29.453125 C 5.695312 -29.453125 6.320312 -29.472656 6.8125 -29.515625 C 7.3125 -29.554688 7.800781 -29.617188 8.28125 -29.703125 C 9.09375 -29.785156 9.414062 -29.40625 9.25 -28.5625 C 9.050781 -27.519531 8.8125 -25.945312 8.53125 -23.84375 C 8.25 -21.75 8.082031 -19.363281 8.03125 -16.6875 C 9.601562 -16.65625 10.796875 -17.003906 11.609375 -17.734375 C 12.429688 -18.472656 12.84375 -19.71875 12.84375 -21.46875 C 12.84375 -22.757812 12.710938 -24.054688 12.453125 -25.359375 C 12.203125 -26.671875 11.96875 -27.722656 11.75 -28.515625 C 11.519531 -29.421875 11.84375 -29.800781 12.71875 -29.65625 C 13.113281 -29.601562 13.554688 -29.554688 14.046875 -29.515625 C 14.535156 -29.472656 15.117188 -29.453125 15.796875 -29.453125 C 16.535156 -29.453125 17.15625 -29.472656 17.65625 -29.515625 C 18.164062 -29.554688 18.644531 -29.601562 19.09375 -29.65625 C 19.488281 -29.71875 19.773438 -29.648438 19.953125 -29.453125 C 20.140625 -29.253906 20.175781 -28.957031 20.0625 -28.5625 C 19.78125 -27.351562 19.546875 -26.140625 19.359375 -24.921875 C 19.179688 -23.710938 19.023438 -22.488281 18.890625 -21.25 C 18.742188 -19.789062 18.351562 -18.515625 17.71875 -17.421875 C 17.082031 -16.335938 16.300781 -15.472656 15.375 -14.828125 C 16.5 -14.035156 17.445312 -12.941406 18.21875 -11.546875 C 19 -10.160156 19.472656 -8.773438 19.640625 -7.390625 C 19.785156 -6.179688 20.019531 -5.003906 20.34375 -3.859375 C 20.664062 -2.722656 20.941406 -1.789062 21.171875 -1.0625 C 21.421875 -0.1875 21.109375 0.207031 20.234375 0.125 C 19.703125 0.0703125 19.144531 0.0234375 18.5625 -0.015625 C 17.988281 -0.0546875 17.335938 -0.078125 16.609375 -0.078125 C 15.898438 -0.078125 15.347656 -0.0546875 14.953125 -0.015625 C 14.554688 0.0234375 14.175781 0.0703125 13.8125 0.125 C 12.96875 0.207031 12.628906 -0.15625 12.796875 -0.96875 C 12.910156 -1.476562 13.015625 -1.972656 13.109375 -2.453125 C 13.210938 -2.929688 13.300781 -3.53125 13.375 -4.25 C 13.445312 -4.96875 13.484375 -5.929688 13.484375 -7.140625 C 13.484375 -8.773438 12.984375 -10.082031 11.984375 -11.0625 C 10.984375 -12.050781 9.691406 -12.5625 8.109375 -12.59375 C 8.222656 -10.113281 8.410156 -7.820312 8.671875 -5.71875 C 8.941406 -3.625 9.164062 -2.039062 9.34375 -0.96875 C 9.476562 -0.15625 9.140625 0.207031 8.328125 0.125 Z M 8.328125 0.125 "/></g></g></g></g></g></svg>