<svg xmlns="http://www.w3.org/2000/svg" xmlns:xlink="http://www.w3.org/1999/xlink" width="355" zoomAndPan="magnify" viewBox="0 0 266.25 177.000001" height="236" preserveAspectRatio="xMidYMid meet" version="1.0"><defs><g/><clipPath id="373c1e62b0"><path d="M 1 71 L 265 71 L 265 176 L 1 176 Z M 1 71 " clip-rule="nonzero"/></clipPath><clipPath id="29e4008c91"><path d="M 0.375 90.683594 L 258.472656 71.792969 L 264.679688 156.585938 L 6.582031 175.476562 Z M 0.375 90.683594 " clip-rule="nonzero"/></clipPath><clipPath id="552d02cedd"><path d="M 3 16 L 260 16 L 260 89 L 3 89 Z M 3 16 " clip-rule="nonzero"/></clipPath><clipPath id="4b75c034f3"><path d="M -0.625 19.683594 L 257.472656 0.792969 L 263.679688 85.585938 L 5.582031 104.476562 Z M -0.625 19.683594 " clip-rule="nonzero"/></clipPath><clipPath id="6a13c84c30"><path d="M 5.589844 104.617188 L 263.6875 85.726562 L 257.484375 0.933594 L -0.613281 19.824219 Z M 5.589844 104.617188 " clip-rule="nonzero"/></clipPath><clipPath id="10195791c5"><rect x="0" width="264" y="0" height="105"/></clipPath><clipPath id="3444e92fbb"><rect x="0" width="178" y="0" height="71"/></clipPath></defs><g clip-path="url(#373c1e62b0)"><g clip-path="url(#29e4008c91)"><g transform="matrix(1, 0, 0, 1, 1, 71)"><g clip-path="url(#10195791c5)"><g clip-path="url(#552d02cedd)"><g clip-path="url(#4b75c034f3)"><g clip-path="url(#6a13c84c30)"><path fill="#00b26f" d="M 7.511719 40.957031 C 6.949219 41.746094 6.144531 41.972656 5.507812 42.425781 C 2.835938 44.316406 2.488281 47.214844 4.660156 49.660156 C 5.402344 50.492188 6.1875 51.292969 6.949219 52.113281 C 7.917969 53.15625 7.890625 53.40625 6.804688 54.4375 C 6.167969 55.042969 5.53125 55.65625 4.945312 56.3125 C 2.363281 59.222656 3.351562 61.089844 5.082031 63.078125 C 5.820312 63.921875 6.570312 64.765625 7.40625 65.496094 C 8.222656 66.21875 8.09375 66.777344 7.457031 67.511719 C 6.460938 68.652344 5.351562 69.707031 4.773438 71.183594 C 3.8125 73.660156 4.175781 74.929688 6.425781 76.476562 C 8.25 77.738281 8.40625 78.21875 7.585938 80.28125 C 7.171875 81.324219 6.652344 82.335938 6.3125 83.398438 C 5.492188 85.96875 6.367188 87.328125 8.964844 87.964844 C 11.171875 88.503906 13.449219 88.5 15.640625 88.460938 C 18.917969 88.40625 22.203125 88.488281 25.476562 88.4375 C 49.964844 88.066406 74.460938 87.683594 98.957031 87.53125 C 124.308594 87.375 149.65625 87.546875 175.007812 87.46875 C 199.640625 87.394531 225.113281 88.539062 249.628906 85.992188 C 251.714844 85.777344 253.746094 85.390625 255.773438 84.949219 C 258.574219 84.335938 259.292969 82.894531 258.300781 80.144531 C 257.894531 79.015625 257.332031 77.949219 256.789062 76.878906 C 256.394531 76.097656 256.390625 75.457031 256.894531 74.660156 C 257.414062 73.84375 258.035156 73.109375 258.554688 72.308594 C 260.089844 69.929688 259.992188 68.675781 258.277344 66.421875 C 257.742188 65.714844 257.144531 65.082031 256.476562 64.5 C 255.726562 63.847656 255.695312 63.152344 256.347656 62.414062 C 256.988281 61.691406 257.652344 60.992188 258.25 60.234375 C 259.546875 58.578125 259.621094 57.410156 258.539062 55.605469 C 258.085938 54.851562 257.496094 54.183594 257.027344 53.4375 C 256.179688 52.074219 256.257812 51.652344 257.40625 50.554688 C 257.753906 50.226562 258.128906 49.914062 258.433594 49.546875 C 260.613281 46.917969 260.441406 44.976562 257.851562 42.726562 C 257.667969 42.570312 257.480469 42.417969 257.292969 42.261719 C 255.324219 40.574219 255.238281 40.523438 256.570312 38.367188 C 258.679688 34.953125 259.375 32.328125 253.765625 29.320312 C 253.492188 29.175781 253.238281 28.996094 252.890625 28.789062 C 253.324219 27.597656 253.910156 26.5625 254.75 25.710938 C 256 24.445312 256.835938 22.875 257.910156 21.480469 C 258.832031 20.285156 258.597656 18.78125 257.429688 17.855469 C 256.398438 17.035156 255.171875 16.589844 253.867188 16.570312 C 175.589844 15.648438 96.277344 15.867188 17.808594 18.574219 C 15.398438 18.65625 12.992188 18.664062 10.59375 18.863281 C 9.949219 18.917969 9.308594 18.941406 8.671875 19.019531 C 5.367188 19.417969 4.214844 22.097656 6.242188 24.757812 C 6.722656 25.390625 7.414062 25.855469 7.964844 26.433594 C 8.945312 27.445312 8.929688 27.941406 7.792969 28.734375 C 7.003906 29.285156 6.289062 29.925781 5.527344 30.503906 C 2.34375 32.921875 3.003906 36.496094 5.238281 38.867188 C 5.9375 39.617188 6.75 40.265625 7.511719 40.957031 Z M 7.511719 40.957031 " fill-opacity="1" fill-rule="nonzero"/></g></g></g></g></g></g></g><g transform="matrix(1, 0, 0, 1, 44, 84)"><g clip-path="url(#3444e92fbb)"><g fill="#000000" fill-opacity="0.4"><g transform="translate(3.324642, 54.897948)"><g><path d="M 8 0.125 C 7.5625 0.0390625 7.09375 -0.0195312 6.59375 -0.0625 C 6.101562 -0.101562 5.5 -0.125 4.78125 -0.125 C 4.09375 -0.125 3.507812 -0.101562 3.03125 -0.0625 C 2.550781 -0.0195312 2.101562 0.0234375 1.6875 0.078125 C 1.332031 0.140625 1.054688 0.078125 0.859375 -0.109375 C 0.671875 -0.304688 0.617188 -0.597656 0.703125 -0.984375 C 0.835938 -1.785156 1 -2.863281 1.1875 -4.21875 C 1.382812 -5.582031 1.554688 -7.144531 1.703125 -8.90625 C 1.859375 -10.664062 1.9375 -12.507812 1.9375 -14.4375 C 1.9375 -16.363281 1.859375 -18.207031 1.703125 -19.96875 C 1.554688 -21.726562 1.382812 -23.300781 1.1875 -24.6875 C 1 -26.070312 0.835938 -27.148438 0.703125 -27.921875 C 0.535156 -28.722656 0.863281 -29.082031 1.6875 -29 C 2.625 -28.882812 3.441406 -28.84375 4.140625 -28.875 C 4.847656 -28.90625 5.578125 -28.957031 6.328125 -29.03125 C 7.085938 -29.113281 7.988281 -29.15625 9.03125 -29.15625 C 11.394531 -29.15625 13.273438 -28.71875 14.671875 -27.84375 C 16.078125 -26.96875 17.082031 -25.6875 17.6875 -24 C 18.300781 -22.320312 18.609375 -20.289062 18.609375 -17.90625 C 18.609375 -15.8125 18.226562 -13.910156 17.46875 -12.203125 C 16.707031 -10.503906 15.601562 -9.144531 14.15625 -8.125 C 12.71875 -7.101562 10.957031 -6.582031 8.875 -6.5625 L 8.203125 -6.5625 C 8.347656 -5.351562 8.492188 -4.265625 8.640625 -3.296875 C 8.796875 -2.335938 8.925781 -1.566406 9.03125 -0.984375 C 9.164062 -0.160156 8.820312 0.207031 8 0.125 Z M 7.84375 -11.625 L 8.875 -11.625 C 10.082031 -11.65625 11.039062 -12.1875 11.75 -13.21875 C 12.46875 -14.25 12.828125 -15.6875 12.828125 -17.53125 C 12.828125 -19.675781 12.597656 -21.316406 12.140625 -22.453125 C 11.691406 -23.597656 11.023438 -24.171875 10.140625 -24.171875 C 9.484375 -24.171875 8.992188 -23.804688 8.671875 -23.078125 C 8.359375 -22.347656 8.148438 -21.53125 8.046875 -20.625 C 7.960938 -19.664062 7.890625 -18.660156 7.828125 -17.609375 C 7.773438 -16.566406 7.75 -15.507812 7.75 -14.4375 C 7.75 -13.96875 7.753906 -13.5 7.765625 -13.03125 C 7.785156 -12.5625 7.8125 -12.09375 7.84375 -11.625 Z M 7.84375 -11.625 "/></g></g></g><g fill="#000000" fill-opacity="0.4"><g transform="translate(23.408703, 54.897948)"><g><path d="M 8 0.125 C 7.53125 0.0390625 7.054688 -0.0195312 6.578125 -0.0625 C 6.097656 -0.101562 5.488281 -0.125 4.75 -0.125 C 4.0625 -0.125 3.472656 -0.101562 2.984375 -0.0625 C 2.503906 -0.0195312 2.070312 0.0234375 1.6875 0.078125 C 1.300781 0.140625 1.007812 0.078125 0.8125 -0.109375 C 0.625 -0.304688 0.570312 -0.597656 0.65625 -0.984375 C 0.820312 -1.785156 1 -2.863281 1.1875 -4.21875 C 1.382812 -5.582031 1.554688 -7.144531 1.703125 -8.90625 C 1.859375 -10.664062 1.9375 -12.507812 1.9375 -14.4375 C 1.9375 -16.363281 1.859375 -18.207031 1.703125 -19.96875 C 1.554688 -21.726562 1.382812 -23.300781 1.1875 -24.6875 C 1 -26.070312 0.820312 -27.148438 0.65625 -27.921875 C 0.488281 -28.722656 0.832031 -29.082031 1.6875 -29 C 2.625 -28.882812 3.441406 -28.84375 4.140625 -28.875 C 4.847656 -28.90625 5.566406 -28.957031 6.296875 -29.03125 C 7.023438 -29.113281 7.867188 -29.15625 8.828125 -29.15625 C 12.015625 -29.132812 14.441406 -28.316406 16.109375 -26.703125 C 17.773438 -25.097656 18.609375 -22.769531 18.609375 -19.71875 C 18.609375 -17.875 18.296875 -16.332031 17.671875 -15.09375 C 17.054688 -13.851562 16.171875 -12.890625 15.015625 -12.203125 C 16.140625 -11.492188 17.03125 -10.585938 17.6875 -9.484375 C 18.351562 -8.390625 18.753906 -7.457031 18.890625 -6.6875 C 19.085938 -5.613281 19.328125 -4.566406 19.609375 -3.546875 C 19.898438 -2.523438 20.171875 -1.6875 20.421875 -1.03125 C 20.671875 -0.175781 20.351562 0.207031 19.46875 0.125 C 18.976562 0.0703125 18.441406 0.0234375 17.859375 -0.015625 C 17.285156 -0.0546875 16.640625 -0.078125 15.921875 -0.078125 C 15.265625 -0.078125 14.742188 -0.0625 14.359375 -0.03125 C 13.972656 -0.0078125 13.613281 0.0234375 13.28125 0.078125 C 12.539062 0.191406 12.253906 -0.148438 12.421875 -0.953125 C 12.554688 -1.421875 12.664062 -2.023438 12.75 -2.765625 C 12.832031 -3.503906 12.875 -4.410156 12.875 -5.484375 C 12.875 -6.941406 12.367188 -8.0625 11.359375 -8.84375 C 10.359375 -9.632812 9.1875 -10.125 7.84375 -10.3125 C 7.945312 -8.164062 8.113281 -6.285156 8.34375 -4.671875 C 8.582031 -3.066406 8.785156 -1.835938 8.953125 -0.984375 C 9.117188 -0.160156 8.800781 0.207031 8 0.125 Z M 7.75 -13.234375 L 8.828125 -13.234375 C 10.035156 -13.234375 10.992188 -13.769531 11.703125 -14.84375 C 12.421875 -15.914062 12.78125 -17.539062 12.78125 -19.71875 C 12.78125 -21.3125 12.5625 -22.453125 12.125 -23.140625 C 11.6875 -23.828125 11.023438 -24.171875 10.140625 -24.171875 C 9.617188 -24.171875 9.164062 -23.953125 8.78125 -23.515625 C 8.394531 -23.078125 8.132812 -22.539062 8 -21.90625 C 7.75 -20.582031 7.644531 -19.175781 7.6875 -17.6875 C 7.726562 -16.207031 7.75 -14.722656 7.75 -13.234375 Z M 7.75 -13.234375 "/></g></g></g><g fill="#000000" fill-opacity="0.4"><g transform="translate(45.472269, 54.897948)"><g><path d="M 13.578125 0.046875 C 12.773438 0.179688 12.398438 -0.132812 12.453125 -0.90625 C 12.453125 -1.457031 12.457031 -2.160156 12.46875 -3.015625 C 12.488281 -3.867188 12.484375 -4.800781 12.453125 -5.8125 L 8.578125 -5.8125 C 8.546875 -4.800781 8.535156 -3.875 8.546875 -3.03125 C 8.566406 -2.195312 8.578125 -1.503906 8.578125 -0.953125 C 8.578125 -0.148438 8.207031 0.164062 7.46875 0 C 5.351562 -0.414062 3.25 -0.429688 1.15625 -0.046875 C 0.269531 0.117188 -0.046875 -0.222656 0.203125 -1.078125 C 0.453125 -1.898438 0.769531 -3.019531 1.15625 -4.4375 C 1.539062 -5.851562 1.9375 -7.453125 2.34375 -9.234375 C 2.757812 -11.023438 3.101562 -12.882812 3.375 -14.8125 C 3.707031 -17.007812 3.988281 -19.207031 4.21875 -21.40625 C 4.457031 -23.601562 4.59375 -25.804688 4.625 -28.015625 C 4.625 -28.773438 5.007812 -29.085938 5.78125 -28.953125 C 7.34375 -28.710938 8.90625 -28.597656 10.46875 -28.609375 C 12.039062 -28.617188 13.625 -28.734375 15.21875 -28.953125 C 16.019531 -29.085938 16.421875 -28.773438 16.421875 -28.015625 C 16.472656 -25.804688 16.609375 -23.601562 16.828125 -21.40625 C 17.046875 -19.207031 17.320312 -17.007812 17.65625 -14.8125 C 17.957031 -12.914062 18.304688 -11.070312 18.703125 -9.28125 C 19.109375 -7.488281 19.5 -5.882812 19.875 -4.46875 C 20.257812 -3.050781 20.578125 -1.929688 20.828125 -1.109375 C 21.109375 -0.234375 20.765625 0.117188 19.796875 -0.046875 C 18.753906 -0.234375 17.71875 -0.316406 16.6875 -0.296875 C 15.65625 -0.285156 14.617188 -0.171875 13.578125 0.046875 Z M 8.78125 -10.390625 L 12.25 -10.390625 C 12.21875 -10.941406 12.175781 -11.492188 12.125 -12.046875 C 12.070312 -12.597656 12.019531 -13.144531 11.96875 -13.6875 C 11.738281 -15.59375 11.492188 -17.351562 11.234375 -18.96875 C 10.972656 -20.59375 10.734375 -22.148438 10.515625 -23.640625 C 10.265625 -22.066406 10.007812 -20.398438 9.75 -18.640625 C 9.488281 -16.878906 9.265625 -15.226562 9.078125 -13.6875 C 9.023438 -13.195312 8.976562 -12.640625 8.9375 -12.015625 C 8.894531 -11.398438 8.84375 -10.859375 8.78125 -10.390625 Z M 8.78125 -10.390625 "/></g></g></g><g fill="#000000" fill-opacity="0.4"><g transform="translate(67.742038, 54.897948)"><g><path d="M 10.5625 0.625 C 7.425781 0.625 4.976562 -0.601562 3.21875 -3.0625 C 1.457031 -5.53125 0.578125 -9.335938 0.578125 -14.484375 C 0.578125 -19.179688 1.457031 -22.859375 3.21875 -25.515625 C 4.976562 -28.171875 7.425781 -29.5 10.5625 -29.5 C 11.414062 -29.5 12.128906 -29.457031 12.703125 -29.375 C 13.285156 -29.289062 13.828125 -29.207031 14.328125 -29.125 C 14.835938 -29.039062 15.394531 -29.015625 16 -29.046875 C 16.769531 -29.097656 17.113281 -28.753906 17.03125 -28.015625 C 16.925781 -26.992188 16.84375 -25.894531 16.78125 -24.71875 C 16.726562 -23.550781 16.71875 -22.4375 16.75 -21.375 C 16.769531 -20.90625 16.671875 -20.640625 16.453125 -20.578125 C 16.234375 -20.523438 15.972656 -20.691406 15.671875 -21.078125 C 14.273438 -22.835938 12.898438 -23.71875 11.546875 -23.71875 C 10.285156 -23.71875 9.25 -22.863281 8.4375 -21.15625 C 7.625 -19.457031 7.21875 -17.175781 7.21875 -14.3125 C 7.21875 -12.601562 7.398438 -11.054688 7.765625 -9.671875 C 8.140625 -8.285156 8.65625 -7.1875 9.3125 -6.375 C 9.976562 -5.5625 10.722656 -5.15625 11.546875 -5.15625 C 12.265625 -5.15625 12.957031 -5.359375 13.625 -5.765625 C 14.300781 -6.179688 15.039062 -6.925781 15.84375 -8 C 16.144531 -8.382812 16.375 -8.554688 16.53125 -8.515625 C 16.695312 -8.472656 16.769531 -8.21875 16.75 -7.75 C 16.71875 -6.65625 16.734375 -5.5 16.796875 -4.28125 C 16.867188 -3.070312 16.945312 -1.929688 17.03125 -0.859375 C 17.113281 -0.117188 16.757812 0.222656 15.96875 0.171875 C 15.382812 0.140625 14.835938 0.164062 14.328125 0.25 C 13.828125 0.332031 13.285156 0.414062 12.703125 0.5 C 12.128906 0.582031 11.414062 0.625 10.5625 0.625 Z M 10.5625 0.625 "/></g></g></g><g fill="#000000" fill-opacity="0.4"><g transform="translate(86.671401, 54.897948)"><g><path d="M 7.421875 0.078125 C 6.566406 0.210938 6.210938 -0.128906 6.359375 -0.953125 C 6.429688 -1.742188 6.535156 -2.828125 6.671875 -4.203125 C 6.816406 -5.578125 6.957031 -7.144531 7.09375 -8.90625 C 7.226562 -10.664062 7.328125 -12.507812 7.390625 -14.4375 C 7.441406 -16.226562 7.414062 -17.910156 7.3125 -19.484375 C 7.21875 -21.066406 7.101562 -22.476562 6.96875 -23.71875 C 6.28125 -23.769531 5.492188 -23.710938 4.609375 -23.546875 C 3.734375 -23.390625 2.757812 -23.085938 1.6875 -22.640625 C 1.332031 -22.503906 1.035156 -22.507812 0.796875 -22.65625 C 0.566406 -22.8125 0.46875 -23.097656 0.5 -23.515625 C 0.550781 -24.503906 0.582031 -25.300781 0.59375 -25.90625 C 0.613281 -26.507812 0.59375 -27.179688 0.53125 -27.921875 C 0.507812 -28.304688 0.59375 -28.59375 0.78125 -28.78125 C 0.976562 -28.976562 1.253906 -29.050781 1.609375 -29 C 2.429688 -28.882812 3.164062 -28.820312 3.8125 -28.8125 C 4.457031 -28.800781 5.25 -28.796875 6.1875 -28.796875 L 14.3125 -28.796875 C 15.269531 -28.796875 16.066406 -28.800781 16.703125 -28.8125 C 17.335938 -28.820312 18.066406 -28.882812 18.890625 -29 C 19.242188 -29.050781 19.523438 -28.988281 19.734375 -28.8125 C 19.941406 -28.632812 20.019531 -28.351562 19.96875 -27.96875 C 19.9375 -27.25 19.910156 -26.53125 19.890625 -25.8125 C 19.878906 -25.101562 19.90625 -24.320312 19.96875 -23.46875 C 19.988281 -23.082031 19.890625 -22.8125 19.671875 -22.65625 C 19.453125 -22.507812 19.148438 -22.503906 18.765625 -22.640625 C 16.679688 -23.472656 14.960938 -23.832031 13.609375 -23.71875 C 13.472656 -22.476562 13.347656 -21.066406 13.234375 -19.484375 C 13.128906 -17.910156 13.078125 -16.226562 13.078125 -14.4375 C 13.078125 -12.507812 13.140625 -10.664062 13.265625 -8.90625 C 13.390625 -7.144531 13.53125 -5.578125 13.6875 -4.203125 C 13.851562 -2.828125 13.992188 -1.742188 14.109375 -0.953125 C 14.242188 -0.128906 13.898438 0.210938 13.078125 0.078125 C 12.660156 0.0234375 12.234375 -0.0195312 11.796875 -0.0625 C 11.359375 -0.101562 10.804688 -0.125 10.140625 -0.125 C 9.515625 -0.125 8.992188 -0.101562 8.578125 -0.0625 C 8.171875 -0.0195312 7.785156 0.0234375 7.421875 0.078125 Z M 7.421875 0.078125 "/></g></g></g><g fill="#000000" fill-opacity="0.4"><g transform="translate(108.405044, 54.897948)"><g><path d="M 7.75 0.125 C 7.3125 0.0390625 6.863281 -0.0195312 6.40625 -0.0625 C 5.957031 -0.101562 5.390625 -0.125 4.703125 -0.125 C 4.066406 -0.125 3.519531 -0.101562 3.0625 -0.0625 C 2.613281 -0.0195312 2.195312 0.0234375 1.8125 0.078125 C 0.988281 0.210938 0.644531 -0.140625 0.78125 -0.984375 C 0.914062 -1.753906 1.066406 -2.828125 1.234375 -4.203125 C 1.398438 -5.578125 1.550781 -7.144531 1.6875 -8.90625 C 1.820312 -10.664062 1.890625 -12.507812 1.890625 -14.4375 C 1.890625 -16.363281 1.820312 -18.207031 1.6875 -19.96875 C 1.550781 -21.726562 1.398438 -23.296875 1.234375 -24.671875 C 1.066406 -26.046875 0.914062 -27.117188 0.78125 -27.890625 C 0.644531 -28.734375 0.988281 -29.085938 1.8125 -28.953125 C 2.195312 -28.898438 2.613281 -28.851562 3.0625 -28.8125 C 3.519531 -28.769531 4.066406 -28.75 4.703125 -28.75 C 5.390625 -28.75 5.957031 -28.769531 6.40625 -28.8125 C 6.863281 -28.851562 7.3125 -28.914062 7.75 -29 C 8.582031 -29.082031 8.925781 -28.722656 8.78125 -27.921875 C 8.675781 -27.148438 8.53125 -26.078125 8.34375 -24.703125 C 8.164062 -23.328125 8.007812 -21.757812 7.875 -20 C 7.738281 -18.238281 7.671875 -16.382812 7.671875 -14.4375 C 7.671875 -12.507812 7.738281 -10.664062 7.875 -8.90625 C 8.007812 -7.144531 8.164062 -5.578125 8.34375 -4.203125 C 8.53125 -2.828125 8.675781 -1.742188 8.78125 -0.953125 C 8.925781 -0.148438 8.582031 0.207031 7.75 0.125 Z M 7.75 0.125 "/></g></g></g><g fill="#000000" fill-opacity="0.4"><g transform="translate(119.210204, 54.897948)"><g><path d="M 10.5625 0.625 C 7.425781 0.625 4.976562 -0.601562 3.21875 -3.0625 C 1.457031 -5.53125 0.578125 -9.335938 0.578125 -14.484375 C 0.578125 -19.179688 1.457031 -22.859375 3.21875 -25.515625 C 4.976562 -28.171875 7.425781 -29.5 10.5625 -29.5 C 11.414062 -29.5 12.128906 -29.457031 12.703125 -29.375 C 13.285156 -29.289062 13.828125 -29.207031 14.328125 -29.125 C 14.835938 -29.039062 15.394531 -29.015625 16 -29.046875 C 16.769531 -29.097656 17.113281 -28.753906 17.03125 -28.015625 C 16.925781 -26.992188 16.84375 -25.894531 16.78125 -24.71875 C 16.726562 -23.550781 16.71875 -22.4375 16.75 -21.375 C 16.769531 -20.90625 16.671875 -20.640625 16.453125 -20.578125 C 16.234375 -20.523438 15.972656 -20.691406 15.671875 -21.078125 C 14.273438 -22.835938 12.898438 -23.71875 11.546875 -23.71875 C 10.285156 -23.71875 9.25 -22.863281 8.4375 -21.15625 C 7.625 -19.457031 7.21875 -17.175781 7.21875 -14.3125 C 7.21875 -12.601562 7.398438 -11.054688 7.765625 -9.671875 C 8.140625 -8.285156 8.65625 -7.1875 9.3125 -6.375 C 9.976562 -5.5625 10.722656 -5.15625 11.546875 -5.15625 C 12.265625 -5.15625 12.957031 -5.359375 13.625 -5.765625 C 14.300781 -6.179688 15.039062 -6.925781 15.84375 -8 C 16.144531 -8.382812 16.375 -8.554688 16.53125 -8.515625 C 16.695312 -8.472656 16.769531 -8.21875 16.75 -7.75 C 16.71875 -6.65625 16.734375 -5.5 16.796875 -4.28125 C 16.867188 -3.070312 16.945312 -1.929688 17.03125 -0.859375 C 17.113281 -0.117188 16.757812 0.222656 15.96875 0.171875 C 15.382812 0.140625 14.835938 0.164062 14.328125 0.25 C 13.828125 0.332031 13.285156 0.414062 12.703125 0.5 C 12.128906 0.582031 11.414062 0.625 10.5625 0.625 Z M 10.5625 0.625 "/></g></g></g><g fill="#000000" fill-opacity="0.4"><g transform="translate(138.139567, 54.897948)"><g><path d="M 1.6875 0.125 C 0.863281 0.207031 0.535156 -0.148438 0.703125 -0.953125 C 0.835938 -1.742188 1.007812 -2.828125 1.21875 -4.203125 C 1.425781 -5.578125 1.601562 -7.144531 1.75 -8.90625 C 1.90625 -10.664062 1.984375 -12.507812 1.984375 -14.4375 C 1.984375 -16.363281 1.90625 -18.207031 1.75 -19.96875 C 1.601562 -21.726562 1.425781 -23.300781 1.21875 -24.6875 C 1.007812 -26.070312 0.835938 -27.148438 0.703125 -27.921875 C 0.535156 -28.722656 0.863281 -29.082031 1.6875 -29 C 2.757812 -28.882812 3.941406 -28.789062 5.234375 -28.71875 C 6.523438 -28.65625 7.820312 -28.625 9.125 -28.625 C 10.4375 -28.625 11.679688 -28.65625 12.859375 -28.71875 C 14.046875 -28.789062 15.066406 -28.898438 15.921875 -29.046875 C 16.660156 -29.179688 16.988281 -28.804688 16.90625 -27.921875 C 16.851562 -26.992188 16.828125 -26.125 16.828125 -25.3125 C 16.828125 -24.5 16.851562 -23.5 16.90625 -22.3125 C 16.90625 -21.375 16.492188 -21.171875 15.671875 -21.703125 C 14.734375 -22.390625 13.796875 -22.847656 12.859375 -23.078125 C 11.929688 -23.316406 11.082031 -23.4375 10.3125 -23.4375 C 9.539062 -23.4375 8.910156 -23.421875 8.421875 -23.390625 C 8.421875 -23.390625 8.382812 -23.046875 8.3125 -22.359375 C 8.238281 -21.671875 8.160156 -20.820312 8.078125 -19.8125 C 8.003906 -18.8125 7.925781 -17.816406 7.84375 -16.828125 C 8.632812 -16.828125 9.445312 -16.9375 10.28125 -17.15625 C 11.125 -17.375 11.847656 -17.625 12.453125 -17.90625 C 12.816406 -18.039062 13.078125 -18.066406 13.234375 -17.984375 C 13.398438 -17.898438 13.457031 -17.65625 13.40625 -17.25 C 13.375 -16.863281 13.351562 -16.46875 13.34375 -16.0625 C 13.332031 -15.664062 13.328125 -15.25 13.328125 -14.8125 C 13.328125 -14.425781 13.328125 -14.03125 13.328125 -13.625 C 13.328125 -13.226562 13.335938 -12.835938 13.359375 -12.453125 C 13.441406 -11.679688 13.113281 -11.460938 12.375 -11.796875 C 11.769531 -12.046875 11.039062 -12.265625 10.1875 -12.453125 C 9.332031 -12.648438 8.535156 -12.75 7.796875 -12.75 C 7.847656 -12 7.90625 -11.203125 7.96875 -10.359375 C 8.039062 -9.523438 8.113281 -8.738281 8.1875 -8 C 8.257812 -7.257812 8.316406 -6.65625 8.359375 -6.1875 C 8.398438 -5.71875 8.421875 -5.484375 8.421875 -5.484375 C 8.910156 -5.453125 9.582031 -5.457031 10.4375 -5.5 C 11.289062 -5.539062 12.234375 -5.707031 13.265625 -6 C 14.296875 -6.289062 15.289062 -6.804688 16.25 -7.546875 C 16.914062 -7.984375 17.234375 -7.816406 17.203125 -7.046875 C 17.148438 -6.054688 17.128906 -5.003906 17.140625 -3.890625 C 17.148438 -2.785156 17.210938 -1.789062 17.328125 -0.90625 C 17.410156 -0.132812 17.066406 0.207031 16.296875 0.125 C 15.140625 -0.0078125 13.914062 -0.0976562 12.625 -0.140625 C 11.332031 -0.179688 10.066406 -0.203125 8.828125 -0.203125 C 6.109375 -0.203125 3.726562 -0.09375 1.6875 0.125 Z M 1.6875 0.125 "/></g></g></g><g fill="#000000" fill-opacity="0.4"><g transform="translate(157.440082, 54.897948)"><g><path d="M 9.28125 0.28125 C 8.238281 0.28125 7.335938 0.238281 6.578125 0.15625 C 5.816406 0.0820312 5.066406 0.0234375 4.328125 -0.015625 C 3.585938 -0.0546875 2.707031 -0.0078125 1.6875 0.125 C 1.332031 0.15625 1.050781 0.0820312 0.84375 -0.09375 C 0.632812 -0.28125 0.585938 -0.566406 0.703125 -0.953125 C 0.835938 -1.742188 1 -2.828125 1.1875 -4.203125 C 1.382812 -5.578125 1.554688 -7.144531 1.703125 -8.90625 C 1.859375 -10.664062 1.9375 -12.507812 1.9375 -14.4375 C 1.9375 -16.363281 1.859375 -18.207031 1.703125 -19.96875 C 1.554688 -21.726562 1.382812 -23.300781 1.1875 -24.6875 C 1 -26.070312 0.835938 -27.148438 0.703125 -27.921875 C 0.585938 -28.304688 0.632812 -28.59375 0.84375 -28.78125 C 1.050781 -28.976562 1.332031 -29.050781 1.6875 -29 C 2.738281 -28.882812 3.617188 -28.84375 4.328125 -28.875 C 5.046875 -28.90625 5.773438 -28.957031 6.515625 -29.03125 C 7.253906 -29.113281 8.175781 -29.15625 9.28125 -29.15625 C 12.414062 -29.15625 14.875 -27.910156 16.65625 -25.421875 C 18.445312 -22.941406 19.34375 -19.40625 19.34375 -14.8125 C 19.34375 -11.757812 18.9375 -9.097656 18.125 -6.828125 C 17.3125 -4.554688 16.15625 -2.800781 14.65625 -1.5625 C 13.164062 -0.332031 11.375 0.28125 9.28125 0.28125 Z M 7.796875 -4.75 L 9.28125 -4.75 C 10.488281 -4.75 11.503906 -5.53125 12.328125 -7.09375 C 13.160156 -8.664062 13.578125 -11.238281 13.578125 -14.8125 C 13.578125 -17.226562 13.410156 -19.109375 13.078125 -20.453125 C 12.742188 -21.804688 12.320312 -22.765625 11.8125 -23.328125 C 11.3125 -23.890625 10.753906 -24.171875 10.140625 -24.171875 C 9.453125 -24.171875 8.957031 -23.804688 8.65625 -23.078125 C 8.351562 -22.347656 8.148438 -21.53125 8.046875 -20.625 C 7.960938 -19.664062 7.890625 -18.660156 7.828125 -17.609375 C 7.773438 -16.566406 7.75 -15.507812 7.75 -14.4375 C 7.75 -12.625 7.753906 -10.890625 7.765625 -9.234375 C 7.785156 -7.585938 7.796875 -6.09375 7.796875 -4.75 Z M 7.796875 -4.75 "/></g></g></g><g fill="#fff6ea" fill-opacity="1"><g transform="translate(1.501503, 53.074806)"><g><path d="M 8 0.125 C 7.5625 0.0390625 7.09375 -0.0195312 6.59375 -0.0625 C 6.101562 -0.101562 5.5 -0.125 4.78125 -0.125 C 4.09375 -0.125 3.507812 -0.101562 3.03125 -0.0625 C 2.550781 -0.0195312 2.101562 0.0234375 1.6875 0.078125 C 1.332031 0.140625 1.054688 0.078125 0.859375 -0.109375 C 0.671875 -0.304688 0.617188 -0.597656 0.703125 -0.984375 C 0.835938 -1.785156 1 -2.863281 1.1875 -4.21875 C 1.382812 -5.582031 1.554688 -7.144531 1.703125 -8.90625 C 1.859375 -10.664062 1.9375 -12.507812 1.9375 -14.4375 C 1.9375 -16.363281 1.859375 -18.207031 1.703125 -19.96875 C 1.554688 -21.726562 1.382812 -23.300781 1.1875 -24.6875 C 1 -26.070312 0.835938 -27.148438 0.703125 -27.921875 C 0.535156 -28.722656 0.863281 -29.082031 1.6875 -29 C 2.625 -28.882812 3.441406 -28.84375 4.140625 -28.875 C 4.847656 -28.90625 5.578125 -28.957031 6.328125 -29.03125 C 7.085938 -29.113281 7.988281 -29.15625 9.03125 -29.15625 C 11.394531 -29.15625 13.273438 -28.71875 14.671875 -27.84375 C 16.078125 -26.96875 17.082031 -25.6875 17.6875 -24 C 18.300781 -22.320312 18.609375 -20.289062 18.609375 -17.90625 C 18.609375 -15.8125 18.226562 -13.910156 17.46875 -12.203125 C 16.707031 -10.503906 15.601562 -9.144531 14.15625 -8.125 C 12.71875 -7.101562 10.957031 -6.582031 8.875 -6.5625 L 8.203125 -6.5625 C 8.347656 -5.351562 8.492188 -4.265625 8.640625 -3.296875 C 8.796875 -2.335938 8.925781 -1.566406 9.03125 -0.984375 C 9.164062 -0.160156 8.820312 0.207031 8 0.125 Z M 7.84375 -11.625 L 8.875 -11.625 C 10.082031 -11.65625 11.039062 -12.1875 11.75 -13.21875 C 12.46875 -14.25 12.828125 -15.6875 12.828125 -17.53125 C 12.828125 -19.675781 12.597656 -21.316406 12.140625 -22.453125 C 11.691406 -23.597656 11.023438 -24.171875 10.140625 -24.171875 C 9.484375 -24.171875 8.992188 -23.804688 8.671875 -23.078125 C 8.359375 -22.347656 8.148438 -21.53125 8.046875 -20.625 C 7.960938 -19.664062 7.890625 -18.660156 7.828125 -17.609375 C 7.773438 -16.566406 7.75 -15.507812 7.75 -14.4375 C 7.75 -13.96875 7.753906 -13.5 7.765625 -13.03125 C 7.785156 -12.5625 7.8125 -12.09375 7.84375 -11.625 Z M 7.84375 -11.625 "/></g></g></g><g fill="#fff6ea" fill-opacity="1"><g transform="translate(21.585565, 53.074806)"><g><path d="M 8 0.125 C 7.53125 0.0390625 7.054688 -0.0195312 6.578125 -0.0625 C 6.097656 -0.101562 5.488281 -0.125 4.75 -0.125 C 4.0625 -0.125 3.472656 -0.101562 2.984375 -0.0625 C 2.503906 -0.0195312 2.070312 0.0234375 1.6875 0.078125 C 1.300781 0.140625 1.007812 0.078125 0.8125 -0.109375 C 0.625 -0.304688 0.570312 -0.597656 0.65625 -0.984375 C 0.820312 -1.785156 1 -2.863281 1.1875 -4.21875 C 1.382812 -5.582031 1.554688 -7.144531 1.703125 -8.90625 C 1.859375 -10.664062 1.9375 -12.507812 1.9375 -14.4375 C 1.9375 -16.363281 1.859375 -18.207031 1.703125 -19.96875 C 1.554688 -21.726562 1.382812 -23.300781 1.1875 -24.6875 C 1 -26.070312 0.820312 -27.148438 0.65625 -27.921875 C 0.488281 -28.722656 0.832031 -29.082031 1.6875 -29 C 2.625 -28.882812 3.441406 -28.84375 4.140625 -28.875 C 4.847656 -28.90625 5.566406 -28.957031 6.296875 -29.03125 C 7.023438 -29.113281 7.867188 -29.15625 8.828125 -29.15625 C 12.015625 -29.132812 14.441406 -28.316406 16.109375 -26.703125 C 17.773438 -25.097656 18.609375 -22.769531 18.609375 -19.71875 C 18.609375 -17.875 18.296875 -16.332031 17.671875 -15.09375 C 17.054688 -13.851562 16.171875 -12.890625 15.015625 -12.203125 C 16.140625 -11.492188 17.03125 -10.585938 17.6875 -9.484375 C 18.351562 -8.390625 18.753906 -7.457031 18.890625 -6.6875 C 19.085938 -5.613281 19.328125 -4.566406 19.609375 -3.546875 C 19.898438 -2.523438 20.171875 -1.6875 20.421875 -1.03125 C 20.671875 -0.175781 20.351562 0.207031 19.46875 0.125 C 18.976562 0.0703125 18.441406 0.0234375 17.859375 -0.015625 C 17.285156 -0.0546875 16.640625 -0.078125 15.921875 -0.078125 C 15.265625 -0.078125 14.742188 -0.0625 14.359375 -0.03125 C 13.972656 -0.0078125 13.613281 0.0234375 13.28125 0.078125 C 12.539062 0.191406 12.253906 -0.148438 12.421875 -0.953125 C 12.554688 -1.421875 12.664062 -2.023438 12.75 -2.765625 C 12.832031 -3.503906 12.875 -4.410156 12.875 -5.484375 C 12.875 -6.941406 12.367188 -8.0625 11.359375 -8.84375 C 10.359375 -9.632812 9.1875 -10.125 7.84375 -10.3125 C 7.945312 -8.164062 8.113281 -6.285156 8.34375 -4.671875 C 8.582031 -3.066406 8.785156 -1.835938 8.953125 -0.984375 C 9.117188 -0.160156 8.800781 0.207031 8 0.125 Z M 7.75 -13.234375 L 8.828125 -13.234375 C 10.035156 -13.234375 10.992188 -13.769531 11.703125 -14.84375 C 12.421875 -15.914062 12.78125 -17.539062 12.78125 -19.71875 C 12.78125 -21.3125 12.5625 -22.453125 12.125 -23.140625 C 11.6875 -23.828125 11.023438 -24.171875 10.140625 -24.171875 C 9.617188 -24.171875 9.164062 -23.953125 8.78125 -23.515625 C 8.394531 -23.078125 8.132812 -22.539062 8 -21.90625 C 7.75 -20.582031 7.644531 -19.175781 7.6875 -17.6875 C 7.726562 -16.207031 7.75 -14.722656 7.75 -13.234375 Z M 7.75 -13.234375 "/></g></g></g><g fill="#fff6ea" fill-opacity="1"><g transform="translate(43.64913, 53.074806)"><g><path d="M 13.578125 0.046875 C 12.773438 0.179688 12.398438 -0.132812 12.453125 -0.90625 C 12.453125 -1.457031 12.457031 -2.160156 12.46875 -3.015625 C 12.488281 -3.867188 12.484375 -4.800781 12.453125 -5.8125 L 8.578125 -5.8125 C 8.546875 -4.800781 8.535156 -3.875 8.546875 -3.03125 C 8.566406 -2.195312 8.578125 -1.503906 8.578125 -0.953125 C 8.578125 -0.148438 8.207031 0.164062 7.46875 0 C 5.351562 -0.414062 3.25 -0.429688 1.15625 -0.046875 C 0.269531 0.117188 -0.046875 -0.222656 0.203125 -1.078125 C 0.453125 -1.898438 0.769531 -3.019531 1.15625 -4.4375 C 1.539062 -5.851562 1.9375 -7.453125 2.34375 -9.234375 C 2.757812 -11.023438 3.101562 -12.882812 3.375 -14.8125 C 3.707031 -17.007812 3.988281 -19.207031 4.21875 -21.40625 C 4.457031 -23.601562 4.59375 -25.804688 4.625 -28.015625 C 4.625 -28.773438 5.007812 -29.085938 5.78125 -28.953125 C 7.34375 -28.710938 8.90625 -28.597656 10.46875 -28.609375 C 12.039062 -28.617188 13.625 -28.734375 15.21875 -28.953125 C 16.019531 -29.085938 16.421875 -28.773438 16.421875 -28.015625 C 16.472656 -25.804688 16.609375 -23.601562 16.828125 -21.40625 C 17.046875 -19.207031 17.320312 -17.007812 17.65625 -14.8125 C 17.957031 -12.914062 18.304688 -11.070312 18.703125 -9.28125 C 19.109375 -7.488281 19.5 -5.882812 19.875 -4.46875 C 20.257812 -3.050781 20.578125 -1.929688 20.828125 -1.109375 C 21.109375 -0.234375 20.765625 0.117188 19.796875 -0.046875 C 18.753906 -0.234375 17.71875 -0.316406 16.6875 -0.296875 C 15.65625 -0.285156 14.617188 -0.171875 13.578125 0.046875 Z M 8.78125 -10.390625 L 12.25 -10.390625 C 12.21875 -10.941406 12.175781 -11.492188 12.125 -12.046875 C 12.070312 -12.597656 12.019531 -13.144531 11.96875 -13.6875 C 11.738281 -15.59375 11.492188 -17.351562 11.234375 -18.96875 C 10.972656 -20.59375 10.734375 -22.148438 10.515625 -23.640625 C 10.265625 -22.066406 10.007812 -20.398438 9.75 -18.640625 C 9.488281 -16.878906 9.265625 -15.226562 9.078125 -13.6875 C 9.023438 -13.195312 8.976562 -12.640625 8.9375 -12.015625 C 8.894531 -11.398438 8.84375 -10.859375 8.78125 -10.390625 Z M 8.78125 -10.390625 "/></g></g></g><g fill="#fff6ea" fill-opacity="1"><g transform="translate(65.9189, 53.074806)"><g><path d="M 10.5625 0.625 C 7.425781 0.625 4.976562 -0.601562 3.21875 -3.0625 C 1.457031 -5.53125 0.578125 -9.335938 0.578125 -14.484375 C 0.578125 -19.179688 1.457031 -22.859375 3.21875 -25.515625 C 4.976562 -28.171875 7.425781 -29.5 10.5625 -29.5 C 11.414062 -29.5 12.128906 -29.457031 12.703125 -29.375 C 13.285156 -29.289062 13.828125 -29.207031 14.328125 -29.125 C 14.835938 -29.039062 15.394531 -29.015625 16 -29.046875 C 16.769531 -29.097656 17.113281 -28.753906 17.03125 -28.015625 C 16.925781 -26.992188 16.84375 -25.894531 16.78125 -24.71875 C 16.726562 -23.550781 16.71875 -22.4375 16.75 -21.375 C 16.769531 -20.90625 16.671875 -20.640625 16.453125 -20.578125 C 16.234375 -20.523438 15.972656 -20.691406 15.671875 -21.078125 C 14.273438 -22.835938 12.898438 -23.71875 11.546875 -23.71875 C 10.285156 -23.71875 9.25 -22.863281 8.4375 -21.15625 C 7.625 -19.457031 7.21875 -17.175781 7.21875 -14.3125 C 7.21875 -12.601562 7.398438 -11.054688 7.765625 -9.671875 C 8.140625 -8.285156 8.65625 -7.1875 9.3125 -6.375 C 9.976562 -5.5625 10.722656 -5.15625 11.546875 -5.15625 C 12.265625 -5.15625 12.957031 -5.359375 13.625 -5.765625 C 14.300781 -6.179688 15.039062 -6.925781 15.84375 -8 C 16.144531 -8.382812 16.375 -8.554688 16.53125 -8.515625 C 16.695312 -8.472656 16.769531 -8.21875 16.75 -7.75 C 16.71875 -6.65625 16.734375 -5.5 16.796875 -4.28125 C 16.867188 -3.070312 16.945312 -1.929688 17.03125 -0.859375 C 17.113281 -0.117188 16.757812 0.222656 15.96875 0.171875 C 15.382812 0.140625 14.835938 0.164062 14.328125 0.25 C 13.828125 0.332031 13.285156 0.414062 12.703125 0.5 C 12.128906 0.582031 11.414062 0.625 10.5625 0.625 Z M 10.5625 0.625 "/></g></g></g><g fill="#fff6ea" fill-opacity="1"><g transform="translate(84.848262, 53.074806)"><g><path d="M 7.421875 0.078125 C 6.566406 0.210938 6.210938 -0.128906 6.359375 -0.953125 C 6.429688 -1.742188 6.535156 -2.828125 6.671875 -4.203125 C 6.816406 -5.578125 6.957031 -7.144531 7.09375 -8.90625 C 7.226562 -10.664062 7.328125 -12.507812 7.390625 -14.4375 C 7.441406 -16.226562 7.414062 -17.910156 7.3125 -19.484375 C 7.21875 -21.066406 7.101562 -22.476562 6.96875 -23.71875 C 6.28125 -23.769531 5.492188 -23.710938 4.609375 -23.546875 C 3.734375 -23.390625 2.757812 -23.085938 1.6875 -22.640625 C 1.332031 -22.503906 1.035156 -22.507812 0.796875 -22.65625 C 0.566406 -22.8125 0.46875 -23.097656 0.5 -23.515625 C 0.550781 -24.503906 0.582031 -25.300781 0.59375 -25.90625 C 0.613281 -26.507812 0.59375 -27.179688 0.53125 -27.921875 C 0.507812 -28.304688 0.59375 -28.59375 0.78125 -28.78125 C 0.976562 -28.976562 1.253906 -29.050781 1.609375 -29 C 2.429688 -28.882812 3.164062 -28.820312 3.8125 -28.8125 C 4.457031 -28.800781 5.25 -28.796875 6.1875 -28.796875 L 14.3125 -28.796875 C 15.269531 -28.796875 16.066406 -28.800781 16.703125 -28.8125 C 17.335938 -28.820312 18.066406 -28.882812 18.890625 -29 C 19.242188 -29.050781 19.523438 -28.988281 19.734375 -28.8125 C 19.941406 -28.632812 20.019531 -28.351562 19.96875 -27.96875 C 19.9375 -27.25 19.910156 -26.53125 19.890625 -25.8125 C 19.878906 -25.101562 19.90625 -24.320312 19.96875 -23.46875 C 19.988281 -23.082031 19.890625 -22.8125 19.671875 -22.65625 C 19.453125 -22.507812 19.148438 -22.503906 18.765625 -22.640625 C 16.679688 -23.472656 14.960938 -23.832031 13.609375 -23.71875 C 13.472656 -22.476562 13.347656 -21.066406 13.234375 -19.484375 C 13.128906 -17.910156 13.078125 -16.226562 13.078125 -14.4375 C 13.078125 -12.507812 13.140625 -10.664062 13.265625 -8.90625 C 13.390625 -7.144531 13.53125 -5.578125 13.6875 -4.203125 C 13.851562 -2.828125 13.992188 -1.742188 14.109375 -0.953125 C 14.242188 -0.128906 13.898438 0.210938 13.078125 0.078125 C 12.660156 0.0234375 12.234375 -0.0195312 11.796875 -0.0625 C 11.359375 -0.101562 10.804688 -0.125 10.140625 -0.125 C 9.515625 -0.125 8.992188 -0.101562 8.578125 -0.0625 C 8.171875 -0.0195312 7.785156 0.0234375 7.421875 0.078125 Z M 7.421875 0.078125 "/></g></g></g><g fill="#fff6ea" fill-opacity="1"><g transform="translate(106.581906, 53.074806)"><g><path d="M 7.75 0.125 C 7.3125 0.0390625 6.863281 -0.0195312 6.40625 -0.0625 C 5.957031 -0.101562 5.390625 -0.125 4.703125 -0.125 C 4.066406 -0.125 3.519531 -0.101562 3.0625 -0.0625 C 2.613281 -0.0195312 2.195312 0.0234375 1.8125 0.078125 C 0.988281 0.210938 0.644531 -0.140625 0.78125 -0.984375 C 0.914062 -1.753906 1.066406 -2.828125 1.234375 -4.203125 C 1.398438 -5.578125 1.550781 -7.144531 1.6875 -8.90625 C 1.820312 -10.664062 1.890625 -12.507812 1.890625 -14.4375 C 1.890625 -16.363281 1.820312 -18.207031 1.6875 -19.96875 C 1.550781 -21.726562 1.398438 -23.296875 1.234375 -24.671875 C 1.066406 -26.046875 0.914062 -27.117188 0.78125 -27.890625 C 0.644531 -28.734375 0.988281 -29.085938 1.8125 -28.953125 C 2.195312 -28.898438 2.613281 -28.851562 3.0625 -28.8125 C 3.519531 -28.769531 4.066406 -28.75 4.703125 -28.75 C 5.390625 -28.75 5.957031 -28.769531 6.40625 -28.8125 C 6.863281 -28.851562 7.3125 -28.914062 7.75 -29 C 8.582031 -29.082031 8.925781 -28.722656 8.78125 -27.921875 C 8.675781 -27.148438 8.53125 -26.078125 8.34375 -24.703125 C 8.164062 -23.328125 8.007812 -21.757812 7.875 -20 C 7.738281 -18.238281 7.671875 -16.382812 7.671875 -14.4375 C 7.671875 -12.507812 7.738281 -10.664062 7.875 -8.90625 C 8.007812 -7.144531 8.164062 -5.578125 8.34375 -4.203125 C 8.53125 -2.828125 8.675781 -1.742188 8.78125 -0.953125 C 8.925781 -0.148438 8.582031 0.207031 7.75 0.125 Z M 7.75 0.125 "/></g></g></g><g fill="#fff6ea" fill-opacity="1"><g transform="translate(117.387066, 53.074806)"><g><path d="M 10.5625 0.625 C 7.425781 0.625 4.976562 -0.601562 3.21875 -3.0625 C 1.457031 -5.53125 0.578125 -9.335938 0.578125 -14.484375 C 0.578125 -19.179688 1.457031 -22.859375 3.21875 -25.515625 C 4.976562 -28.171875 7.425781 -29.5 10.5625 -29.5 C 11.414062 -29.5 12.128906 -29.457031 12.703125 -29.375 C 13.285156 -29.289062 13.828125 -29.207031 14.328125 -29.125 C 14.835938 -29.039062 15.394531 -29.015625 16 -29.046875 C 16.769531 -29.097656 17.113281 -28.753906 17.03125 -28.015625 C 16.925781 -26.992188 16.84375 -25.894531 16.78125 -24.71875 C 16.726562 -23.550781 16.71875 -22.4375 16.75 -21.375 C 16.769531 -20.90625 16.671875 -20.640625 16.453125 -20.578125 C 16.234375 -20.523438 15.972656 -20.691406 15.671875 -21.078125 C 14.273438 -22.835938 12.898438 -23.71875 11.546875 -23.71875 C 10.285156 -23.71875 9.25 -22.863281 8.4375 -21.15625 C 7.625 -19.457031 7.21875 -17.175781 7.21875 -14.3125 C 7.21875 -12.601562 7.398438 -11.054688 7.765625 -9.671875 C 8.140625 -8.285156 8.65625 -7.1875 9.3125 -6.375 C 9.976562 -5.5625 10.722656 -5.15625 11.546875 -5.15625 C 12.265625 -5.15625 12.957031 -5.359375 13.625 -5.765625 C 14.300781 -6.179688 15.039062 -6.925781 15.84375 -8 C 16.144531 -8.382812 16.375 -8.554688 16.53125 -8.515625 C 16.695312 -8.472656 16.769531 -8.21875 16.75 -7.75 C 16.71875 -6.65625 16.734375 -5.5 16.796875 -4.28125 C 16.867188 -3.070312 16.945312 -1.929688 17.03125 -0.859375 C 17.113281 -0.117188 16.757812 0.222656 15.96875 0.171875 C 15.382812 0.140625 14.835938 0.164062 14.328125 0.25 C 13.828125 0.332031 13.285156 0.414062 12.703125 0.5 C 12.128906 0.582031 11.414062 0.625 10.5625 0.625 Z M 10.5625 0.625 "/></g></g></g><g fill="#fff6ea" fill-opacity="1"><g transform="translate(136.316429, 53.074806)"><g><path d="M 1.6875 0.125 C 0.863281 0.207031 0.535156 -0.148438 0.703125 -0.953125 C 0.835938 -1.742188 1.007812 -2.828125 1.21875 -4.203125 C 1.425781 -5.578125 1.601562 -7.144531 1.75 -8.90625 C 1.90625 -10.664062 1.984375 -12.507812 1.984375 -14.4375 C 1.984375 -16.363281 1.90625 -18.207031 1.75 -19.96875 C 1.601562 -21.726562 1.425781 -23.300781 1.21875 -24.6875 C 1.007812 -26.070312 0.835938 -27.148438 0.703125 -27.921875 C 0.535156 -28.722656 0.863281 -29.082031 1.6875 -29 C 2.757812 -28.882812 3.941406 -28.789062 5.234375 -28.71875 C 6.523438 -28.65625 7.820312 -28.625 9.125 -28.625 C 10.4375 -28.625 11.679688 -28.65625 12.859375 -28.71875 C 14.046875 -28.789062 15.066406 -28.898438 15.921875 -29.046875 C 16.660156 -29.179688 16.988281 -28.804688 16.90625 -27.921875 C 16.851562 -26.992188 16.828125 -26.125 16.828125 -25.3125 C 16.828125 -24.5 16.851562 -23.5 16.90625 -22.3125 C 16.90625 -21.375 16.492188 -21.171875 15.671875 -21.703125 C 14.734375 -22.390625 13.796875 -22.847656 12.859375 -23.078125 C 11.929688 -23.316406 11.082031 -23.4375 10.3125 -23.4375 C 9.539062 -23.4375 8.910156 -23.421875 8.421875 -23.390625 C 8.421875 -23.390625 8.382812 -23.046875 8.3125 -22.359375 C 8.238281 -21.671875 8.160156 -20.820312 8.078125 -19.8125 C 8.003906 -18.8125 7.925781 -17.816406 7.84375 -16.828125 C 8.632812 -16.828125 9.445312 -16.9375 10.28125 -17.15625 C 11.125 -17.375 11.847656 -17.625 12.453125 -17.90625 C 12.816406 -18.039062 13.078125 -18.066406 13.234375 -17.984375 C 13.398438 -17.898438 13.457031 -17.65625 13.40625 -17.25 C 13.375 -16.863281 13.351562 -16.46875 13.34375 -16.0625 C 13.332031 -15.664062 13.328125 -15.25 13.328125 -14.8125 C 13.328125 -14.425781 13.328125 -14.03125 13.328125 -13.625 C 13.328125 -13.226562 13.335938 -12.835938 13.359375 -12.453125 C 13.441406 -11.679688 13.113281 -11.460938 12.375 -11.796875 C 11.769531 -12.046875 11.039062 -12.265625 10.1875 -12.453125 C 9.332031 -12.648438 8.535156 -12.75 7.796875 -12.75 C 7.847656 -12 7.90625 -11.203125 7.96875 -10.359375 C 8.039062 -9.523438 8.113281 -8.738281 8.1875 -8 C 8.257812 -7.257812 8.316406 -6.65625 8.359375 -6.1875 C 8.398438 -5.71875 8.421875 -5.484375 8.421875 -5.484375 C 8.910156 -5.453125 9.582031 -5.457031 10.4375 -5.5 C 11.289062 -5.539062 12.234375 -5.707031 13.265625 -6 C 14.296875 -6.289062 15.289062 -6.804688 16.25 -7.546875 C 16.914062 -7.984375 17.234375 -7.816406 17.203125 -7.046875 C 17.148438 -6.054688 17.128906 -5.003906 17.140625 -3.890625 C 17.148438 -2.785156 17.210938 -1.789062 17.328125 -0.90625 C 17.410156 -0.132812 17.066406 0.207031 16.296875 0.125 C 15.140625 -0.0078125 13.914062 -0.0976562 12.625 -0.140625 C 11.332031 -0.179688 10.066406 -0.203125 8.828125 -0.203125 C 6.109375 -0.203125 3.726562 -0.09375 1.6875 0.125 Z M 1.6875 0.125 "/></g></g></g><g fill="#fff6ea" fill-opacity="1"><g transform="translate(155.616943, 53.074806)"><g><path d="M 9.28125 0.28125 C 8.238281 0.28125 7.335938 0.238281 6.578125 0.15625 C 5.816406 0.0820312 5.066406 0.0234375 4.328125 -0.015625 C 3.585938 -0.0546875 2.707031 -0.0078125 1.6875 0.125 C 1.332031 0.15625 1.050781 0.0820312 0.84375 -0.09375 C 0.632812 -0.28125 0.585938 -0.566406 0.703125 -0.953125 C 0.835938 -1.742188 1 -2.828125 1.1875 -4.203125 C 1.382812 -5.578125 1.554688 -7.144531 1.703125 -8.90625 C 1.859375 -10.664062 1.9375 -12.507812 1.9375 -14.4375 C 1.9375 -16.363281 1.859375 -18.207031 1.703125 -19.96875 C 1.554688 -21.726562 1.382812 -23.300781 1.1875 -24.6875 C 1 -26.070312 0.835938 -27.148438 0.703125 -27.921875 C 0.585938 -28.304688 0.632812 -28.59375 0.84375 -28.78125 C 1.050781 -28.976562 1.332031 -29.050781 1.6875 -29 C 2.738281 -28.882812 3.617188 -28.84375 4.328125 -28.875 C 5.046875 -28.90625 5.773438 -28.957031 6.515625 -29.03125 C 7.253906 -29.113281 8.175781 -29.15625 9.28125 -29.15625 C 12.414062 -29.15625 14.875 -27.910156 16.65625 -25.421875 C 18.445312 -22.941406 19.34375 -19.40625 19.34375 -14.8125 C 19.34375 -11.757812 18.9375 -9.097656 18.125 -6.828125 C 17.3125 -4.554688 16.15625 -2.800781 14.65625 -1.5625 C 13.164062 -0.332031 11.375 0.28125 9.28125 0.28125 Z M 7.796875 -4.75 L 9.28125 -4.75 C 10.488281 -4.75 11.503906 -5.53125 12.328125 -7.09375 C 13.160156 -8.664062 13.578125 -11.238281 13.578125 -14.8125 C 13.578125 -17.226562 13.410156 -19.109375 13.078125 -20.453125 C 12.742188 -21.804688 12.320312 -22.765625 11.8125 -23.328125 C 11.3125 -23.890625 10.753906 -24.171875 10.140625 -24.171875 C 9.453125 -24.171875 8.957031 -23.804688 8.65625 -23.078125 C 8.351562 -22.347656 8.148438 -21.53125 8.046875 -20.625 C 7.960938 -19.664062 7.890625 -18.660156 7.828125 -17.609375 C 7.773438 -16.566406 7.75 -15.507812 7.75 -14.4375 C 7.75 -12.625 7.753906 -10.890625 7.765625 -9.234375 C 7.785156 -7.585938 7.796875 -6.09375 7.796875 -4.75 Z M 7.796875 -4.75 "/></g></g></g></g></g><g fill="#5301de" fill-opacity="1"><g transform="translate(74.966772, 84.845674)"><g><path d="M 58.515625 -35.25 C 58.710938 -34.019531 58.695312 -32.410156 58.46875 -30.421875 C 58.238281 -28.429688 57.820312 -26.1875 57.21875 -23.6875 C 56.625 -21.1875 55.851562 -18.550781 54.90625 -15.78125 C 53.96875 -13.019531 52.882812 -10.242188 51.65625 -7.453125 C 50.425781 -4.671875 49.082031 -1.988281 47.625 0.59375 C 46.164062 3.175781 44.613281 5.53125 42.96875 7.65625 C 41.332031 9.78125 39.625 11.554688 37.84375 12.984375 C 35.519531 14.835938 33.5625 15.363281 31.96875 14.5625 C 30.738281 13.96875 29.847656 12.71875 29.296875 10.8125 C 28.753906 8.90625 28.425781 6.519531 28.3125 3.65625 C 28.195312 0.789062 28.171875 -2.398438 28.234375 -5.921875 C 28.234375 -7.140625 28.234375 -8.425781 28.234375 -9.78125 C 28.234375 -11.144531 28.207031 -12.375 28.15625 -13.46875 C 28.113281 -14.5625 27.992188 -15.328125 27.796875 -15.765625 C 27.660156 -15.628906 27.4375 -15.351562 27.125 -14.9375 C 26.8125 -14.519531 26.367188 -13.832031 25.796875 -12.875 C 18.609375 -0.0820312 13.007812 9.226562 9 15.0625 C 7.601562 17.019531 6.441406 18.550781 5.515625 19.65625 C 4.585938 20.769531 3.804688 21.550781 3.171875 22 C 2.546875 22.445312 2.019531 22.671875 1.59375 22.671875 C 1.363281 22.671875 1.128906 22.617188 0.890625 22.515625 C 0.597656 22.390625 0.347656 22.160156 0.140625 21.828125 C -0.0546875 21.492188 -0.171875 20.953125 -0.203125 20.203125 C -0.234375 19.460938 -0.144531 18.40625 0.0625 17.03125 C 0.28125 15.65625 0.6875 13.863281 1.28125 11.65625 C 1.882812 9.457031 2.703125 6.71875 3.734375 3.4375 C 4.585938 0.78125 5.519531 -2.003906 6.53125 -4.921875 C 7.539062 -7.835938 8.582031 -10.769531 9.65625 -13.71875 C 10.738281 -16.664062 11.796875 -19.515625 12.828125 -22.265625 C 13.859375 -25.023438 14.820312 -27.582031 15.71875 -29.9375 C 17.070312 -33.445312 18.238281 -36.300781 19.21875 -38.5 C 20.195312 -40.707031 21.03125 -42.40625 21.71875 -43.59375 C 22.414062 -44.789062 22.988281 -45.628906 23.4375 -46.109375 C 23.882812 -46.585938 24.25 -46.851562 24.53125 -46.90625 C 24.8125 -46.957031 25.050781 -46.96875 25.25 -46.9375 C 25.914062 -46.769531 26.320312 -46.238281 26.46875 -45.34375 C 26.625 -44.445312 26.648438 -43.285156 26.546875 -41.859375 C 26.546875 -41.597656 26.445312 -41.382812 26.25 -41.21875 C 26.050781 -41.050781 25.820312 -40.96875 25.5625 -40.96875 C 25.289062 -41 25.070312 -41.113281 24.90625 -41.3125 C 24.738281 -41.507812 24.65625 -41.742188 24.65625 -42.015625 C 24.6875 -42.710938 24.703125 -43.265625 24.703125 -43.671875 C 24.703125 -44.085938 24.6875 -44.410156 24.65625 -44.640625 C 24.320312 -44.242188 23.84375 -43.46875 23.21875 -42.3125 C 22.59375 -41.15625 21.804688 -39.515625 20.859375 -37.390625 C 19.910156 -35.265625 18.789062 -32.546875 17.5 -29.234375 C 14.851562 -22.335938 12.613281 -16.335938 10.78125 -11.234375 C 8.957031 -6.128906 7.457031 -1.78125 6.28125 1.8125 C 5.113281 5.40625 4.203125 8.378906 3.546875 10.734375 C 2.898438 13.085938 2.4375 14.953125 2.15625 16.328125 C 1.875 17.703125 1.71875 18.710938 1.6875 19.359375 C 1.65625 20.003906 1.671875 20.445312 1.734375 20.6875 C 1.929688 20.582031 2.265625 20.3125 2.734375 19.875 C 3.203125 19.445312 3.863281 18.695312 4.71875 17.625 C 5.582031 16.550781 6.710938 14.984375 8.109375 12.921875 C 12.046875 7.085938 17.394531 -1.828125 24.15625 -13.828125 C 25.050781 -15.410156 25.8125 -16.5 26.4375 -17.09375 C 27.070312 -17.695312 27.707031 -17.914062 28.34375 -17.75 C 29.269531 -17.488281 29.816406 -16.425781 29.984375 -14.5625 C 30.148438 -12.707031 30.195312 -9.804688 30.125 -5.859375 C 30.125 -4.140625 30.125 -2.273438 30.125 -0.265625 C 30.125 1.734375 30.195312 3.671875 30.34375 5.546875 C 30.5 7.421875 30.765625 9.019531 31.140625 10.34375 C 31.523438 11.664062 32.082031 12.492188 32.8125 12.828125 C 33.34375 13.085938 33.972656 13.046875 34.703125 12.703125 C 35.429688 12.359375 36.078125 11.953125 36.640625 11.484375 C 38.597656 9.921875 40.476562 7.890625 42.28125 5.390625 C 44.09375 2.890625 45.773438 0.125 47.328125 -2.90625 C 48.890625 -5.9375 50.289062 -9.039062 51.53125 -12.21875 C 52.769531 -15.40625 53.8125 -18.484375 54.65625 -21.453125 C 55.507812 -24.421875 56.109375 -27.082031 56.453125 -29.4375 C 56.804688 -31.789062 56.863281 -33.628906 56.625 -34.953125 C 56.5 -35.816406 56.269531 -36.296875 55.9375 -36.390625 C 55.863281 -36.421875 55.644531 -36.394531 55.28125 -36.3125 C 54.914062 -36.238281 54.335938 -35.832031 53.546875 -35.09375 C 53.347656 -34.9375 53.113281 -34.863281 52.84375 -34.875 C 52.582031 -34.894531 52.367188 -35.003906 52.203125 -35.203125 C 52.003906 -35.398438 51.910156 -35.628906 51.921875 -35.890625 C 51.941406 -36.160156 52.050781 -36.378906 52.25 -36.546875 C 53.976562 -38.066406 55.421875 -38.628906 56.578125 -38.234375 C 57.609375 -37.867188 58.253906 -36.875 58.515625 -35.25 Z M 58.515625 -35.25 "/></g></g></g><g fill="#5301de" fill-opacity="1"><g transform="translate(132.582294, 84.845674)"><g><path d="M 18 -10.84375 C 18.226562 -10.675781 18.359375 -10.457031 18.390625 -10.1875 C 18.429688 -9.925781 18.367188 -9.695312 18.203125 -9.5 C 17.335938 -8.40625 16.332031 -7.425781 15.1875 -6.5625 C 14.039062 -5.695312 12.847656 -5.054688 11.609375 -4.640625 C 10.367188 -4.234375 9.164062 -4.160156 8 -4.421875 C 7.539062 -3.265625 6.882812 -2.367188 6.03125 -1.734375 C 5.1875 -1.109375 4.335938 -0.796875 3.484375 -0.796875 C 3.484375 -0.796875 3.472656 -0.796875 3.453125 -0.796875 C 3.441406 -0.796875 3.4375 -0.796875 3.4375 -0.796875 C 2.539062 -0.828125 1.75 -1.128906 1.0625 -1.703125 C 0.382812 -2.285156 -0.0820312 -3.09375 -0.34375 -4.125 C -0.644531 -5.28125 -0.695312 -6.378906 -0.5 -7.421875 C -0.300781 -8.472656 0.0625 -9.394531 0.59375 -10.1875 C 1.125 -10.988281 1.722656 -11.601562 2.390625 -12.03125 C 2.617188 -12.195312 2.882812 -12.226562 3.1875 -12.125 C 3.476562 -12.851562 3.894531 -13.414062 4.4375 -13.8125 C 4.988281 -14.21875 5.566406 -14.367188 6.171875 -14.265625 C 6.535156 -14.203125 6.929688 -13.976562 7.359375 -13.59375 C 7.785156 -13.21875 8.128906 -12.539062 8.390625 -11.5625 C 8.660156 -10.582031 8.75 -9.148438 8.65625 -7.265625 C 8.613281 -6.929688 8.5625 -6.597656 8.5 -6.265625 C 9.394531 -6.097656 10.335938 -6.195312 11.328125 -6.5625 C 12.328125 -6.925781 13.289062 -7.476562 14.21875 -8.21875 C 15.144531 -8.96875 15.957031 -9.789062 16.65625 -10.6875 C 16.820312 -10.882812 17.035156 -11 17.296875 -11.03125 C 17.566406 -11.070312 17.800781 -11.007812 18 -10.84375 Z M 3.484375 -2.734375 C 3.910156 -2.734375 4.390625 -2.929688 4.921875 -3.328125 C 5.453125 -3.722656 5.882812 -4.320312 6.21875 -5.125 C 5.019531 -5.78125 4.164062 -6.539062 3.65625 -7.40625 C 3.144531 -8.269531 2.867188 -9.132812 2.828125 -10 C 2.140625 -9.332031 1.6875 -8.484375 1.46875 -7.453125 C 1.25 -6.429688 1.253906 -5.503906 1.484375 -4.671875 C 1.585938 -4.304688 1.785156 -3.890625 2.078125 -3.421875 C 2.378906 -2.960938 2.847656 -2.734375 3.484375 -2.734375 Z M 6.71875 -7.359375 C 6.78125 -8.679688 6.753906 -9.707031 6.640625 -10.4375 C 6.523438 -11.164062 6.382812 -11.660156 6.21875 -11.921875 C 6.050781 -12.191406 5.929688 -12.34375 5.859375 -12.375 C 5.828125 -12.375 5.8125 -12.375 5.8125 -12.375 C 5.71875 -12.375 5.570312 -12.273438 5.375 -12.078125 C 5.175781 -11.878906 5.007812 -11.582031 4.875 -11.1875 C 4.675781 -10.550781 4.691406 -9.859375 4.921875 -9.109375 C 5.148438 -8.367188 5.75 -7.6875 6.71875 -7.0625 C 6.71875 -7.15625 6.71875 -7.253906 6.71875 -7.359375 Z M 6.71875 -7.359375 "/></g></g></g><g fill="#5301de" fill-opacity="1"><g transform="translate(148.191657, 84.845674)"><g><path d="M 21.828125 -11.28125 C 22.054688 -11.15625 22.21875 -10.96875 22.3125 -10.71875 C 22.414062 -10.46875 22.40625 -10.226562 22.28125 -10 C 21.644531 -8.632812 20.867188 -7.109375 19.953125 -5.421875 C 19.046875 -3.734375 18.078125 -2.035156 17.046875 -0.328125 C 16.023438 1.378906 14.984375 2.9375 13.921875 4.34375 C 12.859375 5.757812 11.828125 6.90625 10.828125 7.78125 C 9.835938 8.65625 8.945312 9.09375 8.15625 9.09375 C 7.925781 9.09375 7.707031 9.046875 7.5 8.953125 C 6.8125 8.679688 6.359375 8.046875 6.140625 7.046875 C 5.921875 6.054688 5.945312 4.632812 6.21875 2.78125 C 6.675781 -0.5625 7.898438 -5.300781 9.890625 -11.4375 C 9.859375 -11.4375 9.832031 -11.425781 9.8125 -11.40625 C 9.800781 -11.394531 9.78125 -11.390625 9.75 -11.390625 C 9.082031 -10.921875 8.285156 -10.4375 7.359375 -9.9375 C 6.429688 -9.445312 5.46875 -9.117188 4.46875 -8.953125 C 3.476562 -8.785156 2.535156 -9 1.640625 -9.59375 C 0.378906 -10.488281 -0.265625 -11.734375 -0.296875 -13.328125 C -0.328125 -14.921875 0.265625 -16.660156 1.484375 -18.546875 C 1.890625 -19.140625 2.414062 -19.800781 3.0625 -20.53125 C 3.707031 -21.257812 4.382812 -21.820312 5.09375 -22.21875 C 5.8125 -22.625 6.453125 -22.644531 7.015625 -22.28125 C 7.304688 -22.113281 7.523438 -21.828125 7.671875 -21.421875 C 7.828125 -21.023438 7.820312 -20.410156 7.65625 -19.578125 C 7.488281 -18.753906 7.085938 -17.644531 6.453125 -16.25 C 5.828125 -14.863281 4.882812 -13.0625 3.625 -10.84375 C 4.382812 -10.738281 5.238281 -10.953125 6.1875 -11.484375 C 7.132812 -12.015625 7.972656 -12.515625 8.703125 -12.984375 C 9.398438 -13.441406 9.976562 -13.773438 10.4375 -13.984375 C 10.90625 -14.203125 11.335938 -14.164062 11.734375 -13.875 C 12.097656 -13.570312 12.242188 -13.203125 12.171875 -12.765625 C 12.109375 -12.335938 12.046875 -12.007812 11.984375 -11.78125 C 10.890625 -8.332031 10.039062 -5.460938 9.4375 -3.171875 C 8.84375 -0.890625 8.4375 0.941406 8.21875 2.328125 C 8.007812 3.722656 7.90625 4.769531 7.90625 5.46875 C 7.90625 6.164062 7.953125 6.617188 8.046875 6.828125 C 8.148438 7.046875 8.203125 7.171875 8.203125 7.203125 C 8.597656 7.273438 9.414062 6.640625 10.65625 5.296875 C 11.90625 3.953125 13.390625 1.929688 15.109375 -0.765625 C 16.835938 -3.472656 18.644531 -6.8125 20.53125 -10.78125 C 20.664062 -11.050781 20.859375 -11.226562 21.109375 -11.3125 C 21.359375 -11.394531 21.597656 -11.382812 21.828125 -11.28125 Z M 1.796875 -14.671875 C 1.585938 -13.972656 1.523438 -13.398438 1.609375 -12.953125 C 1.691406 -12.503906 1.816406 -12.144531 1.984375 -11.875 C 3.046875 -13.738281 3.847656 -15.25 4.390625 -16.40625 C 4.941406 -17.5625 5.316406 -18.453125 5.515625 -19.078125 C 5.710938 -19.710938 5.828125 -20.164062 5.859375 -20.4375 C 5.492188 -20.238281 5.035156 -19.859375 4.484375 -19.296875 C 3.941406 -18.734375 3.414062 -18.050781 2.90625 -17.25 C 2.394531 -16.457031 2.023438 -15.597656 1.796875 -14.671875 Z M 1.796875 -14.671875 "/></g></g></g><g fill="#5301de" fill-opacity="1"><g transform="translate(167.728223, 84.845674)"><g><path d="M 21.234375 -41.515625 C 21.328125 -41.453125 21.421875 -41.296875 21.515625 -41.046875 C 21.617188 -40.796875 21.671875 -40.363281 21.671875 -39.75 C 21.671875 -39.132812 21.535156 -38.238281 21.265625 -37.0625 C 21.003906 -35.882812 20.5625 -34.316406 19.9375 -32.359375 C 19.832031 -32.097656 19.738281 -31.828125 19.65625 -31.546875 C 19.582031 -31.265625 19.492188 -30.988281 19.390625 -30.71875 C 18.628906 -28.332031 17.703125 -25.65625 16.609375 -22.6875 C 15.515625 -19.726562 14.039062 -16.492188 12.1875 -12.984375 C 11.75 -10.828125 11.296875 -8.53125 10.828125 -6.09375 C 10.367188 -3.65625 9.910156 -1.078125 9.453125 1.640625 C 8.847656 5.316406 8.367188 8.347656 8.015625 10.734375 C 7.671875 13.117188 7.429688 15.015625 7.296875 16.421875 C 7.171875 17.835938 7.09375 18.910156 7.0625 19.640625 C 7.320312 19.535156 7.585938 19.535156 7.859375 19.640625 C 8.085938 19.773438 8.242188 19.960938 8.328125 20.203125 C 8.410156 20.453125 8.398438 20.695312 8.296875 20.9375 C 8.128906 21.300781 7.894531 21.707031 7.59375 22.15625 C 7.300781 22.601562 6.941406 22.828125 6.515625 22.828125 C 6.378906 22.828125 6.242188 22.804688 6.109375 22.765625 C 5.785156 22.671875 5.539062 22.429688 5.375 22.046875 C 5.207031 21.671875 5.128906 20.941406 5.140625 19.859375 C 5.160156 18.785156 5.300781 17.15625 5.5625 14.96875 C 5.96875 11.519531 6.632812 6.976562 7.5625 1.34375 C 8.09375 -1.738281 8.640625 -4.738281 9.203125 -7.65625 C 8.703125 -6.863281 8.175781 -6.050781 7.625 -5.21875 C 7.082031 -4.394531 6.515625 -3.550781 5.921875 -2.6875 C 5.023438 -1.363281 4.210938 -0.429688 3.484375 0.109375 C 2.753906 0.660156 2.113281 0.953125 1.5625 0.984375 C 1.019531 1.023438 0.566406 0.945312 0.203125 0.75 C -0.523438 0.3125 -0.988281 -0.453125 -1.1875 -1.546875 C -1.382812 -2.640625 -1.359375 -3.875 -1.109375 -5.25 C -0.867188 -6.625 -0.46875 -7.941406 0.09375 -9.203125 C 1.257812 -11.648438 2.59375 -13.378906 4.09375 -14.390625 C 5.601562 -15.398438 6.890625 -15.757812 7.953125 -15.46875 C 8.179688 -15.363281 8.546875 -15.132812 9.046875 -14.78125 C 9.546875 -14.4375 9.84375 -13.785156 9.9375 -12.828125 C 10.101562 -13.085938 10.253906 -13.351562 10.390625 -13.625 C 11.617188 -19.320312 12.828125 -24.234375 14.015625 -28.359375 C 15.210938 -32.484375 16.332031 -35.695312 17.375 -38 C 18.414062 -40.3125 19.300781 -41.582031 20.03125 -41.8125 C 20.5 -41.976562 20.898438 -41.878906 21.234375 -41.515625 Z M 4.375 -3.78125 C 5.164062 -4.9375 5.914062 -6.078125 6.625 -7.203125 C 7.34375 -8.335938 8.019531 -9.453125 8.65625 -10.546875 C 8.15625 -10.703125 7.953125 -11.03125 8.046875 -11.53125 C 8.046875 -11.757812 8.035156 -12.128906 8.015625 -12.640625 C 8.003906 -13.160156 7.800781 -13.488281 7.40625 -13.625 C 7.34375 -13.65625 7.242188 -13.671875 7.109375 -13.671875 C 6.484375 -13.671875 5.660156 -13.238281 4.640625 -12.375 C 3.628906 -11.519531 2.695312 -10.179688 1.84375 -8.359375 C 1.28125 -7.160156 0.914062 -6.019531 0.75 -4.9375 C 0.582031 -3.863281 0.546875 -2.960938 0.640625 -2.234375 C 0.742188 -1.503906 0.925781 -1.070312 1.1875 -0.9375 C 1.289062 -0.875 1.609375 -0.988281 2.140625 -1.28125 C 2.671875 -1.582031 3.414062 -2.414062 4.375 -3.78125 Z M 18.09375 -32.96875 C 18.488281 -34.125 18.796875 -35.125 19.015625 -35.96875 C 19.234375 -36.8125 19.410156 -37.535156 19.546875 -38.140625 C 18.910156 -36.847656 18.144531 -34.890625 17.25 -32.265625 C 16.351562 -29.648438 15.375 -26.285156 14.3125 -22.171875 C 15.007812 -23.859375 15.613281 -25.460938 16.125 -26.984375 C 16.644531 -28.515625 17.117188 -29.941406 17.546875 -31.265625 C 17.648438 -31.566406 17.742188 -31.859375 17.828125 -32.140625 C 17.910156 -32.421875 18 -32.695312 18.09375 -32.96875 Z M 18.09375 -32.96875 "/></g></g></g><g fill="#5301de" fill-opacity="1"><g transform="translate(183.28789, 84.845674)"><g><path d="M 22.125 -11.390625 C 22.320312 -11.222656 22.4375 -11.003906 22.46875 -10.734375 C 22.5 -10.472656 22.414062 -10.242188 22.21875 -10.046875 C 21.257812 -8.921875 20.195312 -7.675781 19.03125 -6.3125 C 17.875 -4.957031 16.738281 -3.628906 15.625 -2.328125 C 14.519531 -1.035156 13.566406 0.078125 12.765625 1.015625 C 11.972656 1.960938 11.445312 2.601562 11.1875 2.9375 C 10.625 3.664062 10.078125 4.378906 9.546875 5.078125 C 9.972656 6.992188 10.007812 8.804688 9.65625 10.515625 C 9.3125 12.222656 8.734375 13.738281 7.921875 15.0625 C 7.117188 16.382812 6.269531 17.410156 5.375 18.140625 C 4.445312 18.941406 3.582031 19.34375 2.78125 19.34375 C 2.28125 19.34375 1.867188 19.175781 1.546875 18.84375 C 0.984375 18.3125 0.789062 17.523438 0.96875 16.484375 C 1.15625 15.441406 1.578125 14.253906 2.234375 12.921875 C 2.898438 11.597656 3.695312 10.222656 4.625 8.796875 C 5.550781 7.367188 6.492188 5.992188 7.453125 4.671875 C 7.285156 4.078125 7.050781 3.472656 6.75 2.859375 C 6.457031 2.242188 6.113281 1.625 5.71875 1 C 4.351562 -1.0625 3.195312 -2.992188 2.25 -4.796875 C 1.3125 -6.597656 0.875 -8.25 0.9375 -9.75 C 1.101562 -12.5 2.332031 -14.550781 4.625 -15.90625 C 5.550781 -16.46875 6.523438 -16.796875 7.546875 -16.890625 C 8.578125 -16.992188 9.523438 -16.847656 10.390625 -16.453125 C 10.617188 -16.328125 10.773438 -16.140625 10.859375 -15.890625 C 10.941406 -15.640625 10.9375 -15.398438 10.84375 -15.171875 C 10.707031 -14.929688 10.515625 -14.769531 10.265625 -14.6875 C 10.015625 -14.601562 9.773438 -14.613281 9.546875 -14.71875 C 8.347656 -15.28125 7.039062 -15.128906 5.625 -14.265625 C 3.894531 -13.242188 2.984375 -11.703125 2.890625 -9.640625 C 2.816406 -8.421875 3.226562 -6.976562 4.125 -5.3125 C 5.019531 -3.65625 6.082031 -1.914062 7.3125 -0.09375 C 7.9375 0.863281 8.445312 1.835938 8.84375 2.828125 C 9.113281 2.503906 9.394531 2.140625 9.6875 1.734375 C 9.957031 1.410156 10.5 0.769531 11.3125 -0.1875 C 12.125 -1.15625 13.078125 -2.285156 14.171875 -3.578125 C 15.265625 -4.867188 16.398438 -6.191406 17.578125 -7.546875 C 18.753906 -8.910156 19.820312 -10.15625 20.78125 -11.28125 C 20.945312 -11.476562 21.160156 -11.59375 21.421875 -11.625 C 21.691406 -11.664062 21.925781 -11.585938 22.125 -11.390625 Z M 5.96875 14.625 C 6.195312 14.257812 6.476562 13.734375 6.8125 13.046875 C 7.144531 12.367188 7.429688 11.539062 7.671875 10.5625 C 7.921875 9.582031 8 8.5 7.90625 7.3125 C 6.382812 9.46875 5.25 11.253906 4.5 12.671875 C 3.75 14.097656 3.265625 15.179688 3.046875 15.921875 C 2.835938 16.671875 2.765625 17.164062 2.828125 17.40625 C 3.066406 17.40625 3.484375 17.1875 4.078125 16.75 C 4.671875 16.320312 5.300781 15.613281 5.96875 14.625 Z M 5.96875 14.625 "/></g></g></g></svg>
